<svg xmlns="http://www.w3.org/2000/svg" viewBox="0 0 57 60"><defs><style>.cls-1{fill:#5e9d5e;}</style></defs><g id="_1" data-name="1"><g id="_37_Web_Page_Edit_Tools_Write" data-name="37, Web Page, Edit, Tools, Write"><path class="cls-1" d="M16.19,12.89a1.32,1.32,0,1,1-1.32,1.31A1.31,1.31,0,0,1,16.19,12.89Z"/><path class="cls-1" d="M12.45,12.89a1.32,1.32,0,1,1-1.31,1.31A1.31,1.31,0,0,1,12.45,12.89Z"/><path class="cls-1" d="M8.62,12.89A1.32,1.32,0,1,1,7.3,14.2,1.31,1.31,0,0,1,8.62,12.89Z"/><path class="cls-1" d="M10.53,7.84A2.52,2.52,0,1,0,8,5.32,2.5,2.5,0,0,0,10.53,7.84Zm0-3.73a1.34,1.34,0,0,1,1.32,1.31,1.32,1.32,0,0,1-2.63,0A1.28,1.28,0,0,1,10.53,4.11Z"/><path class="cls-1" d="M45.56,7.24A3.4,3.4,0,0,0,49,3.81a3.43,3.43,0,0,0-6.86,0A3.4,3.4,0,0,0,45.56,7.24Zm0-5.65a2.24,2.24,0,0,1,2.22,2.22,2.22,2.22,0,1,1-4.44,0A2.24,2.24,0,0,1,45.56,1.59Z"/><path class="cls-1" d="M1.35,9.16a.91.91,0,1,1-.91.91A.91.91,0,0,1,1.35,9.16Z"/><path class="cls-1" d="M19,2.9a.91.91,0,1,1-.91.91A.91.91,0,0,1,19,2.9Z"/><path class="cls-1" d="M36.68,4.11a.91.91,0,1,1-.91.91A.9.9,0,0,1,36.68,4.11Z"/><path class="cls-1" d="M25.37,6.63a.91.91,0,1,1-.91.91A.91.91,0,0,1,25.37,6.63Z"/><path class="cls-1" d="M55.65,9.16a.91.91,0,1,1-.91.91A.91.91,0,0,1,55.65,9.16Z"/><path class="cls-1" d="M49.39,9.76H7a4.05,4.05,0,0,0-4,4V55.59a4,4,0,0,0,4,4H49.39a4,4,0,0,0,4-4V13.8A4.05,4.05,0,0,0,49.39,9.76Zm-25,5.05H52.12v2.52H24.36ZM52.12,13.6H24.36V11.07h25A2.75,2.75,0,0,1,52.12,13.6ZM7,11.07H23.15v6.26h-19V13.8A2.81,2.81,0,0,1,7,11.07ZM49.39,58.31H7a2.82,2.82,0,0,1-2.83-2.82V18.64H52.12v37A2.71,2.71,0,0,1,49.39,58.31Z"/><path class="cls-1" d="M47.78,22.38H8.62A.65.65,0,0,0,8,23V53.87a.66.66,0,0,0,.61.61H47.78a.65.65,0,0,0,.6-.61V23A.65.65,0,0,0,47.78,22.38Zm-.71,30.89H9.22V23.69H47.07Z"/><path class="cls-1" d="M18.81,47.71H38a.91.91,0,0,1,0,1.82H28.2a.61.61,0,1,0,0,1.21H38a2.12,2.12,0,0,0,0-4.24H22.75a21.25,21.25,0,0,1,3.13-1c.1,0,.1-.1.2-.1l12-12A3.78,3.78,0,1,0,32.74,28L20.53,40.24c0,.11-.51,1.62-2.22,6.77C18.1,47.31,18.41,47.71,18.81,47.71ZM31.73,30.55,33,31.87l-8.58,8.68L22.34,40Zm-5.85,13-.51-2.12,8.68-8.68,1.31,1.31Zm7.67-14.74a2.5,2.5,0,1,1,3.53,3.53l-.91.91-3.53-3.53ZM21.43,41.15l2.63.71.71,2.62L19.82,46.1Z"/></g></g></svg>