<?xml version="1.0"?>
<svg xmlns="http://www.w3.org/2000/svg" fill="red" id="Camada_1" viewBox="0 0 60 457" style="height: 100% ;"><rect class="st-0" x="2.77" y="97.95" width="17.36" height="2"/><rect class="st-0" x="2.77" y="41.57" width="17.36" height="2"/><rect class="st-0" x="2.76" y="168.67" width="17.37" height="2"/><g><path class="st-0" d="M1.28,97.19v-.43l.55-.54c1.33-1.26,1.93-1.93,1.94-2.72,0-.53-.26-1.01-1.03-1.01-.47,0-.86,.24-1.1,.44l-.22-.5c.36-.3,.87-.53,1.47-.53,1.12,0,1.59,.77,1.59,1.51,0,.96-.7,1.74-1.79,2.79l-.41,.38v.02h2.33v.58H1.28Z"/><path class="st-0" d="M8.84,94.54c0,1.77-.66,2.74-1.81,2.74-1.02,0-1.7-.95-1.72-2.67,0-1.74,.75-2.7,1.81-2.7s1.72,.98,1.72,2.63Zm-2.82,.08c0,1.35,.42,2.12,1.06,2.12,.72,0,1.06-.84,1.06-2.17s-.33-2.12-1.06-2.12c-.61,0-1.06,.75-1.06,2.17Z"/><path class="st-0" d="M12.94,94.54c0,1.77-.66,2.74-1.81,2.74-1.02,0-1.7-.95-1.72-2.67,0-1.74,.75-2.7,1.81-2.7s1.72,.98,1.72,2.63Zm-2.82,.08c0,1.35,.42,2.12,1.06,2.12,.72,0,1.06-.84,1.06-2.17s-.33-2.12-1.06-2.12c-.61,0-1.06,.75-1.06,2.17Z"/><path class="st-0" d="M16.57,97.05c-.18,.1-.59,.22-1.11,.22-1.17,0-1.93-.79-1.93-1.97s.82-2.06,2.08-2.06c.42,0,.78,.1,.98,.2l-.16,.54c-.17-.1-.43-.18-.82-.18-.89,0-1.37,.66-1.37,1.46,0,.9,.58,1.45,1.34,1.45,.4,0,.66-.1,.86-.19l.12,.53h0Z"/><path class="st-0" d="M20.11,97.05c-.18,.1-.59,.22-1.11,.22-1.17,0-1.93-.79-1.93-1.97s.82-2.06,2.08-2.06c.42,0,.78,.1,.98,.2l-.16,.54c-.17-.1-.43-.18-.82-.18-.89,0-1.37,.66-1.37,1.46,0,.9,.58,1.45,1.34,1.45,.4,0,.66-.1,.86-.19l.12,.53h0Z"/></g><g><path class="st-0" d="M2.81,163.2h-.02l-.9,.49-.14-.54,1.14-.61h.6v5.2h-.68v-4.54h0Z"/><path class="st-0" d="M8.84,165.08c0,1.77-.66,2.74-1.81,2.74-1.02,0-1.7-.95-1.72-2.67,0-1.74,.75-2.7,1.81-2.7s1.72,.98,1.72,2.63h0Zm-2.82,.08c0,1.35,.42,2.12,1.06,2.12,.72,0,1.06-.84,1.06-2.17s-.33-2.12-1.06-2.12c-.61,0-1.06,.75-1.06,2.17Z"/><path class="st-0" d="M12.94,165.08c0,1.77-.66,2.74-1.81,2.74-1.02,0-1.7-.95-1.72-2.67,0-1.74,.75-2.7,1.81-2.7s1.72,.98,1.72,2.63h0Zm-2.82,.08c0,1.35,.42,2.12,1.06,2.12,.72,0,1.06-.84,1.06-2.17s-.33-2.12-1.06-2.12c-.61,0-1.06,.75-1.06,2.17Z"/><path class="st-0" d="M16.57,167.59c-.18,.1-.59,.23-1.11,.23-1.17,0-1.93-.79-1.93-1.98s.82-2.05,2.08-2.05c.42,0,.78,.1,.98,.2l-.16,.54c-.17-.1-.43-.18-.82-.18-.89,0-1.37,.66-1.37,1.46,0,.9,.58,1.45,1.34,1.45,.4,0,.66-.1,.86-.19l.12,.53h0Z"/><path class="st-0" d="M20.11,167.59c-.18,.1-.59,.23-1.11,.23-1.17,0-1.93-.79-1.93-1.98s.82-2.05,2.08-2.05c.42,0,.78,.1,.98,.2l-.16,.54c-.17-.1-.43-.18-.82-.18-.89,0-1.37,.66-1.37,1.46,0,.9,.58,1.45,1.34,1.45,.4,0,.66-.1,.86-.19l.12,.53h0Z"/></g><g><path class="st-0" d="M1.45,39.38c.2,.13,.66,.33,1.15,.33,.9,0,1.18-.58,1.18-1.01,0-.73-.66-1.04-1.34-1.04h-.39v-.53h.39c.51,0,1.16-.26,1.16-.88,0-.42-.27-.78-.91-.78-.41,0-.82,.18-1.04,.34l-.18-.51c.27-.2,.8-.4,1.36-.4,1.02,0,1.49,.61,1.49,1.24,0,.54-.32,.99-.96,1.22v.02c.64,.13,1.16,.61,1.16,1.33,0,.83-.65,1.56-1.9,1.56-.58,0-1.1-.18-1.35-.35l.19-.54h0Z"/><path class="st-0" d="M8.84,37.53c0,1.77-.66,2.74-1.81,2.74-1.02,0-1.7-.95-1.72-2.67,0-1.74,.75-2.7,1.81-2.7s1.72,.98,1.72,2.63Zm-2.82,.08c0,1.35,.42,2.12,1.06,2.12,.72,0,1.06-.84,1.06-2.17s-.33-2.12-1.06-2.12c-.61,0-1.06,.75-1.06,2.17Z"/><path class="st-0" d="M12.94,37.53c0,1.77-.66,2.74-1.81,2.74-1.02,0-1.7-.95-1.72-2.67,0-1.74,.75-2.7,1.81-2.7s1.72,.98,1.72,2.63Zm-2.82,.08c0,1.35,.42,2.12,1.06,2.12,.72,0,1.06-.84,1.06-2.17s-.33-2.12-1.06-2.12c-.61,0-1.06,.75-1.06,2.17Z"/><path class="st-0" d="M16.57,40.04c-.18,.1-.59,.22-1.11,.22-1.17,0-1.93-.79-1.93-1.97s.82-2.06,2.08-2.06c.42,0,.78,.1,.98,.2l-.16,.54c-.17-.1-.43-.18-.82-.18-.89,0-1.37,.66-1.37,1.46,0,.9,.58,1.45,1.34,1.45,.4,0,.66-.1,.86-.19l.12,.53h0Z"/><path class="st-0" d="M20.11,40.04c-.18,.1-.59,.22-1.11,.22-1.17,0-1.93-.79-1.93-1.97s.82-2.06,2.08-2.06c.42,0,.78,.1,.98,.2l-.16,.54c-.17-.1-.43-.18-.82-.18-.89,0-1.37,.66-1.37,1.46,0,.9,.58,1.45,1.34,1.45,.4,0,.66-.1,.86-.19l.12,.53h0Z"/></g></svg>
