<svg width="129" height="29" viewBox="0 0 129 29" fill="none" xmlns="http://www.w3.org/2000/svg">
<g clip-path="url(#clip0_279_31)">
<path d="M6.68483 2.5309C8.33301 2.5309 9.98359 2.55913 11.6294 2.5309C12.3006 2.51443 12.5848 2.74497 12.3794 3.36366C12.174 3.98236 12.3149 4.64575 12.3484 5.28797C12.3818 5.88784 12.1979 6.33716 11.4407 6.1819C9.80204 5.84315 8.15863 6.3701 6.51522 6.14661C6.05899 6.08545 5.98016 6.43832 5.97777 6.78648C5.97777 8.2105 5.97777 9.63295 5.97777 11.0538C5.97777 11.5243 6.23098 11.7102 6.71349 11.7596C8.22552 11.9383 9.74233 11.8772 11.252 11.8678C11.9996 11.8678 12.3173 12.0489 12.2457 12.8723C12.174 13.6956 12.2958 14.5496 12.346 15.387C12.3866 16.0316 12.2719 16.4198 11.4359 16.3727C9.95731 16.2927 8.47155 16.3727 6.99057 16.3139C6.23814 16.2857 5.91806 16.4903 5.94911 17.2855C6.00166 18.744 5.98733 20.2072 5.94911 21.6657C5.93239 22.3715 6.1402 22.6514 6.90458 22.6208C8.41661 22.5573 9.93342 22.6208 11.4431 22.5761C12.2576 22.5503 12.6708 22.7455 12.5777 23.6536C12.518 24.4602 12.518 25.27 12.5777 26.0766C12.6159 26.8576 12.2576 27.0928 11.51 27.0787C8.18651 27.016 4.86385 26.9736 1.542 26.9517C0.923333 26.9517 0.710748 26.6976 0.727469 26.1472C0.889898 20.6801 0.64387 15.213 0.837353 9.74586C0.909013 7.73687 0.91379 5.72631 0.851684 3.71418C0.825409 2.80849 1.01888 2.45327 2.02213 2.51208C3.58432 2.59912 5.13696 2.5309 6.68483 2.5309Z" fill="#B7C13E"/>
<path d="M27.1704 7.52718C26.8121 7.4966 26.6377 7.18373 26.3798 6.99553C24.9227 5.93222 23.2243 6.17452 22.1327 7.62363C21.0936 9.00688 20.8165 10.6442 20.5872 12.2862C20.2368 14.8642 20.437 17.4859 21.1748 19.9834C21.464 21.1329 22.1722 22.1376 23.1646 22.8064C24.3948 23.5874 25.6703 23.6062 26.8264 22.6534C27.4284 22.1571 27.6242 22.3523 27.7962 22.9804C28.0351 23.8579 28.2955 24.7307 28.6012 25.5846C28.8902 26.3891 28.6609 26.8102 27.8368 27.1325C22.7346 29.118 18.4016 27.1325 16.4476 22.0136C15.2987 19.0095 15.3226 15.9395 15.3512 12.8249C15.3775 10.1337 16.3808 7.74596 17.63 5.46173C19.0632 2.84345 23.0667 1.34024 25.9737 2.18712C26.9172 2.46236 27.8583 2.7423 28.6012 3.45979C28.95 3.8009 29.1076 4.06437 28.8401 4.53722C28.2429 5.51348 27.7198 6.52269 27.1704 7.52718Z" fill="#B7C13E"/>
<path d="M46.8215 12.9825C46.5038 10.2866 46.3199 7.55775 44.7792 5.16296C42.0513 0.928548 35.9865 1.025 33.1511 4.71835C32.2836 5.86991 31.7049 7.20721 31.4623 8.62106C30.9082 11.691 30.5069 14.7727 30.87 17.9062C31.1255 20.0234 31.362 22.1618 32.3533 24.119C33.636 26.6526 35.7237 27.9817 38.5806 28.0405C41.3491 28.0994 43.5013 26.9278 44.8485 24.5354C46.6018 21.4278 46.6901 17.9697 46.8311 14.5398C46.859 14.021 46.8558 13.501 46.8215 12.9825ZM41.3276 20.5527C41.2336 21.2931 40.99 22.0074 40.611 22.6534C40.1882 23.3451 39.6029 23.7473 38.7502 23.6979C37.8114 23.6438 37.1283 23.2557 36.8058 22.3359C35.9913 19.9834 35.9459 17.5698 35.9602 15.1374C35.9602 13.1589 36.0152 11.1829 36.3758 9.2327C36.4805 8.69282 36.6202 8.16008 36.7939 7.63774C37.1068 6.69676 37.8162 6.0663 38.7956 6.02396C39.8561 5.97926 40.4151 6.80027 40.7614 7.67067C41.1837 8.76353 41.4256 9.91591 41.4781 11.0841C41.6429 14.2411 41.8005 17.3957 41.3347 20.5527H41.3276Z" fill="#B7C13E"/>
<path d="M82.8678 20.2424C82.9905 21.7649 82.898 23.2969 82.5931 24.7944C82.419 25.7098 81.926 26.5366 81.199 27.1323C80.4721 27.7279 79.5569 28.0551 78.6112 28.0572C77.9853 28.0785 77.3587 28.0383 76.7409 27.9373C73.7479 27.4409 72.4412 26.0553 72.188 23.0724C72.0567 21.4868 71.9253 19.8989 71.8966 18.311C71.8274 14.3918 71.2135 10.4891 71.6004 6.54877C71.7605 4.90206 72.2573 3.49059 73.5257 2.31436C75.5322 0.474744 79.5093 0.524146 81.4346 2.46021C81.9267 2.98861 82.2629 3.63935 82.4068 4.34217C82.7022 5.61335 82.7973 6.92172 82.6887 8.22137C82.6433 9.00003 82.3113 9.43523 81.4466 9.33407C81.0251 9.25098 80.593 9.23431 80.1662 9.28467C79.0746 9.51992 78.9958 8.99062 79.0818 8.12492C79.1678 7.25921 79.2179 6.3794 78.9814 5.51369C78.7951 4.83148 78.6208 4.15633 77.7131 4.14927C76.7265 4.14927 75.7711 4.75856 75.5943 5.56074C75.4389 6.19075 75.3493 6.83474 75.3268 7.4827C75.2694 12.3099 74.9804 17.1277 75.3745 21.962C75.4246 22.5098 75.5401 23.0499 75.7185 23.5711C76.0147 24.4627 76.6214 24.9826 77.6295 24.9026C78.5849 24.8226 79.4401 24.1498 79.495 23.1924C79.5834 21.6727 79.5356 20.1459 79.538 18.6216C79.5479 18.5401 79.5392 18.4575 79.5126 18.3798C79.4861 18.302 79.4423 18.2311 79.3844 18.1721C79.3266 18.1131 79.2561 18.0675 79.1781 18.0386C79.1002 18.0098 79.0167 17.9983 78.9337 18.0052C78.5395 17.9817 78.1454 17.9229 77.7393 17.9041C77.1183 17.8711 76.7648 17.6171 76.76 16.9631C76.7409 14.0272 76.2512 14.5165 79.0412 14.3519C82.531 14.1448 82.7794 14.3895 82.8439 17.817C82.8822 18.6192 82.8678 19.4308 82.8678 20.2424Z" fill="#252524"/>
<path d="M85.52 20.2988C85.3385 15.5939 85.864 10.3079 85.5367 5.02194C85.4675 3.89277 85.5988 2.75418 85.6084 1.61795C85.6084 1.01337 85.9787 0.794591 86.4874 0.804001C88.9239 0.85105 91.3627 0.928681 93.7992 0.992197C94.3963 1.00631 94.6041 1.31919 94.5564 1.87437C94.5229 2.22959 94.5349 2.5801 94.5253 2.94473C94.4943 4.24799 94.222 4.51617 92.8533 4.41031C91.7378 4.32562 90.627 4.17506 89.5091 4.02215C89.0314 3.95628 88.8498 4.10919 88.8546 4.58204C88.8737 6.78864 88.8761 8.99523 88.8761 11.2018C88.8761 11.6982 89.0959 11.8558 89.5927 11.8629C90.4789 11.877 91.3627 11.9899 92.2489 12.037C92.8987 12.0699 93.2211 12.3475 93.1542 13.0156C93.1363 13.2748 93.1363 13.535 93.1542 13.7942C93.2235 15.4739 93.042 15.6574 91.3556 15.6033C90.9614 15.5892 90.5649 15.5656 90.1612 15.5327C88.6325 15.3963 88.6683 15.3986 88.5537 16.9559C88.3821 19.2844 88.3645 21.6214 88.5011 23.9521C88.5369 24.5802 88.771 24.7614 89.3968 24.7425C90.7106 24.7073 92.0244 24.7661 93.3429 24.759C94.136 24.759 94.4728 25.1189 94.4417 25.8764C94.4298 26.1681 94.4632 26.4598 94.4632 26.7515C94.4632 27.5725 94.1551 27.9113 93.2187 27.8948C90.8802 27.8572 88.5417 27.8948 86.208 27.676C85.563 27.6125 85.4006 27.4008 85.3648 26.8033C85.2955 24.8225 85.3695 22.8465 85.52 20.2988Z" fill="#252524"/>
<path d="M54.4416 6.58868C54.8118 12.4463 54.6446 18.318 54.9599 24.178C55.0053 25.0201 54.9599 25.867 55.0173 26.7068C55.077 27.469 54.7235 27.7725 54.0116 27.8148C53.7154 27.8337 53.4216 27.876 53.1278 27.9066C52.2846 27.9889 51.869 27.6902 51.8332 26.7798C51.5147 18.6058 51.2551 10.4295 51.0545 2.25076C51.0354 1.44622 51.3077 1.11688 52.0935 1.11453C52.4542 1.11453 52.8101 1.0369 53.1732 1.03455C53.8373 1.03455 54.198 1.31213 54.2218 2.02257C54.2601 3.54461 54.358 5.06665 54.4416 6.58868Z" fill="#262524"/>
<path d="M111.263 13.7024C111.184 10.3501 111.115 6.32508 110.974 2.30239C110.945 1.46021 111.212 1.18497 112.044 1.09323C113.873 0.893269 114.141 1.00854 114.194 2.73994C114.342 7.51542 114.635 12.2627 114.635 17.0311C114.635 20.174 114.834 23.3168 114.915 26.4621C114.915 26.9043 115.154 27.5207 114.459 27.69C113.663 27.8876 112.82 28.1182 112.044 27.723C111.673 27.5348 111.786 27.0172 111.771 26.6361C111.604 22.5499 111.447 18.4614 111.263 13.7024Z" fill="#262524"/>
<path d="M69.0352 25.8057C69.0591 18.6049 68.7199 11.4064 68.9755 4.20317C68.9986 3.62032 68.9858 3.03663 68.9372 2.4553C68.8465 1.37788 68.5455 1.15439 67.4826 1.29084C67.2251 1.34455 66.9641 1.37993 66.7015 1.3967C66.0398 1.3967 65.8988 1.73545 65.9012 2.33768C65.9203 6.55562 65.9012 10.7712 65.9012 14.9892C66.207 16.2289 65.9634 17.4851 66.1043 18.8683C65.734 18.3979 65.734 18.3979 65.8654 17.9274C65.4928 17.8897 65.5358 17.5674 65.4737 17.3393C64.2793 12.9896 63.1017 8.63519 61.9504 4.28315C61.26 1.67193 61.2911 1.69546 58.4963 1.68134C57.7559 1.68134 57.4358 1.84131 57.4883 2.65526C57.6476 4.98105 57.7567 7.31154 57.8156 9.64674C57.9748 15.5467 58.1173 21.4466 58.2431 27.3466C58.2599 28.2382 58.5919 28.6451 59.4948 28.7134C61.0403 28.8286 61.2744 28.6381 61.272 27.0902C61.272 26.8949 61.272 26.6997 61.272 26.5068C61.1494 22.4715 61.0228 18.448 60.8922 14.4363C60.6533 13.1237 60.7537 11.7992 60.7799 10.4654C60.9758 10.783 61.1932 11.0841 61.1167 11.4817C61.5738 13.05 62.03 14.6269 62.4854 16.2124C63.5484 19.9246 64.5397 23.6556 65.7723 27.3184C65.9108 27.7324 65.992 28.1958 66.5844 28.3017C68.3425 28.6146 68.9994 28.1135 69.0304 26.3891C69.0424 26.1962 69.0352 26.001 69.0352 25.8057Z" fill="#252524"/>
<path d="M108.562 26.128C108.483 18.532 108.323 10.9359 108.467 3.33748C108.503 1.18264 108.166 0.966213 106.023 1.41788C105.572 1.51198 105.433 1.70253 105.433 2.12362C105.452 7.12336 105.463 12.1223 105.464 17.1205C105.839 17.6945 105.541 18.2967 105.677 18.9131C105.237 18.8801 105.24 18.6778 105.285 18.4238C104.021 13.7189 102.736 9.02806 101.501 4.32081C100.806 1.6696 100.842 1.69547 98.0808 1.65313C97.1898 1.64137 96.9486 1.92601 96.9988 2.77054C97.1564 5.35824 97.283 7.94594 97.3571 10.5501C97.5147 16.1301 97.6341 21.7101 97.7655 27.2901C97.7775 27.8194 97.7655 28.337 98.3961 28.5793C99.9344 29.1603 100.785 28.6052 100.785 27.0078C100.785 26.7726 100.77 26.5538 100.766 26.3256C100.67 22.8236 100.575 19.3208 100.481 15.8172C100.266 14.7704 100.376 13.7 100.283 12.6508C99.9822 11.8063 100.192 10.9477 100.099 9.97375C100.68 10.3031 100.508 10.7124 100.522 11.0676C100.708 11.6699 100.911 12.2721 101.083 12.879C102.431 17.6263 103.692 22.397 105.225 27.0925C105.646 28.3793 105.775 28.384 107.375 28.2688C108.486 28.1935 108.462 27.4289 108.569 26.695C108.581 26.5061 108.578 26.3166 108.562 26.128Z" fill="#252524"/>
<path d="M128.621 15.4953C128.621 13.1923 128.621 10.8916 128.621 8.58853C128.593 7.25632 128.334 5.93861 127.854 4.69287C127.049 2.50979 125.226 1.74525 123.138 1.60645C121.273 1.48412 119.661 2.14046 118.626 3.83658C117.656 5.42919 117.387 7.17235 117.379 8.97433C117.379 12.383 117.752 15.7706 118.043 19.1628C118.218 21.1977 118.342 23.2349 118.927 25.2109C119.379 26.7283 120.339 27.7586 121.896 28.1891C125.257 29.116 127.854 27.5187 128.42 24.1335C128.898 21.2753 128.692 18.3771 128.621 15.4953ZM125.432 22.8726C125.389 23.3267 125.256 23.768 125.04 24.1712C124.428 25.258 123.112 25.3474 122.369 24.3523C121.791 23.5689 121.619 22.6374 121.459 21.7081C120.857 18.2171 120.769 14.6814 120.504 11.1621C120.42 10.0964 120.337 9.03079 120.315 7.96513C120.275 7.11533 120.507 6.27458 120.977 5.56092C121.191 5.24383 121.486 4.98752 121.833 4.81742C122.179 4.64731 122.564 4.56933 122.951 4.5912C123.337 4.61308 123.711 4.73405 124.035 4.94212C124.359 5.15019 124.622 5.43812 124.799 5.77735C125.204 6.6323 125.418 7.56282 125.427 8.50619C125.537 10.6093 125.697 12.71 125.666 13.9521C125.771 17.509 125.745 20.1955 125.432 22.8726Z" fill="#252524"/>
</g>
<defs>
<clipPath id="clip0_279_31">
<rect width="128" height="28" fill="white" transform="translate(0.726562 0.803711)"/>
</clipPath>
</defs>
</svg>
