<svg id="Layer_1" data-name="Layer 1" xmlns="http://www.w3.org/2000/svg" viewBox="0 0 376.87 86.78"><defs><style>.cls-1{fill:#b7c13e;}.cls-2{fill:#fff;}</style></defs><path class="cls-1" d="M17.28,6.29c4.8,0,9.59.08,14.38,0,1.95,0,2.77.63,2.18,2.46s-.18,3.79-.09,5.68S33.31,17.5,31.11,17c-4.77-1-9.55.55-14.32-.11-1.33-.18-1.56.87-1.56,1.89q0,6.3,0,12.6c0,1.41.74,1.94,2.14,2.11a104.07,104.07,0,0,0,13.21.32c2.18,0,3.1.54,2.89,3a51.48,51.48,0,0,0,.3,7.43c.11,1.9-.22,3-2.66,2.91-4.29-.23-8.62,0-12.92-.17-2.19-.08-3.12.52-3,2.87.15,4.31.11,8.62,0,12.93,0,2.06.56,2.92,2.8,2.82,4.39-.18,8.81,0,13.21-.13,2.37-.08,3.57.5,3.3,3.19a48.75,48.75,0,0,0,0,7.15c.11,2.3-.93,3-3.11,3q-14.49-.28-29-.38C.58,78.38,0,77.65,0,76,.47,59.87-.24,43.73.32,27.58.53,21.65.54,15.7.37,9.77.29,7.09.85,6,3.77,6.22,8.26,6.49,12.78,6.29,17.28,6.29Z"/><path class="cls-1" d="M76.86,21c-1-.08-1.55-1-2.3-1.56-4.24-3.14-9.18-2.43-12.35,1.85-3,4.08-3.83,8.92-4.5,13.77a55.17,55.17,0,0,0,1.71,22.72,14.25,14.25,0,0,0,5.79,8.34c3.57,2.31,7.28,2.36,10.64-.45,1.76-1.46,2.33-.88,2.83,1,.69,2.59,1.45,5.17,2.34,7.69s.17,3.62-2.23,4.57C64,84.8,51.35,78.92,45.67,63.83,42.33,55,42.4,45.89,42.49,36.69c.07-7.95,3-15,6.62-21.75C53.28,7.21,64.92,2.78,73.38,5.28,76.12,6.08,78.86,6.91,81,9c1,1,1.48,1.79.66,3.19C80,15.1,78.46,18.08,76.86,21Z"/><path class="cls-1" d="M134,37.16c-.92-8-1.44-16-5.94-23.09C120.14,1.6,102.5,1.85,94.25,12.76a26.93,26.93,0,0,0-4.91,11.52c-1.61,9.06-2.81,18.16-1.72,27.41C88.36,58,89.05,64.26,91.94,70c3.73,7.48,9.8,11.4,18.1,11.58,8.06.17,14.31-3.29,18.24-10.35,5.09-9.17,5.35-19.39,5.76-29.52A39,39,0,0,0,134,37.16ZM118.06,59.51a16.49,16.49,0,0,1-2.11,6.2,5.62,5.62,0,0,1-5.41,3.09c-2.73-.16-4.72-1.31-5.66-4-2.37-6.91-2.5-14.08-2.46-21.26a97.86,97.86,0,0,1,1.21-17.44,36.6,36.6,0,0,1,1.22-4.71,6.3,6.3,0,0,1,5.82-4.76c3.08-.14,4.71,2.29,5.72,4.86a32.45,32.45,0,0,1,2.06,10.08C119,40.87,119.41,50.21,118.06,59.51Z"/><path class="cls-2" d="M238.85,58.59a48.86,48.86,0,0,1-.8,13.44,11.84,11.84,0,0,1-11.58,9.64,27.54,27.54,0,0,1-5.44-.35c-8.71-1.47-12.52-5.59-13.24-14.37-.39-4.68-.76-9.37-.85-14.06-.2-11.57-2-23.1-.86-34.72.47-4.84,1.91-9.05,5.6-12.49,5.84-5.43,17.4-5.28,23,.44a11.52,11.52,0,0,1,2.83,5.55,37.43,37.43,0,0,1,.81,11.42c-.13,2.3-1.1,3.58-3.61,3.29a11.71,11.71,0,0,0-3.72-.15c-3.18.67-3.41-.87-3.16-3.43a21.31,21.31,0,0,0-.29-7.71c-.54-2-1-4-3.69-4-2.87,0-5.65,1.8-6.17,4.19a28.75,28.75,0,0,0-.77,5.68c-.17,14.25-1,28.51.14,42.75a20.49,20.49,0,0,0,1,4.76c.86,2.63,2.62,4.18,5.59,3.93a5.65,5.65,0,0,0,5.43-5.05c.25-4.49.12-9,.12-13.5A1.64,1.64,0,0,0,227.43,52c-1.14-.07-2.29-.24-3.43-.3-1.81-.09-2.84-.85-2.85-2.82-.06-8.66-1.48-7.22,6.63-7.71,10.15-.6,10.87.12,11.06,10.24C238.88,53.8,238.85,56.2,238.85,58.59Z"/><path class="cls-2" d="M246.56,58.76c-.53-13.91,1-29.51.05-45.11-.2-3.34.18-6.7.21-10.06a2.19,2.19,0,0,1,2.55-2.4c7.09.14,14.18.37,21.27.55,1.74.05,2.34,1,2.2,2.61-.1,1.05-.07,2.11-.09,3.16-.09,3.85-.88,4.64-4.84,4.33-3.24-.25-6.47-.69-9.69-1.15-1.4-.19-1.92.26-1.91,1.66.06,6.51.06,13,.06,19.54,0,1.47.65,1.94,2.11,2,2.58,0,5.15.37,7.73.51,1.89.1,2.82.92,2.63,2.89a16.07,16.07,0,0,0,0,2.3c.2,5-.32,5.5-5.23,5.34-1.15,0-2.29-.11-3.44-.21-4.44-.39-4.34-.39-4.67,4.21a160,160,0,0,0-.16,20.66c.11,1.85.79,2.38,2.61,2.33,3.82-.1,7.65.08,11.48.05,2.3,0,3.28,1.06,3.19,3.3,0,.86.07,1.73.07,2.59,0,2.42-.9,3.42-3.63,3.37-6.8-.11-13.59,0-20.39-.64-1.87-.19-2.34-.82-2.45-2.58A162.87,162.87,0,0,1,246.56,58.76Z"/><path class="cls-2" d="M156.15,18.27c1.08,17.3.59,34.64,1.51,51.94.13,2.49,0,5,.16,7.48.18,2.24-.85,3.14-2.92,3.27-.86.05-1.71.18-2.57.26-2.45.25-3.66-.63-3.76-3.32q-1.41-36.21-2.27-72.44c-.05-2.38.73-3.34,3-3.35,1.05,0,2.1-.23,3.14-.24,1.93,0,3,.82,3,2.92C155.64,9.29,155.93,13.78,156.15,18.27Z"/><path class="cls-2" d="M321.43,39.28c-.23-9.9-.44-21.78-.84-33.66-.09-2.49.72-3.31,3.11-3.57,5.32-.6,6.1-.25,6.26,4.86.42,14.07,1.25,28.12,1.27,42.2,0,9.28.57,18.56.81,27.85,0,1.31.66,3.13-1.33,3.63-2.32.58-4.77,1.26-7,.09-1.07-.55-.74-2.07-.79-3.21C322.42,65.41,322,53.34,321.43,39.28Z"/><path class="cls-2" d="M198.61,75c.07-21.26-.92-42.52-.17-63.79a44.62,44.62,0,0,0-.11-5.17c-.27-3.17-1.14-3.84-4.23-3.43a16.21,16.21,0,0,1-2.28.31c-1.92,0-2.33,1-2.32,2.75.05,12.45,0,24.9,0,37.36.89,3.66.18,7.36.59,11.45-1.08-1.36-1.08-1.36-.68-2.78-1.09-.12-1-1.07-1.14-1.74-3.43-12.85-6.9-25.69-10.25-38.56-2-7.71-1.92-7.68-10-7.68-2.15,0-3.09.47-2.93,2.87q.66,10.32.95,20.65.72,26.13,1.24,52.27c.05,2.63,1,3.83,3.64,4,4.5.35,5.18-.21,5.17-4.79,0-.57,0-1.15,0-1.72q-.54-17.8-1.09-35.6c-.7-3.88-.41-7.79-.33-11.73.57.94,1.21,1.83,1,3q2,7,4,14c3.1,11,6,22,9.56,32.8.4,1.22.64,2.59,2.37,2.91,5.1.92,7-.56,7.11-5.65C198.63,76.17,198.61,75.6,198.61,75Z"/><path class="cls-2" d="M313.57,76c-.23-22.43-.67-44.86-.28-67.3.11-6.36-.87-7-7.11-5.67a1.81,1.81,0,0,0-1.71,2.11q.07,22.14.09,44.29c1.09,1.69.23,3.49.62,5.29-1.28-.1-1.28-.73-1.14-1.44-3.68-13.88-7.41-27.75-11-41.65-2-7.83-1.91-7.76-9.94-7.88-2.59,0-3.3.81-3.15,3.3.46,7.65.83,15.31,1,23,.46,16.48.81,33,1.19,49.44,0,1.56,0,3.09,1.83,3.8,4.48,1.72,7,.08,6.93-4.64,0-.67,0-1.34-.06-2q-.4-15.51-.82-31c-.63-3.09-.31-6.24-.58-9.35h0c-.87-2.5-.26-5-.53-7.91,1.68,1,1.19,2.18,1.22,3.23.55,1.78,1.14,3.56,1.64,5.35,3.91,14,7.58,28.11,12,42,1.23,3.8,1.6,3.82,6.24,3.5,3.22-.22,3.16-2.48,3.45-4.64A12.46,12.46,0,0,0,313.57,76Z"/><path class="cls-2" d="M371.91,44.57c0-6.79,0-13.59,0-20.39a34.38,34.38,0,0,0-2.22-11.5C367.34,6.23,362.07,4,356,3.57c-5.43-.37-10.11,1.57-13.12,6.58-2.82,4.7-3.61,9.85-3.63,15.17,0,10.07,1.08,20.07,1.93,30.09.51,6,.87,12,2.57,17.86a12,12,0,0,0,8.64,8.79c9.77,2.74,17.32-2,19-12C372.72,61.64,372.12,53.08,371.91,44.57Zm-9.28,21.79a10.1,10.1,0,0,1-1.13,3.83c-1.78,3.21-5.61,3.5-7.77.54-1.68-2.31-2.18-5.07-2.65-7.81-1.75-10.31-2-20.75-2.8-31.14-.24-3.15-.48-6.3-.54-9.45a12,12,0,0,1,1.92-7.09,6.46,6.46,0,0,1,11.15.64,19.57,19.57,0,0,1,1.82,8c.32,6.21.79,12.42.67,16.09C363.63,50.52,363.55,58.45,362.63,66.36Z"/></svg>