<svg id="Layer_1" data-name="Layer 1" xmlns="http://www.w3.org/2000/svg" viewBox="0 0 506.28 134.59"><defs><style>.cls-1{fill:#fff;}.cls-2{fill:#b7c13e;}</style></defs><g id="PXEkCR.tif"><path class="cls-1" d="M95,20.34c-.65,2.37-2.59,3.39-4.59,4.31a64.61,64.61,0,0,1-8.8,3A61.7,61.7,0,0,1,73,29.58c-2.22.33-4.45.57-6.69.76-6.24.52-12.49.59-18.75.52-3.12,0-6.23-.23-9.34-.51a104.09,104.09,0,0,1-12.67-1.9,56,56,0,0,1-13-4.73A10.23,10.23,0,0,1,9.7,21.83a2.28,2.28,0,0,1,.05-3.67A11.56,11.56,0,0,1,13.46,16a51.87,51.87,0,0,1,9.17-2.52c2.66-.53,5.34-.92,8-1.24,2.31-.28,4.62-.48,6.93-.67,6.27-.49,12.56-.6,18.84-.51q5,.08,10.07.41c2.56.17,5.11.37,7.65.67a78.06,78.06,0,0,1,14.6,2.78,17.81,17.81,0,0,1,4.13,1.79,5.12,5.12,0,0,1,1.74,1.6c.16.26.19.57.34.84v.09a2.36,2.36,0,0,0,0,1Z"/><path class="cls-1" d="M95,20.25a1.22,1.22,0,0,1,0-1Z"/><path class="cls-1" d="M94.28,27c-1.17.6-2.37,1.16-3.59,1.66a68.37,68.37,0,0,1-9,2.95c-3.06.77-6.15,1.36-9.27,1.83-2.62.4-5.26.71-7.9,1-1.61.15-3.22.28-4.84.4L56.48,35a25.83,25.83,0,0,1-2.92.14c-2.05-.07-4.1-.18-6.15-.27l-5.56-.28q-3.56-.18-7.08-.57a73.59,73.59,0,0,1-12.66-2.47A61.42,61.42,0,0,1,9.64,26.35c-.19-.1-.41-.3-.61-.16s-.09.44,0,.66c1,4.79,2,9.58,3,14.37.86,4.11,1.71,8.22,2.58,12.33q2.34,11.17,4.67,22.34c.85,4,1.68,8,2.53,12.07q2.34,11.13,4.66,22.25,1.32,6.29,2.62,12.56c.16.74.19.76.95.76H73.75c.12,0,.24,0,.36,0a.43.43,0,0,0,.48-.37c0-.17.07-.35.11-.53.74-3.54,1.5-7.07,2.25-10.61L81.3,91.59c1-4.75,2-9.51,3-14.26q2-9.33,4-18.67c1-4.9,2.1-9.8,3.12-14.7,1.17-5.63,2.49-11.22,3.51-16.87v-.18C94.7,26.74,94.49,26.91,94.28,27ZM40,63.38A10.92,10.92,0,0,1,40.94,61a19.23,19.23,0,0,1,4.84-6.23,4,4,0,0,1,2.53-1.06,3.59,3.59,0,0,1,2.17.94,9.23,9.23,0,0,1,2,2.52c.54.93,1.06,1.88,1.59,2.81a.39.39,0,0,1,0,.48q-2.65,3.68-5.27,7.34c-.15.21-.26.21-.47.11q-4-2-8.05-4.05A.38.38,0,0,1,40,63.38ZM39,81.14a3.91,3.91,0,0,1,1.6-.51c1-.11,2-.32,3.08-.33h.67a1.1,1.1,0,0,1,1.06.76,1.11,1.11,0,0,1-.36,1.25,2.14,2.14,0,0,1-1.19.59,27,27,0,0,1-4,.48,1.44,1.44,0,0,1-.71-.09c-.45-.23-.89-.51-.92-1.06S38.63,81.39,39,81.14ZM38.35,79A1.26,1.26,0,0,1,39,77.82a3.69,3.69,0,0,1,1.63-.42,18.8,18.8,0,0,1,2.39-.26,1.68,1.68,0,0,1,1.24.34,1.08,1.08,0,0,1,.13,1.65,2,2,0,0,1-1.26.64c-1,.16-2,.34-3.07.4a1.8,1.8,0,0,1-.92-.11A1.27,1.27,0,0,1,38.35,79Zm.95,5.21a14.88,14.88,0,0,1,2.22-.35l2.09-.23a3.55,3.55,0,0,1,1.3.06,1.15,1.15,0,0,1,1,1.11,1.32,1.32,0,0,1-1,1.31,20.9,20.9,0,0,1-3.06.45c-.56.07-1.13.12-1.68.17a3.63,3.63,0,0,1-.94-.16,1.19,1.19,0,0,1-.94-1.16A1.28,1.28,0,0,1,39.3,84.17Zm12.33,5.59a3.48,3.48,0,0,1-1.33.37,22.44,22.44,0,0,1-3.28,0c-2.22-.07-4.44-.06-6.66,0A58.49,58.49,0,0,1,33,89.86a3.86,3.86,0,0,1-3.84-3.72,37.28,37.28,0,0,1-.45-5.68,3.33,3.33,0,0,1,1.48-2.86c1.32-.88,2.55-1.89,3.85-2.79a9.25,9.25,0,0,0,3-3.38c.26-.51.54-1,.84-1.49a2.73,2.73,0,0,1,.46-.6.75.75,0,0,1,1.28.11,2.44,2.44,0,0,1,.32,2.19A8.13,8.13,0,0,1,38.49,74,19.48,19.48,0,0,0,37,76.13a4.73,4.73,0,0,0-.33.68c-.2.53-.09.72.46.81l1.06.15a1.93,1.93,0,0,0,.28,2.49c.11.13.25.21.06.43-1,1.19-1,1.74.06,2.89l.18.19a3.8,3.8,0,0,0-.62.58,1.7,1.7,0,0,0-.34,1.56c.18.64.52,1.08,1.56,1.15,2.74.19,5.48.26,8.22.36,1,0,1.92,0,2.88.1a1.94,1.94,0,0,1,1.39.64A.94.94,0,0,1,51.63,89.76Zm1.31-23,2.23-1.5a11.53,11.53,0,0,1,1.13-.74c.47-.23.5-.54.38-1a20.06,20.06,0,0,0-3.73-7,26,26,0,0,0-3.17-3.38L49.53,53l.06-.1H50c3.5,0,7,0,10.49,0a3.68,3.68,0,0,1,2.83,1.2,15.85,15.85,0,0,1,2.73,4c.19.37.32.39.67.17,1.24-.78,2.51-1.52,3.87-2.34-.81,1.85-1.58,3.58-2.34,5.31q-1.33,3-2.66,6a.5.5,0,0,1-.56.37c-1.88-.05-3.74-.22-5.61-.34-2.07-.14-4.12-.34-6.19-.5ZM75.4,81.1c-1.75,3-3.54,5.91-5.23,8.91a3.91,3.91,0,0,1-2.9,2,16.29,16.29,0,0,1-4.57.21c-.34,0-.44,0-.43.39,0,1.35,0,2.7.07,4v.45c-.19,0-.24-.19-.31-.29Q58.57,92,55.09,87.14a.49.49,0,0,1,0-.66q2.51-3.8,5.14-7.49L62,76.5c.08,1.29.13,2.46.21,3.64s-.13,1,1.05,1.31a18.64,18.64,0,0,0,7.1.33,26.24,26.24,0,0,0,5-1.09.25.25,0,0,1,.22,0C75.59,80.87,75.47,81,75.4,81.1Zm.53-3a2.92,2.92,0,0,1-1.77,2.18,9.33,9.33,0,0,1-3.81.68c-.3,0-.6,0-.9,0v-.08H67.3a.43.43,0,0,1-.48-.29c-1.21-2.77-2.42-5.53-3.65-8.28-.1-.23,0-.31.14-.42Q67.13,69.5,70.94,67a.32.32,0,0,1,.49,0,9.56,9.56,0,0,1,1.31,1.59,19.5,19.5,0,0,1,3.17,7.64A5.35,5.35,0,0,1,75.93,78.14Z"/></g><path class="cls-2" d="M142.55,31c4.79,0,9.59.08,14.38,0,1.95-.05,2.77.63,2.18,2.46s-.19,3.79-.09,5.68-.44,3.11-2.64,2.65c-4.77-1-9.55.55-14.33-.11-1.33-.18-1.56.86-1.56,1.89q0,6.3,0,12.6c0,1.41.74,1.94,2.14,2.11a104.18,104.18,0,0,0,13.22.32c2.17,0,3.09.54,2.88,3A51.48,51.48,0,0,0,159,69c.11,1.9-.22,3.05-2.65,2.91-4.3-.24-8.62,0-12.93-.17-2.19-.08-3.11.52-3,2.87.16,4.31.11,8.62,0,12.93,0,2.06.55,2.91,2.79,2.82,4.4-.18,8.81,0,13.21-.13,2.37-.08,3.57.5,3.31,3.18a47.53,47.53,0,0,0,0,7.16c.11,2.3-.93,3-3.1,3q-14.5-.28-29-.38c-1.8,0-2.42-.75-2.37-2.38.47-16.14-.25-32.28.32-48.43.2-5.93.22-11.88,0-17.81-.08-2.68.49-3.73,3.41-3.55C133.52,31.24,138,31,142.55,31Z"/><path class="cls-2" d="M202.12,45.79c-1-.08-1.55-1-2.3-1.56-4.24-3.14-9.18-2.43-12.35,1.85-3,4.08-3.82,8.92-4.49,13.77a55,55,0,0,0,1.71,22.72,14.23,14.23,0,0,0,5.78,8.34c3.58,2.31,7.29,2.36,10.65-.45,1.75-1.46,2.32-.88,2.82,1,.7,2.59,1.45,5.17,2.34,7.69s.18,3.62-2.22,4.57c-14.84,5.86-27.44,0-33.12-15.12-3.34-8.87-3.28-17.93-3.19-27.13.08-7.95,3-15,6.63-21.75C178.54,32,190.19,27.53,198.64,30c2.75.81,5.48,1.64,7.63,3.76,1,1,1.47,1.79.66,3.19C205.24,39.85,203.72,42.83,202.12,45.79Z"/><path class="cls-2" d="M259.28,61.91c-.93-8-1.44-16-5.94-23.09-7.94-12.47-25.57-12.22-33.82-1.31A26.63,26.63,0,0,0,214.61,49c-1.62,9.06-2.82,18.16-1.73,27.41.74,6.29,1.44,12.57,4.32,18.35,3.73,7.48,9.8,11.4,18.11,11.58,8.05.17,14.31-3.29,18.23-10.35,5.1-9.17,5.35-19.39,5.76-29.52A41.32,41.32,0,0,0,259.28,61.91Zm-16,22.35a16.31,16.31,0,0,1-2.11,6.2,5.61,5.61,0,0,1-5.41,3.09c-2.73-.16-4.72-1.31-5.65-4-2.37-6.92-2.5-14.08-2.47-21.26a98.81,98.81,0,0,1,1.22-17.44,38.28,38.28,0,0,1,1.21-4.71,6.31,6.31,0,0,1,5.82-4.76c3.09-.14,4.71,2.29,5.72,4.86a32.47,32.47,0,0,1,2.07,10.08C244.21,65.62,244.67,75,243.32,84.26Z"/><path class="cls-1" d="M364.11,83.34a48.86,48.86,0,0,1-.79,13.44,11.84,11.84,0,0,1-11.58,9.64,27.49,27.49,0,0,1-5.44-.35c-8.71-1.47-12.52-5.59-13.25-14.37-.38-4.68-.76-9.37-.84-14.06-.21-11.57-2-23.1-.87-34.72.47-4.84,1.91-9.05,5.61-12.49,5.83-5.43,17.39-5.28,23,.43a11.59,11.59,0,0,1,2.83,5.56,37.75,37.75,0,0,1,.82,11.42c-.14,2.3-1.1,3.58-3.62,3.28a12,12,0,0,0-3.72-.14c-3.17.67-3.41-.87-3.16-3.43a21.31,21.31,0,0,0-.29-7.71c-.54-2-1-4-3.69-4-2.86,0-5.64,1.8-6.16,4.19a28,28,0,0,0-.78,5.68c-.16,14.25-1,28.51.14,42.75a21,21,0,0,0,1,4.76c.86,2.63,2.63,4.18,5.59,3.93a5.65,5.65,0,0,0,5.43-5.05c.26-4.49.12-9,.13-13.5a1.65,1.65,0,0,0-1.76-1.82c-1.15-.07-2.29-.24-3.44-.3-1.81-.09-2.83-.85-2.85-2.82-.06-8.66-1.48-7.22,6.64-7.71,10.15-.61,10.87.12,11.05,10.24C364.15,78.55,364.11,81,364.11,83.34Z"/><path class="cls-1" d="M371.82,83.51c-.52-13.91,1-29.51.05-45.12-.2-3.33.18-6.69.21-10a2.2,2.2,0,0,1,2.56-2.4c7.09.14,14.17.37,21.26.55,1.74.05,2.35,1,2.2,2.61-.09,1-.06,2.11-.09,3.16-.09,3.85-.88,4.64-4.83,4.33-3.24-.25-6.47-.69-9.7-1.15-1.4-.19-1.91.26-1.9,1.66q.07,9.76.06,19.54c0,1.47.64,1.94,2.11,2,2.57,0,5.14.37,7.72.51,1.89.1,2.83.92,2.63,2.89a17.69,17.69,0,0,0,0,2.3c.2,5-.33,5.5-5.23,5.34q-1.73-.06-3.45-.21c-4.44-.4-4.33-.39-4.67,4.21a158.26,158.26,0,0,0-.15,20.66c.1,1.85.79,2.38,2.6,2.33,3.83-.1,7.66.07,11.48.05,2.31,0,3.29,1.06,3.19,3.3,0,.86.07,1.73.07,2.59,0,2.42-.89,3.42-3.62,3.37-6.8-.11-13.6,0-20.39-.64-1.88-.19-2.35-.82-2.45-2.58A162.66,162.66,0,0,1,371.82,83.51Z"/><path class="cls-1" d="M281.41,43c1.08,17.3.59,34.64,1.51,51.94.13,2.49,0,5,.17,7.47.17,2.25-.86,3.15-2.92,3.28-.86.05-1.72.18-2.58.26-2.45.25-3.66-.63-3.76-3.32q-1.41-36.21-2.26-72.44c-.06-2.38.73-3.35,3-3.35,1.05,0,2.1-.23,3.15-.24,1.93,0,3,.82,3,2.92C280.91,34,281.19,38.53,281.41,43Z"/><path class="cls-1" d="M446.69,64c-.23-9.9-.43-21.78-.84-33.66-.08-2.5.72-3.31,3.11-3.57,5.32-.6,6.11-.25,6.26,4.86.43,14.07,1.26,28.12,1.27,42.2,0,9.28.57,18.56.81,27.85,0,1.31.67,3.12-1.33,3.63-2.31.58-4.76,1.26-7,.09-1.08-.55-.75-2.07-.79-3.21C447.69,90.15,447.23,78.09,446.69,64Z"/><path class="cls-1" d="M323.88,99.77c.06-21.26-.92-42.52-.18-63.79a42.49,42.49,0,0,0-.11-5.17c-.27-3.17-1.14-3.84-4.23-3.43a16.27,16.27,0,0,1-2.27.31c-1.92,0-2.33,1-2.33,2.75.05,12.45,0,24.9,0,37.35.9,3.67.19,7.37.6,11.46-1.08-1.36-1.08-1.36-.69-2.79-1.08-.11-1-1.06-1.14-1.73C310.11,61.88,306.65,49,303.3,36.17c-2-7.71-1.92-7.68-10.05-7.68-2.15,0-3.08.47-2.93,2.87q.68,10.32,1,20.65.72,26.13,1.24,52.27c.05,2.63,1,3.83,3.64,4,4.49.35,5.17-.21,5.16-4.79,0-.57,0-1.15,0-1.72q-.56-17.8-1.1-35.6c-.7-3.88-.4-7.79-.33-11.73.58.94,1.21,1.83,1,3,1.33,4.66,2.67,9.31,4,14,3.09,11,6,22,9.55,32.8.41,1.22.64,2.59,2.37,2.9,5.11.93,7-.55,7.12-5.64C323.9,100.92,323.88,100.35,323.88,99.77Z"/><path class="cls-1" d="M438.84,100.72c-.23-22.43-.67-44.86-.29-67.3.11-6.36-.87-7-7.1-5.67a1.8,1.8,0,0,0-1.71,2.11q.08,22.14.08,44.29c1.09,1.69.23,3.49.62,5.29-1.28-.1-1.27-.73-1.13-1.45-3.68-13.88-7.42-27.74-11-41.64-2-7.83-1.92-7.76-9.95-7.88-2.59,0-3.29.81-3.15,3.29.46,7.66.83,15.32,1.05,23,.46,16.48.8,33,1.18,49.44,0,1.56,0,3.09,1.84,3.8,4.48,1.72,7,.08,6.93-4.64,0-.67,0-1.34-.06-2q-.42-15.52-.83-31c-.62-3.08-.3-6.23-.57-9.34h0c-.88-2.5-.27-5-.54-7.91,1.69,1,1.19,2.18,1.23,3.23.54,1.78,1.13,3.55,1.63,5.35,3.92,14,7.59,28.11,12.05,42,1.22,3.8,1.59,3.82,6.23,3.5,3.23-.22,3.16-2.48,3.45-4.64A12.46,12.46,0,0,0,438.84,100.72Z"/><path class="cls-1" d="M497.17,69.32c0-6.79,0-13.59,0-20.39a34.14,34.14,0,0,0-2.22-11.5c-2.33-6.45-7.61-8.71-13.71-9.12-5.42-.36-10.11,1.58-13.12,6.59-2.82,4.7-3.61,9.85-3.62,15.17,0,10.07,1.07,20.07,1.92,30.09.51,6,.87,12,2.57,17.86a12,12,0,0,0,8.64,8.79c9.78,2.74,17.32-2,19-12C498,86.39,497.38,77.83,497.17,69.32ZM487.9,91.11a10.28,10.28,0,0,1-1.13,3.83c-1.78,3.21-5.62,3.5-7.77.54-1.68-2.31-2.19-5.07-2.65-7.81-1.75-10.31-2-20.75-2.8-31.14-.24-3.15-.49-6.3-.55-9.45A12,12,0,0,1,474.93,40a6.45,6.45,0,0,1,11.14.63,19.82,19.82,0,0,1,1.83,8.06c.32,6.21.78,12.42.67,16.09C488.89,75.27,488.81,83.2,487.9,91.11Z"/></svg>