<?xml version="1.0" encoding="UTF-8"?>
<!DOCTYPE svg PUBLIC "-//W3C//DTD SVG 1.1//EN" "http://www.w3.org/Graphics/SVG/1.1/DTD/svg11.dtd">
<svg xmlns="http://www.w3.org/2000/svg" version="1.1" width="800px" height="800px" style="shape-rendering:geometricPrecision; text-rendering:geometricPrecision; image-rendering:optimizeQuality; fill-rule:evenodd; clip-rule:evenodd" xmlns:xlink="http://www.w3.org/1999/xlink">
<g><path style="opacity:0.987" fill="#1c7fe0" d="M 371.5,-0.5 C 390.167,-0.5 408.833,-0.5 427.5,-0.5C 455.698,2.00624 483.365,7.33958 510.5,15.5C 503.936,16.0996 497.436,17.0996 491,18.5C 488.135,18.3157 485.302,17.9823 482.5,17.5C 482.703,19.3904 482.037,20.8904 480.5,22C 478.19,22.4966 475.857,22.6633 473.5,22.5C 473.393,24.9032 474.393,26.7365 476.5,28C 480.368,29.0114 484.034,30.5114 487.5,32.5C 488.477,34.4109 489.143,36.4109 489.5,38.5C 483.733,37.5773 478.066,36.2439 472.5,34.5C 459.56,32.1768 446.56,30.1768 433.5,28.5C 415.703,26.5649 398.036,26.2316 380.5,27.5C 372.5,27.8333 364.5,28.1667 356.5,28.5C 356.167,28.5 355.833,28.5 355.5,28.5C 352.161,28.1103 348.827,27.6103 345.5,27C 344.663,25.9887 344.33,24.8221 344.5,23.5C 348.673,23.3089 352.84,22.9756 357,22.5C 371.48,24.8413 385.98,25.0079 400.5,23C 402.623,22.1853 404.623,21.1853 406.5,20C 389.197,18.7884 371.864,18.1218 354.5,18C 349.622,15.549 344.622,13.7157 339.5,12.5C 339.389,11.8826 339.056,11.3826 338.5,11C 334.727,9.63114 330.894,8.46448 327,7.5C 325.97,7.16389 325.47,6.49722 325.5,5.5C 340.935,3.19808 356.268,1.19808 371.5,-0.5 Z"/></g>
<g><path style="opacity:1" fill="#7cd82f" d="M 339.5,12.5 C 344.622,13.7157 349.622,15.549 354.5,18C 371.864,18.1218 389.197,18.7884 406.5,20C 404.623,21.1853 402.623,22.1853 400.5,23C 385.98,25.0079 371.48,24.8413 357,22.5C 352.84,22.9756 348.673,23.3089 344.5,23.5C 344.33,24.8221 344.663,25.9887 345.5,27C 348.827,27.6103 352.161,28.1103 355.5,28.5C 324.614,32.7233 294.614,40.7233 265.5,52.5C 264.893,52.3764 264.56,52.0431 264.5,51.5C 264.414,50.5041 264.748,49.6708 265.5,49C 270.226,47.312 274.226,44.6454 277.5,41C 285.326,40.545 292.659,38.545 299.5,35C 301.833,33.3333 304.167,31.6667 306.5,30C 315.453,30.6897 322.453,27.3563 327.5,20C 329.9,19.8142 332.234,19.3142 334.5,18.5C 336.185,16.4293 337.852,14.4293 339.5,12.5 Z"/></g>
<g><path style="opacity:1" fill="#70b2f3" d="M 380.5,27.5 C 398.036,26.2316 415.703,26.5649 433.5,28.5C 451.292,41.9566 466.292,57.9566 478.5,76.5C 477.962,78.1172 477.629,79.7839 477.5,81.5C 472.995,81.2705 468.661,81.9372 464.5,83.5C 464.286,85.1439 464.62,86.6439 465.5,88C 467.5,88.3333 469.5,88.6667 471.5,89C 475.306,91.8947 478.64,95.228 481.5,99C 484.351,100.289 487.351,100.789 490.5,100.5C 500.778,131.368 502.278,162.701 495,194.5C 492.105,204.351 488.938,214.017 485.5,223.5C 477.019,241.127 466.519,257.461 454,272.5C 464.115,245.093 469.948,216.76 471.5,187.5C 481.154,113.971 452.821,60.8039 386.5,28C 384.527,27.5045 382.527,27.3379 380.5,27.5 Z"/></g>
<g><path style="opacity:1" fill="#79d622" d="M 510.5,15.5 C 603.355,43.1608 677.188,96.8275 732,176.5C 737.696,185.229 742.863,194.229 747.5,203.5C 747.427,205.027 748.094,206.027 749.5,206.5C 751.674,209.515 753.341,212.849 754.5,216.5C 754.649,222.746 752.315,227.746 747.5,231.5C 746.066,229.78 745.233,227.78 745,225.5C 741.544,221.554 737.877,217.887 734,214.5C 733.333,215.5 733.333,216.5 734,217.5C 737.706,221.041 739.206,225.208 738.5,230C 737.5,230.667 736.5,230.667 735.5,230C 732.254,224.413 728.587,219.08 724.5,214C 719.783,209.973 714.449,206.973 708.5,205C 705.462,202.297 702.795,199.297 700.5,196C 699.551,195.383 698.718,195.549 698,196.5C 699.523,201.661 698.19,205.995 694,209.5C 692.86,214.039 694.194,217.706 698,220.5C 696.855,230.723 699.522,239.723 706,247.5C 706.581,251.19 706.415,254.856 705.5,258.5C 708.419,267.365 706.086,274.699 698.5,280.5C 691.407,282.492 684.741,281.659 678.5,278C 675.842,271.604 673.342,265.104 671,258.5C 668.932,256.604 667.099,254.604 665.5,252.5C 662.371,244.289 658.204,236.622 653,229.5C 652.333,227.5 652.333,225.5 653,223.5C 659.134,221.335 665.301,219.169 671.5,217C 672.598,214.502 672.432,212.002 671,209.5C 665.357,205.218 662.024,199.551 661,192.5C 660.303,190.416 659.136,188.749 657.5,187.5C 654.103,186.802 650.603,186.135 647,185.5C 646.216,182.24 646.383,179.073 647.5,176C 645.661,173.857 645.328,171.357 646.5,168.5C 645.59,156.385 644.09,144.385 642,132.5C 641,130.833 640,129.167 639,127.5C 638.82,124.044 638.153,120.711 637,117.5C 601.043,85.76 560.21,62.0934 514.5,46.5C 507.679,42.7946 500.345,40.9613 492.5,41C 491.627,39.955 490.627,39.1217 489.5,38.5C 489.143,36.4109 488.477,34.4109 487.5,32.5C 484.034,30.5114 480.368,29.0114 476.5,28C 474.393,26.7365 473.393,24.9032 473.5,22.5C 475.857,22.6633 478.19,22.4966 480.5,22C 482.037,20.8904 482.703,19.3904 482.5,17.5C 485.302,17.9823 488.135,18.3157 491,18.5C 497.436,17.0996 503.936,16.0996 510.5,15.5 Z"/></g>
<g><path style="opacity:1" fill="#1a8cfd" d="M 325.5,5.5 C 325.47,6.49722 325.97,7.16389 327,7.5C 330.894,8.46448 334.727,9.63114 338.5,11C 339.056,11.3826 339.389,11.8826 339.5,12.5C 337.852,14.4293 336.185,16.4293 334.5,18.5C 332.234,19.3142 329.9,19.8142 327.5,20C 322.453,27.3563 315.453,30.6897 306.5,30C 304.167,31.6667 301.833,33.3333 299.5,35C 292.659,38.545 285.326,40.545 277.5,41C 274.226,44.6454 270.226,47.312 265.5,49C 264.748,49.6708 264.414,50.5041 264.5,51.5C 263.833,51.5 263.5,51.8333 263.5,52.5C 262.167,53.1667 260.833,53.8333 259.5,54.5C 259.768,52.901 259.434,51.5676 258.5,50.5C 257.054,49.3871 255.387,49.2204 253.5,50C 247.392,56.4478 240.059,60.7812 231.5,63C 229.235,64.7581 227.568,66.9248 226.5,69.5C 225.833,70.1667 225.167,70.8333 224.5,71.5C 219.395,74.6006 214.062,77.2673 208.5,79.5C 206.685,76.5926 204.019,75.2593 200.5,75.5C 201.053,70.7637 203.719,67.597 208.5,66C 212.418,63.5235 213.751,60.1901 212.5,56C 209.403,54.7266 206.736,52.8933 204.5,50.5C 242.157,28.6106 282.49,13.6106 325.5,5.5 Z"/></g>
<g><path style="opacity:1" fill="#bded8e" d="M 355.5,28.5 C 355.833,28.5 356.167,28.5 356.5,28.5C 362.14,30.1512 367.474,32.6512 372.5,36C 378.059,35.776 382.059,38.1093 384.5,43C 383.711,44.6255 382.711,46.1255 381.5,47.5C 384.837,48.0894 388.004,49.0894 391,50.5C 391.309,51.7659 391.809,52.9326 392.5,54C 396.335,54.7074 400.002,55.8741 403.5,57.5C 404.552,59.1099 404.552,60.7766 403.5,62.5C 403.833,64.1667 404.833,65.1667 406.5,65.5C 407.452,67.0453 407.785,68.712 407.5,70.5C 405.883,73.7843 403.55,76.4509 400.5,78.5C 392.575,75.8468 385.242,72.0134 378.5,67C 374.035,66.434 370.035,64.7673 366.5,62C 353.612,58.3006 340.946,54.8006 328.5,51.5C 327.222,49.2009 325.889,46.8676 324.5,44.5C 322.392,43.645 320.226,42.9784 318,42.5C 315.456,45.1351 312.289,46.6351 308.5,47C 305.721,50.4546 302.388,53.1213 298.5,55C 289.498,54.368 280.498,54.5347 271.5,55.5C 269.167,55.3333 266.833,55.1667 264.5,55C 263.748,54.3292 263.414,53.4959 263.5,52.5C 263.5,51.8333 263.833,51.5 264.5,51.5C 264.56,52.0431 264.893,52.3764 265.5,52.5C 294.614,40.7233 324.614,32.7233 355.5,28.5 Z"/></g>
<g><path style="opacity:1" fill="#569ade" d="M 472.5,34.5 C 478.066,36.2439 483.733,37.5773 489.5,38.5C 490.627,39.1217 491.627,39.955 492.5,41C 500.345,40.9613 507.679,42.7946 514.5,46.5C 517.874,50.8755 521.874,54.5422 526.5,57.5C 547.111,94.5576 554.778,134.224 549.5,176.5C 546.456,195.633 540.789,213.966 532.5,231.5C 534.222,214.169 535.389,196.835 536,179.5C 532.197,201.576 525.197,222.576 515,242.5C 516.573,225.772 518.74,209.105 521.5,192.5C 528.103,132.648 511.77,79.9813 472.5,34.5 Z"/></g>
<g><path style="opacity:1" fill="#7bd730" d="M 258.5,50.5 C 258.785,52.288 258.452,53.9547 257.5,55.5C 246.672,60.0992 236.339,64.7659 226.5,69.5C 227.568,66.9248 229.235,64.7581 231.5,63C 240.059,60.7812 247.392,56.4478 253.5,50C 255.387,49.2204 257.054,49.3871 258.5,50.5 Z"/></g>
<g><path style="opacity:1" fill="#77d51f" d="M 204.5,50.5 C 206.736,52.8933 209.403,54.7266 212.5,56C 213.751,60.1901 212.418,63.5235 208.5,66C 203.719,67.597 201.053,70.7637 200.5,75.5C 204.019,75.2593 206.685,76.5926 208.5,79.5C 208.5,79.8333 208.5,80.1667 208.5,80.5C 170.893,103.097 138.893,132.097 112.5,167.5C 98.5082,184.799 86.5082,203.466 76.5,223.5C 72.4495,230.658 68.7828,237.992 65.5,245.5C 65.3354,242.482 65.502,239.482 66,236.5C 71.5066,227.799 75.5066,218.466 78,208.5C 81.972,203.889 84.3054,198.555 85,192.5C 94.1162,180.355 101.116,167.022 106,152.5C 109.575,149.047 112.909,145.381 116,141.5C 116.16,138.102 114.993,135.102 112.5,132.5C 110.06,136.292 107.893,140.292 106,144.5C 101.556,147.643 97.3889,151.143 93.5,155C 92.5509,155.617 91.7175,155.451 91,154.5C 90.3333,152.5 90.3333,150.5 91,148.5C 95.2327,144.357 99.2327,140.023 103,135.5C 103.813,133.564 104.313,131.564 104.5,129.5C 133.229,97.0783 166.562,70.7449 204.5,50.5 Z"/></g>
<g><path style="opacity:1" fill="#c7f09e" d="M 258.5,50.5 C 259.434,51.5676 259.768,52.901 259.5,54.5C 259.5,56.8333 259.5,59.1667 259.5,61.5C 262.005,61.0198 264.338,60.0198 266.5,58.5C 271.494,60.8226 276.661,61.156 282,59.5C 287.774,59.8155 293.274,60.8155 298.5,62.5C 298.958,65.3938 298.291,67.8938 296.5,70C 279.842,70.338 263.175,72.0047 246.5,75C 240.09,77.6059 233.423,79.6059 226.5,81C 218.8,85.1811 210.8,88.8477 202.5,92C 193.833,97.6667 185.167,103.333 176.5,109C 165.295,119.573 155.128,131.073 146,143.5C 141.652,151.532 137.319,159.532 133,167.5C 130.556,176.952 128.389,186.452 126.5,196C 127.775,201.012 127.775,206.012 126.5,211C 127.423,214.528 128.423,218.028 129.5,221.5C 128.717,225.674 129.717,229.507 132.5,233C 132.043,233.414 131.709,233.914 131.5,234.5C 132.789,237.58 134.455,240.414 136.5,243C 135.798,246.113 136.965,248.613 140,250.5C 140.406,253.915 142.072,256.582 145,258.5C 145.617,259.449 145.451,260.282 144.5,261C 148.5,265 152.5,269 156.5,273C 156.167,273.333 155.833,273.667 155.5,274C 160.486,276.155 164.152,279.655 166.5,284.5C 170.713,287.1 174.713,289.933 178.5,293C 180.436,293.813 182.436,294.313 184.5,294.5C 184.5,295.5 184.5,296.5 184.5,297.5C 187.935,298.697 191.102,300.364 194,302.5C 194.5,301.5 195,300.5 195.5,299.5C 193.208,297.742 190.541,296.576 187.5,296C 191.143,290.125 189.476,286.958 182.5,286.5C 182.343,285.127 182.51,283.793 183,282.5C 187.63,285.132 192.463,287.299 197.5,289C 197.167,289.333 196.833,289.667 196.5,290C 207.852,297.075 219.518,301.742 231.5,304C 236.314,305.604 240.981,307.437 245.5,309.5C 249.583,307.903 253.25,308.569 256.5,311.5C 261.608,310.684 266.608,311.351 271.5,313.5C 273.453,312.844 275.453,312.511 277.5,312.5C 277.198,315.059 277.532,317.393 278.5,319.5C 278.5,322.167 278.5,324.833 278.5,327.5C 278.489,329.017 277.823,330.184 276.5,331C 271.386,331.109 266.386,331.776 261.5,333C 258.875,335.196 257.875,338.03 258.5,341.5C 257.755,339.043 256.255,337.043 254,335.5C 253.228,335.645 252.561,335.978 252,336.5C 251.395,334.519 250.395,334.185 249,335.5C 241.673,333.123 234.173,330.956 226.5,329C 220.192,326.282 214.025,323.449 208,320.5C 207.506,322.134 207.34,323.801 207.5,325.5C 210.247,325.187 212.914,325.52 215.5,326.5C 214.593,329.421 214.26,332.421 214.5,335.5C 217.167,335.5 219.833,335.5 222.5,335.5C 222.5,337.5 222.5,339.5 222.5,341.5C 211.678,337.596 201.011,333.263 190.5,328.5C 181.392,321.744 171.392,315.578 160.5,310C 158.833,308.167 157.167,306.333 155.5,304.5C 151.469,302.088 147.636,299.421 144,296.5C 141.93,292.382 138.93,289.049 135,286.5C 134.667,285.5 134.333,284.5 134,283.5C 132.045,282.547 130.378,281.213 129,279.5C 126.363,273.098 122.196,267.264 116.5,262C 116.957,261.586 117.291,261.086 117.5,260.5C 116.167,258.5 114.833,256.5 113.5,254.5C 113.709,253.914 114.043,253.414 114.5,253C 112.341,248.299 110.341,243.466 108.5,238.5C 108.833,237.833 109.167,237.167 109.5,236.5C 106.335,229.872 104.669,222.872 104.5,215.5C 105.334,209.181 105.501,202.847 105,196.5C 106.816,190.651 107.983,184.651 108.5,178.5C 110.595,175.13 111.928,171.463 112.5,167.5C 138.893,132.097 170.893,103.097 208.5,80.5C 209.837,81.3149 210.837,82.4815 211.5,84C 213.167,84.6667 214.833,84.6667 216.5,84C 217.113,81.8526 217.779,79.686 218.5,77.5C 221.545,76.4556 223.545,74.4556 224.5,71.5C 225.167,70.8333 225.833,70.1667 226.5,69.5C 236.339,64.7659 246.672,60.0992 257.5,55.5C 258.452,53.9547 258.785,52.288 258.5,50.5 Z"/></g>
<g><path style="opacity:1" fill="#98cbf9" d="M 224.5,71.5 C 223.545,74.4556 221.545,76.4556 218.5,77.5C 217.779,79.686 217.113,81.8526 216.5,84C 214.833,84.6667 213.167,84.6667 211.5,84C 210.837,82.4815 209.837,81.3149 208.5,80.5C 208.5,80.1667 208.5,79.8333 208.5,79.5C 214.062,77.2673 219.395,74.6006 224.5,71.5 Z"/></g>
<g><path style="opacity:1" fill="#afea79" d="M 490.5,100.5 C 487.351,100.789 484.351,100.289 481.5,99C 478.64,95.228 475.306,91.8947 471.5,89C 469.5,88.6667 467.5,88.3333 465.5,88C 464.62,86.6439 464.286,85.1439 464.5,83.5C 468.661,81.9372 472.995,81.2705 477.5,81.5C 477.629,79.7839 477.962,78.1172 478.5,76.5C 481.177,74.568 484.177,74.068 487.5,75C 490.502,77.503 493.835,79.503 497.5,81C 498.958,83.46 500.791,85.6266 503,87.5C 505.572,98.3673 501.406,102.701 490.5,100.5 Z"/></g>
<g><path style="opacity:1" fill="#488ccf" d="M 526.5,57.5 C 530.035,58.0516 533.368,59.2182 536.5,61C 541.201,65.3658 545.534,70.0325 549.5,75C 553.833,78.6667 558.167,82.3333 562.5,86C 571.606,83.9216 578.272,87.0883 582.5,95.5C 581.957,95.56 581.624,95.8933 581.5,96.5C 583.09,102.116 584.423,107.783 585.5,113.5C 580.73,111.104 575.897,109.771 571,109.5C 571.304,113.561 569.804,116.727 566.5,119C 573.227,122.694 579.893,126.36 586.5,130C 587.89,137.325 588.223,144.658 587.5,152C 587.978,153.303 588.645,154.469 589.5,155.5C 587.919,186.394 580.253,215.728 566.5,243.5C 566.788,236.559 568.288,229.893 571,223.5C 572.047,208.791 573.047,194.125 574,179.5C 571.175,197.469 566.175,214.803 559,231.5C 558.677,221.699 559.677,212.032 562,202.5C 562.667,193.833 562.667,185.167 562,176.5C 559.099,195.869 553.766,214.535 546,232.5C 545.539,224.647 546.539,216.981 549,209.5C 549.5,198.505 549.667,187.505 549.5,176.5C 554.778,134.224 547.111,94.5576 526.5,57.5 Z"/></g>
<g><path style="opacity:1" fill="#8cc5fe" d="M 407.5,70.5 C 445.534,105.965 456.701,148.631 441,198.5C 440.667,197.5 440.333,196.5 440,195.5C 436.698,207.072 432.031,218.072 426,228.5C 425.667,227.833 425.333,227.167 425,226.5C 418.774,236.726 411.774,246.393 404,255.5C 403.667,255.167 403.333,254.833 403,254.5C 399.201,259.301 395.034,263.801 390.5,268C 384.5,273 378.5,278 372.5,283C 371.833,283.667 371.167,283.667 370.5,283C 373.274,280.936 375.107,278.436 376,275.5C 348.243,297.959 316.743,312.792 281.5,320C 279.98,322.334 278.98,324.834 278.5,327.5C 278.5,324.833 278.5,322.167 278.5,319.5C 278.012,310.983 281.679,304.983 289.5,301.5C 292.552,298.424 295.386,295.09 298,291.5C 298.351,296.349 299.184,301.016 300.5,305.5C 301.873,305.657 303.207,305.49 304.5,305C 313.383,296.117 322.883,287.95 333,280.5C 332.125,276.978 331.292,273.312 330.5,269.5C 331.82,268.058 333.486,267.392 335.5,267.5C 336.5,267.5 337.5,267.5 338.5,267.5C 338.965,263.371 341.299,261.371 345.5,261.5C 349.82,261.494 353.153,263.327 355.5,267C 359.821,267.499 364.154,267.666 368.5,267.5C 370.184,260.679 368.018,255.679 362,252.5C 361.517,251.552 361.351,250.552 361.5,249.5C 365.033,244.456 369.2,239.789 374,235.5C 374.333,235.833 374.667,236.167 375,236.5C 387.646,220.874 396.312,203.207 401,183.5C 401.667,188.833 402.333,188.833 403,183.5C 406.588,164.117 404.421,145.451 396.5,127.5C 397.167,127.167 397.833,126.833 398.5,126.5C 395.598,120.111 392.098,114.111 388,108.5C 387.503,106.19 387.337,103.857 387.5,101.5C 388.335,97.8952 390.669,95.8952 394.5,95.5C 394.833,94.6667 395.167,93.8333 395.5,93C 394.497,90.5324 393.997,88.0324 394,85.5C 395.862,82.8334 398.028,80.5001 400.5,78.5C 403.55,76.4509 405.883,73.7843 407.5,70.5 Z"/></g>
<g><path style="opacity:1" fill="#9fcffe" d="M 328.5,51.5 C 328.336,54.1873 328.503,56.854 329,59.5C 330.713,63.0946 332.547,66.5946 334.5,70C 330.287,77.433 332.287,81.5996 340.5,82.5C 340.833,83.6667 341.167,84.8333 341.5,86C 341.315,88.3759 340.315,90.2092 338.5,91.5C 337.366,93.9664 337.199,96.633 338,99.5C 341.52,107.05 344.853,114.717 348,122.5C 352.504,128.036 357.337,133.203 362.5,138C 367.492,140.161 372.159,142.828 376.5,146C 379.833,146.667 383.167,146.667 386.5,146C 387.804,145.196 388.471,144.029 388.5,142.5C 387.895,134.683 387.229,127.017 386.5,119.5C 386.177,113.31 386.51,107.31 387.5,101.5C 387.337,103.857 387.503,106.19 388,108.5C 392.098,114.111 395.598,120.111 398.5,126.5C 397.833,126.833 397.167,127.167 396.5,127.5C 404.421,145.451 406.588,164.117 403,183.5C 402.333,188.833 401.667,188.833 401,183.5C 396.312,203.207 387.646,220.874 375,236.5C 374.667,236.167 374.333,235.833 374,235.5C 369.2,239.789 365.033,244.456 361.5,249.5C 361.768,246.881 361.435,244.381 360.5,242C 357.026,241.699 353.692,240.866 350.5,239.5C 349.402,237.368 348.402,235.202 347.5,233C 341.344,231.487 338.677,233.987 339.5,240.5C 339.63,242.375 339.963,244.208 340.5,246C 334.979,252.251 333.313,259.417 335.5,267.5C 333.486,267.392 331.82,268.058 330.5,269.5C 328.389,268.032 326.556,268.365 325,270.5C 323.79,274.087 322.29,277.42 320.5,280.5C 318.032,279.197 315.699,277.697 313.5,276C 311.527,275.505 309.527,275.338 307.5,275.5C 306.178,275.67 305.011,275.337 304,274.5C 303.374,271.137 303.041,267.804 303,264.5C 304.717,262.127 306.217,259.627 307.5,257C 310.963,254.436 314.796,252.603 319,251.5C 319.167,251.167 319.333,250.833 319.5,250.5C 318.667,250.167 317.833,249.833 317,249.5C 308.187,251.102 299.687,253.602 291.5,257C 288.817,260.717 286.317,264.551 284,268.5C 282.89,270.037 281.39,270.703 279.5,270.5C 280.763,265.968 282.597,261.635 285,257.5C 288.799,254.703 292.299,251.536 295.5,248C 300.882,247.693 306.215,247.026 311.5,246C 315.288,242.067 319.955,240.067 325.5,240C 327.076,237.923 329.076,236.423 331.5,235.5C 332.624,234.086 333.624,232.586 334.5,231C 339.5,230.667 344.5,230.333 349.5,230C 350.591,227.936 350.758,225.769 350,223.5C 347.898,221.905 346.398,219.905 345.5,217.5C 345.343,216.127 345.51,214.793 346,213.5C 350.446,206.942 354.113,199.942 357,192.5C 357.333,193.167 357.667,193.833 358,194.5C 368.313,164.109 361.48,138.276 337.5,117C 331.101,112.81 324.768,108.643 318.5,104.5C 315.315,100.816 311.982,97.3163 308.5,94C 306.866,93.5065 305.199,93.3398 303.5,93.5C 303.111,89.5863 303.778,85.9196 305.5,82.5C 306.237,80.6954 307.237,79.0287 308.5,77.5C 305.798,75.0578 302.965,72.7244 300,70.5C 299.817,67.6353 299.317,64.9686 298.5,62.5C 293.274,60.8155 287.774,59.8155 282,59.5C 276.661,61.156 271.494,60.8226 266.5,58.5C 264.338,60.0198 262.005,61.0198 259.5,61.5C 259.5,59.1667 259.5,56.8333 259.5,54.5C 260.833,53.8333 262.167,53.1667 263.5,52.5C 263.414,53.4959 263.748,54.3292 264.5,55C 266.833,55.1667 269.167,55.3333 271.5,55.5C 280.498,54.5347 289.498,54.368 298.5,55C 302.388,53.1213 305.721,50.4546 308.5,47C 312.289,46.6351 315.456,45.1351 318,42.5C 320.226,42.9784 322.392,43.645 324.5,44.5C 325.889,46.8676 327.222,49.2009 328.5,51.5 Z"/></g>
<g><path style="opacity:1" fill="#d2f4b1" d="M 305.5,82.5 C 303.778,85.9196 303.111,89.5863 303.5,93.5C 305.199,93.3398 306.866,93.5065 308.5,94C 311.982,97.3163 315.315,100.816 318.5,104.5C 318.201,106.973 317.201,109.14 315.5,111C 316.769,114.712 316.769,118.378 315.5,122C 314.833,122.667 314.167,122.667 313.5,122C 310.236,118.227 306.57,115.06 302.5,112.5C 297.362,111.053 292.029,109.886 286.5,109C 285.944,108.617 285.611,108.117 285.5,107.5C 285.649,106.448 285.483,105.448 285,104.5C 283.243,103.881 282.076,102.714 281.5,101C 284.989,97.0782 285.323,92.9115 282.5,88.5C 280.579,87.359 278.579,87.1923 276.5,88C 272.4,91.2371 270.4,95.4037 270.5,100.5C 245.626,102.469 222.626,110.303 201.5,124C 194.721,130.779 187.887,137.613 181,144.5C 175.152,152.865 169.819,161.532 165,170.5C 162.384,177.581 161.051,184.915 161,192.5C 158.755,195.881 158.088,199.548 159,203.5C 161.006,210.182 163.006,216.849 165,223.5C 167,226.167 169,228.833 171,231.5C 171.617,232.449 171.451,233.282 170.5,234C 173.5,237 176.5,240 179.5,243C 179.167,243.333 178.833,243.667 178.5,244C 184.996,249.692 190.996,255.192 196.5,260.5C 202.448,263.636 208.781,267.136 215.5,271C 219.658,272.806 223.991,274.139 228.5,275C 228.167,275.333 227.833,275.667 227.5,276C 235.316,277.515 242.983,279.348 250.5,281.5C 258.691,282.675 266.858,282.675 275,281.5C 277.136,282.268 279.303,282.934 281.5,283.5C 286.161,282.494 290.827,281.494 295.5,280.5C 301.096,283.181 305.096,281.515 307.5,275.5C 309.527,275.338 311.527,275.505 313.5,276C 315.699,277.697 318.032,279.197 320.5,280.5C 322.29,277.42 323.79,274.087 325,270.5C 326.556,268.365 328.389,268.032 330.5,269.5C 331.292,273.312 332.125,276.978 333,280.5C 322.883,287.95 313.383,296.117 304.5,305C 303.207,305.49 301.873,305.657 300.5,305.5C 299.184,301.016 298.351,296.349 298,291.5C 295.386,295.09 292.552,298.424 289.5,301.5C 289.134,300.305 288.301,299.639 287,299.5C 283.326,298.829 279.492,298.829 275.5,299.5C 255.22,297.81 236.054,293.81 218,287.5C 212.18,283.704 205.346,280.537 197.5,278C 196.167,277.333 196.167,276.667 197.5,276C 193.021,274.83 189.021,272.83 185.5,270C 179.697,263.846 173.864,258.346 168,253.5C 167.5,254.5 167,255.5 166.5,256.5C 168.193,258.027 170.027,259.36 172,260.5C 172.305,262.557 172.305,264.557 172,266.5C 174.25,267.708 176.417,269.041 178.5,270.5C 178.023,271.931 177.357,273.264 176.5,274.5C 175.597,272.143 173.93,270.643 171.5,270C 171.833,269.667 172.167,269.333 172.5,269C 168.99,265.986 165.99,262.486 163.5,258.5C 161.31,256.476 158.977,254.643 156.5,253C 156.833,252.667 157.167,252.333 157.5,252C 154.8,248.563 152.466,244.897 150.5,241C 150.957,240.586 151.291,240.086 151.5,239.5C 149.427,235.386 147.427,231.22 145.5,227C 137.07,182.029 151.403,145.362 188.5,117C 195.007,112.914 201.34,108.58 207.5,104C 217.669,98.7952 228.002,94.1285 238.5,90C 251.829,87.6959 264.996,85.1959 278,82.5C 287.014,82.3369 296.181,82.3369 305.5,82.5 Z"/></g>
<g><path style="opacity:1" fill="#cbf2a5" d="M 328.5,51.5 C 340.946,54.8006 353.612,58.3006 366.5,62C 370.035,64.7673 374.035,66.434 378.5,67C 385.242,72.0134 392.575,75.8468 400.5,78.5C 398.028,80.5001 395.862,82.8334 394,85.5C 393.997,88.0324 394.497,90.5324 395.5,93C 395.167,93.8333 394.833,94.6667 394.5,95.5C 390.669,95.8952 388.335,97.8952 387.5,101.5C 386.51,107.31 386.177,113.31 386.5,119.5C 386.666,124.511 386.499,129.511 386,134.5C 379.157,127.968 372.657,121.135 366.5,114C 363.29,112.799 360.623,110.799 358.5,108C 352.81,104.488 346.81,101.488 340.5,99C 338.722,96.8646 338.055,94.3646 338.5,91.5C 340.315,90.2092 341.315,88.3759 341.5,86C 341.167,84.8333 340.833,83.6667 340.5,82.5C 332.287,81.5996 330.287,77.433 334.5,70C 332.547,66.5946 330.713,63.0946 329,59.5C 328.503,56.854 328.336,54.1873 328.5,51.5 Z"/></g>
<g><path style="opacity:1" fill="#d2f4b3" d="M 338.5,91.5 C 338.055,94.3646 338.722,96.8646 340.5,99C 346.81,101.488 352.81,104.488 358.5,108C 360.623,110.799 363.29,112.799 366.5,114C 372.657,121.135 379.157,127.968 386,134.5C 386.499,129.511 386.666,124.511 386.5,119.5C 387.229,127.017 387.895,134.683 388.5,142.5C 388.471,144.029 387.804,145.196 386.5,146C 383.167,146.667 379.833,146.667 376.5,146C 372.159,142.828 367.492,140.161 362.5,138C 357.337,133.203 352.504,128.036 348,122.5C 344.853,114.717 341.52,107.05 338,99.5C 337.199,96.633 337.366,93.9664 338.5,91.5 Z"/></g>
<g><path style="opacity:1" fill="#d7f5b8" d="M 270.5,100.5 C 268.772,107.893 264.106,111.56 256.5,111.5C 242.194,114.436 228.528,119.269 215.5,126C 206.703,133.128 198.203,140.628 190,148.5C 183.627,157.246 178.294,166.58 174,176.5C 172.351,183.689 172.184,190.856 173.5,198C 172.833,199 172.167,200 171.5,201C 172.766,205.462 174.433,209.795 176.5,214C 176.265,214.873 175.931,215.707 175.5,216.5C 177.043,219.086 178.709,221.586 180.5,224C 179.549,224.718 179.383,225.551 180,226.5C 186.015,233.855 192.182,240.855 198.5,247.5C 203.623,249.798 208.623,252.298 213.5,255C 213.167,255.333 212.833,255.667 212.5,256C 217.178,257.679 221.845,259.346 226.5,261C 226.167,261.333 225.833,261.667 225.5,262C 235.404,264.756 245.237,267.256 255,269.5C 260.653,269.269 266.319,269.269 272,269.5C 274.077,268.983 276.077,268.316 278,267.5C 278.232,268.737 278.732,269.737 279.5,270.5C 281.39,270.703 282.89,270.037 284,268.5C 286.317,264.551 288.817,260.717 291.5,257C 299.687,253.602 308.187,251.102 317,249.5C 317.833,249.833 318.667,250.167 319.5,250.5C 319.333,250.833 319.167,251.167 319,251.5C 314.796,252.603 310.963,254.436 307.5,257C 306.217,259.627 304.717,262.127 303,264.5C 303.041,267.804 303.374,271.137 304,274.5C 305.011,275.337 306.178,275.67 307.5,275.5C 305.096,281.515 301.096,283.181 295.5,280.5C 290.827,281.494 286.161,282.494 281.5,283.5C 279.303,282.934 277.136,282.268 275,281.5C 266.858,282.675 258.691,282.675 250.5,281.5C 242.983,279.348 235.316,277.515 227.5,276C 227.833,275.667 228.167,275.333 228.5,275C 223.991,274.139 219.658,272.806 215.5,271C 208.781,267.136 202.448,263.636 196.5,260.5C 190.996,255.192 184.996,249.692 178.5,244C 178.833,243.667 179.167,243.333 179.5,243C 176.5,240 173.5,237 170.5,234C 171.451,233.282 171.617,232.449 171,231.5C 169,228.833 167,226.167 165,223.5C 163.006,216.849 161.006,210.182 159,203.5C 158.088,199.548 158.755,195.881 161,192.5C 161.051,184.915 162.384,177.581 165,170.5C 169.819,161.532 175.152,152.865 181,144.5C 187.887,137.613 194.721,130.779 201.5,124C 222.626,110.303 245.626,102.469 270.5,100.5 Z"/></g>
<g><path style="opacity:1" fill="#64a8ea" d="M 433.5,28.5 C 446.56,30.1768 459.56,32.1768 472.5,34.5C 511.77,79.9813 528.103,132.648 521.5,192.5C 516.112,213.94 507.446,233.94 495.5,252.5C 495.899,246.695 497.733,241.362 501,236.5C 502.81,226.551 503.81,216.551 504,206.5C 497.192,227.791 487.025,247.125 473.5,264.5C 480.115,251.728 484.115,238.062 485.5,223.5C 488.938,214.017 492.105,204.351 495,194.5C 502.278,162.701 500.778,131.368 490.5,100.5C 501.406,102.701 505.572,98.3673 503,87.5C 500.791,85.6266 498.958,83.46 497.5,81C 493.835,79.503 490.502,77.503 487.5,75C 484.177,74.068 481.177,74.568 478.5,76.5C 466.292,57.9566 451.292,41.9566 433.5,28.5 Z"/></g>
<g><path style="opacity:1" fill="#8bdd3f" d="M 514.5,46.5 C 560.21,62.0934 601.043,85.76 637,117.5C 638.153,120.711 638.82,124.044 639,127.5C 640,129.167 641,130.833 642,132.5C 644.09,144.385 645.59,156.385 646.5,168.5C 645.328,171.357 645.661,173.857 647.5,176C 646.383,179.073 646.216,182.24 647,185.5C 650.603,186.135 654.103,186.802 657.5,187.5C 655.833,187.5 654.167,187.5 652.5,187.5C 647.908,187.602 643.575,186.602 639.5,184.5C 638.614,183.675 638.281,182.675 638.5,181.5C 641.347,175.942 643.014,169.942 643.5,163.5C 642.162,157.822 640.828,152.155 639.5,146.5C 636.812,143.978 633.979,141.644 631,139.5C 630.906,133.722 630.239,128.056 629,122.5C 621.333,117.5 613.667,112.5 606,107.5C 606.352,101.452 604.852,95.9521 601.5,91C 599.888,90.2797 598.388,90.4464 597,91.5C 596.667,94.1667 596.333,96.8333 596,99.5C 595.882,101.573 594.882,102.907 593,103.5C 588.639,101.909 585.139,99.2428 582.5,95.5C 578.272,87.0883 571.606,83.9216 562.5,86C 558.167,82.3333 553.833,78.6667 549.5,75C 545.534,70.0325 541.201,65.3658 536.5,61C 533.368,59.2182 530.035,58.0516 526.5,57.5C 521.874,54.5422 517.874,50.8755 514.5,46.5 Z"/></g>
<g><path style="opacity:1" fill="#b1d8fe" d="M 318.5,104.5 C 324.768,108.643 331.101,112.81 337.5,117C 361.48,138.276 368.313,164.109 358,194.5C 357.667,193.833 357.333,193.167 357,192.5C 354.113,199.942 350.446,206.942 346,213.5C 345.51,214.793 345.343,216.127 345.5,217.5C 343.117,212.403 340.45,207.403 337.5,202.5C 336.264,201.754 334.93,201.421 333.5,201.5C 330.212,198.551 326.879,195.551 323.5,192.5C 321.962,190.757 320.962,188.757 320.5,186.5C 325.617,166.231 319.617,150.064 302.5,138C 303.044,137.283 303.711,136.783 304.5,136.5C 306.39,136.703 307.89,136.037 309,134.5C 309.624,129.777 309.29,125.11 308,120.5C 305.913,119.206 303.746,118.039 301.5,117C 299.963,115.89 299.297,114.39 299.5,112.5C 300.5,112.5 301.5,112.5 302.5,112.5C 306.57,115.06 310.236,118.227 313.5,122C 314.167,122.667 314.833,122.667 315.5,122C 316.769,118.378 316.769,114.712 315.5,111C 317.201,109.14 318.201,106.973 318.5,104.5 Z"/></g>
<g><path style="opacity:1" fill="#ddf6c5" d="M 285.5,107.5 C 285.611,108.117 285.944,108.617 286.5,109C 292.029,109.886 297.362,111.053 302.5,112.5C 301.5,112.5 300.5,112.5 299.5,112.5C 299.297,114.39 299.963,115.89 301.5,117C 303.746,118.039 305.913,119.206 308,120.5C 309.29,125.11 309.624,129.777 309,134.5C 307.89,136.037 306.39,136.703 304.5,136.5C 302.104,132.418 300.104,132.585 298.5,137C 298.759,138.261 299.426,139.261 300.5,140C 303.249,141.123 305.749,142.623 308,144.5C 308.611,148.088 307.111,149.254 303.5,148C 297.264,145.52 290.931,143.186 284.5,141C 282.666,136.995 280.333,133.328 277.5,130C 273.841,130.037 270.674,128.871 268,126.5C 267.219,125.056 267.386,123.723 268.5,122.5C 271.246,120.527 274.246,119.027 277.5,118C 279.647,114.031 282.313,110.531 285.5,107.5 Z"/></g>
<g><path style="opacity:1" fill="#dbf7c0" d="M 256.5,111.5 C 254.897,112.596 253.397,113.93 252,115.5C 251.22,117.387 251.387,119.054 252.5,120.5C 252.389,121.117 252.056,121.617 251.5,122C 231.738,127.298 214.571,137.131 200,151.5C 188.47,166.645 182.97,183.645 183.5,202.5C 185.099,206.865 187.099,211.031 189.5,215C 189.167,215.333 188.833,215.667 188.5,216C 193.02,222.218 197.687,228.218 202.5,234C 204.996,235.08 207.33,236.414 209.5,238C 209.167,238.333 208.833,238.667 208.5,239C 210.717,240.275 213.051,241.275 215.5,242C 214.167,242.667 214.167,243.333 215.5,244C 220.644,245.414 225.644,247.081 230.5,249C 231.167,249.667 231.833,250.333 232.5,251C 241.596,252.871 250.763,254.371 260,255.5C 265.179,255.438 270.346,255.438 275.5,255.5C 278.07,254.366 280.736,253.532 283.5,253C 286.167,249.667 288.833,246.333 291.5,243C 287.294,244.398 282.961,245.398 278.5,246C 280.167,243.667 281.833,241.333 283.5,239C 299.885,234.693 313.718,225.86 325,212.5C 327.37,208.403 330.203,204.736 333.5,201.5C 334.93,201.421 336.264,201.754 337.5,202.5C 340.45,207.403 343.117,212.403 345.5,217.5C 346.398,219.905 347.898,221.905 350,223.5C 350.758,225.769 350.591,227.936 349.5,230C 344.5,230.333 339.5,230.667 334.5,231C 333.624,232.586 332.624,234.086 331.5,235.5C 329.076,236.423 327.076,237.923 325.5,240C 319.955,240.067 315.288,242.067 311.5,246C 306.215,247.026 300.882,247.693 295.5,248C 292.299,251.536 288.799,254.703 285,257.5C 282.597,261.635 280.763,265.968 279.5,270.5C 278.732,269.737 278.232,268.737 278,267.5C 276.077,268.316 274.077,268.983 272,269.5C 266.319,269.269 260.653,269.269 255,269.5C 245.237,267.256 235.404,264.756 225.5,262C 225.833,261.667 226.167,261.333 226.5,261C 221.845,259.346 217.178,257.679 212.5,256C 212.833,255.667 213.167,255.333 213.5,255C 208.623,252.298 203.623,249.798 198.5,247.5C 192.182,240.855 186.015,233.855 180,226.5C 179.383,225.551 179.549,224.718 180.5,224C 178.709,221.586 177.043,219.086 175.5,216.5C 175.931,215.707 176.265,214.873 176.5,214C 174.433,209.795 172.766,205.462 171.5,201C 172.167,200 172.833,199 173.5,198C 172.184,190.856 172.351,183.689 174,176.5C 178.294,166.58 183.627,157.246 190,148.5C 198.203,140.628 206.703,133.128 215.5,126C 228.528,119.269 242.194,114.436 256.5,111.5 Z"/></g>
<g><path style="opacity:1" fill="#dff7c7" d="M 252.5,120.5 C 255.971,121.679 257.304,124.179 256.5,128C 257.091,132.422 255.424,135.756 251.5,138C 247.987,139.171 244.487,140.338 241,141.5C 238.242,140.029 236.409,137.695 235.5,134.5C 233.579,133.359 231.579,133.192 229.5,134C 224.969,137.571 221.802,142.071 220,147.5C 210.697,153.473 202.697,160.806 196,169.5C 195.13,175.917 195.464,182.251 197,188.5C 197.833,189.333 198.667,190.167 199.5,191C 202.623,191.206 205.623,191.873 208.5,193C 214.071,199.242 220.238,204.742 227,209.5C 228,218.833 229,228.167 230,237.5C 232.881,239.028 235.214,238.362 237,235.5C 237.498,232.183 237.665,228.85 237.5,225.5C 238.416,225.018 239.416,224.685 240.5,224.5C 248.972,226.332 257.472,226.999 266,226.5C 287.973,223.728 304.14,212.395 314.5,192.5C 314.167,191.833 313.833,191.167 313.5,190.5C 314.516,187.718 315.516,185.051 316.5,182.5C 317.833,183.833 319.167,185.167 320.5,186.5C 320.962,188.757 321.962,190.757 323.5,192.5C 326.879,195.551 330.212,198.551 333.5,201.5C 330.203,204.736 327.37,208.403 325,212.5C 313.718,225.86 299.885,234.693 283.5,239C 281.833,241.333 280.167,243.667 278.5,246C 282.961,245.398 287.294,244.398 291.5,243C 288.833,246.333 286.167,249.667 283.5,253C 280.736,253.532 278.07,254.366 275.5,255.5C 270.346,255.438 265.179,255.438 260,255.5C 250.763,254.371 241.596,252.871 232.5,251C 231.833,250.333 231.167,249.667 230.5,249C 225.644,247.081 220.644,245.414 215.5,244C 214.167,243.333 214.167,242.667 215.5,242C 213.051,241.275 210.717,240.275 208.5,239C 208.833,238.667 209.167,238.333 209.5,238C 207.33,236.414 204.996,235.08 202.5,234C 197.687,228.218 193.02,222.218 188.5,216C 188.833,215.667 189.167,215.333 189.5,215C 187.099,211.031 185.099,206.865 183.5,202.5C 182.97,183.645 188.47,166.645 200,151.5C 214.571,137.131 231.738,127.298 251.5,122C 252.056,121.617 252.389,121.117 252.5,120.5 Z"/></g>
<g><path style="opacity:1" fill="#91e145" d="M 585.5,113.5 C 593.698,117.774 601.031,123.274 607.5,130C 611.221,132.527 615.221,134.527 619.5,136C 625.488,140.765 630.988,145.932 636,151.5C 639.391,156.19 639.225,160.523 635.5,164.5C 634.23,172.966 629.896,175.299 622.5,171.5C 624.088,163.475 621.088,160.809 613.5,163.5C 613.919,169.586 611.253,171.753 605.5,170C 603.926,168.174 603.093,166.007 603,163.5C 599.822,158.468 595.322,155.801 589.5,155.5C 588.645,154.469 587.978,153.303 587.5,152C 588.223,144.658 587.89,137.325 586.5,130C 579.893,126.36 573.227,122.694 566.5,119C 569.804,116.727 571.304,113.561 571,109.5C 575.897,109.771 580.73,111.104 585.5,113.5 Z"/></g>
<g><path style="opacity:1" fill="#7cbcfc" d="M 380.5,27.5 C 382.527,27.3379 384.527,27.5045 386.5,28C 452.821,60.8039 481.154,113.971 471.5,187.5C 467.001,207.322 459.001,225.655 447.5,242.5C 446.749,241.624 446.249,240.624 446,239.5C 440.154,249.682 433.154,259.015 425,267.5C 424.667,267.167 424.333,266.833 424,266.5C 389.258,301.995 347.424,326.495 298.5,340C 283.095,343.209 269.095,346.376 256.5,349.5C 257.371,346.888 258.037,344.221 258.5,341.5C 257.875,338.03 258.875,335.196 261.5,333C 266.386,331.776 271.386,331.109 276.5,331C 277.823,330.184 278.489,329.017 278.5,327.5C 278.98,324.834 279.98,322.334 281.5,320C 316.743,312.792 348.243,297.959 376,275.5C 375.107,278.436 373.274,280.936 370.5,283C 371.167,283.667 371.833,283.667 372.5,283C 378.5,278 384.5,273 390.5,268C 395.034,263.801 399.201,259.301 403,254.5C 403.333,254.833 403.667,255.167 404,255.5C 411.774,246.393 418.774,236.726 425,226.5C 425.333,227.167 425.667,227.833 426,228.5C 432.031,218.072 436.698,207.072 440,195.5C 440.333,196.5 440.667,197.5 441,198.5C 456.701,148.631 445.534,105.965 407.5,70.5C 407.785,68.712 407.452,67.0453 406.5,65.5C 404.833,65.1667 403.833,64.1667 403.5,62.5C 404.552,60.7766 404.552,59.1099 403.5,57.5C 400.002,55.8741 396.335,54.7074 392.5,54C 391.809,52.9326 391.309,51.7659 391,50.5C 388.004,49.0894 384.837,48.0894 381.5,47.5C 382.711,46.1255 383.711,44.6255 384.5,43C 382.059,38.1093 378.059,35.776 372.5,36C 367.474,32.6512 362.14,30.1512 356.5,28.5C 364.5,28.1667 372.5,27.8333 380.5,27.5 Z"/></g>
<g><path style="opacity:1" fill="#c7e3fe" d="M 285.5,107.5 C 282.313,110.531 279.647,114.031 277.5,118C 274.246,119.027 271.246,120.527 268.5,122.5C 267.386,123.723 267.219,125.056 268,126.5C 270.674,128.871 273.841,130.037 277.5,130C 280.333,133.328 282.666,136.995 284.5,141C 290.931,143.186 297.264,145.52 303.5,148C 307.111,149.254 308.611,148.088 308,144.5C 305.749,142.623 303.249,141.123 300.5,140C 299.426,139.261 298.759,138.261 298.5,137C 300.104,132.585 302.104,132.418 304.5,136.5C 303.711,136.783 303.044,137.283 302.5,138C 319.617,150.064 325.617,166.231 320.5,186.5C 319.167,185.167 317.833,183.833 316.5,182.5C 316.649,179.393 316.149,176.393 315,173.5C 312.472,169.874 310.805,165.874 310,161.5C 305.317,155.514 301.984,156.18 300,163.5C 296.904,166.768 293.737,169.768 290.5,172.5C 289.446,172.32 288.446,171.987 287.5,171.5C 286.34,167.541 286.173,163.541 287,159.5C 289.781,159.105 291.947,157.772 293.5,155.5C 293.023,154.522 292.357,153.689 291.5,153C 284.796,153.648 279.796,151.148 276.5,145.5C 272,143.617 267.333,143.117 262.5,144C 260.285,145.044 257.952,145.71 255.5,146C 254.478,148.545 253.312,151.045 252,153.5C 251.76,162.023 251.26,170.523 250.5,179C 250.658,181.149 251.492,182.983 253,184.5C 253.667,187.833 253.667,191.167 253,194.5C 250.173,197.329 248.173,200.663 247,204.5C 243.797,205.77 241.13,207.77 239,210.5C 238.088,215.464 237.588,220.464 237.5,225.5C 237.665,228.85 237.498,232.183 237,235.5C 235.214,238.362 232.881,239.028 230,237.5C 229,228.167 228,218.833 227,209.5C 220.238,204.742 214.071,199.242 208.5,193C 205.623,191.873 202.623,191.206 199.5,191C 198.667,190.167 197.833,189.333 197,188.5C 195.464,182.251 195.13,175.917 196,169.5C 202.697,160.806 210.697,153.473 220,147.5C 221.802,142.071 224.969,137.571 229.5,134C 231.579,133.192 233.579,133.359 235.5,134.5C 236.409,137.695 238.242,140.029 241,141.5C 244.487,140.338 247.987,139.171 251.5,138C 255.424,135.756 257.091,132.422 256.5,128C 257.304,124.179 255.971,121.679 252.5,120.5C 251.387,119.054 251.22,117.387 252,115.5C 253.397,113.93 254.897,112.596 256.5,111.5C 264.106,111.56 268.772,107.893 270.5,100.5C 270.4,95.4037 272.4,91.2371 276.5,88C 278.579,87.1923 280.579,87.359 282.5,88.5C 285.323,92.9115 284.989,97.0782 281.5,101C 282.076,102.714 283.243,103.881 285,104.5C 285.483,105.448 285.649,106.448 285.5,107.5 Z"/></g>
<g><path style="opacity:1" fill="#e7fad5" d="M 316.5,182.5 C 315.516,185.051 314.516,187.718 313.5,190.5C 313.833,191.167 314.167,191.833 314.5,192.5C 304.14,212.395 287.973,223.728 266,226.5C 257.472,226.999 248.972,226.332 240.5,224.5C 239.416,224.685 238.416,225.018 237.5,225.5C 237.588,220.464 238.088,215.464 239,210.5C 241.13,207.77 243.797,205.77 247,204.5C 248.173,200.663 250.173,197.329 253,194.5C 253.667,191.167 253.667,187.833 253,184.5C 251.492,182.983 250.658,181.149 250.5,179C 251.26,170.523 251.76,162.023 252,153.5C 253.312,151.045 254.478,148.545 255.5,146C 257.952,145.71 260.285,145.044 262.5,144C 267.333,143.117 272,143.617 276.5,145.5C 279.796,151.148 284.796,153.648 291.5,153C 292.357,153.689 293.023,154.522 293.5,155.5C 291.947,157.772 289.781,159.105 287,159.5C 286.173,163.541 286.34,167.541 287.5,171.5C 288.446,171.987 289.446,172.32 290.5,172.5C 293.737,169.768 296.904,166.768 300,163.5C 301.984,156.18 305.317,155.514 310,161.5C 310.805,165.874 312.472,169.874 315,173.5C 316.149,176.393 316.649,179.393 316.5,182.5 Z"/></g>
<g><path style="opacity:1" fill="#357bc1" d="M 589.5,155.5 C 595.322,155.801 599.822,158.468 603,163.5C 603.093,166.007 603.926,168.174 605.5,170C 611.253,171.753 613.919,169.586 613.5,163.5C 621.088,160.809 624.088,163.475 622.5,171.5C 619.762,204.549 610.262,235.549 594,264.5C 593.56,266.866 593.06,269.199 592.5,271.5C 587.404,273.883 582.404,276.549 577.5,279.5C 566.966,285.043 556.966,291.377 547.5,298.5C 548.919,293.127 551.086,288.127 554,283.5C 557.57,269.86 561.737,256.526 566.5,243.5C 580.253,215.728 587.919,186.394 589.5,155.5 Z"/></g>
<g><path style="opacity:1" fill="#2a6eb1" d="M 638.5,181.5 C 638.666,176.156 638.499,170.823 638,165.5C 635.558,185.266 631.225,204.6 625,223.5C 625.197,230.498 623.864,237.164 621,243.5C 619.831,249.846 618.665,256.18 617.5,262.5C 614.838,263.499 612.172,264.499 609.5,265.5C 603.822,267.504 598.155,269.504 592.5,271.5C 593.06,269.199 593.56,266.866 594,264.5C 610.262,235.549 619.762,204.549 622.5,171.5C 629.896,175.299 634.23,172.966 635.5,164.5C 639.225,160.523 639.391,156.19 636,151.5C 630.988,145.932 625.488,140.765 619.5,136C 615.221,134.527 611.221,132.527 607.5,130C 601.031,123.274 593.698,117.774 585.5,113.5C 584.423,107.783 583.09,102.116 581.5,96.5C 581.624,95.8933 581.957,95.56 582.5,95.5C 585.139,99.2428 588.639,101.909 593,103.5C 594.882,102.907 595.882,101.573 596,99.5C 596.333,96.8333 596.667,94.1667 597,91.5C 598.388,90.4464 599.888,90.2797 601.5,91C 604.852,95.9521 606.352,101.452 606,107.5C 613.667,112.5 621.333,117.5 629,122.5C 630.239,128.056 630.906,133.722 631,139.5C 633.979,141.644 636.812,143.978 639.5,146.5C 640.828,152.155 642.162,157.822 643.5,163.5C 643.014,169.942 641.347,175.942 638.5,181.5 Z"/></g>
<g><path style="opacity:1" fill="#1a60a5" d="M 638.5,181.5 C 638.281,182.675 638.614,183.675 639.5,184.5C 643.575,186.602 647.908,187.602 652.5,187.5C 650.93,195.732 650.097,204.065 650,212.5C 648.333,218.167 646.667,223.833 645,229.5C 632.096,343.253 579.596,433.42 487.5,500C 409.127,553.009 322.794,574.176 228.5,563.5C 228.126,560.112 226.126,558.278 222.5,558C 215.144,557.831 207.811,557.331 200.5,556.5C 197.979,551.821 196.979,546.821 197.5,541.5C 250.045,553.736 302.378,553.402 354.5,540.5C 356.142,542.081 358.142,542.747 360.5,542.5C 360.5,541.5 360.5,540.5 360.5,539.5C 445.378,517.407 513.544,471.074 565,400.5C 593.994,359.22 613.494,313.72 623.5,264C 623.167,263.167 622.833,262.333 622.5,261.5C 620.929,262.309 619.262,262.643 617.5,262.5C 618.665,256.18 619.831,249.846 621,243.5C 623.864,237.164 625.197,230.498 625,223.5C 631.225,204.6 635.558,185.266 638,165.5C 638.499,170.823 638.666,176.156 638.5,181.5 Z"/></g>
<g><path style="opacity:0.986" fill="#1c84ea" d="M 104.5,129.5 C 104.313,131.564 103.813,133.564 103,135.5C 99.2327,140.023 95.2327,144.357 91,148.5C 90.3333,150.5 90.3333,152.5 91,154.5C 91.7175,155.451 92.5509,155.617 93.5,155C 97.3889,151.143 101.556,147.643 106,144.5C 107.893,140.292 110.06,136.292 112.5,132.5C 114.993,135.102 116.16,138.102 116,141.5C 112.909,145.381 109.575,149.047 106,152.5C 101.116,167.022 94.1162,180.355 85,192.5C 84.3054,198.555 81.972,203.889 78,208.5C 75.5066,218.466 71.5066,227.799 66,236.5C 65.502,239.482 65.3354,242.482 65.5,245.5C 64.596,246.209 64.2627,247.209 64.5,248.5C 62.313,252.895 60.6463,257.562 59.5,262.5C 58.1681,266.162 56.8348,269.828 55.5,273.5C 54.1667,275.5 52.8333,277.5 51.5,279.5C 45.1141,262.955 40.4474,245.955 37.5,228.5C 54.7788,191.922 77.1122,158.922 104.5,129.5 Z"/></g>
<g><path style="opacity:0.443" fill="#265371" d="M 747.5,203.5 C 748.906,203.973 749.573,204.973 749.5,206.5C 748.094,206.027 747.427,205.027 747.5,203.5 Z"/></g>
<g><path style="opacity:1" fill="#1a5a9a" d="M 652.5,187.5 C 654.167,187.5 655.833,187.5 657.5,187.5C 659.136,188.749 660.303,190.416 661,192.5C 662.024,199.551 665.357,205.218 671,209.5C 672.432,212.002 672.598,214.502 671.5,217C 665.301,219.169 659.134,221.335 653,223.5C 652.333,225.5 652.333,227.5 653,229.5C 658.204,236.622 662.371,244.289 665.5,252.5C 644.412,378.676 579.078,474.176 469.5,539C 438.016,556.211 405.016,569.378 370.5,578.5C 367.528,581.82 363.695,583.487 359,583.5C 356.851,583.342 355.017,582.508 353.5,581C 352.167,580.333 350.833,580.333 349.5,581C 344.236,583.801 338.902,586.301 333.5,588.5C 331.701,588.423 330.034,587.923 328.5,587C 328.05,584.499 327.05,582.333 325.5,580.5C 324.155,581.347 323.155,582.513 322.5,584C 321.207,584.49 319.873,584.657 318.5,584.5C 318.726,581.751 318.393,579.084 317.5,576.5C 316.084,574.861 314.417,574.027 312.5,574C 310.083,579.539 308.916,585.373 309,591.5C 308.333,592.167 307.667,592.833 307,593.5C 306.814,586.792 305.314,580.459 302.5,574.5C 299.043,578.458 295.377,582.292 291.5,586C 286.786,588.051 282.619,590.885 279,594.5C 277.938,598.637 277.105,602.804 276.5,607C 273.454,605.319 270.12,603.819 266.5,602.5C 260.726,605.041 254.726,606.208 248.5,606C 243.667,601.167 238.833,596.333 234,591.5C 232.667,589.5 231.333,587.5 230,585.5C 229.636,578.148 229.136,570.815 228.5,563.5C 322.794,574.176 409.127,553.009 487.5,500C 579.596,433.42 632.096,343.253 645,229.5C 646.667,223.833 648.333,218.167 650,212.5C 650.097,204.065 650.93,195.732 652.5,187.5 Z"/></g>
<g><path style="opacity:1" fill="#4690d9" d="M 549.5,176.5 C 549.667,187.505 549.5,198.505 549,209.5C 546.539,216.981 545.539,224.647 546,232.5C 553.766,214.535 559.099,195.869 562,176.5C 562.667,185.167 562.667,193.833 562,202.5C 559.677,212.032 558.677,221.699 559,231.5C 566.175,214.803 571.175,197.469 574,179.5C 573.047,194.125 572.047,208.791 571,223.5C 568.288,229.893 566.788,236.559 566.5,243.5C 561.737,256.526 557.57,269.86 554,283.5C 551.086,288.127 548.919,293.127 547.5,298.5C 540.86,304.806 534.193,311.139 527.5,317.5C 526.957,317.44 526.624,317.107 526.5,316.5C 529.291,310.944 531.458,305.278 533,299.5C 524.37,309.798 515.37,319.798 506,329.5C 509.319,320.54 513.986,312.207 520,304.5C 522.69,300.09 524.357,295.423 525,290.5C 515.661,303.509 505.161,315.509 493.5,326.5C 496.64,320.22 499.807,313.886 503,307.5C 507.678,303.481 510.845,298.481 512.5,292.5C 511.833,292.167 511.167,291.833 510.5,291.5C 514.915,286.671 517.748,281.004 519,274.5C 520.333,272.5 521.667,270.5 523,268.5C 526.114,259.377 528.281,250.044 529.5,240.5C 530.655,237.543 531.655,234.543 532.5,231.5C 540.789,213.966 546.456,195.633 549.5,176.5 Z"/></g>
<g><path style="opacity:1" fill="#6fb6fd" d="M 471.5,187.5 C 469.948,216.76 464.115,245.093 454,272.5C 466.519,257.461 477.019,241.127 485.5,223.5C 484.115,238.062 480.115,251.728 473.5,264.5C 473.123,266.258 472.456,267.925 471.5,269.5C 459.886,283.949 447.052,297.282 433,309.5C 432.333,308.833 432.333,308.167 433,307.5C 440.265,298.292 445.932,288.292 450,277.5C 414.388,317.473 370.888,344.64 319.5,359C 320.167,359.333 320.833,359.667 321.5,360C 298.051,367.59 274.051,372.423 249.5,374.5C 249.768,376.099 249.434,377.432 248.5,378.5C 248.5,376.833 248.5,375.167 248.5,373.5C 247.453,369.739 245.619,366.406 243,363.5C 242.503,360.854 242.336,358.187 242.5,355.5C 248.788,356.753 253.454,354.753 256.5,349.5C 269.095,346.376 283.095,343.209 298.5,340C 347.424,326.495 389.258,301.995 424,266.5C 424.333,266.833 424.667,267.167 425,267.5C 433.154,259.015 440.154,249.682 446,239.5C 446.249,240.624 446.749,241.624 447.5,242.5C 459.001,225.655 467.001,207.322 471.5,187.5 Z"/></g>
<g><path style="opacity:1" fill="#d7f9b9" d="M 361.5,249.5 C 361.351,250.552 361.517,251.552 362,252.5C 368.018,255.679 370.184,260.679 368.5,267.5C 364.154,267.666 359.821,267.499 355.5,267C 353.153,263.327 349.82,261.494 345.5,261.5C 341.299,261.371 338.965,263.371 338.5,267.5C 337.5,267.5 336.5,267.5 335.5,267.5C 333.313,259.417 334.979,252.251 340.5,246C 339.963,244.208 339.63,242.375 339.5,240.5C 338.677,233.987 341.344,231.487 347.5,233C 348.402,235.202 349.402,237.368 350.5,239.5C 353.692,240.866 357.026,241.699 360.5,242C 361.435,244.381 361.768,246.881 361.5,249.5 Z"/></g>
<g><path style="opacity:1" fill="#76d518" d="M 740.5,254.5 C 745.316,326.605 733.816,395.939 706,462.5C 703.563,468.392 700.396,473.726 696.5,478.5C 695.834,472.51 695.168,466.51 694.5,460.5C 694.855,457.269 695.521,454.102 696.5,451C 694.452,446.439 694.119,441.772 695.5,437C 694.94,432.985 693.773,429.152 692,425.5C 690.333,419.06 690.499,412.727 692.5,406.5C 691.688,404.377 691.022,402.21 690.5,400C 692.437,395.136 693.771,390.136 694.5,385C 694.064,379.135 693.397,373.301 692.5,367.5C 694.883,360.975 697.883,354.808 701.5,349C 700.815,346.46 699.981,343.96 699,341.5C 698.876,335.2 698.043,329.033 696.5,323C 697.481,319.223 698.148,315.39 698.5,311.5C 697.542,304.514 697.376,297.514 698,290.5C 698.883,287.898 700.383,285.731 702.5,284C 706.04,283.266 709.373,282.099 712.5,280.5C 715.868,275 717.368,269 717,262.5C 717.471,260.754 718.138,259.087 719,257.5C 722.667,254.5 726.333,251.5 730,248.5C 730.233,242.513 732.233,241.513 736,245.5C 737.527,248.553 739.027,251.553 740.5,254.5 Z"/></g>
<g><path style="opacity:1" fill="#bfee8f" d="M 112.5,167.5 C 111.928,171.463 110.595,175.13 108.5,178.5C 107.983,184.651 106.816,190.651 105,196.5C 105.501,202.847 105.334,209.181 104.5,215.5C 104.669,222.872 106.335,229.872 109.5,236.5C 109.167,237.167 108.833,237.833 108.5,238.5C 110.341,243.466 112.341,248.299 114.5,253C 114.043,253.414 113.709,253.914 113.5,254.5C 114.833,256.5 116.167,258.5 117.5,260.5C 117.291,261.086 116.957,261.586 116.5,262C 122.196,267.264 126.363,273.098 129,279.5C 130.378,281.213 132.045,282.547 134,283.5C 134.333,284.5 134.667,285.5 135,286.5C 138.93,289.049 141.93,292.382 144,296.5C 147.636,299.421 151.469,302.088 155.5,304.5C 157.167,306.333 158.833,308.167 160.5,310C 171.392,315.578 181.392,321.744 190.5,328.5C 201.011,333.263 211.678,337.596 222.5,341.5C 222.5,339.5 222.5,337.5 222.5,335.5C 219.833,335.5 217.167,335.5 214.5,335.5C 214.26,332.421 214.593,329.421 215.5,326.5C 212.914,325.52 210.247,325.187 207.5,325.5C 207.34,323.801 207.506,322.134 208,320.5C 214.025,323.449 220.192,326.282 226.5,329C 234.173,330.956 241.673,333.123 249,335.5C 250.395,334.185 251.395,334.519 252,336.5C 252.561,335.978 253.228,335.645 254,335.5C 256.255,337.043 257.755,339.043 258.5,341.5C 258.037,344.221 257.371,346.888 256.5,349.5C 253.454,354.753 248.788,356.753 242.5,355.5C 242.336,358.187 242.503,360.854 243,363.5C 245.619,366.406 247.453,369.739 248.5,373.5C 243.316,371.577 238.149,369.577 233,367.5C 231.699,367.96 230.366,368.294 229,368.5C 207.812,360.482 187.312,351.315 167.5,341C 165.833,339.333 164.167,337.667 162.5,336C 158.247,333.898 153.914,332.064 149.5,330.5C 149.5,329.5 149.5,328.5 149.5,327.5C 146.412,327.803 144.746,326.47 144.5,323.5C 143.5,323.5 142.5,323.5 141.5,323.5C 141.5,326.5 141.5,329.5 141.5,332.5C 146.551,332.4 148.718,334.733 148,339.5C 145.656,337.715 143.156,336.382 140.5,335.5C 140.719,334.325 140.386,333.325 139.5,332.5C 137.833,331.833 136.167,331.167 134.5,330.5C 127.934,324.722 121.6,318.722 115.5,312.5C 113.776,309.947 112.276,307.28 111,304.5C 106.538,301.568 103.538,297.568 102,292.5C 97.456,289.394 94.7894,285.061 94,279.5C 91.0623,277.267 89.5623,274.6 89.5,271.5C 85.766,266.525 83.0994,261.358 81.5,256C 82.4086,252.245 81.5752,248.745 79,245.5C 79.2414,240.009 78.0748,234.676 75.5,229.5C 76.3482,227.591 76.6816,225.591 76.5,223.5C 86.5082,203.466 98.5082,184.799 112.5,167.5 Z"/></g>
<g><path style="opacity:1" fill="#b3eb7c" d="M 76.5,223.5 C 76.6816,225.591 76.3482,227.591 75.5,229.5C 78.0748,234.676 79.2414,240.009 79,245.5C 81.5752,248.745 82.4086,252.245 81.5,256C 83.0994,261.358 85.766,266.525 89.5,271.5C 89.5623,274.6 91.0623,277.267 94,279.5C 94.7894,285.061 97.456,289.394 102,292.5C 103.538,297.568 106.538,301.568 111,304.5C 112.276,307.28 113.776,309.947 115.5,312.5C 121.6,318.722 127.934,324.722 134.5,330.5C 136.167,331.167 137.833,331.833 139.5,332.5C 140.386,333.325 140.719,334.325 140.5,335.5C 143.156,336.382 145.656,337.715 148,339.5C 148.718,334.733 146.551,332.4 141.5,332.5C 141.5,329.5 141.5,326.5 141.5,323.5C 142.5,323.5 143.5,323.5 144.5,323.5C 144.746,326.47 146.412,327.803 149.5,327.5C 149.5,328.5 149.5,329.5 149.5,330.5C 153.914,332.064 158.247,333.898 162.5,336C 164.167,337.667 165.833,339.333 167.5,341C 187.312,351.315 207.812,360.482 229,368.5C 230.366,368.294 231.699,367.96 233,367.5C 238.149,369.577 243.316,371.577 248.5,373.5C 248.5,375.167 248.5,376.833 248.5,378.5C 247.408,384.301 246.075,389.968 244.5,395.5C 243.833,395.833 243.167,396.167 242.5,396.5C 233.891,392.945 224.891,390.279 215.5,388.5C 201.794,382.341 188.127,376.341 174.5,370.5C 173.52,373.086 173.187,375.753 173.5,378.5C 176.482,378.963 179.482,379.296 182.5,379.5C 182.785,381.288 182.452,382.955 181.5,384.5C 179.146,383.94 176.813,383.273 174.5,382.5C 159.142,373.52 144.142,364.187 129.5,354.5C 125.425,349.96 120.758,346.127 115.5,343C 112.777,339.247 109.777,335.747 106.5,332.5C 104.5,331.167 102.5,329.833 100.5,328.5C 100.709,327.914 101.043,327.414 101.5,327C 98.6647,323.869 95.4981,321.036 92,318.5C 90.6667,315.833 89.3333,313.167 88,310.5C 85.5551,309.023 83.3884,307.19 81.5,305C 82.2583,303.636 81.7583,302.469 80,301.5C 78.5783,304.03 78.245,306.697 79,309.5C 81.1884,311.688 83.3551,313.855 85.5,316C 84.8392,318.464 84.3392,320.964 84,323.5C 78.9246,317.685 74.5912,311.352 71,304.5C 70.3828,303.551 70.5494,302.718 71.5,302C 69.1667,299.667 66.8333,297.333 64.5,295C 64.9574,294.586 65.2907,294.086 65.5,293.5C 62.1363,286.773 58.8029,280.106 55.5,273.5C 56.8348,269.828 58.1681,266.162 59.5,262.5C 64.0284,259.02 65.695,254.354 64.5,248.5C 64.2627,247.209 64.596,246.209 65.5,245.5C 68.7828,237.992 72.4495,230.658 76.5,223.5 Z"/></g>
<g><path style="opacity:1" fill="#7bb7e7" d="M 64.5,248.5 C 65.695,254.354 64.0284,259.02 59.5,262.5C 60.6463,257.562 62.313,252.895 64.5,248.5 Z"/></g>
<g><path style="opacity:1" fill="#cef3a9" d="M 298.5,62.5 C 299.317,64.9686 299.817,67.6353 300,70.5C 302.965,72.7244 305.798,75.0578 308.5,77.5C 307.237,79.0287 306.237,80.6954 305.5,82.5C 296.181,82.3369 287.014,82.3369 278,82.5C 264.996,85.1959 251.829,87.6959 238.5,90C 228.002,94.1285 217.669,98.7952 207.5,104C 201.34,108.58 195.007,112.914 188.5,117C 151.403,145.362 137.07,182.029 145.5,227C 147.427,231.22 149.427,235.386 151.5,239.5C 151.291,240.086 150.957,240.586 150.5,241C 152.466,244.897 154.8,248.563 157.5,252C 157.167,252.333 156.833,252.667 156.5,253C 158.977,254.643 161.31,256.476 163.5,258.5C 165.99,262.486 168.99,265.986 172.5,269C 172.167,269.333 171.833,269.667 171.5,270C 173.93,270.643 175.597,272.143 176.5,274.5C 177.357,273.264 178.023,271.931 178.5,270.5C 176.417,269.041 174.25,267.708 172,266.5C 172.305,264.557 172.305,262.557 172,260.5C 170.027,259.36 168.193,258.027 166.5,256.5C 167,255.5 167.5,254.5 168,253.5C 173.864,258.346 179.697,263.846 185.5,270C 189.021,272.83 193.021,274.83 197.5,276C 196.167,276.667 196.167,277.333 197.5,278C 205.346,280.537 212.18,283.704 218,287.5C 236.054,293.81 255.22,297.81 275.5,299.5C 279.492,298.829 283.326,298.829 287,299.5C 288.301,299.639 289.134,300.305 289.5,301.5C 281.679,304.983 278.012,310.983 278.5,319.5C 277.532,317.393 277.198,315.059 277.5,312.5C 275.453,312.511 273.453,312.844 271.5,313.5C 266.608,311.351 261.608,310.684 256.5,311.5C 253.25,308.569 249.583,307.903 245.5,309.5C 240.981,307.437 236.314,305.604 231.5,304C 219.518,301.742 207.852,297.075 196.5,290C 196.833,289.667 197.167,289.333 197.5,289C 192.463,287.299 187.63,285.132 183,282.5C 182.51,283.793 182.343,285.127 182.5,286.5C 189.476,286.958 191.143,290.125 187.5,296C 190.541,296.576 193.208,297.742 195.5,299.5C 195,300.5 194.5,301.5 194,302.5C 191.102,300.364 187.935,298.697 184.5,297.5C 184.5,296.5 184.5,295.5 184.5,294.5C 182.436,294.313 180.436,293.813 178.5,293C 174.713,289.933 170.713,287.1 166.5,284.5C 164.152,279.655 160.486,276.155 155.5,274C 155.833,273.667 156.167,273.333 156.5,273C 152.5,269 148.5,265 144.5,261C 145.451,260.282 145.617,259.449 145,258.5C 142.072,256.582 140.406,253.915 140,250.5C 136.965,248.613 135.798,246.113 136.5,243C 134.455,240.414 132.789,237.58 131.5,234.5C 131.709,233.914 132.043,233.414 132.5,233C 129.717,229.507 128.717,225.674 129.5,221.5C 128.423,218.028 127.423,214.528 126.5,211C 127.775,206.012 127.775,201.012 126.5,196C 128.389,186.452 130.556,176.952 133,167.5C 137.319,159.532 141.652,151.532 146,143.5C 155.128,131.073 165.295,119.573 176.5,109C 185.167,103.333 193.833,97.6667 202.5,92C 210.8,88.8477 218.8,85.1811 226.5,81C 233.423,79.6059 240.09,77.6059 246.5,75C 263.175,72.0047 279.842,70.338 296.5,70C 298.291,67.8938 298.958,65.3938 298.5,62.5 Z"/></g>
<g><path style="opacity:1" fill="#1a62ab" d="M 360.5,539.5 C 358.742,539.123 357.075,538.456 355.5,537.5C 354.614,538.325 354.281,539.325 354.5,540.5C 302.378,553.402 250.045,553.736 197.5,541.5C 196.8,537.202 196.467,532.869 196.5,528.5C 214.334,532.25 232.334,534.917 250.5,536.5C 254.23,539.899 258.23,540.232 262.5,537.5C 284.949,537.701 307.282,536.201 329.5,533C 334.431,532.355 339.097,531.189 343.5,529.5C 346.162,531.268 349.162,531.935 352.5,531.5C 352.5,530.5 352.5,529.5 352.5,528.5C 469.714,498.116 550.88,426.783 596,314.5C 601.909,298.529 606.409,282.196 609.5,265.5C 612.172,264.499 614.838,263.499 617.5,262.5C 619.262,262.643 620.929,262.309 622.5,261.5C 622.833,262.333 623.167,263.167 623.5,264C 613.494,313.72 593.994,359.22 565,400.5C 513.544,471.074 445.378,517.407 360.5,539.5 Z"/></g>
<g><path style="opacity:1" fill="#6dd00c" d="M 740.5,254.5 C 741.916,259.512 743.749,264.512 746,269.5C 751.452,272.143 756.286,275.643 760.5,280C 762.473,280.495 764.473,280.662 766.5,280.5C 765.292,277.081 763.792,273.747 762,270.5C 760.877,265.564 761.71,261.064 764.5,257C 767.365,256.817 770.031,256.317 772.5,255.5C 787.108,292.876 796.108,331.542 799.5,371.5C 799.5,390.167 799.5,408.833 799.5,427.5C 796.855,458.394 790.855,488.727 781.5,518.5C 780.883,518.389 780.383,518.056 780,517.5C 772.473,531.097 765.14,544.764 758,558.5C 757.502,555.518 757.335,552.518 757.5,549.5C 760.081,540.993 763.248,532.66 767,524.5C 767.895,519.291 765.895,515.625 761,513.5C 757.537,515.836 754.37,518.67 751.5,522C 749.919,522.707 748.419,523.54 747,524.5C 744.584,531.83 740.751,538.33 735.5,544C 733.557,545.555 731.39,546.722 729,547.5C 727.775,547.138 726.609,546.638 725.5,546C 721.506,541.04 717.34,536.207 713,531.5C 711.796,527.284 711.13,522.951 711,518.5C 708.667,516.833 706.333,515.167 704,513.5C 702.927,509.916 702.26,506.25 702,502.5C 694.01,495.921 692.177,487.921 696.5,478.5C 700.396,473.726 703.563,468.392 706,462.5C 733.816,395.939 745.316,326.605 740.5,254.5 Z"/></g>
<g><path style="opacity:1" fill="#1a68b5" d="M 609.5,265.5 C 606.409,282.196 601.909,298.529 596,314.5C 550.88,426.783 469.714,498.116 352.5,528.5C 350.067,525.853 347.233,525.186 344,526.5C 343.517,527.448 343.351,528.448 343.5,529.5C 339.097,531.189 334.431,532.355 329.5,533C 307.282,536.201 284.949,537.701 262.5,537.5C 265.113,531.6 263.279,528.6 257,528.5C 250.941,528.237 248.774,530.904 250.5,536.5C 232.334,534.917 214.334,532.25 196.5,528.5C 196.788,522.771 196.454,517.104 195.5,511.5C 194.975,510.808 194.308,510.308 193.5,510C 180.094,507.893 173.928,513.726 175,527.5C 172.268,535.452 167.102,537.785 159.5,534.5C 155.188,529.02 150.688,523.687 146,518.5C 143.113,511.058 139.446,504.058 135,497.5C 134.503,495.19 134.337,492.857 134.5,490.5C 159.002,493.121 183.336,495.788 207.5,498.5C 206.312,499.364 205.145,500.364 204,501.5C 203.389,505.088 204.889,506.254 208.5,505C 217.075,499.262 225.742,499.262 234.5,505C 242.028,509.264 249.028,514.264 255.5,520C 262.527,520.009 269.527,519.509 276.5,518.5C 277.415,517.672 278.081,516.672 278.5,515.5C 274.449,514.385 270.783,512.719 267.5,510.5C 380.767,509.788 470.267,463.788 536,372.5C 555.133,344.396 569.299,313.896 578.5,281C 578.43,280.235 578.097,279.735 577.5,279.5C 582.404,276.549 587.404,273.883 592.5,271.5C 598.155,269.504 603.822,267.504 609.5,265.5 Z"/></g>
<g><path style="opacity:1" fill="#1a538c" d="M 665.5,252.5 C 667.099,254.604 668.932,256.604 671,258.5C 673.342,265.104 675.842,271.604 678.5,278C 684.741,281.659 691.407,282.492 698.5,280.5C 672.416,397.922 609.749,490.089 510.5,557C 475.975,578.763 439.309,595.929 400.5,608.5C 394.47,604.322 387.803,601.489 380.5,600C 378.383,598.269 376.883,596.102 376,593.5C 375.483,588.946 373.983,584.779 371.5,581C 373.098,579.274 372.765,578.441 370.5,578.5C 405.016,569.378 438.016,556.211 469.5,539C 579.078,474.176 644.412,378.676 665.5,252.5 Z"/></g>
<g><path style="opacity:1" fill="#1c70c4" d="M 577.5,279.5 C 578.097,279.735 578.43,280.235 578.5,281C 569.299,313.896 555.133,344.396 536,372.5C 470.267,463.788 380.767,509.788 267.5,510.5C 262.959,507.608 257.959,505.774 252.5,505C 249.629,502.297 246.962,499.464 244.5,496.5C 264.813,494.144 285.146,490.977 305.5,487C 293.432,488.646 281.266,489.479 269,489.5C 259.069,489.713 250.569,489.047 243.5,487.5C 245.792,487.756 247.959,487.423 250,486.5C 250.667,485.167 250.667,483.833 250,482.5C 248.624,481.295 247.458,479.962 246.5,478.5C 251.311,477.514 256.311,476.847 261.5,476.5C 304.678,475.631 346.345,467.131 386.5,451C 406.96,440.603 427.293,429.937 447.5,419C 456.432,408.576 464.765,397.742 472.5,386.5C 489.631,362.588 507.964,339.588 527.5,317.5C 534.193,311.139 540.86,304.806 547.5,298.5C 556.966,291.377 566.966,285.043 577.5,279.5 Z"/></g>
<g><path style="opacity:0.988" fill="#1b76d0" d="M 37.5,228.5 C 40.4474,245.955 45.1141,262.955 51.5,279.5C 51.1667,280.833 50.8333,282.167 50.5,283.5C 48.6371,289.922 46.4704,296.255 44,302.5C 42.9847,306.44 42.4847,310.44 42.5,314.5C 41.1132,321.421 40.4465,328.421 40.5,335.5C 38.8396,343.975 37.5062,352.642 36.5,361.5C 25.9697,346.278 16.6363,330.278 8.5,313.5C 14.7865,283.973 24.4532,255.64 37.5,228.5 Z"/></g>
<g><path style="opacity:1" fill="#56a3f0" d="M 532.5,231.5 C 531.655,234.543 530.655,237.543 529.5,240.5C 497.028,301.136 449.695,346.303 387.5,376C 371.689,382.408 356.022,389.074 340.5,396C 304.77,407.899 268.103,414.733 230.5,416.5C 230.5,415.833 230.5,415.167 230.5,414.5C 231.8,409.655 234.634,405.655 239,402.5C 240.421,400.595 241.588,398.595 242.5,396.5C 243.167,396.167 243.833,395.833 244.5,395.5C 320.086,389.519 386.752,362.352 444.5,314C 455.391,303.444 465.891,292.611 476,281.5C 481.339,274.001 486.839,266.668 492.5,259.5C 493.783,257.27 494.783,254.937 495.5,252.5C 507.446,233.94 516.112,213.94 521.5,192.5C 518.74,209.105 516.573,225.772 515,242.5C 525.197,222.576 532.197,201.576 536,179.5C 535.389,196.835 534.222,214.169 532.5,231.5 Z"/></g>
<g><path style="opacity:1" fill="#adea70" d="M 55.5,273.5 C 58.8029,280.106 62.1363,286.773 65.5,293.5C 65.2907,294.086 64.9574,294.586 64.5,295C 66.8333,297.333 69.1667,299.667 71.5,302C 70.5494,302.718 70.3828,303.551 71,304.5C 74.5912,311.352 78.9246,317.685 84,323.5C 84.3392,320.964 84.8392,318.464 85.5,316C 83.3551,313.855 81.1884,311.688 79,309.5C 78.245,306.697 78.5783,304.03 80,301.5C 81.7583,302.469 82.2583,303.636 81.5,305C 83.3884,307.19 85.5551,309.023 88,310.5C 89.3333,313.167 90.6667,315.833 92,318.5C 95.4981,321.036 98.6647,323.869 101.5,327C 101.043,327.414 100.709,327.914 100.5,328.5C 102.5,329.833 104.5,331.167 106.5,332.5C 109.777,335.747 112.777,339.247 115.5,343C 120.758,346.127 125.425,349.96 129.5,354.5C 144.142,364.187 159.142,373.52 174.5,382.5C 176.813,383.273 179.146,383.94 181.5,384.5C 182.452,382.955 182.785,381.288 182.5,379.5C 179.482,379.296 176.482,378.963 173.5,378.5C 173.187,375.753 173.52,373.086 174.5,370.5C 188.127,376.341 201.794,382.341 215.5,388.5C 224.891,390.279 233.891,392.945 242.5,396.5C 241.588,398.595 240.421,400.595 239,402.5C 234.634,405.655 231.8,409.655 230.5,414.5C 224.798,413.727 219.465,411.893 214.5,409C 211.243,407.957 207.91,407.457 204.5,407.5C 204.687,409.564 205.187,411.564 206,413.5C 209.195,414.149 212.361,414.982 215.5,416C 216.167,417.333 216.833,418.667 217.5,420C 217,420.167 216.5,420.333 216,420.5C 188.201,410.848 161.701,398.514 136.5,383.5C 131.423,378.118 125.423,373.951 118.5,371C 116.167,368.833 113.833,366.667 111.5,364.5C 110.614,363.675 110.281,362.675 110.5,361.5C 103.35,360.104 98.5171,356.104 96,349.5C 93.2932,346.135 89.9599,343.468 86,341.5C 82.9751,337.803 80.3085,333.803 78,329.5C 75.8153,328.072 73.8153,326.405 72,324.5C 69.4726,319.909 67.1392,315.243 65,310.5C 60.5124,306.754 58.0124,302.254 57.5,297C 53.0455,293.436 50.7121,288.936 50.5,283.5C 50.8333,282.167 51.1667,280.833 51.5,279.5C 52.8333,277.5 54.1667,275.5 55.5,273.5 Z"/></g>
<g><path style="opacity:1" fill="#62aef9" d="M 495.5,252.5 C 494.783,254.937 493.783,257.27 492.5,259.5C 486.839,266.668 481.339,274.001 476,281.5C 465.891,292.611 455.391,303.444 444.5,314C 386.752,362.352 320.086,389.519 244.5,395.5C 246.075,389.968 247.408,384.301 248.5,378.5C 249.434,377.432 249.768,376.099 249.5,374.5C 274.051,372.423 298.051,367.59 321.5,360C 320.833,359.667 320.167,359.333 319.5,359C 370.888,344.64 414.388,317.473 450,277.5C 445.932,288.292 440.265,298.292 433,307.5C 432.333,308.167 432.333,308.833 433,309.5C 447.052,297.282 459.886,283.949 471.5,269.5C 472.456,267.925 473.123,266.258 473.5,264.5C 487.025,247.125 497.192,227.791 504,206.5C 503.81,216.551 502.81,226.551 501,236.5C 497.733,241.362 495.899,246.695 495.5,252.5 Z"/></g>
<g><path style="opacity:0.999" fill="#1a4a7a" d="M 754.5,216.5 C 761.814,228.801 767.814,241.801 772.5,255.5C 770.031,256.317 767.365,256.817 764.5,257C 761.71,261.064 760.877,265.564 762,270.5C 763.792,273.747 765.292,277.081 766.5,280.5C 764.473,280.662 762.473,280.495 760.5,280C 756.286,275.643 751.452,272.143 746,269.5C 743.749,264.512 741.916,259.512 740.5,254.5C 739.027,251.553 737.527,248.553 736,245.5C 732.233,241.513 730.233,242.513 730,248.5C 726.333,251.5 722.667,254.5 719,257.5C 718.138,259.087 717.471,260.754 717,262.5C 717.368,269 715.868,275 712.5,280.5C 709.373,282.099 706.04,283.266 702.5,284C 700.383,285.731 698.883,287.898 698,290.5C 697.376,297.514 697.542,304.514 698.5,311.5C 698.148,315.39 697.481,319.223 696.5,323C 698.043,329.033 698.876,335.2 699,341.5C 699.981,343.96 700.815,346.46 701.5,349C 697.883,354.808 694.883,360.975 692.5,367.5C 693.397,373.301 694.064,379.135 694.5,385C 693.771,390.136 692.437,395.136 690.5,400C 691.022,402.21 691.688,404.377 692.5,406.5C 690.499,412.727 690.333,419.06 692,425.5C 693.773,429.152 694.94,432.985 695.5,437C 694.119,441.772 694.452,446.439 696.5,451C 695.521,454.102 694.855,457.269 694.5,460.5C 695.168,466.51 695.834,472.51 696.5,478.5C 692.177,487.921 694.01,495.921 702,502.5C 702.26,506.25 702.927,509.916 704,513.5C 706.333,515.167 708.667,516.833 711,518.5C 711.13,522.951 711.796,527.284 713,531.5C 717.34,536.207 721.506,541.04 725.5,546C 726.609,546.638 727.775,547.138 729,547.5C 731.39,546.722 733.557,545.555 735.5,544C 740.751,538.33 744.584,531.83 747,524.5C 748.419,523.54 749.919,522.707 751.5,522C 754.37,518.67 757.537,515.836 761,513.5C 765.895,515.625 767.895,519.291 767,524.5C 763.248,532.66 760.081,540.993 757.5,549.5C 755.824,557.064 753.991,564.731 752,572.5C 745.153,585.529 738.82,598.863 733,612.5C 729.135,620.896 723.801,628.229 717,634.5C 712.475,642.887 707.975,651.221 703.5,659.5C 637.576,735.928 554.243,781.261 453.5,795.5C 455.461,789.707 459.461,786.207 465.5,785C 473.077,779.01 478.577,771.51 482,762.5C 485.834,758.007 490.667,755.174 496.5,754C 502.078,749.093 506.911,743.593 511,737.5C 511.333,735.167 511.667,732.833 512,730.5C 515.291,721.588 518.291,712.588 521,703.5C 527.509,695.017 533.842,686.35 540,677.5C 541.092,673.203 541.425,668.869 541,664.5C 538.271,661.601 535.438,658.934 532.5,656.5C 530.181,653.706 527.181,651.872 523.5,651C 513.485,650.62 503.485,650.62 493.5,651C 491.5,650.667 489.5,650.333 487.5,650C 486.833,648 485.5,646.667 483.5,646C 478.167,645.333 472.833,645.333 467.5,646C 463.285,650.042 458.285,652.542 452.5,653.5C 451.228,653.43 450.062,653.097 449,652.5C 448.503,650.19 448.337,647.857 448.5,645.5C 451.449,641.372 452.282,636.705 451,631.5C 446.484,626.647 442.318,621.48 438.5,616C 436.608,615.027 434.608,614.36 432.5,614C 423.975,613.24 415.475,613.407 407,614.5C 404.206,613.312 402.039,611.312 400.5,608.5C 439.309,595.929 475.975,578.763 510.5,557C 609.749,490.089 672.416,397.922 698.5,280.5C 706.086,274.699 708.419,267.365 705.5,258.5C 706.415,254.856 706.581,251.19 706,247.5C 699.522,239.723 696.855,230.723 698,220.5C 694.194,217.706 692.86,214.039 694,209.5C 698.19,205.995 699.523,201.661 698,196.5C 698.718,195.549 699.551,195.383 700.5,196C 702.795,199.297 705.462,202.297 708.5,205C 714.449,206.973 719.783,209.973 724.5,214C 728.587,219.08 732.254,224.413 735.5,230C 736.5,230.667 737.5,230.667 738.5,230C 739.206,225.208 737.706,221.041 734,217.5C 733.333,216.5 733.333,215.5 734,214.5C 737.877,217.887 741.544,221.554 745,225.5C 745.233,227.78 746.066,229.78 747.5,231.5C 752.315,227.746 754.649,222.746 754.5,216.5 Z"/></g>
<g><path style="opacity:1" fill="#4c9beb" d="M 529.5,240.5 C 528.281,250.044 526.114,259.377 523,268.5C 521.667,270.5 520.333,272.5 519,274.5C 517.748,281.004 514.915,286.671 510.5,291.5C 511.167,291.833 511.833,292.167 512.5,292.5C 510.845,298.481 507.678,303.481 503,307.5C 499.807,313.886 496.64,320.22 493.5,326.5C 483.801,335.541 473.801,344.375 463.5,353C 446.003,364.588 429.003,376.921 412.5,390C 375.728,410.147 336.728,424.147 295.5,432C 271.189,433.831 246.856,435.331 222.5,436.5C 222.5,437.5 222.5,438.5 222.5,439.5C 221.596,438.791 221.263,437.791 221.5,436.5C 221.337,434.143 221.503,431.81 222,429.5C 225.09,425.261 227.923,420.928 230.5,416.5C 268.103,414.733 304.77,407.899 340.5,396C 356.022,389.074 371.689,382.408 387.5,376C 449.695,346.303 497.028,301.136 529.5,240.5 Z"/></g>
<g><path style="opacity:1" fill="#a6e866" d="M 50.5,283.5 C 50.7121,288.936 53.0455,293.436 57.5,297C 58.0124,302.254 60.5124,306.754 65,310.5C 67.1392,315.243 69.4726,319.909 72,324.5C 73.8153,326.405 75.8153,328.072 78,329.5C 80.3085,333.803 82.9751,337.803 86,341.5C 89.9599,343.468 93.2932,346.135 96,349.5C 98.5171,356.104 103.35,360.104 110.5,361.5C 110.281,362.675 110.614,363.675 111.5,364.5C 113.833,366.667 116.167,368.833 118.5,371C 125.423,373.951 131.423,378.118 136.5,383.5C 161.701,398.514 188.201,410.848 216,420.5C 216.5,420.333 217,420.167 217.5,420C 216.833,418.667 216.167,417.333 215.5,416C 212.361,414.982 209.195,414.149 206,413.5C 205.187,411.564 204.687,409.564 204.5,407.5C 207.91,407.457 211.243,407.957 214.5,409C 219.465,411.893 224.798,413.727 230.5,414.5C 230.5,415.167 230.5,415.833 230.5,416.5C 227.923,420.928 225.09,425.261 222,429.5C 221.503,431.81 221.337,434.143 221.5,436.5C 220.549,435.081 220.216,433.415 220.5,431.5C 217.15,431.665 213.817,431.498 210.5,431C 184.039,421.521 158.706,409.354 134.5,394.5C 134.167,397.833 133.833,401.167 133.5,404.5C 132.264,403.754 130.93,403.421 129.5,403.5C 129.5,402.167 129.5,400.833 129.5,399.5C 125.49,397.169 121.157,395.336 116.5,394C 113.319,390.16 109.319,387.493 104.5,386C 98.5032,380.35 92.5032,374.684 86.5,369C 85.1667,368.333 83.8333,367.667 82.5,367C 74.5332,358.006 66.5332,349.006 58.5,340C 59.2052,338.443 58.5385,337.277 56.5,336.5C 54.3324,331.183 51.1657,326.516 47,322.5C 45.6362,319.666 44.1362,317 42.5,314.5C 42.4847,310.44 42.9847,306.44 44,302.5C 46.4704,296.255 48.6371,289.922 50.5,283.5 Z"/></g>
<g><path style="opacity:0.99" fill="#1a69b8" d="M 8.5,313.5 C 16.6363,330.278 25.9697,346.278 36.5,361.5C 35.2424,383.517 35.5757,405.517 37.5,427.5C 38.6603,432.454 39.1603,437.454 39,442.5C 38.2496,441.874 37.4162,441.374 36.5,441C 23.3232,427.416 10.9899,413.249 -0.5,398.5C -0.5,389.167 -0.5,379.833 -0.5,370.5C 1.28752,351.435 4.28752,332.435 8.5,313.5 Z"/></g>
<g><path style="opacity:1" fill="#3b8ddf" d="M 527.5,317.5 C 507.964,339.588 489.631,362.588 472.5,386.5C 437.858,409.155 400.858,427.655 361.5,442C 324.845,454.16 287.512,462.66 249.5,467.5C 249.703,465.61 249.037,464.11 247.5,463C 243.389,460.073 239.056,459.407 234.5,461C 236.373,462.704 238.04,464.537 239.5,466.5C 237.5,466.833 235.5,467.167 233.5,467.5C 229.865,458.218 226.198,448.884 222.5,439.5C 222.5,438.5 222.5,437.5 222.5,436.5C 246.856,435.331 271.189,433.831 295.5,432C 336.728,424.147 375.728,410.147 412.5,390C 429.003,376.921 446.003,364.588 463.5,353C 473.801,344.375 483.801,335.541 493.5,326.5C 505.161,315.509 515.661,303.509 525,290.5C 524.357,295.423 522.69,300.09 520,304.5C 513.986,312.207 509.319,320.54 506,329.5C 515.37,319.798 524.37,309.798 533,299.5C 531.458,305.278 529.291,310.944 526.5,316.5C 526.624,317.107 526.957,317.44 527.5,317.5 Z"/></g>
<g><path style="opacity:1" fill="#9fe65a" d="M 42.5,314.5 C 44.1362,317 45.6362,319.666 47,322.5C 51.1657,326.516 54.3324,331.183 56.5,336.5C 58.5385,337.277 59.2052,338.443 58.5,340C 66.5332,349.006 74.5332,358.006 82.5,367C 83.8333,367.667 85.1667,368.333 86.5,369C 92.5032,374.684 98.5032,380.35 104.5,386C 109.319,387.493 113.319,390.16 116.5,394C 121.157,395.336 125.49,397.169 129.5,399.5C 129.5,400.833 129.5,402.167 129.5,403.5C 130.93,403.421 132.264,403.754 133.5,404.5C 133.833,401.167 134.167,397.833 134.5,394.5C 158.706,409.354 184.039,421.521 210.5,431C 213.817,431.498 217.15,431.665 220.5,431.5C 220.216,433.415 220.549,435.081 221.5,436.5C 221.263,437.791 221.596,438.791 222.5,439.5C 226.198,448.884 229.865,458.218 233.5,467.5C 233.721,470.279 233.388,472.946 232.5,475.5C 229.535,476.734 226.535,476.734 223.5,475.5C 219.674,469.539 216.507,463.205 214,456.5C 213.121,453.182 212.287,449.848 211.5,446.5C 207.12,444.623 203.453,441.79 200.5,438C 197.126,437.479 194.126,436.146 191.5,434C 186.311,433.015 181.311,433.515 176.5,435.5C 175.8,439.041 175.133,442.541 174.5,446C 172.042,444.962 169.375,444.129 166.5,443.5C 166.461,442.417 166.127,441.417 165.5,440.5C 146.304,434.155 128.804,424.821 113,412.5C 106.545,410.364 101.045,406.864 96.5,402C 95.552,401.517 94.552,401.351 93.5,401.5C 93.719,400.325 93.3857,399.325 92.5,398.5C 86.7343,393.952 81.401,388.952 76.5,383.5C 74.5,382.5 72.5,381.5 70.5,380.5C 66.7889,375.67 62.6222,371.337 58,367.5C 57.1923,369.579 57.359,371.579 58.5,373.5C 60.583,374.959 62.7497,376.292 65,377.5C 65.6667,380.833 65.6667,384.167 65,387.5C 61.685,386.404 60.0183,384.071 60,380.5C 57.5,379.333 55.6667,377.5 54.5,375C 52.2462,373.623 50.0795,372.123 48,370.5C 47.79,372.058 47.29,373.391 46.5,374.5C 46.518,367.422 45.018,360.755 42,354.5C 40.8928,348.213 40.3928,341.88 40.5,335.5C 40.4465,328.421 41.1132,321.421 42.5,314.5 Z"/></g>
<g><path style="opacity:1" fill="#94e048" d="M 166.5,443.5 C 162.476,443.497 158.476,443.164 154.5,442.5C 151.002,442.708 147.669,443.541 144.5,445C 139.217,449.422 135.884,454.922 134.5,461.5C 134.5,463.833 134.5,466.167 134.5,468.5C 133.518,465.038 133.185,461.371 133.5,457.5C 130.167,457.5 127.5,456.167 125.5,453.5C 123.535,452.708 121.535,452.041 119.5,451.5C 118.684,449.713 117.684,448.046 116.5,446.5C 112.952,445.03 109.285,444.03 105.5,443.5C 105.649,442.448 105.483,441.448 105,440.5C 101.402,439.794 98.9015,437.794 97.5,434.5C 92.7438,431.019 87.4105,428.686 81.5,427.5C 81.5,426.5 81.5,425.5 81.5,424.5C 78.2436,423.534 75.2436,422.201 72.5,420.5C 72.719,419.325 72.3857,418.325 71.5,417.5C 67.8721,414.678 64.2054,411.845 60.5,409C 55.2996,404.3 50.633,399.134 46.5,393.5C 45.8933,393.624 45.56,393.957 45.5,394.5C 44.8389,392.866 44.5056,391.033 44.5,389C 44.9744,384.131 45.641,379.298 46.5,374.5C 47.29,373.391 47.79,372.058 48,370.5C 50.0795,372.123 52.2462,373.623 54.5,375C 55.6667,377.5 57.5,379.333 60,380.5C 60.0183,384.071 61.685,386.404 65,387.5C 65.6667,384.167 65.6667,380.833 65,377.5C 62.7497,376.292 60.583,374.959 58.5,373.5C 57.359,371.579 57.1923,369.579 58,367.5C 62.6222,371.337 66.7889,375.67 70.5,380.5C 72.5,381.5 74.5,382.5 76.5,383.5C 81.401,388.952 86.7343,393.952 92.5,398.5C 93.3857,399.325 93.719,400.325 93.5,401.5C 94.552,401.351 95.552,401.517 96.5,402C 101.045,406.864 106.545,410.364 113,412.5C 128.804,424.821 146.304,434.155 165.5,440.5C 166.127,441.417 166.461,442.417 166.5,443.5 Z"/></g>
<g><path style="opacity:1" fill="#2c80d3" d="M 472.5,386.5 C 464.765,397.742 456.432,408.576 447.5,419C 427.293,429.937 406.96,440.603 386.5,451C 346.345,467.131 304.678,475.631 261.5,476.5C 256.311,476.847 251.311,477.514 246.5,478.5C 244.283,477.631 241.95,477.298 239.5,477.5C 236.612,478.01 234.279,477.344 232.5,475.5C 233.388,472.946 233.721,470.279 233.5,467.5C 235.5,467.167 237.5,466.833 239.5,466.5C 240.249,468.246 241.583,469.246 243.5,469.5C 245.717,469.122 247.717,468.455 249.5,467.5C 287.512,462.66 324.845,454.16 361.5,442C 400.858,427.655 437.858,409.155 472.5,386.5 Z"/></g>
<g><path style="opacity:1" fill="#3d81c3" d="M 40.5,335.5 C 40.3928,341.88 40.8928,348.213 42,354.5C 45.018,360.755 46.518,367.422 46.5,374.5C 45.641,379.298 44.9744,384.131 44.5,389C 44.5056,391.033 44.8389,392.866 45.5,394.5C 47.841,402.86 50.341,411.193 53,419.5C 53.9632,425.465 54.4632,431.465 54.5,437.5C 53.1266,437.657 51.7932,437.49 50.5,437C 46.4249,433.382 42.0916,430.216 37.5,427.5C 35.5757,405.517 35.2424,383.517 36.5,361.5C 37.5062,352.642 38.8396,343.975 40.5,335.5 Z"/></g>
<g><path style="opacity:0.994" fill="#1d63a8" d="M -0.5,398.5 C 10.9899,413.249 23.3232,427.416 36.5,441C 37.4162,441.374 38.2496,441.874 39,442.5C 39.1603,437.454 38.6603,432.454 37.5,427.5C 42.0916,430.216 46.4249,433.382 50.5,437C 51.7932,437.49 53.1266,437.657 54.5,437.5C 54.6706,442.196 55.1706,446.863 56,451.5C 59.7428,461.258 64.4095,470.591 70,479.5C 70.3333,481.167 70.6667,482.833 71,484.5C 75.1161,488.367 79.4495,492.033 84,495.5C 84.0203,490.865 82.3536,486.865 79,483.5C 78.6725,479.358 77.8392,475.358 76.5,471.5C 76.8333,471.5 77.1667,471.5 77.5,471.5C 83.8333,486.167 90.1667,500.833 96.5,515.5C 90.6187,513.226 84.9521,510.393 79.5,507C 50.9347,488.601 24.9347,467.101 1.5,442.5C 0.993692,437.346 0.327025,432.346 -0.5,427.5C -0.5,417.833 -0.5,408.167 -0.5,398.5 Z"/></g>
<g><path style="opacity:1" fill="#86db34" d="M 134.5,468.5 C 133.217,475.159 133.217,481.826 134.5,488.5C 126.871,486.241 120.038,482.574 114,477.5C 107.396,473.784 100.896,469.95 94.5,466C 93.2068,465.51 91.8734,465.343 90.5,465.5C 90.5198,463.857 89.8532,462.524 88.5,461.5C 82.9875,459.214 77.8209,456.214 73,452.5C 72.5357,453.094 72.369,453.761 72.5,454.5C 71.5902,452.981 70.7568,451.315 70,449.5C 68.0425,441.593 66.7092,433.593 66,425.5C 64.9257,421.695 63.5924,418.029 62,414.5C 63.8561,423.982 64.8561,433.648 65,443.5C 68.5955,453.012 72.4288,462.345 76.5,471.5C 77.8392,475.358 78.6725,479.358 79,483.5C 82.3536,486.865 84.0203,490.865 84,495.5C 79.4495,492.033 75.1161,488.367 71,484.5C 70.6667,482.833 70.3333,481.167 70,479.5C 64.4095,470.591 59.7428,461.258 56,451.5C 55.1706,446.863 54.6706,442.196 54.5,437.5C 54.4632,431.465 53.9632,425.465 53,419.5C 50.341,411.193 47.841,402.86 45.5,394.5C 45.56,393.957 45.8933,393.624 46.5,393.5C 50.633,399.134 55.2996,404.3 60.5,409C 64.2054,411.845 67.8721,414.678 71.5,417.5C 72.3857,418.325 72.719,419.325 72.5,420.5C 75.2436,422.201 78.2436,423.534 81.5,424.5C 81.5,425.5 81.5,426.5 81.5,427.5C 87.4105,428.686 92.7438,431.019 97.5,434.5C 98.9015,437.794 101.402,439.794 105,440.5C 105.483,441.448 105.649,442.448 105.5,443.5C 109.285,444.03 112.952,445.03 116.5,446.5C 117.684,448.046 118.684,449.713 119.5,451.5C 121.535,452.041 123.535,452.708 125.5,453.5C 127.5,456.167 130.167,457.5 133.5,457.5C 133.185,461.371 133.518,465.038 134.5,468.5 Z"/></g>
<g><path style="opacity:1" fill="#3c7fb0" d="M 72.5,454.5 C 73.1616,460.483 74.8283,466.149 77.5,471.5C 77.1667,471.5 76.8333,471.5 76.5,471.5C 72.4288,462.345 68.5955,453.012 65,443.5C 64.8561,433.648 63.8561,423.982 62,414.5C 63.5924,418.029 64.9257,421.695 66,425.5C 66.7092,433.593 68.0425,441.593 70,449.5C 70.7568,451.315 71.5902,452.981 72.5,454.5 Z"/></g>
<g><path style="opacity:1" fill="#3986d2" d="M 223.5,475.5 C 216.255,474.053 208.921,473.22 201.5,473C 195.584,471.584 189.918,469.584 184.5,467C 167.752,465.823 151.085,463.99 134.5,461.5C 135.884,454.922 139.217,449.422 144.5,445C 147.669,443.541 151.002,442.708 154.5,442.5C 158.476,443.164 162.476,443.497 166.5,443.5C 169.375,444.129 172.042,444.962 174.5,446C 175.133,442.541 175.8,439.041 176.5,435.5C 181.311,433.515 186.311,433.015 191.5,434C 194.126,436.146 197.126,437.479 200.5,438C 203.453,441.79 207.12,444.623 211.5,446.5C 212.287,449.848 213.121,453.182 214,456.5C 216.507,463.205 219.674,469.539 223.5,475.5 Z"/></g>
<g><path style="opacity:1" fill="#98e25f" d="M 249.5,467.5 C 247.717,468.455 245.717,469.122 243.5,469.5C 241.583,469.246 240.249,468.246 239.5,466.5C 238.04,464.537 236.373,462.704 234.5,461C 239.056,459.407 243.389,460.073 247.5,463C 249.037,464.11 249.703,465.61 249.5,467.5 Z"/></g>
<g><path style="opacity:0.998" fill="#1a5a9a" d="M 1.5,442.5 C 24.9347,467.101 50.9347,488.601 79.5,507C 84.9521,510.393 90.6187,513.226 96.5,515.5C 97.6138,516.885 98.6138,518.385 99.5,520C 103.589,522.127 107.423,524.627 111,527.5C 119.593,545.393 133.76,555.893 153.5,559C 158.551,559.492 163.551,559.492 168.5,559C 175.314,567.228 183.647,573.228 193.5,577C 196.167,577.333 198.833,577.667 201.5,578C 203.037,579.707 204.704,581.207 206.5,582.5C 205.903,583.139 205.07,583.472 204,583.5C 129.303,569.567 64.1364,537.234 8.5,486.5C 5.08619,472.017 2.75285,457.35 1.5,442.5 Z"/></g>
<g><path style="opacity:1" fill="#91e054" d="M 239.5,477.5 C 241.95,477.298 244.283,477.631 246.5,478.5C 247.458,479.962 248.624,481.295 250,482.5C 250.667,483.833 250.667,485.167 250,486.5C 247.959,487.423 245.792,487.756 243.5,487.5C 240.833,485.827 238.833,483.493 237.5,480.5C 238.193,479.482 238.859,478.482 239.5,477.5 Z"/></g>
<g><path style="opacity:1" fill="#80db27" d="M 134.5,488.5 C 134.5,489.167 134.5,489.833 134.5,490.5C 134.337,492.857 134.503,495.19 135,497.5C 139.446,504.058 143.113,511.058 146,518.5C 150.688,523.687 155.188,529.02 159.5,534.5C 167.102,537.785 172.268,535.452 175,527.5C 173.928,513.726 180.094,507.893 193.5,510C 194.308,510.308 194.975,510.808 195.5,511.5C 196.454,517.104 196.788,522.771 196.5,528.5C 196.467,532.869 196.8,537.202 197.5,541.5C 196.979,546.821 197.979,551.821 200.5,556.5C 207.811,557.331 215.144,557.831 222.5,558C 226.126,558.278 228.126,560.112 228.5,563.5C 229.136,570.815 229.636,578.148 230,585.5C 231.333,587.5 232.667,589.5 234,591.5C 238.833,596.333 243.667,601.167 248.5,606C 254.726,606.208 260.726,605.041 266.5,602.5C 270.12,603.819 273.454,605.319 276.5,607C 277.105,602.804 277.938,598.637 279,594.5C 282.619,590.885 286.786,588.051 291.5,586C 295.377,582.292 299.043,578.458 302.5,574.5C 305.314,580.459 306.814,586.792 307,593.5C 307.667,592.833 308.333,592.167 309,591.5C 308.916,585.373 310.083,579.539 312.5,574C 314.417,574.027 316.084,574.861 317.5,576.5C 318.393,579.084 318.726,581.751 318.5,584.5C 319.873,584.657 321.207,584.49 322.5,584C 323.155,582.513 324.155,581.347 325.5,580.5C 327.05,582.333 328.05,584.499 328.5,587C 330.034,587.923 331.701,588.423 333.5,588.5C 338.902,586.301 344.236,583.801 349.5,581C 350.833,580.333 352.167,580.333 353.5,581C 355.017,582.508 356.851,583.342 359,583.5C 363.695,583.487 367.528,581.82 370.5,578.5C 372.765,578.441 373.098,579.274 371.5,581C 373.983,584.779 375.483,588.946 376,593.5C 376.883,596.102 378.383,598.269 380.5,600C 387.803,601.489 394.47,604.322 400.5,608.5C 402.039,611.312 404.206,613.312 407,614.5C 415.475,613.407 423.975,613.24 432.5,614C 434.608,614.36 436.608,615.027 438.5,616C 442.318,621.48 446.484,626.647 451,631.5C 452.282,636.705 451.449,641.372 448.5,645.5C 394.636,662.21 340.303,663.877 285.5,650.5C 285.818,645.968 285.485,641.634 284.5,637.5C 281.62,634.064 280.12,630.064 280,625.5C 275.599,620.93 271.099,616.596 266.5,612.5C 265.895,617.401 263.228,620.401 258.5,621.5C 255.089,619.597 252.089,617.097 249.5,614C 247.674,613.708 245.841,613.875 244,614.5C 242.167,614.481 240.667,613.815 239.5,612.5C 236.186,610.228 232.519,608.395 228.5,607C 220.931,598.937 213.597,590.77 206.5,582.5C 204.704,581.207 203.037,579.707 201.5,578C 198.833,577.667 196.167,577.333 193.5,577C 183.647,573.228 175.314,567.228 168.5,559C 163.551,559.492 158.551,559.492 153.5,559C 133.76,555.893 119.593,545.393 111,527.5C 107.423,524.627 103.589,522.127 99.5,520C 98.6138,518.385 97.6138,516.885 96.5,515.5C 90.1667,500.833 83.8333,486.167 77.5,471.5C 74.8283,466.149 73.1616,460.483 72.5,454.5C 72.369,453.761 72.5357,453.094 73,452.5C 77.8209,456.214 82.9875,459.214 88.5,461.5C 89.8532,462.524 90.5198,463.857 90.5,465.5C 91.8734,465.343 93.2068,465.51 94.5,466C 100.896,469.95 107.396,473.784 114,477.5C 120.038,482.574 126.871,486.241 134.5,488.5 Z"/></g>
<g><path style="opacity:1" fill="#2776c4" d="M 134.5,461.5 C 151.085,463.99 167.752,465.823 184.5,467C 189.918,469.584 195.584,471.584 201.5,473C 208.921,473.22 216.255,474.053 223.5,475.5C 226.535,476.734 229.535,476.734 232.5,475.5C 234.279,477.344 236.612,478.01 239.5,477.5C 238.859,478.482 238.193,479.482 237.5,480.5C 238.833,483.493 240.833,485.827 243.5,487.5C 250.569,489.047 259.069,489.713 269,489.5C 281.266,489.479 293.432,488.646 305.5,487C 285.146,490.977 264.813,494.144 244.5,496.5C 235.411,491.903 225.745,490.403 215.5,492C 212.669,494.001 210.003,496.167 207.5,498.5C 183.336,495.788 159.002,493.121 134.5,490.5C 134.5,489.833 134.5,489.167 134.5,488.5C 133.217,481.826 133.217,475.159 134.5,468.5C 134.5,466.167 134.5,463.833 134.5,461.5 Z"/></g>
<g><path style="opacity:1" fill="#8ce140" d="M 244.5,496.5 C 246.962,499.464 249.629,502.297 252.5,505C 257.959,505.774 262.959,507.608 267.5,510.5C 270.783,512.719 274.449,514.385 278.5,515.5C 278.081,516.672 277.415,517.672 276.5,518.5C 269.527,519.509 262.527,520.009 255.5,520C 249.028,514.264 242.028,509.264 234.5,505C 225.742,499.262 217.075,499.262 208.5,505C 204.889,506.254 203.389,505.088 204,501.5C 205.145,500.364 206.312,499.364 207.5,498.5C 210.003,496.167 212.669,494.001 215.5,492C 225.745,490.403 235.411,491.903 244.5,496.5 Z"/></g>
<g><path style="opacity:0.997" fill="#1a548e" d="M 8.5,486.5 C 64.1364,537.234 129.303,569.567 204,583.5C 205.07,583.472 205.903,583.139 206.5,582.5C 213.597,590.77 220.931,598.937 228.5,607C 232.519,608.395 236.186,610.228 239.5,612.5C 159.023,605.839 86.5232,578.173 22,529.5C 21.6012,529.728 21.4346,530.062 21.5,530.5C 15.944,516.292 11.6107,501.626 8.5,486.5 Z"/></g>
<g><path style="opacity:1" fill="#8de242" d="M 280.5,515.5 C 285.179,515.334 289.845,515.501 294.5,516C 297.023,516.518 299.023,517.852 300.5,520C 303.167,520.333 305.833,520.667 308.5,521C 311.21,522.46 311.876,524.46 310.5,527C 307.833,527.333 305.167,527.667 302.5,528C 300.424,530.584 297.757,532.251 294.5,533C 288.37,533.243 282.37,532.41 276.5,530.5C 277.528,528.639 279.028,527.305 281,526.5C 281.854,523.593 281.021,521.26 278.5,519.5C 279.18,518.14 279.847,516.807 280.5,515.5 Z"/></g>
<g><path style="opacity:1" fill="#64c21d" d="M 781.5,518.5 C 765.045,571.102 739.045,618.102 703.5,659.5C 707.975,651.221 712.475,642.887 717,634.5C 723.801,628.229 729.135,620.896 733,612.5C 738.82,598.863 745.153,585.529 752,572.5C 753.991,564.731 755.824,557.064 757.5,549.5C 757.335,552.518 757.502,555.518 758,558.5C 765.14,544.764 772.473,531.097 780,517.5C 780.383,518.056 780.883,518.389 781.5,518.5 Z"/></g>
<g><path style="opacity:1" fill="#8ee145" d="M 319.5,524.5 C 325.643,522.99 328.976,525.323 329.5,531.5C 326.813,531.664 324.146,531.497 321.5,531C 319.771,529.211 319.104,527.044 319.5,524.5 Z"/></g>
<g><path style="opacity:1" fill="#84d553" d="M 352.5,528.5 C 352.5,529.5 352.5,530.5 352.5,531.5C 349.162,531.935 346.162,531.268 343.5,529.5C 343.351,528.448 343.517,527.448 344,526.5C 347.233,525.186 350.067,525.853 352.5,528.5 Z"/></g>
<g><path style="opacity:1" fill="#84d944" d="M 262.5,537.5 C 258.23,540.232 254.23,539.899 250.5,536.5C 248.774,530.904 250.941,528.237 257,528.5C 263.279,528.6 265.113,531.6 262.5,537.5 Z"/></g>
<g><path style="opacity:1" fill="#86d84b" d="M 360.5,539.5 C 360.5,540.5 360.5,541.5 360.5,542.5C 358.142,542.747 356.142,542.081 354.5,540.5C 354.281,539.325 354.614,538.325 355.5,537.5C 357.075,538.456 358.742,539.123 360.5,539.5 Z"/></g>
<g><path style="opacity:0.998" fill="#1a4d81" d="M 239.5,612.5 C 240.667,613.815 242.167,614.481 244,614.5C 245.841,613.875 247.674,613.708 249.5,614C 252.089,617.097 255.089,619.597 258.5,621.5C 263.228,620.401 265.895,617.401 266.5,612.5C 271.099,616.596 275.599,620.93 280,625.5C 280.12,630.064 281.62,634.064 284.5,637.5C 284.5,638.833 284.5,640.167 284.5,641.5C 196.862,642.968 115.695,620.968 41,575.5C 40.6012,575.728 40.4346,576.062 40.5,576.5C 32.6209,561.877 26.2875,546.544 21.5,530.5C 21.4346,530.062 21.6012,529.728 22,529.5C 86.5232,578.173 159.023,605.839 239.5,612.5 Z"/></g>
<g><path style="opacity:1" fill="#82d648" d="M 362.5,549.5 C 367.529,551.155 367.529,552.488 362.5,553.5C 361.833,553.167 361.167,552.833 360.5,552.5C 361.193,551.482 361.859,550.482 362.5,549.5 Z"/></g>
<g><path style="opacity:1" fill="#88de3c" d="M 364.5,559.5 C 366.104,560.287 366.771,561.62 366.5,563.5C 364.801,563.66 363.134,563.494 361.5,563C 362.71,561.961 363.71,560.794 364.5,559.5 Z"/></g>
<g><path style="opacity:1" fill="#80d346" d="M 375.5,562.5 C 377.257,563.292 378.591,564.625 379.5,566.5C 378.711,568.488 377.545,568.821 376,567.5C 375.506,565.866 375.34,564.199 375.5,562.5 Z"/></g>
<g><path style="opacity:0.996" fill="#1a4a79" d="M 284.5,637.5 C 285.485,641.634 285.818,645.968 285.5,650.5C 283.628,655.816 281.295,660.983 278.5,666C 280.594,669.949 282.094,674.116 283,678.5C 284.311,681.135 285.978,683.469 288,685.5C 288.532,692.73 291.365,698.897 296.5,704C 297.448,704.483 298.448,704.649 299.5,704.5C 305.894,710.719 312.561,716.885 319.5,723C 326.436,726.94 333.103,731.273 339.5,736C 345.019,738.13 350.686,739.797 356.5,741C 369.34,747.341 380.173,756.175 389,767.5C 390.552,771.333 392.385,775 394.5,778.5C 400.981,783.813 407.314,789.313 413.5,795C 415.388,796.394 417.388,797.56 419.5,798.5C 419.5,798.833 419.5,799.167 419.5,799.5C 403.5,799.5 387.5,799.5 371.5,799.5C 237.668,786.365 133.835,724.031 60,612.5C 52.7125,600.925 46.2125,588.925 40.5,576.5C 40.4346,576.062 40.6012,575.728 41,575.5C 115.695,620.968 196.862,642.968 284.5,641.5C 284.5,640.167 284.5,638.833 284.5,637.5 Z"/></g>
<g><path style="opacity:1" fill="#76d617" d="M 448.5,645.5 C 448.337,647.857 448.503,650.19 449,652.5C 450.062,653.097 451.228,653.43 452.5,653.5C 458.285,652.542 463.285,650.042 467.5,646C 472.833,645.333 478.167,645.333 483.5,646C 485.5,646.667 486.833,648 487.5,650C 489.5,650.333 491.5,650.667 493.5,651C 503.485,650.62 513.485,650.62 523.5,651C 527.181,651.872 530.181,653.706 532.5,656.5C 531.055,658.133 529.721,659.966 528.5,662C 484.194,685.988 436.861,700.988 386.5,707C 357.395,709.506 328.395,708.672 299.5,704.5C 298.448,704.649 297.448,704.483 296.5,704C 291.365,698.897 288.532,692.73 288,685.5C 285.978,683.469 284.311,681.135 283,678.5C 282.094,674.116 280.594,669.949 278.5,666C 281.295,660.983 283.628,655.816 285.5,650.5C 340.303,663.877 394.636,662.21 448.5,645.5 Z"/></g>
<g><path style="opacity:1" fill="#6ccf0b" d="M 532.5,656.5 C 535.438,658.934 538.271,661.601 541,664.5C 541.425,668.869 541.092,673.203 540,677.5C 533.842,686.35 527.509,695.017 521,703.5C 518.291,712.588 515.291,721.588 512,730.5C 511.667,732.833 511.333,735.167 511,737.5C 506.911,743.593 502.078,749.093 496.5,754C 490.667,755.174 485.834,758.007 482,762.5C 478.577,771.51 473.077,779.01 465.5,785C 459.461,786.207 455.461,789.707 453.5,795.5C 442.402,797.541 431.069,798.541 419.5,798.5C 417.388,797.56 415.388,796.394 413.5,795C 407.314,789.313 400.981,783.813 394.5,778.5C 392.385,775 390.552,771.333 389,767.5C 380.173,756.175 369.34,747.341 356.5,741C 350.686,739.797 345.019,738.13 339.5,736C 333.103,731.273 326.436,726.94 319.5,723C 312.561,716.885 305.894,710.719 299.5,704.5C 328.395,708.672 357.395,709.506 386.5,707C 436.861,700.988 484.194,685.988 528.5,662C 529.721,659.966 531.055,658.133 532.5,656.5 Z"/></g>
</svg>
