<?xml version="1.0" encoding="UTF-8"?>
<!DOCTYPE svg PUBLIC "-//W3C//DTD SVG 1.1//EN" "http://www.w3.org/Graphics/SVG/1.1/DTD/svg11.dtd">
<svg xmlns="http://www.w3.org/2000/svg" version="1.1" width="512px" height="512px" style="shape-rendering:geometricPrecision; text-rendering:geometricPrecision; image-rendering:optimizeQuality; fill-rule:evenodd; clip-rule:evenodd" xmlns:xlink="http://www.w3.org/1999/xlink">
<g><path style="opacity:0.95" fill="#000000" d="M 39.5,-0.5 C 44.1667,-0.5 48.8333,-0.5 53.5,-0.5C 56.1418,0.895182 58.8085,2.39518 61.5,4C 75.7075,18.5417 90.2075,32.7084 105,46.5C 145.319,26.5011 185.652,26.5011 226,46.5C 240.792,32.7084 255.292,18.5417 269.5,4C 272.191,2.39518 274.858,0.895182 277.5,-0.5C 282.167,-0.5 286.833,-0.5 291.5,-0.5C 302.677,3.47325 308.843,11.4733 310,23.5C 310.667,56.1667 310.667,88.8333 310,121.5C 309.701,137.792 306.868,153.625 301.5,169C 333.989,190.507 366.822,211.674 400,232.5C 400.333,201.167 400.667,169.833 401,138.5C 408.929,109.611 427.762,97.4448 457.5,102C 474.509,107.676 485.343,119.176 490,136.5C 491.49,217.126 491.99,297.626 491.5,378C 490.698,413.072 479.865,444.572 459,472.5C 441.68,492.57 420.18,505.57 394.5,511.5C 339.833,511.5 285.167,511.5 230.5,511.5C 221.976,507.128 217.142,500.128 216,490.5C 212.591,489.378 209.091,489.211 205.5,490C 200.896,500.106 193.562,507.273 183.5,511.5C 156.167,511.5 128.833,511.5 101.5,511.5C 90.7346,504.966 86.068,495.299 87.5,482.5C 86.7607,461.759 96.094,447.926 115.5,441C 118.146,440.503 120.813,440.336 123.5,440.5C 123.667,418.164 123.5,395.831 123,373.5C 103.089,335.946 94.4225,295.946 97,253.5C 49.7895,222.772 24.4562,179.105 21,122.5C 20.3333,89.5 20.3333,56.5 21,23.5C 22.1566,11.4733 28.3232,3.47325 39.5,-0.5 Z M 46.5,25.5 C 62.6319,41.1315 78.6319,56.9649 94.5,73C 98.2176,75.2984 102.218,75.9651 106.5,75C 145.833,50.3333 185.167,50.3333 224.5,75C 228.782,75.9651 232.782,75.2984 236.5,73C 252.333,57.1667 268.167,41.3333 284,25.5C 284.956,63.5292 284.623,101.529 283,139.5C 270.298,142.111 257.465,144.278 244.5,146C 237.146,150.59 235.313,156.756 239,164.5C 240.961,167.135 243.461,168.969 246.5,170C 255.835,169.501 265.169,168.668 274.5,167.5C 273.866,170.937 272.533,174.104 270.5,177C 263.448,177.218 256.448,176.718 249.5,175.5C 239.295,177.597 235.462,183.597 238,193.5C 241.816,199.398 247.316,202.398 254.5,202.5C 222.076,242.029 181.076,255.195 131.5,242C 109.305,233.572 90.6379,220.239 75.5,202C 85.8056,202.864 92.1389,198.364 94.5,188.5C 93.1667,181.167 88.8333,176.833 81.5,175.5C 74.5522,176.718 67.5522,177.218 60.5,177C 58.8333,174 57.1667,171 55.5,168C 65.175,168.585 74.8417,169.251 84.5,170C 93.4727,165.921 95.9727,159.421 92,150.5C 90.4571,148.622 88.6238,147.122 86.5,146C 73.5329,144.292 60.6996,142.125 48,139.5C 46.5438,101.531 46.0438,63.5307 46.5,25.5 Z M 443.5,125.5 C 454.155,125.674 461.321,130.674 465,140.5C 465.667,190.5 465.667,240.5 465,290.5C 454.08,274.912 441.08,261.245 426,249.5C 425.333,213.833 425.333,178.167 426,142.5C 428.462,133.203 434.295,127.536 443.5,125.5 Z M 290.5,193.5 C 330.612,218.395 370.612,243.562 410.5,269C 461.713,311.323 476.88,364.157 456,427.5C 446.656,452.07 430.156,469.904 406.5,481C 399.429,483.935 392.096,485.935 384.5,487C 336.834,487.5 289.168,487.667 241.5,487.5C 241.334,481.824 241.501,476.157 242,470.5C 243.458,468.04 245.291,465.873 247.5,464C 262.074,462.699 276.74,462.033 291.5,462C 296.987,459.843 300.32,455.843 301.5,450C 297.923,441.674 294.756,433.174 292,424.5C 284.15,383.05 297.983,351.217 333.5,329C 348.446,322.079 364.113,318.079 380.5,317C 387.622,310.942 388.289,304.276 382.5,297C 379.274,294.536 375.607,293.369 371.5,293.5C 320.833,297.348 286.666,323.015 269,370.5C 262.837,392.573 263.003,414.573 269.5,436.5C 251.605,433.754 236.438,438.754 224,451.5C 221.197,455.141 219.03,459.141 217.5,463.5C 214.232,464.487 210.898,464.82 207.5,464.5C 207.667,438.498 207.5,412.498 207,386.5C 202.061,377.557 195.227,375.724 186.5,381C 184.959,382.579 183.792,384.413 183,386.5C 182.978,418.561 182.312,450.561 181,482.5C 179.457,484.378 177.624,485.878 175.5,487C 154.836,487.5 134.169,487.667 113.5,487.5C 113.334,482.156 113.501,476.823 114,471.5C 115.251,468.619 117.417,466.786 120.5,466C 126.833,465.667 133.167,465.333 139.5,465C 145.338,462.833 148.504,458.666 149,452.5C 149.667,424.833 149.667,397.167 149,369.5C 134.524,344.403 125.857,317.403 123,288.5C 122.333,280.833 122.333,273.167 123,265.5C 184.691,282.485 235.691,266.152 276,216.5C 281.855,209.452 286.688,201.785 290.5,193.5 Z"/></g>
<g><path style="opacity:0.921" fill="#000000" d="M 90.5,109.5 C 103.585,110.679 107.752,117.345 103,129.5C 94.0478,137.078 86.7144,135.745 81,125.5C 79.835,117.485 83.0016,112.152 90.5,109.5 Z"/></g>
<g><path style="opacity:0.923" fill="#000000" d="M 235.5,109.5 C 248.574,110.654 252.741,117.32 248,129.5C 239.048,137.078 231.714,135.745 226,125.5C 224.835,117.485 228.002,112.152 235.5,109.5 Z"/></g>
<g><path style="opacity:0.955" fill="#000000" d="M 164.5,150.5 C 167.811,150.909 170.811,152.076 173.5,154C 175.353,156.571 177.019,159.238 178.5,162C 182.648,162.669 186.648,162.169 190.5,160.5C 200.843,162.856 204.01,168.856 200,178.5C 195.178,183.775 189.178,186.109 182,185.5C 176.124,185.708 170.624,184.374 165.5,181.5C 155.224,186.575 144.891,186.742 134.5,182C 127.134,175.949 126.801,169.615 133.5,163C 135.639,161.596 137.972,160.763 140.5,160.5C 144.352,162.169 148.352,162.669 152.5,162C 154.454,155.876 158.454,152.043 164.5,150.5 Z"/></g>
<g><path style="opacity:0.954" fill="#000000" d="M 417.5,343.5 C 422.9,342.785 427.4,344.452 431,348.5C 439.679,376.703 436.679,403.703 422,429.5C 416.189,436.199 409.689,437.032 402.5,432C 400.077,429.487 398.744,426.487 398.5,423C 400.832,415.657 403.665,408.49 407,401.5C 408.158,397.203 409.158,392.869 410,388.5C 410.542,376.11 410.209,363.777 409,351.5C 411.074,347.923 413.907,345.256 417.5,343.5 Z"/></g>
</svg>
