<?xml version="1.0" encoding="UTF-8"?>
<!DOCTYPE svg PUBLIC "-//W3C//DTD SVG 1.1//EN" "http://www.w3.org/Graphics/SVG/1.1/DTD/svg11.dtd">
<svg xmlns="http://www.w3.org/2000/svg" version="1.1" width="512px" height="512px" style="shape-rendering:geometricPrecision; text-rendering:geometricPrecision; image-rendering:optimizeQuality; fill-rule:evenodd; clip-rule:evenodd" xmlns:xlink="http://www.w3.org/1999/xlink">
<g><path style="opacity:0.93" fill="#000000" d="M 251.5,-0.5 C 254.5,-0.5 257.5,-0.5 260.5,-0.5C 262.168,1.34004 263.668,3.34004 265,5.5C 265.333,19.1667 265.667,32.8333 266,46.5C 275.217,54.051 284.717,61.2176 294.5,68C 296.378,69.5429 297.878,71.3762 299,73.5C 299.754,86.3993 297.42,98.7327 292,110.5C 292.061,159.596 297.561,208.096 308.5,256C 306.41,264.211 301.41,266.877 293.5,264C 291.106,262.048 289.606,259.548 289,256.5C 278.1,207.069 272.767,157.069 273,106.5C 276.503,98.9915 279.003,91.1582 280.5,83C 273.05,75.68 264.883,69.18 256,63.5C 247.117,69.18 238.95,75.68 231.5,83C 232.623,88.991 234.289,94.8244 236.5,100.5C 244.145,101.331 251.812,101.831 259.5,102C 262.428,103.26 264.261,105.427 265,108.5C 265.667,158.5 265.667,208.5 265,258.5C 262.093,265.029 257.259,266.862 250.5,264C 249.667,263.167 248.833,262.333 248,261.5C 246.515,214.56 246.015,167.56 246.5,120.5C 244.167,120.5 241.833,120.5 239.5,120.5C 238.33,168.186 232.164,215.186 221,261.5C 212.673,267.929 206.84,266.095 203.5,256C 214.439,208.096 219.939,159.596 220,110.5C 214.58,98.7327 212.246,86.3993 213,73.5C 214.122,71.3762 215.622,69.5429 217.5,68C 227.283,61.2176 236.783,54.051 246,46.5C 246.333,32.8333 246.667,19.1667 247,5.5C 248.332,3.34004 249.832,1.34004 251.5,-0.5 Z"/></g>
<g><path style="opacity:0.939" fill="#000000" d="M 175.5,272.5 C 229.168,272.333 282.834,272.5 336.5,273C 344.036,278.173 344.369,283.84 337.5,290C 331.577,291.304 325.577,291.804 319.5,291.5C 324.975,314.592 332.642,336.926 342.5,358.5C 340.866,366.156 336.199,368.989 328.5,367C 324.57,363.245 321.737,358.745 320,353.5C 311.67,333.678 304.837,313.345 299.5,292.5C 294.88,291.507 290.214,291.173 285.5,291.5C 289.925,313.702 294.592,335.869 299.5,358C 298.01,367.146 293.01,369.813 284.5,366C 282.513,364.681 281.346,362.848 281,360.5C 275.842,338.202 270.842,315.869 266,293.5C 262.936,292.217 259.603,291.55 256,291.5C 252.397,291.55 249.064,292.217 246,293.5C 240.981,316.91 235.647,340.243 230,363.5C 224.593,368.765 219.26,368.765 214,363.5C 212.543,360.634 212.21,357.634 213,354.5C 217.951,333.578 222.451,312.578 226.5,291.5C 221.786,291.173 217.12,291.507 212.5,292.5C 206.418,316.58 198.251,339.913 188,362.5C 182.709,368.785 177.042,369.119 171,363.5C 170.399,361.863 169.899,360.197 169.5,358.5C 179.358,336.926 187.025,314.592 192.5,291.5C 186.423,291.804 180.423,291.304 174.5,290C 167.711,283.687 168.045,277.853 175.5,272.5 Z"/></g>
<g><path style="opacity:0.94" fill="#000000" d="M 511.5,497.5 C 511.5,501.5 511.5,505.5 511.5,509.5C 510.5,509.833 509.833,510.5 509.5,511.5C 340.5,511.5 171.5,511.5 2.5,511.5C 1.48837,510.128 0.488369,508.795 -0.5,507.5C -0.5,504.833 -0.5,502.167 -0.5,499.5C 1.80736,496.673 4.80736,494.84 8.5,494C 41.1718,493.833 73.8384,493.333 106.5,492.5C 125.783,461.27 142.449,428.603 156.5,394.5C 151.868,393.672 147.202,393.172 142.5,393C 134.569,388.671 133.569,383.004 139.5,376C 178.275,374.842 217.108,374.342 256,374.5C 294.892,374.342 333.725,374.842 372.5,376C 378.431,383.004 377.431,388.671 369.5,393C 364.798,393.172 360.132,393.672 355.5,394.5C 369.551,428.603 386.217,461.27 405.5,492.5C 438.162,493.333 470.828,493.833 503.5,494C 506.565,494.368 509.232,495.535 511.5,497.5 Z M 176.5,393.5 C 229.5,393.5 282.5,393.5 335.5,393.5C 348.149,428.298 364.149,461.465 383.5,493C 369.837,493.5 356.171,493.667 342.5,493.5C 339.099,450.949 317.099,423.449 276.5,411C 230.006,403.225 196.506,420.391 176,462.5C 172.233,472.503 170.066,482.836 169.5,493.5C 155.829,493.667 142.163,493.5 128.5,493C 147.851,461.465 163.851,428.298 176.5,393.5 Z M 248.5,427.5 C 286.835,426.898 311.335,444.898 322,481.5C 322.642,485.491 323.142,489.491 323.5,493.5C 278.5,493.5 233.5,493.5 188.5,493.5C 192.176,456.497 212.176,434.497 248.5,427.5 Z"/></g>
</svg>
