<?xml version="1.0" encoding="utf-8"?><!-- Uploaded to: SVG Repo, www.svgrepo.com, Generator: SVG Repo Mixer Tools -->
<svg width="800px" height="800px" viewBox="0 0 24 24" fill="none" xmlns="http://www.w3.org/2000/svg">
<path d="M8.5 11C9.32843 11 10 10.3284 10 9.5C10 8.67157 9.32843 8 8.5 8C7.67157 8 7 8.67157 7 9.5C7 10.3284 7.67157 11 8.5 11Z" fill="#0F0F0F"/>
<path d="M17 9.5C17 10.3284 16.3284 11 15.5 11C14.6716 11 14 10.3284 14 9.5C14 8.67157 14.6716 8 15.5 8C16.3284 8 17 8.67157 17 9.5Z" fill="#0F0F0F"/>
<path d="M6.55279 15.8944C7.03804 16.1371 7.62626 15.9481 7.88102 15.4731C8.11023 15.1132 8.60518 15 9 15C9.44724 15 9.61844 15.1141 9.94058 15.3289L9.9453 15.3321C10.3701 15.6153 10.9494 16 12 16C13.0506 16 13.6299 15.6153 14.0547 15.3321L14.0594 15.3289C14.3816 15.1141 14.5528 15 15 15C15.3948 15 15.8898 15.1132 16.119 15.4731C16.3737 15.9481 16.962 16.1371 17.4472 15.8944C17.9287 15.6537 18.1343 15.0286 17.8922 14.5484C17.8451 14.4558 17.7934 14.3704 17.6984 14.2437C17.5859 14.0938 17.4194 13.9049 17.1872 13.7191C16.7102 13.3375 15.9929 13 15 13C13.9494 13 13.3701 13.3847 12.9453 13.6679L12.9406 13.6711C12.6184 13.8859 12.4472 14 12 14C11.5528 14 11.3816 13.8859 11.0594 13.6711L11.0547 13.6679C10.6299 13.3847 10.0506 13 9 13C8.00708 13 7.28983 13.3375 6.81281 13.7191C6.58063 13.9049 6.41406 14.0938 6.30156 14.2437C6.20582 14.3714 6.15379 14.4572 6.10665 14.5506C5.86386 15.0337 6.06922 15.6526 6.55279 15.8944Z" fill="#0F0F0F"/>
<path fill-rule="evenodd" clip-rule="evenodd" d="M12 23C18.0751 23 23 18.0751 23 12C23 5.92487 18.0751 1 12 1C5.92487 1 1 5.92487 1 12C1 18.0751 5.92487 23 12 23ZM12 20.9932C7.03321 20.9932 3.00683 16.9668 3.00683 12C3.00683 7.03321 7.03321 3.00683 12 3.00683C16.9668 3.00683 20.9932 7.03321 20.9932 12C20.9932 16.9668 16.9668 20.9932 12 20.9932Z" fill="#0F0F0F"/>
</svg>