<svg id="svgContent" version="1.1" width="512" height="512" style="position: relative; width: 512px; height: 512px; margin:auto; user-select: none; cursor: default;" xmlns="http://www.w3.org/2000/svg" xmlns:xlink="http://www.w3.org/1999/xlink" viewBox="0 0 512 512"><g id="svgPath"><path d="M 0.142 114.750 C 0.225 181.168, 0.621 225.116, 1.082 219.091 C 4.818 170.355, 19.628 132.202, 45.189 105.463 C 65.336 84.390, 88.320 71.569, 120.500 63.455 C 153.329 55.176, 183.478 55.130, 225.750 63.292 L 233 64.691 233 48.796 C 233 24.926, 233.878 24, 256.500 24 C 279.114 24, 280 24.933, 280 48.749 L 280 64.597 295.750 61.895 C 333.057 55.496, 354.693 55.392, 384.187 61.468 C 440.666 73.103, 479.318 104.735, 498.511 155.029 C 504.856 171.657, 509.956 195.876, 511.876 218.500 C 512.402 224.699, 512.777 185.071, 512.863 114.250 L 513 0 256.500 0 L 0 0 0.142 114.750 M 0.483 115 C 0.483 177.975, 0.603 203.738, 0.750 172.250 C 0.896 140.763, 0.896 89.238, 0.750 57.750 C 0.603 26.263, 0.483 52.025, 0.483 115 M 116.972 180.753 C 104.062 198.744, 93.500 213.914, 93.500 214.465 C 93.500 215.344, 191.080 226.311, 193.319 225.683 C 193.942 225.509, 144.233 152.307, 141.091 148.772 C 140.735 148.371, 129.881 162.763, 116.972 180.753 M 339.785 187.250 C 325.231 208.287, 313.588 225.598, 313.911 225.717 C 315.223 226.201, 414.067 215.429, 414.275 214.780 C 414.576 213.842, 367.983 149, 367.009 149 C 366.590 149, 354.339 166.213, 339.785 187.250 M 238.419 239.779 L 222.339 259.500 238.733 259.774 C 247.750 259.925, 262.295 259.925, 271.055 259.774 L 286.983 259.500 271.384 239.750 C 262.804 228.887, 255.495 220.013, 255.142 220.029 C 254.789 220.044, 247.264 228.932, 238.419 239.779 M 0.175 386.752 L 0 512.004 256.250 511.752 L 512.500 511.500 512.577 386 C 512.620 316.975, 512.505 262.525, 512.322 265 C 507.996 323.589, 484.013 375.472, 442.421 416.220 C 402.931 454.908, 351.688 478.787, 291.334 486.625 C 273.951 488.882, 239.049 488.882, 221.666 486.625 C 161.285 478.783, 110.107 454.929, 70.591 416.209 C 29.472 375.918, 5.189 323.729, 0.699 266 C 0.507 263.525, 0.271 317.863, 0.175 386.752 M 0.485 387 C 0.485 456.025, 0.604 484.262, 0.750 449.750 C 0.896 415.237, 0.896 358.762, 0.750 324.250 C 0.604 289.737, 0.485 317.975, 0.485 387 M 444.017 276.740 C 434.175 280.853, 394.307 289.323, 374.250 291.561 L 368 292.258 368 314.129 L 368 336 339.500 336 L 311 336 311 316.421 L 311 296.841 307.750 297.588 C 305.962 298, 282.788 298.350, 256.250 298.368 L 208 298.400 208 317.200 L 208 336 179 336 L 150 336 150 314.500 C 150 297.969, 149.711 292.999, 148.750 292.996 C 148.063 292.994, 139.625 291.853, 130 290.462 C 110.071 287.580, 84.880 282.201, 74.021 278.507 C 69.967 277.128, 66.220 276, 65.696 276 C 63.411 276, 68.468 304.169, 73.574 319.879 C 86.360 359.223, 112.715 390.063, 150.500 409.894 L 158.500 414.093 159 400.296 L 159.500 386.500 182.230 386.231 L 204.961 385.963 205.230 407.687 L 205.500 429.412 209.500 430.242 C 219.319 432.281, 233.906 434.035, 245.701 434.594 C 260.027 435.274, 278.012 433.133, 298.729 428.282 L 309.959 425.652 310.229 406.076 L 310.500 386.500 333.250 386.231 L 356 385.962 356 396.981 C 356 403.042, 356.269 408, 356.597 408 C 358.081 408, 373.901 399.193, 381.310 394.242 C 420.602 367.987, 443.028 330.783, 446.926 285.383 C 447.393 279.947, 447.713 275.452, 447.637 275.392 C 447.562 275.333, 445.933 275.940, 444.017 276.740" stroke="none" fill="#f3f3f3" fill-rule="evenodd"/><path d="M 236.766 27.916 L 233.500 30.831 233.184 47.916 C 233.010 57.312, 232.785 65, 232.684 65 C 232.583 65, 228.900 64.303, 224.500 63.451 C 186.509 56.096, 159.866 55.568, 130 61.579 C 54.310 76.811, 12.489 125.248, 2.367 209.403 C 0.266 226.866, 0.237 263.614, 2.311 278.534 C 13.299 357.572, 58.868 421.929, 129.503 458.168 C 157.011 472.282, 182.719 480.452, 216 485.659 C 230.425 487.916, 279.238 488.259, 293.500 486.203 C 342.263 479.173, 383.426 462.699, 418.840 436.038 C 484.091 386.915, 517.139 313.108, 512.024 227.926 C 509.748 190.013, 503.238 163.040, 490.207 137.530 C 466.618 91.350, 421.087 63.833, 358.500 57.931 C 340.787 56.261, 315.227 58.277, 288.500 63.451 C 284.100 64.303, 280.417 65, 280.316 65 C 280.215 65, 279.990 57.312, 279.816 47.916 L 279.500 30.831 276.234 27.916 L 272.968 25 256.500 25 L 240.032 25 236.766 27.916 M 116.171 181.301 C 102.789 199.931, 91.989 215.297, 92.171 215.448 C 92.557 215.769, 190.693 226.031, 193.200 226.012 C 194.690 226.002, 177.142 199.726, 145.080 153.963 L 140.500 147.427 116.171 181.301 M 339.726 186.760 C 322.672 211.437, 313.456 225.608, 314.340 225.797 C 315.456 226.036, 410.331 216.515, 414.734 215.722 C 415.831 215.525, 368.825 148.854, 367.169 148.260 C 366.801 148.127, 354.452 165.452, 339.726 186.760 M 238.594 239.154 L 221.980 259.500 254.143 259.764 C 271.832 259.909, 286.504 259.830, 286.746 259.587 C 287.075 259.258, 260.654 224.995, 255.953 219.654 C 255.544 219.189, 247.732 227.964, 238.594 239.154 M 0.349 246 C 0.349 250.675, 0.522 252.588, 0.732 250.250 C 0.943 247.912, 0.943 244.088, 0.732 241.750 C 0.522 239.412, 0.349 241.325, 0.349 246 M 65.174 282.211 C 67.462 302.512, 73.347 323.566, 81.455 340.460 C 94.987 368.653, 119.918 394.106, 148.906 409.324 L 160 415.147 160 401.074 L 160 387 182.500 387 L 205 387 205 408.370 L 205 429.740 210.750 430.849 C 242.180 436.911, 266.942 436.105, 302.250 427.873 L 311 425.833 311 406.417 L 311 387 333.500 387 L 356 387 356 398.014 L 356 409.029 362.219 405.889 C 379.557 397.137, 396.121 384.888, 409.193 371.152 C 432.113 347.067, 444.404 318.704, 447.571 282.592 C 448.228 275.101, 448.165 274.727, 446.382 275.482 C 441.098 277.723, 424.115 282.343, 411.594 284.947 C 400.164 287.324, 371.909 291.972, 368.750 291.995 C 368.337 291.998, 368 301.675, 368 313.500 L 368 335 340 335 L 312 335 312 316.250 L 312 297.500 260.001 297.500 L 208.001 297.500 208.001 316.250 L 208 335 179 335 L 150 335 150 314.045 L 150 293.091 146.750 292.571 C 144.963 292.286, 136.975 291.111, 129 289.960 C 105.780 286.609, 78.506 280.353, 65.707 275.441 C 64.598 275.016, 64.501 276.247, 65.174 282.211" stroke="none" fill="#040404" fill-rule="evenodd"/><path d="M 249.296 24.744 C 253.583 24.932, 260.333 24.931, 264.296 24.742 C 268.258 24.552, 264.750 24.399, 256.500 24.400 C 248.250 24.401, 245.008 24.556, 249.296 24.744 M 235.872 27.750 C 234.629 29.336, 234.664 29.371, 236.250 28.128 C 237.916 26.821, 238.445 26, 237.622 26 C 237.415 26, 236.627 26.788, 235.872 27.750 M 275 26.378 C 275 26.585, 275.788 27.373, 276.750 28.128 C 278.336 29.371, 278.371 29.336, 277.128 27.750 C 275.821 26.084, 275 25.555, 275 26.378 M 156.269 57.693 C 157.242 57.947, 158.592 57.930, 159.269 57.656 C 159.946 57.382, 159.150 57.175, 157.500 57.195 C 155.850 57.215, 155.296 57.439, 156.269 57.693 M 179.250 57.689 C 180.213 57.941, 181.787 57.941, 182.750 57.689 C 183.713 57.438, 182.925 57.232, 181 57.232 C 179.075 57.232, 178.287 57.438, 179.250 57.689 M 330.269 57.693 C 331.242 57.947, 332.592 57.930, 333.269 57.656 C 333.946 57.382, 333.150 57.175, 331.500 57.195 C 329.850 57.215, 329.296 57.439, 330.269 57.693 M 354.269 57.693 C 355.242 57.947, 356.592 57.930, 357.269 57.656 C 357.946 57.382, 357.150 57.175, 355.500 57.195 C 353.850 57.215, 353.296 57.439, 354.269 57.693 M 192.813 58.683 C 193.534 58.972, 194.397 58.936, 194.729 58.604 C 195.061 58.272, 194.471 58.036, 193.417 58.079 C 192.252 58.127, 192.015 58.364, 192.813 58.683 M 318.813 58.683 C 319.534 58.972, 320.397 58.936, 320.729 58.604 C 321.061 58.272, 320.471 58.036, 319.417 58.079 C 318.252 58.127, 318.015 58.364, 318.813 58.683 M 365.813 58.683 C 366.534 58.972, 367.397 58.936, 367.729 58.604 C 368.061 58.272, 367.471 58.036, 366.417 58.079 C 365.252 58.127, 365.015 58.364, 365.813 58.683 M 200.813 59.683 C 201.534 59.972, 202.397 59.936, 202.729 59.604 C 203.061 59.272, 202.471 59.036, 201.417 59.079 C 200.252 59.127, 200.015 59.364, 200.813 59.683 M 310.813 59.683 C 311.534 59.972, 312.397 59.936, 312.729 59.604 C 313.061 59.272, 312.471 59.036, 311.417 59.079 C 310.252 59.127, 310.015 59.364, 310.813 59.683 M 207.813 60.683 C 208.534 60.972, 209.397 60.936, 209.729 60.604 C 210.061 60.272, 209.471 60.036, 208.417 60.079 C 207.252 60.127, 207.015 60.364, 207.813 60.683 M 366 148.393 C 366 148.609, 366.698 149.054, 367.552 149.382 C 368.442 149.723, 368.843 149.555, 368.493 148.989 C 367.906 148.038, 366 147.583, 366 148.393 M 2.079 206.583 C 2.127 207.748, 2.364 207.985, 2.683 207.188 C 2.972 206.466, 2.936 205.603, 2.604 205.271 C 2.272 204.939, 2.036 205.529, 2.079 206.583 M 510.079 206.583 C 510.127 207.748, 510.364 207.985, 510.683 207.188 C 510.972 206.466, 510.936 205.603, 510.604 205.271 C 510.272 204.939, 510.036 205.529, 510.079 206.583 M 1.158 216 C 1.158 217.375, 1.385 217.938, 1.662 217.250 C 1.940 216.563, 1.940 215.438, 1.662 214.750 C 1.385 214.063, 1.158 214.625, 1.158 216 M 92 215 C 92 215.550, 92.477 216, 93.059 216 C 93.641 216, 93.840 215.550, 93.500 215 C 93.160 214.450, 92.684 214, 92.441 214 C 92.198 214, 92 214.450, 92 215 M 511.079 216.583 C 511.127 217.748, 511.364 217.985, 511.683 217.188 C 511.972 216.466, 511.936 215.603, 511.604 215.271 C 511.272 214.939, 511.036 215.529, 511.079 216.583 M 100.813 216.683 C 101.534 216.972, 102.397 216.936, 102.729 216.604 C 103.061 216.272, 102.471 216.036, 101.417 216.079 C 100.252 216.127, 100.015 216.364, 100.813 216.683 M 404.813 216.683 C 405.534 216.972, 406.397 216.936, 406.729 216.604 C 407.061 216.272, 406.471 216.036, 405.417 216.079 C 404.252 216.127, 404.015 216.364, 404.813 216.683 M 110.813 217.683 C 111.534 217.972, 112.397 217.936, 112.729 217.604 C 113.061 217.272, 112.471 217.036, 111.417 217.079 C 110.252 217.127, 110.015 217.364, 110.813 217.683 M 395.813 217.683 C 396.534 217.972, 397.397 217.936, 397.729 217.604 C 398.061 217.272, 397.471 217.036, 396.417 217.079 C 395.252 217.127, 395.015 217.364, 395.813 217.683 M 120.813 218.683 C 121.534 218.972, 122.397 218.936, 122.729 218.604 C 123.061 218.272, 122.471 218.036, 121.417 218.079 C 120.252 218.127, 120.015 218.364, 120.813 218.683 M 385.813 218.683 C 386.534 218.972, 387.397 218.936, 387.729 218.604 C 388.061 218.272, 387.471 218.036, 386.417 218.079 C 385.252 218.127, 385.015 218.364, 385.813 218.683 M 129.813 219.683 C 130.534 219.972, 131.397 219.936, 131.729 219.604 C 132.061 219.272, 131.471 219.036, 130.417 219.079 C 129.252 219.127, 129.015 219.364, 129.813 219.683 M 375.750 219.662 C 376.438 219.940, 377.563 219.940, 378.250 219.662 C 378.938 219.385, 378.375 219.158, 377 219.158 C 375.625 219.158, 375.063 219.385, 375.750 219.662 M 139.813 220.683 C 140.534 220.972, 141.397 220.936, 141.729 220.604 C 142.061 220.272, 141.471 220.036, 140.417 220.079 C 139.252 220.127, 139.015 220.364, 139.813 220.683 M 366.813 220.683 C 367.534 220.972, 368.397 220.936, 368.729 220.604 C 369.061 220.272, 368.471 220.036, 367.417 220.079 C 366.252 220.127, 366.015 220.364, 366.813 220.683 M 148.813 221.683 C 149.534 221.972, 150.397 221.936, 150.729 221.604 C 151.061 221.272, 150.471 221.036, 149.417 221.079 C 148.252 221.127, 148.015 221.364, 148.813 221.683 M 356.750 221.662 C 357.438 221.940, 358.563 221.940, 359.250 221.662 C 359.938 221.385, 359.375 221.158, 358 221.158 C 356.625 221.158, 356.063 221.385, 356.750 221.662 M 158.813 222.683 C 159.534 222.972, 160.397 222.936, 160.729 222.604 C 161.061 222.272, 160.471 222.036, 159.417 222.079 C 158.252 222.127, 158.015 222.364, 158.813 222.683 M 347.813 222.683 C 348.534 222.972, 349.397 222.936, 349.729 222.604 C 350.061 222.272, 349.471 222.036, 348.417 222.079 C 347.252 222.127, 347.015 222.364, 347.813 222.683 M 167.813 223.683 C 168.534 223.972, 169.397 223.936, 169.729 223.604 C 170.061 223.272, 169.471 223.036, 168.417 223.079 C 167.252 223.127, 167.015 223.364, 167.813 223.683 M 337.813 223.683 C 338.534 223.972, 339.397 223.936, 339.729 223.604 C 340.061 223.272, 339.471 223.036, 338.417 223.079 C 337.252 223.127, 337.015 223.364, 337.813 223.683 M 177.813 224.683 C 178.534 224.972, 179.397 224.936, 179.729 224.604 C 180.061 224.272, 179.471 224.036, 178.417 224.079 C 177.252 224.127, 177.015 224.364, 177.813 224.683 M 328.813 224.683 C 329.534 224.972, 330.397 224.936, 330.729 224.604 C 331.061 224.272, 330.471 224.036, 329.417 224.079 C 328.252 224.127, 328.015 224.364, 328.813 224.683 M 186.813 225.683 C 187.534 225.972, 188.397 225.936, 188.729 225.604 C 189.061 225.272, 188.471 225.036, 187.417 225.079 C 186.252 225.127, 186.015 225.364, 186.813 225.683 M 318.813 225.683 C 319.534 225.972, 320.397 225.936, 320.729 225.604 C 321.061 225.272, 320.471 225.036, 319.417 225.079 C 318.252 225.127, 318.015 225.364, 318.813 225.683 M 246.872 228.750 C 245.629 230.336, 245.664 230.371, 247.250 229.128 C 248.916 227.821, 249.445 227, 248.622 227 C 248.415 227, 247.627 227.787, 246.872 228.750 M 0.286 233.500 C 0.294 236.250, 0.488 237.256, 0.718 235.736 C 0.947 234.216, 0.941 231.966, 0.704 230.736 C 0.467 229.506, 0.279 230.750, 0.286 233.500 M 237.872 239.750 C 236.629 241.336, 236.664 241.371, 238.250 240.128 C 239.916 238.821, 240.445 238, 239.622 238 C 239.415 238, 238.627 238.787, 237.872 239.750 M 0.272 258 C 0.272 260.475, 0.467 261.488, 0.706 260.250 C 0.944 259.012, 0.944 256.988, 0.706 255.750 C 0.467 254.512, 0.272 255.525, 0.272 258 M 1.079 272.583 C 1.127 273.748, 1.364 273.985, 1.683 273.188 C 1.972 272.466, 1.936 271.603, 1.604 271.271 C 1.272 270.939, 1.036 271.529, 1.079 272.583 M 511.079 272.583 C 511.127 273.748, 511.364 273.985, 511.683 273.188 C 511.972 272.466, 511.936 271.603, 511.604 271.271 C 511.272 270.939, 511.036 271.529, 511.079 272.583 M 447.195 280.500 C 447.215 282.150, 447.439 282.704, 447.693 281.731 C 447.947 280.758, 447.930 279.408, 447.656 278.731 C 447.382 278.054, 447.175 278.850, 447.195 280.500 M 372.813 291.683 C 373.534 291.972, 374.397 291.936, 374.729 291.604 C 375.061 291.272, 374.471 291.036, 373.417 291.079 C 372.252 291.127, 372.015 291.364, 372.813 291.683 M 209.269 297.693 C 210.242 297.947, 211.592 297.930, 212.269 297.656 C 212.946 297.382, 212.150 297.175, 210.500 297.195 C 208.850 297.215, 208.296 297.439, 209.269 297.693 M 301.750 297.706 C 302.988 297.944, 305.012 297.944, 306.250 297.706 C 307.488 297.467, 306.475 297.272, 304 297.272 C 301.525 297.272, 300.512 297.467, 301.750 297.706 M 311.227 316.250 L 311 336 339.750 335.766 L 368.500 335.532 340.272 335.251 L 312.043 334.969 311.749 315.734 L 311.454 296.500 311.227 316.250 M 246.803 298.746 C 252.470 298.925, 261.470 298.924, 266.803 298.745 C 272.136 298.565, 267.500 298.419, 256.500 298.420 C 245.500 298.421, 241.136 298.568, 246.803 298.746 M 164.250 335.748 C 172.362 335.916, 185.637 335.916, 193.750 335.748 C 201.862 335.580, 195.225 335.442, 179 335.442 C 162.775 335.442, 156.137 335.580, 164.250 335.748 M 412.872 366.750 C 411.629 368.336, 411.664 368.371, 413.250 367.128 C 414.212 366.373, 415 365.585, 415 365.378 C 415 364.555, 414.179 365.084, 412.872 366.750 M 101 371.378 C 101 371.585, 101.787 372.373, 102.750 373.128 C 104.336 374.371, 104.371 374.336, 103.128 372.750 C 101.821 371.084, 101 370.555, 101 371.378 M 398.405 381.250 L 396.500 383.500 398.750 381.595 C 399.988 380.547, 401 379.535, 401 379.345 C 401 378.545, 400.195 379.136, 398.405 381.250 M 159.438 387.300 C 159.164 388.016, 159.080 394.653, 159.251 402.050 L 159.563 415.500 159.782 401.269 L 160 387.038 182.750 386.749 L 205.500 386.461 182.719 386.230 C 164.778 386.049, 159.831 386.276, 159.438 387.300 M 310.446 387.281 C 310.175 387.985, 310.088 397.098, 310.251 407.531 L 310.547 426.500 310.773 406.769 L 311 387.038 333.750 386.749 L 356.500 386.461 333.719 386.230 C 315.955 386.051, 310.829 386.282, 310.446 387.281 M 117 387.378 C 117 387.585, 117.787 388.373, 118.750 389.128 C 120.336 390.371, 120.371 390.336, 119.128 388.750 C 117.821 387.084, 117 386.555, 117 387.378 M 56 401.378 C 56 401.585, 56.788 402.373, 57.750 403.128 C 59.336 404.371, 59.371 404.336, 58.128 402.750 C 56.821 401.084, 56 400.555, 56 401.378 M 454.872 402.750 C 453.629 404.336, 453.664 404.371, 455.250 403.128 C 456.212 402.373, 457 401.585, 457 401.378 C 457 400.555, 456.179 401.084, 454.872 402.750 M 79.500 425 C 80.495 426.100, 81.535 427, 81.810 427 C 82.085 427, 81.495 426.100, 80.500 425 C 79.505 423.900, 78.465 423, 78.190 423 C 77.915 423, 78.505 423.900, 79.500 425 M 432.405 425.250 L 430.500 427.500 432.750 425.595 C 434.864 423.805, 435.455 423, 434.655 423 C 434.465 423, 433.453 424.012, 432.405 425.250 M 85 429.378 C 85 429.585, 85.787 430.373, 86.750 431.128 C 88.336 432.371, 88.371 432.336, 87.128 430.750 C 85.821 429.084, 85 428.555, 85 429.378 M 425.872 430.750 C 424.629 432.336, 424.664 432.371, 426.250 431.128 C 427.916 429.821, 428.445 429, 427.622 429 C 427.415 429, 426.627 429.788, 425.872 430.750 M 270.813 433.683 C 271.534 433.972, 272.397 433.936, 272.729 433.604 C 273.061 433.272, 272.471 433.036, 271.417 433.079 C 270.252 433.127, 270.015 433.364, 270.813 433.683 M 238.269 434.693 C 239.242 434.947, 240.592 434.930, 241.269 434.656 C 241.946 434.382, 241.150 434.175, 239.500 434.195 C 237.850 434.215, 237.296 434.439, 238.269 434.693 M 262.813 434.683 C 263.534 434.972, 264.397 434.936, 264.729 434.604 C 265.061 434.272, 264.471 434.036, 263.417 434.079 C 262.252 434.127, 262.015 434.364, 262.813 434.683 M 213.813 485.683 C 214.534 485.972, 215.397 485.936, 215.729 485.604 C 216.061 485.272, 215.471 485.036, 214.417 485.079 C 213.252 485.127, 213.015 485.364, 213.813 485.683 M 230.750 487.662 C 231.438 487.940, 232.563 487.940, 233.250 487.662 C 233.938 487.385, 233.375 487.158, 232 487.158 C 230.625 487.158, 230.063 487.385, 230.750 487.662 M 279.750 487.662 C 280.438 487.940, 281.563 487.940, 282.250 487.662 C 282.938 487.385, 282.375 487.158, 281 487.158 C 279.625 487.158, 279.063 487.385, 279.750 487.662 M 251.287 488.740 C 254.469 488.939, 259.419 488.937, 262.287 488.736 C 265.154 488.535, 262.550 488.372, 256.500 488.374 C 250.450 488.376, 248.104 488.541, 251.287 488.740" stroke="none" fill="#5c5c5c" fill-rule="evenodd"/></g></svg>