<?xml version="1.0" encoding="utf-8"?><!-- Uploaded to: SVG Repo, www.svgrepo.com, Generator: SVG Repo Mixer Tools -->
<svg width="800px" height="800px" viewBox="0 0 24 24" fill="none" xmlns="http://www.w3.org/2000/svg">
<path d="M10 9.5C10 10.3284 9.32843 11 8.5 11C7.67157 11 7 10.3284 7 9.5C7 8.67157 7.67157 8 8.5 8C9.32843 8 10 8.67157 10 9.5Z" fill="#0F0F0F"/>
<path d="M15.5 11C16.3284 11 17 10.3284 17 9.5C17 8.67157 16.3284 8 15.5 8C14.6716 8 14 8.67157 14 9.5C14 10.3284 14.6716 11 15.5 11Z" fill="#0F0F0F"/>
<path fill-rule="evenodd" clip-rule="evenodd" d="M10.0111 13H13.989C13.9972 12.9999 14.0053 12.9999 14.0134 13H15.9991C16.5514 13 17 13.4477 17 14C17 14.5523 16.5523 15 16 15H15.0408C15.0405 15.4692 15.0157 16.0536 14.9264 16.6483C14.8243 17.3296 14.6245 18.1193 14.2056 18.7637C13.7576 19.453 13.0326 20 12 20C10.9674 20 10.2424 19.453 9.79439 18.7637C9.37552 18.1193 9.17577 17.3296 9.07358 16.6483C8.98438 16.0536 8.9595 15.4692 8.9592 15H8.00093C7.44865 15 7 14.5523 7 14C7 13.4477 7.44772 13 8 13H9.98659C9.99472 12.9999 10.0029 12.9999 10.0111 13ZM10.9592 15C10.9595 15.4022 10.981 15.8821 11.0515 16.3517C11.1368 16.9204 11.2808 17.3807 11.4713 17.6738C11.6326 17.922 11.7826 18 12 18C12.2174 18 12.3674 17.922 12.5288 17.6738C12.7193 17.3807 12.8633 16.9204 12.9486 16.3517C13.019 15.8821 13.0405 15.4022 13.0408 15H10.9592Z" fill="#0F0F0F"/>
<path fill-rule="evenodd" clip-rule="evenodd" d="M23 12C23 18.0751 18.0751 23 12 23C5.92487 23 1 18.0751 1 12C1 5.92487 5.92487 1 12 1C18.0751 1 23 5.92487 23 12ZM3.00683 12C3.00683 16.9668 7.03321 20.9932 12 20.9932C16.9668 20.9932 20.9932 16.9668 20.9932 12C20.9932 7.03321 16.9668 3.00683 12 3.00683C7.03321 3.00683 3.00683 7.03321 3.00683 12Z" fill="#0F0F0F"/>
</svg>