<?xml version="1.0" encoding="utf-8"?>

<!DOCTYPE svg PUBLIC "-//W3C//DTD SVG 1.1//EN" "http://www.w3.org/Graphics/SVG/1.1/DTD/svg11.dtd">
<!-- Uploaded to: SVG Repo, www.svgrepo.com, Generator: SVG Repo Mixer Tools -->
<svg height="800px" width="800px" version="1.1" id="_x32_" xmlns="http://www.w3.org/2000/svg" xmlns:xlink="http://www.w3.org/1999/xlink" 
	 viewBox="0 0 512 512"  xml:space="preserve">
<style type="text/css">
	.st0{fill:#000000;}
</style>
<g>
	<path class="st0" d="M305.406,269.895c6.441,4.993,14.604,7.975,23.367,7.975c8.706,0,16.826-2.938,23.252-7.867
		c6.426-4.928,11.246-11.846,13.54-19.872c1.498-5.268-1.556-10.762-6.824-12.259c-5.268-1.505-10.746,1.549-12.245,6.817h-0.007
		c-1.086,3.828-3.416,7.179-6.528,9.56c-3.126,2.38-6.94,3.777-11.188,3.777c-4.269,0-8.105-1.418-11.239-3.828
		c-3.119-2.41-5.449-5.811-6.513-9.675c-1.462-5.283-6.918-8.38-12.201-6.933c-5.276,1.462-8.38,6.926-6.926,12.202
		C294.138,257.903,298.958,264.909,305.406,269.895z"/>
	<path class="st0" d="M220.091,250.131c1.506-5.262-1.541-10.754-6.809-12.259c-5.269-1.505-10.754,1.542-12.259,6.81
		c-1.1,3.836-3.423,7.186-6.535,9.568c-3.126,2.38-6.94,3.777-11.188,3.777c-4.262,0-8.112-1.418-11.239-3.828
		c-3.126-2.41-5.45-5.811-6.513-9.675c-1.462-5.283-6.918-8.38-12.201-6.933c-5.283,1.462-8.38,6.926-6.926,12.202
		c2.244,8.112,7.056,15.117,13.512,20.104c6.44,4.993,14.61,7.975,23.367,7.975c8.713,0,16.826-2.938,23.244-7.867
		C212.978,265.075,217.804,258.157,220.091,250.131z"/>
	<path class="st0" d="M494.002,217.703c-10.052-10.066-23.715-16.666-38.818-17.773c-9.436-44.376-33.188-83.454-66.173-112.156
		c-36.046-31.35-83.229-50.368-134.747-50.368c-51.44,0-98.565,18.96-134.582,50.216c-33.18,28.794-57.04,68.076-66.423,112.676
		c-13.692,1.788-26.012,8.134-35.282,17.404C6.897,228.783,0,244.226,0,261.145c0,16.891,6.897,32.334,17.976,43.413
		c11.079,11.08,26.522,17.969,43.435,17.969c1.166,0,2.302-0.029,3.438-0.086c14.792,35.142,39.042,65.319,69.603,87.311
		c14.046,10.117,29.468,18.504,45.902,24.851c-1.983-6.94-3.004-14.227-3.004-21.652c0-3.423,0.225-6.853,0.674-10.197
		c-9.509-4.537-18.548-9.914-27.029-16.008c-29.077-20.921-51.577-50.476-63.734-84.851l-4.393-12.411l-12.693,3.488
		c-2.924,0.789-5.811,1.216-8.764,1.216c-9.176,0-17.364-3.684-23.375-9.69c-6.006-6.014-9.694-14.198-9.694-23.353
		c0-9.183,3.687-17.375,9.694-23.382c6.01-6.006,14.199-9.69,23.375-9.69c0.572,0,1.418,0.058,2.613,0.138l13.178,1.02l1.954-13.026
		c6.404-42.574,27.999-80.176,59.088-107.155c7.772-6.738,16.131-12.809,24.988-18.136c0.767,4.806,1.947,9.307,3.596,13.439
		c2.613,6.564,6.274,12.252,10.616,17.108c7.606,8.518,17.122,14.517,27.066,19.431c14.922,7.33,31.045,12.411,44.593,18.743
		c6.773,3.141,12.874,6.556,17.875,10.493c5.008,3.959,8.915,8.344,11.702,13.685c1.498,2.887,4.486,4.653,7.743,4.58
		c3.257-0.079,6.159-1.982,7.519-4.943c14.698-31.841,20.003-56.895,20.003-76.572c0.022-13.431-2.519-24.294-6.072-32.847
		c23.288,7.396,44.499,19.452,62.548,35.128c31.118,27.072,52.654,64.761,59.001,107.436l2.106,14.054l14.053-2.15
		c1.867-0.289,3.51-0.427,5.015-0.427c9.176,0,17.339,3.684,23.375,9.69c6.014,6.007,9.661,14.199,9.697,23.382
		c-0.036,9.155-3.684,17.34-9.697,23.353c-6.036,6.006-14.198,9.69-23.375,9.69c-3.807,0-7.432-0.688-10.949-1.896l-13.432-4.74
		l-4.675,13.431c-12.013,34.606-34.49,64.393-63.618,85.474c-7.62,5.522-15.696,10.457-24.171,14.712
		c0.594,3.879,0.876,7.794,0.876,11.782c0,6.89-0.876,13.634-2.576,20.125c15.168-6.23,29.418-14.198,42.48-23.664
		c30.409-22.021,54.551-52.148,69.263-87.282c2.208,0.253,4.501,0.398,6.803,0.398c16.912,0,32.334-6.889,43.406-17.969
		C505.089,293.479,512,278.036,512,261.145C512,244.226,505.089,228.783,494.002,217.703z M221.64,130.008
		c-12.324-5.195-23.143-10.999-30.474-18.736c-3.69-3.879-6.586-8.214-8.648-13.46c-1.701-4.364-2.786-9.459-3.119-15.465
		c11.123-5.204,22.875-9.307,35.128-12.115c0.058,9.626,2.294,24.692,11.868,42.798c4.277,8.12,10.023,16.818,17.636,25.936
		C236.425,135.899,228.804,133.041,221.64,130.008z M286.677,156.64c-23.918-19.235-37.53-36.936-45.244-51.548
		c-8.387-15.906-9.893-28.201-9.907-35.322c0-0.956,0.029-1.795,0.073-2.554c7.424-0.948,14.979-1.469,22.666-1.469
		c10.413,0,20.602,0.933,30.503,2.648c1.027,1.186,2.098,2.547,3.154,4.146c4.48,6.789,8.988,17.448,9.024,34.338
		C296.953,119.638,294.268,136.023,286.677,156.64z"/>
	<path class="st0" d="M256,351.33c-16.962-0.007-32.471,6.926-43.579,18.056c-11.13,11.101-18.056,26.61-18.049,43.579
		c-0.008,16.971,6.918,32.479,18.049,43.58c11.108,11.13,26.617,18.056,43.579,18.048c16.977,0.007,32.478-6.918,43.588-18.048
		c11.13-11.101,18.055-26.609,18.048-43.58c0.007-16.97-6.918-32.478-18.048-43.579C288.478,358.255,272.977,351.323,256,351.33z
		 M284.672,425.072c-2.344,5.558-6.318,10.342-11.282,13.699c-4.986,3.358-10.891,5.298-17.39,5.305
		c-4.334-0.008-8.387-0.876-12.1-2.446c-5.565-2.345-10.341-6.311-13.699-11.282c-3.358-4.986-5.298-10.891-5.304-17.383
		c0-4.342,0.868-8.394,2.438-12.107c2.352-5.558,6.31-10.342,11.282-13.699c4.986-3.358,10.892-5.297,17.382-5.304
		c4.342,0.008,8.395,0.875,12.107,2.439c5.565,2.352,10.349,6.318,13.706,11.289c3.358,4.979,5.29,10.891,5.298,17.382
		C287.111,417.3,286.243,421.353,284.672,425.072z"/>
	<path class="st0" d="M256.008,314.365c-41.857,0-75.812,20.291-75.812,45.338c0,7.483,3.04,14.546,8.417,20.777
		c3.256-5.384,7.23-10.428,11.788-14.994c14.821-14.842,34.577-23.034,55.578-23.034c21.081,0,40.808,8.192,55.651,23.071
		c4.566,4.53,8.502,9.574,11.767,14.958c5.376-6.231,8.416-13.294,8.416-20.777C331.812,334.656,297.887,314.365,256.008,314.365z"
		/>
</g>
</svg>