<svg id="svgContent" version="1.1" width="235" height="214" style="position: relative; width: 235px; height: 214px; margin:auto; user-select: none; cursor: default;" xmlns="http://www.w3.org/2000/svg" xmlns:xlink="http://www.w3.org/1999/xlink" viewBox="0 0 235 214"><g id="svgPath"><path d="M 69.565 1.794 C 69.252 2.780, 69.411 8.742, 69.917 15.042 C 70.423 21.341, 70.664 26.669, 70.452 26.882 C 70.239 27.094, 70.939 28.378, 72.006 29.735 C 73.074 31.093, 74.234 33.732, 74.585 35.601 C 74.936 37.471, 75.428 39, 75.678 39 C 76.137 39, 81.945 34.760, 85.230 32.028 C 86.204 31.218, 87 29.788, 87 28.849 C 87 26.270, 89.620 24.170, 94.295 23.004 C 96.608 22.428, 101.200 20.636, 104.500 19.023 C 109.431 16.613, 112.691 15.886, 122.800 14.942 C 136.485 13.663, 142 14.275, 157 18.735 C 166.357 21.517, 171.212 24.442, 178 31.383 C 180.475 33.914, 182.993 35.988, 183.595 35.992 C 185.325 36.004, 187.779 39.224, 188.555 42.500 C 189.284 45.576, 198.677 62, 199.707 62 C 200.022 62, 200.781 61.315, 201.393 60.477 C 202.811 58.538, 218.870 56.618, 228.250 57.267 L 235 57.733 235 28.866 L 235 0 152.567 0 C 74.173 0, 70.107 0.088, 69.565 1.794 M 19.482 30.675 C 16.609 31.249, 14.878 37.044, 16.964 39.106 C 18.970 41.090, 22 40.380, 22 37.927 C 22 36.867, 22.450 36, 23 36 C 23.550 36, 24 35.550, 24 35 C 24 34.450, 23.351 34, 22.557 34 C 21.653 34, 21.259 33.254, 21.500 32 C 21.712 30.900, 21.799 30.061, 21.693 30.136 C 21.587 30.211, 20.592 30.454, 19.482 30.675 M 18 36 C 18 36.550, 18.450 37, 19 37 C 19.550 37, 20 36.550, 20 36 C 20 35.450, 19.550 35, 19 35 C 18.450 35, 18 35.450, 18 36 M 81.474 76.474 C 81.079 81.213, 81.015 85.348, 81.332 85.665 C 82.333 86.666, 90.913 84.944, 92.417 83.441 C 93.209 82.648, 94.309 82, 94.861 82 C 96.279 82, 97.422 77.880, 96.214 77.125 C 95.663 76.781, 95.278 75.375, 95.357 74 C 95.465 72.114, 94.947 71.421, 93.250 71.180 C 92.013 71.005, 91 70.495, 91 70.047 C 91 69.600, 89.763 69.250, 88.250 69.269 C 86.737 69.289, 84.756 68.980, 83.846 68.582 C 82.406 67.953, 82.098 68.979, 81.474 76.474 M 205.252 98.500 C 205.263 100.700, 205.468 101.482, 205.707 100.238 C 205.946 98.994, 205.937 97.194, 205.687 96.238 C 205.437 95.282, 205.241 96.300, 205.252 98.500 M 102.474 104.250 C 101.733 108.160, 100.508 109.866, 96.346 112.787 C 92.614 115.405, 89.499 115.749, 90.383 113.445 C 90.952 111.960, 87.384 106, 85.925 106 C 84.688 106, 84.331 111.777, 85.140 118.729 C 86.852 133.449, 87.481 134.511, 90.780 128.250 C 92.250 125.461, 93.314 124.564, 94.934 124.748 C 96.216 124.894, 98.400 123.793, 100.242 122.072 C 102.922 119.567, 103.223 118.815, 102.339 116.834 C 101.374 114.671, 101.862 111.738, 104.684 102.750 C 104.986 101.787, 104.751 101, 104.162 101 C 103.573 101, 102.813 102.463, 102.474 104.250 M 84.813 133.683 C 85.534 133.972, 86.397 133.936, 86.729 133.604 C 87.061 133.272, 86.471 133.036, 85.417 133.079 C 84.252 133.127, 84.015 133.364, 84.813 133.683 M 61.662 136.618 C 60.100 137.464, 59.046 138.379, 59.319 138.652 C 59.852 139.185, 66 136.262, 66 135.474 C 66 134.656, 64.601 135.025, 61.662 136.618 M 74.500 138 C 71.200 139.646, 67.708 140.994, 66.741 140.996 C 65.773 140.998, 63.635 142.238, 61.989 143.750 C 55.761 149.473, 55.704 149.509, 56.430 147.220 C 56.873 145.823, 56.547 144.846, 55.429 144.220 C 53.942 143.388, 54.015 143.057, 56.135 141.023 L 58.500 138.753 56.197 139.940 C 52.972 141.603, 48.004 149.836, 43.490 161 C 41.378 166.225, 36.155 177.475, 31.883 186 C 27.611 194.525, 23.804 202.787, 23.422 204.361 C 22.777 207.020, 22.896 207.170, 25.114 206.498 C 26.426 206.101, 28.625 204.783, 30 203.570 C 31.375 202.357, 33.773 200.574, 35.328 199.608 C 36.930 198.613, 37.933 197.269, 37.641 196.508 C 37.358 195.769, 38.483 193.745, 40.142 192.009 C 41.801 190.273, 42.926 188.248, 42.642 187.509 C 42.358 186.770, 43.448 184.782, 45.063 183.091 C 46.713 181.365, 48 178.920, 48 177.513 C 48 176.136, 49.587 171.573, 51.526 167.375 C 53.465 163.176, 55.194 158.811, 55.368 157.673 C 55.541 156.536, 56.207 155.431, 56.848 155.217 C 57.488 155.004, 57.698 154.305, 57.314 153.665 C 56.930 153.024, 57.377 153.118, 58.308 153.872 C 59.268 154.651, 60 154.795, 60 154.204 C 60 152.099, 67.699 144.677, 74.832 139.906 C 83.224 134.293, 83.121 133.700, 74.500 138" stroke="none" fill="#d9d8d2" fill-rule="evenodd"/><path d="M 123.811 16.522 C 123.568 16.765, 120.924 17.151, 117.935 17.380 C 114.946 17.608, 111.911 17.842, 111.191 17.898 C 110.471 17.954, 110.172 18.470, 110.527 19.044 C 111.626 20.821, 108.964 23.029, 106.475 22.404 C 105.212 22.087, 101.392 22.654, 97.986 23.664 C 93.032 25.133, 91.484 26.099, 90.243 28.500 C 89.391 30.150, 87.974 32.048, 87.096 32.718 C 86.218 33.388, 85.929 33.951, 86.452 33.968 C 86.976 33.986, 85.103 35.611, 82.290 37.580 C 79.194 39.747, 76.707 42.411, 75.987 44.330 C 74.051 49.492, 72.662 52.406, 71.378 54 C 69.602 56.204, 68.602 62.636, 69.910 63.444 C 71.463 64.404, 71.201 69.151, 69.468 71.441 C 68.531 72.680, 68 75.706, 68 79.808 C 68 85.643, 68.176 86.187, 69.912 85.733 C 71.682 85.271, 71.859 85.991, 72.284 95.367 C 72.537 100.940, 72.992 107.611, 73.295 110.191 C 73.911 115.430, 72.193 118.235, 69.658 116.131 C 68.920 115.519, 67.948 115.351, 67.498 115.759 C 67.048 116.166, 67.003 115.938, 67.399 115.250 C 67.794 114.563, 67.615 114, 67 114 C 66.385 114, 66.160 113.550, 66.500 113 C 66.840 112.450, 66.738 112, 66.273 112 C 65.809 112, 65.334 111.213, 65.219 110.250 C 65.103 109.287, 64.860 107.266, 64.678 105.757 C 64.337 102.925, 63 100.681, 63 102.940 C 63 103.691, 62.350 103.965, 61.416 103.606 C 60.402 103.217, 59.998 103.448, 60.291 104.249 C 60.544 104.937, 61.356 105.354, 62.097 105.176 C 62.959 104.969, 62.771 105.595, 61.575 106.917 C 59.816 108.861, 59.630 108.880, 58.385 107.241 C 56.950 105.351, 56.499 99, 57.800 99 C 58.240 99, 59.231 99.563, 60.002 100.250 C 61.194 101.313, 61.206 101.239, 60.079 99.750 C 59.191 98.576, 59.124 98, 59.878 98 C 60.495 98, 61 97.523, 61 96.941 C 61 96.359, 60.505 96.188, 59.900 96.562 C 59.128 97.039, 59.087 96.685, 59.765 95.371 C 60.296 94.342, 60.504 92.866, 60.228 92.091 C 59.872 91.088, 60.232 90.875, 61.475 91.352 C 62.717 91.829, 63.069 91.621, 62.689 90.633 C 62.396 89.869, 62.661 88.739, 63.278 88.122 C 64.107 87.293, 63.916 87, 62.545 87 C 60.764 87, 60.761 86.922, 62.470 85.033 C 63.508 83.886, 64.029 82.218, 63.719 81.033 C 63.426 79.915, 63.495 79, 63.870 79 C 64.246 79, 64.381 77.200, 64.171 75 C 63.749 70.572, 61.469 69.574, 59.145 72.799 C 58.124 74.216, 56.781 74.524, 52.834 74.249 C 50.076 74.057, 48.043 74.260, 48.314 74.700 C 48.586 75.140, 47.389 75.470, 45.655 75.434 C 43.920 75.397, 41.790 75.709, 40.923 76.126 C 40.056 76.544, 38.216 77.037, 36.835 77.222 C 35.454 77.406, 33.238 78.264, 31.912 79.127 C 30.585 79.990, 27.934 80.738, 26.020 80.788 C 24.106 80.838, 22.382 81.353, 22.189 81.932 C 21.947 82.658, 21.245 82.666, 19.919 81.957 C 18.490 81.192, 17.996 81.258, 17.985 82.215 C 17.973 83.181, 17.750 83.153, 17.086 82.104 C 16.600 81.337, 15.511 80.974, 14.666 81.298 C 13.821 81.622, 12.911 81.350, 12.644 80.694 C 12.338 79.943, 12.126 80.056, 12.072 81 C 12.020 81.920, 11.265 81.406, 10.119 79.667 C 9.092 78.110, 7.858 76.760, 7.376 76.667 C 6.894 76.575, 6.624 76.129, 6.775 75.676 C 6.926 75.222, 6.588 75.136, 6.025 75.485 C 5.461 75.833, 4.993 75.529, 4.985 74.809 C 4.974 73.858, 4.704 73.910, 4 75 C 3.113 76.373, 2.555 75.697, 2.906 73.676 C 2.985 73.222, 2.627 73.113, 2.110 73.432 C 1.594 73.751, 0.943 73.447, 0.664 72.756 C 0.386 72.065, 0.122 103.563, 0.079 142.750 L 0 214 7.965 214 C 16.414 214, 18 213.082, 18 208.188 C 18 207.119, 18.692 205.670, 19.538 204.968 C 20.856 203.875, 32 182.879, 32 181.490 C 32 181.221, 31.365 181, 30.588 181 C 29.812 181, 29.278 180.314, 29.401 179.476 C 29.682 177.556, 33.471 174.830, 34.528 175.785 C 34.963 176.178, 35.033 175.706, 34.685 174.735 C 34.326 173.735, 34.945 171.377, 36.113 169.298 C 37.514 166.804, 37.986 164.681, 37.585 162.676 C 37.168 160.590, 37.473 159.375, 38.624 158.533 C 39.932 157.577, 40.031 156.926, 39.127 155.237 C 37.705 152.580, 37.545 148.733, 38.949 150.952 C 39.455 151.751, 39.678 152.712, 39.445 153.089 C 39.213 153.465, 39.918 154.007, 41.013 154.293 C 42.277 154.624, 42.760 154.421, 42.337 153.737 C 41.926 153.071, 42.265 152.888, 43.226 153.256 C 44.940 153.914, 46.240 149.843, 45.516 146.083 C 45.033 143.573, 46.687 143.254, 47.243 145.750 C 47.471 146.773, 48.229 145.469, 49.068 142.614 C 50.076 139.180, 51.186 137.475, 52.802 136.878 C 54.268 136.335, 54.881 136.384, 54.492 137.013 C 54.156 137.556, 54.561 138, 55.391 138 C 56.221 138, 57.260 137.425, 57.700 136.721 C 58.698 135.126, 64.984 132.505, 71.300 131.051 C 75.399 130.107, 76.534 130.202, 79.074 131.703 C 81.394 133.074, 82.427 133.210, 83.774 132.323 C 84.723 131.698, 85.329 130.582, 85.120 129.843 C 84.911 129.104, 84.413 122.425, 84.012 115 C 83.455 104.681, 82.838 100.675, 81.392 98 C 79.713 94.893, 79.561 92.983, 80.045 81 C 80.420 71.690, 81.041 66.794, 82.045 65.224 C 83.998 62.170, 90.339 60.500, 94.960 61.822 C 99.395 63.091, 107.802 62.753, 110.678 61.191 C 112.880 59.993, 116 60.504, 116 62.062 C 116 63.473, 120.990 68, 122.545 68 C 123.345 68, 124 68.498, 124 69.107 C 124 69.716, 124.641 69.968, 125.423 69.668 C 127.566 68.846, 129.138 74.091, 127.443 76.409 C 126.719 77.399, 125.545 78.015, 124.835 77.778 C 124.124 77.541, 122.733 78.102, 121.743 79.025 C 120.753 79.947, 117.481 81.948, 114.471 83.470 C 111.462 84.993, 109 86.635, 109 87.119 C 109 87.604, 108.380 88, 107.621 88 C 106.863 88, 105.671 89.380, 104.972 91.067 C 103.776 93.955, 103.886 94.303, 106.844 97.004 C 109.933 99.826, 109.982 100.013, 109.743 108.187 C 109.609 112.759, 109.275 116.725, 109 117.001 C 108.255 117.747, 104.996 123.750, 101.808 130.250 C 99.823 134.296, 98.414 136, 97.052 136 C 95.989 136, 94.840 135.550, 94.500 135 C 93.395 133.212, 90.518 133.943, 88.597 136.500 C 87.565 137.875, 86.245 139, 85.665 139 C 84.162 139, 79 144.131, 79 145.625 C 79 146.313, 78.213 146.871, 77.250 146.866 C 76.287 146.860, 74.600 147.079, 73.500 147.351 C 72.400 147.624, 71.162 147.881, 70.750 147.923 C 70.338 147.966, 70 148.822, 70 149.827 C 70 151.286, 70.601 151.565, 72.990 151.215 C 74.634 150.973, 75.752 150.407, 75.473 149.957 C 75.195 149.507, 75.475 148.824, 76.095 148.441 C 76.716 148.058, 77.543 148.260, 77.933 148.892 C 78.430 149.695, 80.274 149.176, 84.071 147.163 C 90.200 143.914, 97.699 142.060, 96.434 144.106 C 95.896 144.977, 96.186 145.143, 97.418 144.670 C 98.378 144.301, 99.352 144, 99.582 144 C 99.812 144, 100 143.550, 100 143 C 100 142.450, 98.820 142, 97.378 142 C 95.083 142, 94.922 141.799, 96.088 140.394 C 97.291 138.945, 97.640 139.043, 99.662 141.394 C 100.895 142.827, 102.826 144, 103.952 144 C 105.078 144, 106 144.450, 106 145 C 106 145.550, 105.130 146, 104.067 146 C 103.004 146, 101.862 146.858, 101.529 147.908 C 101.196 148.957, 100.246 150.075, 99.417 150.394 C 98.588 150.712, 97.228 152.602, 96.396 154.595 C 95.563 156.588, 94.040 158.438, 93.010 158.708 C 91.981 158.977, 90.896 159.828, 90.601 160.599 C 90.305 161.369, 89.578 162, 88.986 162 C 86.826 162, 83.498 166.486, 83.792 169.001 C 84.186 172.369, 82.094 174.948, 78.750 175.216 C 76.235 175.417, 74.683 177, 77 177 C 78.009 177, 77.414 177.805, 71.983 183.784 C 70.342 185.591, 69 187.309, 69 187.602 C 69 188.315, 62.617 194.225, 60.398 195.567 C 59.428 196.154, 58.154 197.433, 57.567 198.410 C 55.659 201.588, 49.486 208, 48.334 208 C 47.717 208, 45.766 209.350, 44 211 L 40.788 214 54.080 214 C 66.474 214, 67.536 213.848, 69.810 211.750 L 72.248 209.500 71.557 211.750 C 70.600 214.863, 72.743 214.659, 74.182 211.500 C 74.808 210.125, 75.672 209, 76.101 209 C 77.479 209, 78.397 211.368, 77.177 211.774 C 76.530 211.990, 76 212.545, 76 213.008 C 76 213.471, 80.950 213.864, 87 213.880 C 97.645 213.909, 98.004 213.839, 98.128 211.705 C 98.198 210.492, 98.401 208.375, 98.579 207 C 98.757 205.625, 99.037 200.342, 99.202 195.260 C 99.366 190.179, 99.793 186.016, 100.150 186.010 C 100.508 186.005, 101.352 183.702, 102.026 180.894 C 102.757 177.844, 103.552 176.276, 104 177 C 104.561 177.908, 104.930 177.923, 105.465 177.057 C 106.214 175.845, 111 180.180, 111 182.071 C 111 182.603, 112.027 182.780, 113.282 182.465 C 114.537 182.150, 116.900 182.589, 118.532 183.440 C 120.164 184.291, 122.215 184.990, 123.089 184.994 C 123.963 184.997, 126.167 186.636, 127.986 188.635 L 131.294 192.270 128.897 194.113 C 127.579 195.126, 126.162 195.966, 125.750 195.978 C 125.338 195.990, 125 196.792, 125 197.759 C 125 198.727, 124.083 200.092, 122.961 200.792 C 120.491 202.335, 121.381 204.331, 124.147 203.453 C 125.935 202.886, 126.001 203.026, 124.823 204.913 C 123.425 207.151, 122 207.670, 122 205.941 C 122 205.359, 121.547 205.162, 120.993 205.504 C 120.439 205.847, 119.716 205.423, 119.386 204.563 C 118.346 201.853, 117.329 202.860, 117.179 206.750 C 116.879 214.491, 114.989 214, 145.067 214 C 170.834 214, 172 213.918, 172 212.105 C 172 210.429, 171.568 210.310, 168.250 211.074 C 165.362 211.740, 164.245 211.600, 163.390 210.469 C 162.779 209.661, 161.780 209, 161.170 209 C 160.559 209, 159.105 207.709, 157.939 206.131 C 156.750 204.524, 154.117 202.752, 151.951 202.103 C 149.824 201.466, 147.827 200.530, 147.514 200.023 C 146.653 198.630, 150.733 196.826, 155.820 196.351 C 160.898 195.877, 167.235 193.387, 177.074 188 C 180.229 186.273, 198 168.316, 198 166.856 C 198 166.320, 198.450 166.160, 199 166.500 C 199.550 166.840, 200 166.604, 200 165.976 C 200 165.347, 200.563 165.021, 201.250 165.250 C 201.938 165.479, 202.500 166.298, 202.500 167.070 C 202.500 167.841, 203.324 168.631, 204.331 168.825 C 206.074 169.161, 206.081 169.053, 204.466 166.589 C 203.533 165.165, 202.484 163.997, 202.135 163.994 C 201.786 163.991, 201.426 162.090, 201.336 159.769 C 201.151 155.006, 198.205 151.882, 192 149.870 C 188.393 148.700, 185 145.875, 185 144.042 C 185 141.055, 179.213 145.524, 178.696 148.910 C 178.537 149.952, 177.857 151.467, 177.186 152.276 C 176.515 153.085, 176.246 154.479, 176.590 155.373 C 177.009 156.465, 176.679 157, 175.588 157 C 174.373 157, 174.113 157.604, 174.562 159.391 C 174.892 160.706, 174.695 162.070, 174.125 162.423 C 173.554 162.776, 173.341 163.725, 173.651 164.532 C 173.960 165.339, 173.787 166, 173.266 166 C 172.004 166, 163 174.543, 163 175.740 C 163 176.257, 161.862 177.197, 160.472 177.831 C 159.081 178.464, 157.684 179.659, 157.367 180.486 C 157.050 181.312, 156.388 181.740, 155.895 181.435 C 155.403 181.131, 155 181.436, 155 182.112 C 155 184.747, 151.850 186.920, 148.888 186.328 C 146.932 185.936, 146 186.155, 146 187.004 C 146 189.300, 128.803 185.936, 120.261 181.969 C 117.929 180.886, 115.229 179.993, 114.261 179.984 C 113.292 179.975, 110.977 178.625, 109.114 176.984 C 107.252 175.343, 104.863 174, 103.805 174 C 102.748 174, 102.154 173.559, 102.487 173.021 C 103.337 171.645, 101.211 168, 99.558 168 C 95.718 168, 103.413 155.850, 109.087 152.956 C 111.572 151.688, 113 150.263, 113 149.052 C 113 146.717, 109.091 143.515, 104.318 141.940 C 102.361 141.294, 101.195 140.481, 101.726 140.133 C 102.258 139.785, 102.995 138.262, 103.365 136.750 C 103.874 134.670, 104.642 134, 106.519 134 C 108.333 134, 109 133.463, 109 132 C 109 129.508, 110.059 129.474, 113.115 131.868 C 120.339 137.526, 123.096 138.859, 126.448 138.315 C 130.371 137.678, 133.150 140.114, 133.757 144.718 C 133.958 146.248, 134.545 147.650, 135.061 147.833 C 136.278 148.265, 136.287 151, 135.071 151 C 134.561 151, 133.434 150.291, 132.568 149.425 C 131.554 148.411, 128.840 147.763, 124.938 147.604 C 119.280 147.373, 118.747 147.546, 116.832 150.236 C 115.704 151.820, 115.091 153.427, 115.469 153.808 C 115.847 154.188, 118.900 154.950, 122.253 155.500 C 128.738 156.564, 130.673 158.423, 126.834 159.901 C 125.055 160.586, 124.857 160.937, 126 161.378 C 129.866 162.867, 134.460 159.401, 135.453 154.245 C 136.161 150.570, 137.078 149.784, 140.137 150.233 C 141.802 150.478, 143.504 150.097, 144.132 149.341 C 144.734 148.615, 145.576 148.238, 146.004 148.502 C 146.801 148.995, 150 143.069, 150 141.099 C 150 139.966, 151.210 139.638, 154.250 139.948 C 155.213 140.046, 156 139.647, 156 139.063 C 156 138.478, 156.338 138.053, 156.750 138.118 C 159.173 138.501, 161 137.805, 161 136.500 C 161 135.675, 161.450 135, 162 135 C 162.550 135, 163 134.127, 163 133.059 C 163 131.991, 163.422 130.857, 163.937 130.539 C 164.452 130.220, 164.864 128.281, 164.851 126.230 C 164.838 124.178, 165.491 120.925, 166.301 119 C 168.164 114.578, 167.946 105.210, 165.951 103.948 C 164.964 103.324, 164.898 103.026, 165.744 103.015 C 166.969 103, 167.021 100.452, 165.835 98.500 C 165.501 97.950, 164.645 94.800, 163.932 91.500 C 162.745 86.005, 162.025 84.909, 155.381 78.481 C 148.061 71.399, 145.486 67.195, 146.504 63.986 C 146.836 62.940, 146.445 62.001, 145.530 61.650 C 144.688 61.327, 144 60.422, 144 59.638 C 144 58.050, 141.319 56.685, 139.910 57.556 C 139.409 57.865, 139 57.714, 139 57.220 C 139 56.413, 135.076 54.102, 132.500 53.393 C 127.973 52.145, 125.646 51.795, 119.806 51.486 C 113.240 51.139, 106.639 52.607, 107.621 54.196 C 107.894 54.638, 107.218 55, 106.118 55 C 105.018 55, 103.825 55.474, 103.467 56.053 C 103.110 56.632, 102.300 56.933, 101.669 56.723 C 101.037 56.512, 98.532 56.939, 96.101 57.670 C 89.252 59.731, 88.884 59.580, 89.616 55 C 90.300 50.724, 89.278 49.865, 86.643 52.500 C 84.771 54.372, 83.573 54.395, 82.074 52.589 C 81.273 51.624, 81.235 50.973, 81.951 50.530 C 82.528 50.174, 83.015 48.446, 83.033 46.691 C 83.067 43.418, 85.910 39, 87.982 39 C 88.620 39, 89.840 39.697, 90.693 40.550 C 92.931 42.788, 95.500 41.945, 95.500 38.973 C 95.500 36.295, 99.093 31.005, 101.209 30.569 C 101.919 30.422, 103.265 29.969, 104.201 29.563 C 105.137 29.156, 107.587 29.051, 109.647 29.328 C 114.667 30.005, 118.138 26.941, 117.270 22.600 C 116.789 20.194, 116.971 19.775, 118.278 20.277 C 119.156 20.613, 121.703 20.170, 123.939 19.292 C 127.723 17.805, 128.139 17.815, 129.931 19.438 C 131.615 20.962, 132.301 21.021, 135.379 19.907 C 138.124 18.915, 139.474 18.895, 141.498 19.817 C 142.926 20.468, 145.423 21, 147.047 21 C 148.671 21, 150 21.414, 150 21.921 C 150 22.427, 151.425 23.154, 153.166 23.537 C 154.908 23.919, 157.243 25.080, 158.355 26.116 C 159.467 27.152, 160.967 28, 161.689 28 C 162.410 28, 163 28.675, 163 29.500 C 163 30.325, 163.465 31, 164.034 31 C 164.602 31, 166.400 32.363, 168.029 34.029 C 170.788 36.852, 179.047 39.620, 180.468 38.198 C 180.761 37.906, 181 38.083, 181 38.593 C 181 39.102, 180.100 40.081, 179 40.768 C 177.900 41.455, 177 42.891, 177 43.960 C 177 46.302, 183.887 53.257, 185.567 52.613 C 186.221 52.362, 187.261 52.661, 187.878 53.278 C 188.707 54.107, 189 54.055, 189 53.078 C 189 52.015, 189.295 52, 190.500 53 C 191.325 53.685, 192 54.865, 192 55.622 C 192 56.380, 192.414 57, 192.921 57 C 193.427 57, 194.136 58.345, 194.497 59.989 C 194.858 61.632, 195.569 63.234, 196.077 63.548 C 196.585 63.861, 197 66.776, 197 70.025 C 197 75.239, 197.352 76.291, 200 79 C 202.593 81.653, 203 82.810, 203 87.534 C 203 90.541, 202.550 93, 202 93 C 200.738 93, 200.675 100.681, 201.930 101.457 C 202.442 101.773, 203.155 104.389, 203.515 107.271 C 204.742 117.098, 208.597 118.644, 212.815 111 C 214.180 108.525, 215.673 106.353, 216.131 106.173 C 217.286 105.719, 219.384 97.988, 219.095 95.250 C 218.964 94.012, 219.394 93, 220.051 93 C 220.954 93, 220.941 92.634, 220 91.500 C 219.315 90.675, 219.152 90, 219.637 90 C 220.122 90, 220.515 88.661, 220.510 87.025 C 220.504 85.389, 220.790 84.151, 221.145 84.275 C 221.500 84.399, 222.625 83.766, 223.645 82.868 C 226.704 80.177, 229.851 79.672, 232.549 81.440 L 235 83.046 235 126.492 L 235 169.937 229.250 166.580 C 215.407 158.497, 199.196 153.053, 204.366 158.223 C 205.265 159.122, 206 160.332, 206 160.913 C 206 162.244, 211.184 172.997, 213.242 175.935 C 214.351 177.518, 214.936 177.768, 215.314 176.820 C 215.671 175.927, 215.868 176.050, 215.921 177.200 C 215.964 178.135, 216.787 179.359, 217.750 179.920 C 219.417 180.891, 219.417 180.941, 217.750 180.970 C 215.831 181.003, 215.402 182.513, 217.027 183.516 C 217.591 183.865, 217.966 184.679, 217.859 185.325 C 217.474 187.667, 219.242 193.956, 220.605 195.087 C 221.372 195.724, 222 197.012, 222 197.949 C 222 199.189, 222.750 199.601, 224.750 199.459 C 226.262 199.352, 226.713 199.461, 225.750 199.702 C 223.947 200.152, 223.513 201.180, 224.646 202.313 C 225.001 202.668, 225.404 204.206, 225.541 205.729 C 225.678 207.253, 226.286 209.765, 226.893 211.310 C 227.867 213.792, 228.436 214.085, 231.748 213.810 L 235.500 213.500 235.757 142.299 L 236.013 71.098 232.257 70.054 C 226.100 68.345, 215.943 69.287, 210.796 72.046 C 209.739 72.613, 208.863 72.587, 208.487 71.980 C 208.154 71.441, 206.559 71, 204.941 71 C 203.323 71, 202 70.550, 202 70 C 202 69.450, 201.325 69, 200.500 69 C 199.675 69, 199 68.438, 198.999 67.750 C 198.998 65.769, 193.368 54.396, 189.879 49.324 C 188.129 46.781, 186.611 43.530, 186.505 42.100 C 186.217 38.200, 186.121 38, 184.529 38 C 183.720 38, 180.908 35.980, 178.279 33.510 C 175.651 31.041, 172.713 28.761, 171.750 28.443 C 170.787 28.125, 170 27.446, 170 26.933 C 170 26.420, 169.325 26, 168.500 26 C 167.675 26, 167 25.599, 167 25.109 C 167 24.620, 165.313 23.946, 163.250 23.613 C 155.419 22.347, 154.532 22.097, 154.188 21.063 C 153.993 20.478, 152.971 20, 151.917 20 C 150.860 20, 150 19.311, 150 18.465 C 150 17.310, 149.564 17.163, 148.244 17.870 C 147.087 18.488, 145.216 18.373, 142.768 17.531 C 139.274 16.330, 124.775 15.558, 123.811 16.522 M 77 60.559 C 77 61.416, 77.457 61.835, 78.016 61.490 C 78.575 61.144, 78.774 60.443, 78.457 59.931 C 77.600 58.544, 77 58.802, 77 60.559 M 72.680 71 C 72.337 75.675, 72.211 80.625, 72.400 82 C 72.590 83.375, 72.802 86.866, 72.872 89.758 C 72.997 94.905, 73.048 94.990, 75.250 93.758 C 76.487 93.066, 77.656 92.419, 77.846 92.320 C 78.785 91.833, 79.102 70.533, 78.199 68.637 C 77.639 67.462, 76.891 65.613, 76.537 64.528 C 76.041 63.012, 75.702 62.865, 75.067 63.891 C 74.382 64.999, 74.162 64.994, 73.773 63.863 C 73.515 63.113, 73.024 66.325, 72.680 71 M 0.474 143 C 0.474 182.325, 0.598 198.412, 0.750 178.750 C 0.901 159.088, 0.901 126.912, 0.750 107.250 C 0.598 87.588, 0.474 103.675, 0.474 143 M 185.557 72.908 C 185.249 73.407, 185.418 74.869, 185.935 76.158 C 186.813 78.349, 186.877 78.290, 186.937 75.250 C 187.001 71.964, 186.581 71.251, 185.557 72.908 M 204.560 83.618 C 204.198 85.058, 204.154 86.488, 204.462 86.795 C 205.167 87.500, 207.926 83.924, 207.968 82.250 C 208.029 79.878, 205.215 81.007, 204.560 83.618 M 119.492 84.368 C 118.397 85.135, 117.099 85.704, 116.609 85.632 C 115.326 85.442, 113.431 88.764, 114.316 89.649 C 114.726 90.059, 116.415 89.595, 118.069 88.618 C 119.723 87.641, 122.297 86.205, 123.788 85.427 C 125.280 84.649, 125.974 84.010, 125.332 84.006 C 124.689 84.003, 123.561 83.769, 122.824 83.486 C 122.088 83.203, 120.588 83.600, 119.492 84.368 M 125.510 88.016 C 125.856 88.575, 126.557 88.774, 127.069 88.457 C 128.456 87.600, 128.198 87, 126.441 87 C 125.584 87, 125.165 87.457, 125.510 88.016 M 122.211 89.605 C 121.139 90.764, 121.266 91, 122.961 91 C 124.082 91, 125 90.577, 125 90.059 C 125 88.403, 123.541 88.166, 122.211 89.605 M 204.046 93.321 C 202.786 98.588, 203.574 105.061, 205.546 105.648 C 206.071 105.804, 207.384 105.265, 208.464 104.449 C 210.011 103.282, 210.429 101.762, 210.429 97.304 C 210.429 93.708, 209.979 91.493, 209.196 91.232 C 208.519 91.006, 207.362 90.219, 206.625 89.482 C 205.505 88.363, 205.082 88.994, 204.046 93.321 M 84.250 89.640 C 81.723 90.705, 83.112 92.846, 87.178 94.155 C 92.356 95.822, 92.918 97.215, 89.009 98.690 C 86.890 99.490, 86 100.493, 86 102.080 C 86 103.319, 86.302 104.032, 86.670 103.663 C 87.039 103.295, 88.401 103.688, 89.698 104.538 C 90.995 105.388, 92.539 105.785, 93.128 105.421 C 93.807 105.001, 93.765 105.570, 93.014 106.974 C 91.917 109.023, 92.003 109.135, 94.164 108.470 C 95.449 108.075, 96.529 107.695, 96.564 107.626 C 96.599 107.557, 97.612 106.202, 98.814 104.615 C 101.144 101.540, 101.791 98.393, 99.845 99.595 C 99.147 100.027, 98.962 99.871, 99.376 99.200 C 100.617 97.192, 98.813 92.954, 96.133 91.583 C 93.076 90.020, 86.068 88.873, 84.250 89.640 M 195.079 91.583 C 195.127 92.748, 195.364 92.985, 195.683 92.188 C 195.972 91.466, 195.936 90.603, 195.604 90.271 C 195.272 89.939, 195.036 90.529, 195.079 91.583 M 135 94.402 C 135 96.100, 136.633 97.410, 137.326 96.266 C 137.581 95.845, 137.162 94.920, 136.395 94.211 C 135.249 93.151, 135 93.186, 135 94.402 M 75.747 98.413 C 75.032 103.078, 75.324 105.009, 76.559 103.774 C 76.867 103.467, 76.979 101.029, 76.809 98.357 L 76.500 93.500 75.747 98.413 M 119.288 95.801 C 118.584 96.248, 118.329 97.541, 118.679 98.882 C 119.191 100.838, 119.743 101.101, 122.267 100.597 C 123.908 100.268, 126.094 100, 127.125 100 C 128.458 100, 129 99.278, 129 97.500 C 129 95.223, 128.621 95.001, 124.750 95.015 C 122.412 95.024, 119.954 95.377, 119.288 95.801 M 62.500 99 C 62.160 99.550, 62.359 100, 62.941 100 C 63.523 100, 64 99.550, 64 99 C 64 98.450, 63.802 98, 63.559 98 C 63.316 98, 62.840 98.450, 62.500 99 M 54.252 103.500 C 54.263 105.700, 54.468 106.482, 54.707 105.238 C 54.946 103.994, 54.937 102.194, 54.687 101.238 C 54.437 100.282, 54.241 101.300, 54.252 103.500 M 88.500 102 C 88.840 102.550, 90.018 103, 91.118 103 C 92.218 103, 92.840 102.550, 92.500 102 C 92.160 101.450, 90.982 101, 89.882 101 C 88.782 101, 88.160 101.450, 88.500 102 M 138.588 104.858 C 138.296 105.330, 134.557 106.279, 130.279 106.967 C 126 107.655, 122.202 108.694, 121.838 109.276 C 120.350 111.653, 126.187 121.516, 131.465 125.541 C 135.563 128.667, 136.242 128.370, 140.836 121.434 C 142.428 119.030, 143.905 117.238, 144.118 117.451 C 144.331 117.664, 144.479 115.610, 144.446 112.886 C 144.374 106.777, 140.599 101.604, 138.588 104.858 M 76.388 116.662 L 76.407 128.824 79.850 130.465 C 84.388 132.630, 85.445 131.300, 82.925 126.598 C 81.797 124.493, 81.111 122.153, 81.401 121.398 C 81.691 120.642, 81.382 120.131, 80.714 120.262 C 80.046 120.393, 79.500 119.825, 79.500 119 C 79.500 118.175, 79.199 117.271, 78.830 116.991 C 78.462 116.711, 77.758 113.786, 77.265 110.491 C 76.462 105.114, 76.372 105.747, 76.388 116.662 M 61.738 107.595 C 61.385 107.949, 61.770 108.913, 62.595 109.738 C 63.420 110.563, 64.385 110.949, 64.738 110.595 C 65.092 110.242, 64.706 109.277, 63.881 108.452 C 63.056 107.627, 62.092 107.242, 61.738 107.595 M 206 113.035 C 206 114.468, 208.118 115.282, 209.153 114.247 C 209.792 113.608, 209.414 113.080, 208.066 112.728 C 206.930 112.430, 206 112.569, 206 113.035 M 61.813 113.683 C 62.534 113.972, 63.397 113.936, 63.729 113.604 C 64.061 113.272, 63.471 113.036, 62.417 113.079 C 61.252 113.127, 61.015 113.364, 61.813 113.683 M 205.733 123.252 C 205.412 124.089, 206.017 124.651, 207.347 124.751 C 208.517 124.839, 209.030 124.589, 208.487 124.194 C 207.944 123.800, 207.218 123.125, 206.874 122.695 C 206.529 122.265, 206.016 122.516, 205.733 123.252 M 110.655 126.750 C 110.400 127.162, 111.455 127.500, 113 127.500 C 114.545 127.500, 115.600 127.162, 115.345 126.750 C 115.091 126.338, 114.035 126, 113 126 C 111.965 126, 110.909 126.338, 110.655 126.750 M 11.102 130.581 C 11.472 132.159, 9.836 135.016, 8.895 134.435 C 8.403 134.131, 8 134.407, 8 135.048 C 8 135.689, 7.348 135.964, 6.551 135.658 C 5.584 135.287, 5.286 135.582, 5.656 136.545 C 5.960 137.339, 6.520 137.796, 6.900 137.562 C 8.215 136.749, 7.494 141.700, 6.044 143.448 C 3.898 146.032, 3.947 147.753, 6.183 148.338 C 7.679 148.729, 8.081 149.544, 7.831 151.678 C 7.508 154.432, 7.628 154.507, 12.849 154.806 C 16.995 155.043, 18.481 154.725, 19.454 153.393 C 20.228 152.336, 21.363 151.925, 22.407 152.326 C 23.411 152.711, 23.854 152.574, 23.493 151.989 C 23.157 151.445, 23.359 151, 23.941 151 C 24.523 151, 25 149.650, 25 148 C 25 145.804, 24.531 145.004, 23.250 145.015 C 21.895 145.027, 21.804 145.224, 22.848 145.885 C 24.623 147.010, 23.925 150.391, 21.835 150.793 C 20.517 151.047, 20.223 150.331, 20.347 147.158 C 20.431 144.984, 20.734 143.347, 21.020 143.520 C 21.306 143.692, 21.306 141.522, 21.020 138.697 L 20.500 133.560 15.640 133.862 C 12.468 134.060, 11.003 133.804, 11.422 133.126 C 11.775 132.555, 12.837 132.364, 13.782 132.703 C 15.613 133.359, 15.519 133.216, 12.694 131.048 C 11.700 130.285, 10.984 130.075, 11.102 130.581 M 22 136.893 C 22 137.463, 22.913 138.418, 24.028 139.015 C 25.143 139.612, 25.795 140.523, 25.476 141.039 C 25.157 141.555, 25.594 141.709, 26.448 141.382 C 28.396 140.634, 28.480 139, 26.571 139 C 25.786 139, 24.436 138.293, 23.571 137.429 C 22.707 136.564, 22 136.323, 22 136.893 M 4.487 138.500 C 4.685 139.600, 4.881 141.089, 4.923 141.809 C 4.966 142.529, 5.450 142.840, 6 142.500 C 7.359 141.660, 7.259 140.732, 5.563 138.441 C 4.148 136.529, 4.132 136.530, 4.487 138.500 M 50.686 140.092 C 50.161 142.100, 50.217 142.113, 52.070 140.437 C 54.366 138.359, 54.447 138, 52.617 138 C 51.856 138, 50.987 138.941, 50.686 140.092 M 18.564 141.707 C 18.022 143.132, 18.136 143.247, 19.124 142.267 C 19.808 141.588, 20.115 140.781, 19.807 140.474 C 19.499 140.166, 18.940 140.721, 18.564 141.707 M 18.079 145.583 C 18.127 146.748, 18.364 146.985, 18.683 146.188 C 18.972 145.466, 18.936 144.603, 18.604 144.271 C 18.272 143.939, 18.036 144.529, 18.079 145.583 M 92.636 146.506 C 92.321 147.328, 92.472 148, 92.972 148 C 94.328 148, 95.170 146.223, 94.121 145.575 C 93.620 145.265, 92.952 145.684, 92.636 146.506 M 14.118 147.750 C 14.184 148.162, 14.146 148.725, 14.035 149 C 13.924 149.275, 13.721 150.512, 13.584 151.750 C 13.392 153.480, 13.845 154, 15.545 154 C 18.942 154, 20.251 151.803, 18.415 149.182 C 16.983 147.138, 13.857 146.096, 14.118 147.750 M 88.250 150.633 C 87.013 152.028, 86 153.907, 86 154.807 C 86 155.995, 86.465 155.766, 87.692 153.973 C 88.623 152.613, 89.803 151.215, 90.314 150.866 C 90.825 150.517, 91.076 149.751, 90.872 149.164 C 90.667 148.577, 89.487 149.238, 88.250 150.633 M 14.694 149.639 C 13.658 150.676, 14.967 152, 17.028 152 C 18.314 152, 18.749 151.511, 18.362 150.500 C 17.770 148.959, 15.829 148.504, 14.694 149.639 M 41.980 150.524 C 41.284 151.362, 41.004 152.337, 41.357 152.691 C 41.711 153.044, 42 152.782, 42 152.108 C 42 151.434, 42.450 151.160, 43 151.500 C 43.550 151.840, 44 151.416, 44 150.559 C 44 148.605, 43.578 148.598, 41.980 150.524 M 40.667 159.667 C 40.300 160.033, 40.029 161.271, 40.063 162.417 C 40.122 164.332, 40.204 164.307, 41.085 162.105 C 42.064 159.657, 41.861 158.472, 40.667 159.667 M 34 163.941 C 34 165.009, 34.337 166.091, 34.750 166.345 C 35.163 166.600, 35.500 165.727, 35.500 164.405 C 35.500 163.082, 35.163 162, 34.750 162 C 34.337 162, 34 162.873, 34 163.941 M 78.065 170.421 C 77.097 171.588, 77.255 171.746, 78.943 171.305 C 80.074 171.009, 81 170.369, 81 169.883 C 81 168.535, 79.386 168.830, 78.065 170.421 M 96.862 171.255 C 94.440 173.316, 91.421 179.755, 92.412 180.745 C 93.301 181.635, 101 172.898, 101 171 C 101 168.430, 100.118 168.484, 96.862 171.255 M 201 171.333 C 201 173.490, 202.136 174.007, 203.619 172.524 C 205.509 170.634, 205.354 170, 203 170 C 201.900 170, 201 170.600, 201 171.333 M 205.463 172 C 204.956 173.375, 204.488 174.950, 204.424 175.500 C 204.135 177.968, 202.649 180, 201.134 180 C 199.137 180, 197.205 182.841, 197.563 185.250 C 197.719 186.300, 197.179 187, 196.212 187 C 194.963 187, 194.869 187.269, 195.793 188.193 C 196.717 189.117, 196.494 189.909, 194.805 191.708 C 193.007 193.621, 192.794 194.509, 193.592 196.765 C 194.344 198.888, 195.112 199.435, 197.030 199.208 C 198.388 199.047, 200.287 198.906, 201.250 198.896 C 202.213 198.885, 203 198.454, 203 197.938 C 203 197.422, 203.563 197.015, 204.250 197.033 C 204.938 197.052, 204.536 197.872, 203.358 198.856 C 201.414 200.480, 201.367 200.750, 202.858 201.764 C 204.683 203.007, 203.838 203.188, 195.092 203.431 C 191.913 203.520, 190.379 204.080, 189.592 205.439 C 188.991 206.476, 187.696 208.168, 186.714 209.199 C 185.731 210.230, 185.174 211.472, 185.476 211.961 C 185.778 212.449, 185.231 213.055, 184.262 213.308 C 183.293 213.561, 185.988 213.820, 190.250 213.884 C 196.652 213.980, 198 213.729, 198 212.441 C 198 211.584, 198.457 211.165, 199.016 211.510 C 199.575 211.856, 199.774 212.557, 199.457 213.069 C 199.141 213.581, 199.610 214, 200.500 214 C 201.390 214, 201.859 213.581, 201.543 213.069 C 201.226 212.557, 201.432 211.851, 202 211.500 C 202.568 211.149, 202.774 210.443, 202.457 209.931 C 202.141 209.419, 202.546 209, 203.358 209 C 204.169 209, 205.060 209.563, 205.338 210.250 C 205.699 211.146, 205.864 211.097, 205.921 210.079 C 205.964 209.297, 205.286 207.869, 204.414 206.905 C 202.965 205.304, 202.965 205.172, 204.413 205.384 C 205.286 205.512, 206.708 206.491, 207.574 207.559 C 208.440 208.626, 208.904 209.003, 208.606 208.396 C 208.307 207.789, 209.171 206.787, 210.526 206.170 C 212.968 205.057, 212.975 205.016, 211.308 201.520 C 209.699 198.145, 209.710 197.931, 211.563 196.529 C 213.454 195.098, 213.448 195.063, 211.309 195.032 C 210.104 195.014, 208.840 194.550, 208.500 194 C 208.160 193.450, 208.610 193, 209.500 193 C 210.390 193, 210.859 192.581, 210.543 192.069 C 210.226 191.557, 210.408 190.866, 210.945 190.534 C 211.568 190.149, 211.583 189.034, 210.987 187.465 C 210.041 184.978, 211.324 183.875, 212.399 186.250 C 212.710 186.938, 212.858 186.600, 212.727 185.500 C 212.596 184.400, 211.442 183.050, 210.162 182.500 C 208.248 181.677, 207.925 180.946, 208.336 178.368 C 208.611 176.645, 208.467 174.845, 208.015 174.368 C 207.564 173.891, 207.012 172.600, 206.790 171.500 C 206.423 169.686, 206.300 169.733, 205.463 172 M 98.964 178.295 C 97.203 180.955, 95.916 185.004, 96.836 184.989 C 97.708 184.973, 101.459 177.126, 100.875 176.542 C 100.627 176.294, 99.767 177.083, 98.964 178.295 M 106.571 184.250 C 105.934 186.425, 104.117 199.250, 103.500 205.922 C 103.173 209.453, 102.676 212.716, 102.394 213.172 C 102.112 213.627, 102.584 214, 103.441 214 C 104.941 214, 105.222 213.148, 105.336 208.250 C 105.365 207.012, 105.589 206, 105.834 206 C 106.920 206, 108.939 209.704, 108.968 211.750 C 108.990 213.323, 109.602 214, 111 214 C 112.548 214, 113 213.333, 113 211.050 C 113 209.295, 113.709 207.686, 114.750 207.080 C 116.282 206.188, 116.297 206.057, 114.875 206.030 C 113.067 205.997, 112.013 202.211, 111.978 195.625 C 111.958 191.807, 108.846 183, 107.518 183 C 107.198 183, 106.773 183.563, 106.571 184.250 M 205.250 184.360 C 202.693 185.626, 202.284 187, 204.465 187 C 205.270 187, 206.411 186.100, 207 185 C 207.589 183.900, 207.942 183.055, 207.785 183.123 C 207.628 183.190, 206.488 183.747, 205.250 184.360 M 200.534 190.065 C 201.892 192.692, 201.878 192.890, 200.375 192.314 C 199.238 191.877, 198.873 192.118, 199.197 193.091 C 199.808 194.925, 202.049 194.901, 204.250 193.037 C 206.366 191.246, 206.503 190, 204.583 190 C 203.804 190, 202.992 189.477, 202.779 188.837 C 202.566 188.198, 201.638 187.564, 200.718 187.429 C 199.191 187.205, 199.175 187.438, 200.534 190.065 M 207 188.227 C 207 190.050, 208.773 191.561, 209.757 190.576 C 210.100 190.233, 209.620 189.192, 208.690 188.262 C 207.132 186.703, 207 186.700, 207 188.227 M 88.126 192.209 C 87.005 194.476, 86.321 196.710, 86.607 197.173 C 87.208 198.146, 90 195.641, 90 194.128 C 90 193.570, 90.871 192.503, 91.936 191.757 C 93.812 190.443, 93.815 190.366, 92.019 189.244 C 90.396 188.230, 89.913 188.597, 88.126 192.209 M 207.512 196.750 C 207.696 197.713, 207.888 198.725, 207.939 199 C 207.989 199.275, 208.444 198.846, 208.949 198.048 C 209.919 196.515, 209.461 195, 208.029 195 C 207.561 195, 207.328 195.787, 207.512 196.750 M 214.893 199.629 C 213.894 200.832, 213.877 201.531, 214.814 202.834 C 217.118 206.037, 217.309 207.248, 215.654 208.173 C 214.745 208.683, 214 210.202, 214 211.550 C 214 213.878, 214.299 214, 220 214 C 226.150 214, 227.128 213.271, 224.500 210.643 C 223.675 209.818, 223 208.716, 223 208.194 C 223 207.672, 222.325 206.685, 221.500 206 C 220.675 205.315, 220 203.793, 220 202.618 C 220 199.578, 216.591 197.582, 214.893 199.629 M 79.178 202.727 C 77.624 204.658, 77.342 205.771, 78.064 207.119 C 79.149 209.146, 82 208.597, 82 206.362 C 82 205.578, 82.675 204.678, 83.500 204.362 C 84.325 204.045, 85 203.197, 85 202.476 C 85 201.756, 85.563 200.977, 86.250 200.746 C 86.938 200.515, 86.096 200.284, 84.379 200.233 C 82.156 200.168, 80.660 200.885, 79.178 202.727 M 197.500 202 C 197.160 202.550, 197.584 203, 198.441 203 C 199.298 203, 200 202.550, 200 202 C 200 201.450, 199.577 201, 199.059 201 C 198.541 201, 197.840 201.450, 197.500 202 M 182 203.059 C 182 203.641, 182.450 203.840, 183 203.500 C 183.550 203.160, 184 202.684, 184 202.441 C 184 202.198, 183.550 202, 183 202 C 182.450 202, 182 202.477, 182 203.059 M 124.667 209.667 C 123.405 210.928, 124.003 212.125, 125.750 211.838 C 126.713 211.679, 128.107 211.930, 128.850 212.396 C 129.945 213.082, 129.985 212.841, 129.065 211.121 C 127.944 209.026, 125.962 208.371, 124.667 209.667 M 207.710 212 C 207.322 213.483, 207.680 214, 209.094 214 C 211.198 214, 211.270 213.867, 210.393 211.582 C 209.559 209.408, 208.338 209.599, 207.710 212 M 160.813 212.683 C 161.534 212.972, 162.397 212.936, 162.729 212.604 C 163.061 212.272, 162.471 212.036, 161.417 212.079 C 160.252 212.127, 160.015 212.364, 160.813 212.683 M 25.750 213.662 C 26.438 213.940, 27.563 213.940, 28.250 213.662 C 28.938 213.385, 28.375 213.158, 27 213.158 C 25.625 213.158, 25.063 213.385, 25.750 213.662" stroke="none" fill="#6c4f4a" fill-rule="evenodd"/><path d="M 0 20.812 C 0 39.658, 0.191 42.020, 2.023 45.812 C 3.136 48.115, 4.486 50, 5.023 50 C 5.561 50, 5.929 50.337, 5.841 50.750 C 5.516 52.285, 7.260 55, 8.572 55 C 9.319 55, 10.418 55.913, 11.015 57.028 C 11.612 58.143, 12.491 58.814, 12.970 58.519 C 13.448 58.223, 14.613 58.756, 15.560 59.703 C 17.288 61.431, 18.375 61.844, 23 62.532 C 24.375 62.737, 27.168 63.206, 29.206 63.576 C 31.245 63.945, 33.720 63.895, 34.706 63.465 C 35.693 63.035, 36.815 62.747, 37.201 62.825 C 37.586 62.903, 40.286 62.490, 43.201 61.907 C 50.480 60.452, 55.027 60.147, 54.404 61.156 C 53.504 62.611, 59.783 62.074, 61.290 60.567 C 62.078 59.779, 63.003 57.381, 63.346 55.238 C 64.085 50.617, 66.781 47.260, 69.324 47.793 C 71.269 48.201, 75.014 45.420, 74.978 43.595 C 74.966 42.993, 77.779 39.914, 81.228 36.753 C 84.678 33.593, 87.195 31.005, 86.821 31.003 C 86.448 31.002, 85.548 31.563, 84.821 32.250 C 82.938 34.031, 76.218 39, 75.692 39 C 75.449 39, 74.962 37.561, 74.610 35.802 C 74.259 34.044, 73.245 31.497, 72.358 30.143 C 70.630 27.506, 70.169 23.797, 69.760 9.255 L 69.500 0.010 34.750 0.005 L 0 0 0 20.812 M 130.768 14.725 C 132.565 14.947, 135.265 14.943, 136.768 14.715 C 138.271 14.486, 136.800 14.304, 133.500 14.310 C 130.200 14.315, 128.971 14.502, 130.768 14.725 M 118.250 15.689 C 119.213 15.941, 120.787 15.941, 121.750 15.689 C 122.713 15.438, 121.925 15.232, 120 15.232 C 118.075 15.232, 117.287 15.438, 118.250 15.689 M 142 15.951 C 144.498 16.800, 150.704 17.331, 149.917 16.628 C 149.688 16.424, 147.250 15.996, 144.500 15.679 C 141.128 15.289, 140.314 15.378, 142 15.951 M 110.750 16.662 C 111.438 16.940, 112.563 16.940, 113.250 16.662 C 113.938 16.385, 113.375 16.158, 112 16.158 C 110.625 16.158, 110.063 16.385, 110.750 16.662 M 103.500 19.526 C 101.300 20.881, 99.950 21.990, 100.500 21.990 C 101.050 21.990, 103.300 20.881, 105.500 19.526 C 107.700 18.171, 109.050 17.062, 108.500 17.062 C 107.950 17.062, 105.700 18.171, 103.500 19.526 M 152 18 C 152.825 18.533, 154.175 18.945, 155 18.914 C 155.989 18.878, 155.819 18.567, 154.500 18 C 151.751 16.819, 150.172 16.819, 152 18 M 158.500 20 C 159.600 20.473, 161.175 20.859, 162 20.859 C 162.945 20.859, 162.761 20.542, 161.500 20 C 160.400 19.527, 158.825 19.141, 158 19.141 C 157.055 19.141, 157.239 19.458, 158.500 20 M 165.433 21.891 C 166.146 23.045, 170 25.374, 170 24.650 C 170 24.419, 168.820 23.457, 167.377 22.511 C 165.934 21.566, 165.059 21.287, 165.433 21.891 M 94 23 C 91.940 23.660, 91.852 23.816, 93.500 23.885 C 94.600 23.931, 96.175 23.533, 97 23 C 98.752 21.868, 97.536 21.868, 94 23 M 88.571 25.571 C 87.707 26.436, 87 27.636, 87 28.238 C 87 28.840, 87.117 29.146, 87.261 28.917 C 87.404 28.688, 88.374 27.488, 89.416 26.250 C 91.570 23.691, 90.950 23.193, 88.571 25.571 M 176.389 30.681 C 179.628 34.068, 183.117 37.059, 184.141 37.327 C 185.165 37.594, 185.751 37.405, 185.442 36.907 C 185.134 36.408, 184.266 36, 183.514 36 C 182.761 36, 181.300 34.987, 180.267 33.750 C 179.234 32.513, 176.613 29.930, 174.444 28.011 C 172.275 26.092, 173.150 27.293, 176.389 30.681 M 19.482 30.675 C 16.609 31.249, 14.878 37.044, 16.964 39.106 C 18.970 41.090, 22 40.380, 22 37.927 C 22 36.867, 22.450 36, 23 36 C 23.550 36, 24 35.550, 24 35 C 24 34.450, 23.351 34, 22.557 34 C 21.653 34, 21.259 33.254, 21.500 32 C 21.712 30.900, 21.799 30.061, 21.693 30.136 C 21.587 30.211, 20.592 30.454, 19.482 30.675 M 18 36 C 18 36.550, 18.450 37, 19 37 C 19.550 37, 20 36.550, 20 36 C 20 35.450, 19.550 35, 19 35 C 18.450 35, 18 35.450, 18 36 M 188.086 43.639 C 188.039 44.816, 188.787 46.637, 189.750 47.686 C 190.713 48.736, 191.131 49.039, 190.681 48.361 C 190.230 47.683, 189.481 45.862, 189.017 44.314 C 188.332 42.032, 188.156 41.904, 188.086 43.639 M 209.532 58.070 C 204.632 58.637, 202.168 59.415, 201.232 60.689 C 199.970 62.405, 199.799 62.369, 197.972 60 C 196.912 58.625, 196.044 57.950, 196.044 58.500 C 196.044 59.050, 196.910 60.625, 197.969 62 C 199.838 64.428, 200.176 64.487, 209.697 64.053 C 215.088 63.807, 222.988 63.582, 227.251 63.553 C 234.943 63.500, 235.002 63.480, 235.001 60.867 C 235 58.981, 234.361 58.062, 232.750 57.630 C 229.797 56.839, 218.277 57.057, 209.532 58.070 M 86 64.400 C 86 65.307, 84.875 66.477, 83.500 67 C 81.326 67.826, 81.023 68.508, 81.175 72.225 L 81.349 76.500 81.736 72.167 C 82.060 68.545, 82.400 67.954, 83.812 68.569 C 84.740 68.974, 86.737 69.289, 88.250 69.269 C 89.763 69.250, 91 69.600, 91 70.047 C 91 70.495, 92.013 71.005, 93.250 71.180 C 94.947 71.421, 95.465 72.114, 95.357 74 C 95.278 75.375, 95.663 76.781, 96.214 77.125 C 97.623 78.006, 96.164 82, 94.433 82 C 93.645 82, 93 82.429, 93 82.953 C 93 84.012, 86.715 85.986, 83.316 85.994 C 81.700 85.999, 81.025 85.286, 80.716 83.250 C 80.381 81.038, 80.270 81.234, 80.150 84.250 L 80 88 87.918 88 C 92.273 88, 96.486 88.249, 97.280 88.554 C 98.129 88.880, 100.464 87.436, 102.944 85.054 C 105.264 82.824, 107.715 81, 108.390 81 C 109.065 81, 110.491 80.292, 111.559 79.426 C 112.626 78.560, 112.825 78.196, 112 78.618 C 110.795 79.233, 110.729 79.100, 111.667 77.939 C 112.562 76.831, 112.537 76.087, 111.557 74.747 C 110.854 73.786, 109.949 73, 109.544 73 C 109.140 73, 107.614 72.162, 106.154 71.139 C 104.694 70.115, 101.700 68.708, 99.500 68.012 C 97.300 67.317, 94.795 66.134, 93.934 65.385 C 93.073 64.637, 90.936 63.737, 89.184 63.387 C 86.635 62.877, 86 63.079, 86 64.400 M 205.079 84.583 C 205.127 85.748, 205.364 85.985, 205.683 85.188 C 205.972 84.466, 205.936 83.603, 205.604 83.271 C 205.272 82.939, 205.036 83.529, 205.079 84.583 M 71.079 88.583 C 71.127 89.748, 71.364 89.985, 71.683 89.188 C 71.972 88.466, 71.936 87.603, 71.604 87.271 C 71.272 86.939, 71.036 87.529, 71.079 88.583 M 81 95.514 C 81 96.346, 81.510 97.844, 82.133 98.842 C 83.210 100.566, 83.391 100.542, 85.724 98.380 C 88.655 95.664, 87.977 94, 83.941 94 C 81.982 94, 81 94.505, 81 95.514 M 204.667 94.667 C 203.834 95.500, 203.797 100.307, 204.607 102.418 C 205.650 105.135, 207.005 104.150, 206.900 100.750 C 206.806 97.671, 206.759 97.631, 206 100 C 205.305 102.169, 205.188 101.970, 205.115 98.500 C 205.053 95.573, 205.291 94.902, 206 96 C 206.828 97.282, 206.972 97.246, 206.985 95.750 C 207 93.975, 205.881 93.452, 204.667 94.667 M 101.616 101.703 C 100.919 105.747, 97.667 110.273, 94.698 111.334 C 93.625 111.717, 93.143 111.577, 93.507 110.989 C 93.843 110.445, 93.180 110, 92.034 110 C 90.764 110, 89.600 109.077, 89.052 107.636 C 88.301 105.661, 86.184 104, 84.418 104 C 84.188 104, 84.067 105.688, 84.150 107.750 C 84.270 110.766, 84.381 110.962, 84.716 108.750 C 84.945 107.237, 85.468 106, 85.878 106 C 87.373 106, 90.963 111.934, 90.383 113.445 C 89.499 115.749, 92.614 115.405, 96.346 112.787 C 100.508 109.866, 101.733 108.160, 102.474 104.250 C 102.813 102.463, 103.573 101, 104.162 101 C 104.751 101, 104.986 101.787, 104.684 102.750 C 101.862 111.738, 101.374 114.671, 102.339 116.834 C 103.223 118.815, 102.922 119.567, 100.242 122.072 C 98.413 123.780, 96.215 124.893, 94.955 124.748 C 93.389 124.568, 92.272 125.461, 90.887 128 C 89.837 129.925, 88.420 131.561, 87.739 131.635 C 87.057 131.709, 86.050 131.828, 85.500 131.900 C 84.950 131.972, 85.110 132.417, 85.855 132.889 C 86.635 133.383, 88.687 133.295, 90.685 132.682 C 93.553 131.802, 94.084 131.218, 93.724 129.338 C 93.485 128.085, 93.674 127.298, 94.144 127.589 C 94.615 127.880, 95 127.641, 95 127.059 C 95 126.477, 95.852 126, 96.893 126 C 97.934 126, 99.045 125.325, 99.362 124.500 C 99.678 123.675, 100.609 123, 101.430 123 C 103.558 123, 105.243 115.978, 105.382 106.528 C 105.480 99.931, 105.222 98.500, 103.885 98.231 C 102.707 97.993, 102.094 98.931, 101.616 101.703 M 84.252 116.500 C 84.263 118.700, 84.468 119.482, 84.707 118.238 C 84.946 116.994, 84.937 115.194, 84.687 114.238 C 84.437 113.282, 84.241 114.300, 84.252 116.500 M 85.158 124 C 85.158 125.375, 85.385 125.938, 85.662 125.250 C 85.940 124.563, 85.940 123.438, 85.662 122.750 C 85.385 122.063, 85.158 122.625, 85.158 124 M 70.671 132.663 C 70.306 133.027, 68.641 133.475, 66.969 133.658 C 62.542 134.143, 53.023 140.835, 49.679 145.814 C 48.088 148.183, 47.005 150.339, 47.272 150.605 C 47.539 150.872, 48.942 149.068, 50.390 146.597 C 53.055 142.050, 55.905 139.199, 54.733 142.253 C 54.377 143.181, 54.748 144.073, 55.632 144.412 C 56.658 144.806, 56.921 145.675, 56.455 147.141 C 55.698 149.527, 55.733 149.505, 62.152 143.594 L 65.308 140.688 61.632 141.285 C 59.439 141.641, 58.190 141.502, 58.537 140.941 C 58.856 140.423, 59.879 139.987, 60.809 139.972 C 61.739 139.957, 64.268 138.607, 66.428 136.972 C 68.589 135.337, 71.064 133.993, 71.928 133.985 C 72.793 133.976, 74.175 133.533, 75 133 C 76.182 132.236, 75.952 132.027, 73.917 132.015 C 72.496 132.007, 71.035 132.298, 70.671 132.663 M 80.299 134.174 C 78.539 134.646, 76.826 135.473, 76.492 136.013 C 76.101 136.646, 76.816 136.640, 78.508 135.997 C 82.907 134.325, 82.448 134.813, 74.832 139.906 C 67.699 144.677, 60 152.099, 60 154.204 C 60 154.795, 59.268 154.651, 58.308 153.872 C 57.377 153.118, 56.930 153.024, 57.314 153.665 C 57.698 154.305, 57.488 155.004, 56.848 155.217 C 56.207 155.431, 55.541 156.536, 55.368 157.673 C 55.194 158.811, 53.465 163.176, 51.526 167.375 C 49.587 171.573, 48 176.136, 48 177.513 C 48 178.920, 46.713 181.365, 45.063 183.091 C 43.448 184.782, 42.358 186.770, 42.642 187.509 C 42.926 188.248, 41.801 190.273, 40.142 192.009 C 38.483 193.745, 37.358 195.769, 37.641 196.508 C 37.933 197.269, 36.930 198.613, 35.328 199.608 C 33.773 200.574, 31.375 202.357, 30 203.570 C 27.011 206.207, 23 207.619, 23 206.035 C 23 205.431, 23.681 203.306, 24.513 201.314 C 26.834 195.760, 25.645 196.352, 22.958 202.089 L 20.577 207.173 23.039 209.064 C 24.392 210.104, 26.918 211.640, 28.651 212.478 C 32.068 214.128, 37.462 214.556, 36.565 213.105 C 36.260 212.612, 36.676 211.954, 37.489 211.643 C 38.301 211.331, 38.714 210.418, 38.406 209.615 C 38.076 208.755, 38.700 207.695, 39.922 207.042 C 41.065 206.430, 42 205.061, 42 204 C 42 202.939, 42.883 201.598, 43.963 201.020 C 45.077 200.424, 45.688 199.349, 45.375 198.535 C 44.910 197.323, 48.427 191.886, 52.622 187.331 C 53.239 186.661, 53.538 185.034, 53.286 183.714 C 53.034 182.395, 53.461 180.682, 54.235 179.908 C 55.009 179.134, 55.675 178.153, 55.714 177.730 C 56.086 173.698, 57.454 169.183, 58.736 167.754 C 60.629 165.644, 64.989 155.193, 64.995 152.750 C 64.998 151.787, 65.354 151, 65.787 151 C 66.220 151, 66.648 150.018, 66.739 148.817 C 66.829 147.616, 67.581 146.255, 68.409 145.791 C 69.236 145.328, 72.033 143.331, 74.624 141.354 C 77.214 139.376, 80.834 137.132, 82.667 136.366 C 84.500 135.600, 86 134.802, 86 134.594 C 86 133.606, 83.189 133.399, 80.299 134.174 M 61.662 136.618 C 60.100 137.464, 59.046 138.379, 59.319 138.652 C 59.852 139.185, 66 136.262, 66 135.474 C 66 134.656, 64.601 135.025, 61.662 136.618 M 56 140 C 55.099 140.582, 54.975 140.975, 55.691 140.985 C 56.346 140.993, 57.160 140.550, 57.500 140 C 58.267 138.758, 57.921 138.758, 56 140 M 93 149.500 C 91.134 151.425, 89.953 153, 90.375 153 C 90.797 153, 90.414 153.729, 89.524 154.619 C 87.183 156.960, 88.491 157.563, 91.556 155.556 C 92.995 154.612, 93.902 153.568, 93.569 153.236 C 93.237 152.903, 94.411 151.139, 96.179 149.316 C 98.297 147.130, 98.881 146, 97.892 146 C 97.067 146, 94.866 147.575, 93 149.500 M 45.162 154.543 C 43.487 158.220, 43.807 159.005, 45.618 155.662 C 46.464 154.100, 46.969 152.636, 46.741 152.407 C 46.512 152.179, 45.802 153.140, 45.162 154.543 M 42.111 162.111 C 41.495 163.878, 41.166 165.499, 41.380 165.713 C 41.594 165.927, 42.273 164.656, 42.889 162.889 C 43.505 161.122, 43.834 159.501, 43.620 159.287 C 43.406 159.073, 42.727 160.344, 42.111 162.111 M 38.144 171.750 C 37.053 174.300, 37.078 174.359, 38.484 172.559 C 39.318 171.491, 40 170.254, 40 169.809 C 40 168.289, 39.322 168.999, 38.144 171.750 M 98.250 171.559 C 97.563 172.305, 97 173.485, 97 174.180 C 97 174.876, 97.721 174.416, 98.602 173.158 C 100.406 170.583, 100.163 169.482, 98.250 171.559 M 34.631 178.365 C 32.312 183.252, 32.690 184.255, 35.116 179.656 C 36.232 177.541, 36.946 175.613, 36.703 175.370 C 36.460 175.127, 35.528 176.475, 34.631 178.365 M 31 186 C 30.411 187.100, 30.155 188, 30.430 188 C 30.705 188, 31.411 187.100, 32 186 C 32.589 184.900, 32.845 184, 32.570 184 C 32.295 184, 31.589 184.900, 31 186 M 28.144 191.750 C 27.053 194.300, 27.078 194.359, 28.484 192.559 C 29.318 191.491, 30 190.254, 30 189.809 C 30 188.289, 29.322 188.999, 28.144 191.750 M 18 212.500 C 16.937 213.781, 17.229 214, 20 214 C 22.771 214, 23.063 213.781, 22 212.500 C 21.315 211.675, 20.415 211, 20 211 C 19.585 211, 18.685 211.675, 18 212.500" stroke="none" fill="#a5a9a7" fill-rule="evenodd"/><path d="M 123.229 19.500 C 121.430 20.281, 119.221 20.638, 118.320 20.293 C 116.963 19.772, 116.783 20.166, 117.270 22.600 C 118.138 26.941, 114.667 30.005, 109.647 29.328 C 107.587 29.051, 105.137 29.156, 104.201 29.563 C 103.265 29.969, 101.919 30.422, 101.209 30.569 C 99.093 31.005, 95.500 36.295, 95.500 38.973 C 95.500 41.945, 92.931 42.788, 90.693 40.550 C 89.840 39.697, 88.620 39, 87.982 39 C 85.910 39, 83.067 43.418, 83.033 46.691 C 83.015 48.446, 82.528 50.174, 81.951 50.530 C 81.235 50.973, 81.273 51.624, 82.074 52.589 C 83.573 54.395, 84.771 54.372, 86.643 52.500 C 89.278 49.865, 90.300 50.724, 89.616 55 C 88.884 59.580, 89.252 59.731, 96.101 57.670 C 98.532 56.939, 101.037 56.512, 101.669 56.723 C 102.300 56.933, 103.110 56.632, 103.467 56.053 C 103.825 55.474, 105.018 55, 106.118 55 C 107.218 55, 107.894 54.638, 107.621 54.196 C 106.639 52.607, 113.240 51.139, 119.806 51.486 C 125.646 51.795, 127.973 52.145, 132.500 53.393 C 135.076 54.102, 139 56.413, 139 57.220 C 139 57.714, 139.409 57.865, 139.910 57.556 C 141.319 56.685, 144 58.050, 144 59.638 C 144 60.422, 144.688 61.327, 145.530 61.650 C 146.445 62.001, 146.836 62.940, 146.504 63.986 C 145.486 67.195, 148.061 71.399, 155.381 78.481 C 162.025 84.909, 162.745 86.005, 163.932 91.500 C 164.645 94.800, 165.501 97.950, 165.835 98.500 C 167.021 100.452, 166.969 103, 165.744 103.015 C 164.898 103.026, 164.964 103.324, 165.951 103.948 C 167.946 105.210, 168.164 114.578, 166.301 119 C 165.491 120.925, 164.838 124.178, 164.851 126.230 C 164.864 128.281, 164.452 130.220, 163.937 130.539 C 163.422 130.857, 163 131.991, 163 133.059 C 163 134.127, 162.550 135, 162 135 C 161.450 135, 161 135.675, 161 136.500 C 161 137.805, 159.173 138.501, 156.750 138.118 C 156.338 138.053, 156 138.478, 156 139.063 C 156 139.647, 155.213 140.046, 154.250 139.948 C 151.210 139.638, 150 139.966, 150 141.099 C 150 143.069, 146.801 148.995, 146.004 148.502 C 145.576 148.238, 144.734 148.615, 144.132 149.341 C 143.504 150.097, 141.802 150.478, 140.137 150.233 C 137.078 149.784, 136.161 150.570, 135.453 154.245 C 134.460 159.401, 129.866 162.867, 126 161.378 C 124.857 160.937, 125.055 160.586, 126.834 159.901 C 130.673 158.423, 128.738 156.564, 122.253 155.500 C 118.900 154.950, 115.847 154.188, 115.469 153.808 C 115.091 153.427, 115.704 151.820, 116.832 150.236 C 118.747 147.546, 119.280 147.373, 124.938 147.604 C 128.840 147.763, 131.554 148.411, 132.568 149.425 C 133.434 150.291, 134.561 151, 135.071 151 C 136.287 151, 136.278 148.265, 135.061 147.833 C 134.545 147.650, 133.958 146.248, 133.757 144.718 C 133.150 140.114, 130.371 137.678, 126.448 138.315 C 123.096 138.859, 120.339 137.526, 113.115 131.868 C 110.059 129.474, 109 129.508, 109 132 C 109 133.463, 108.333 134, 106.519 134 C 104.642 134, 103.874 134.670, 103.365 136.750 C 102.995 138.262, 102.258 139.785, 101.726 140.133 C 101.195 140.481, 102.361 141.294, 104.318 141.940 C 109.091 143.515, 113 146.717, 113 149.052 C 113 150.263, 111.572 151.688, 109.087 152.956 C 103.413 155.850, 95.718 168, 99.558 168 C 101.211 168, 103.337 171.645, 102.487 173.021 C 102.154 173.559, 102.748 174, 103.805 174 C 104.863 174, 107.252 175.343, 109.114 176.984 C 110.977 178.625, 113.292 179.975, 114.261 179.984 C 115.229 179.993, 117.929 180.886, 120.261 181.969 C 128.803 185.936, 146 189.300, 146 187.004 C 146 186.155, 146.932 185.936, 148.888 186.328 C 151.850 186.920, 155 184.747, 155 182.112 C 155 181.436, 155.403 181.131, 155.895 181.435 C 156.388 181.740, 157.050 181.312, 157.367 180.486 C 157.684 179.659, 159.081 178.464, 160.472 177.831 C 161.862 177.197, 163 176.257, 163 175.740 C 163 174.543, 172.004 166, 173.266 166 C 173.787 166, 173.960 165.339, 173.651 164.532 C 173.341 163.725, 173.554 162.776, 174.125 162.423 C 174.695 162.070, 174.892 160.706, 174.562 159.391 C 174.113 157.604, 174.373 157, 175.588 157 C 176.679 157, 177.009 156.465, 176.590 155.373 C 176.246 154.479, 176.515 153.085, 177.186 152.276 C 177.857 151.467, 178.537 149.952, 178.696 148.910 C 179.213 145.524, 185 141.055, 185 144.042 C 185 145.875, 188.393 148.700, 192 149.870 C 198.205 151.882, 201.151 155.006, 201.336 159.769 C 201.426 162.090, 201.786 163.991, 202.135 163.994 C 202.484 163.997, 203.533 165.165, 204.466 166.589 C 206.081 169.053, 206.074 169.161, 204.331 168.825 C 203.324 168.631, 202.500 167.841, 202.500 167.070 C 202.500 166.298, 201.938 165.479, 201.250 165.250 C 200.563 165.021, 200 165.347, 200 165.976 C 200 166.604, 199.550 166.840, 199 166.500 C 198.450 166.160, 198 166.320, 198 166.856 C 198 168.316, 180.229 186.273, 177.074 188 C 167.235 193.387, 160.898 195.877, 155.820 196.351 C 150.733 196.826, 146.653 198.630, 147.514 200.023 C 147.827 200.530, 149.824 201.466, 151.951 202.103 C 154.117 202.752, 156.750 204.524, 157.939 206.131 C 159.105 207.709, 160.559 209, 161.170 209 C 161.780 209, 162.779 209.661, 163.390 210.469 C 164.245 211.600, 165.362 211.740, 168.250 211.074 C 171.568 210.310, 172 210.429, 172 212.105 C 172 213.701, 172.750 213.998, 176.750 213.986 C 182.450 213.970, 186.172 213.087, 185.452 211.923 C 185.163 211.455, 185.731 210.230, 186.714 209.199 C 187.696 208.168, 188.991 206.476, 189.592 205.439 C 190.379 204.080, 191.913 203.520, 195.092 203.431 C 203.838 203.188, 204.683 203.007, 202.858 201.764 C 201.367 200.750, 201.414 200.480, 203.358 198.856 C 204.536 197.872, 204.938 197.052, 204.250 197.033 C 203.563 197.015, 203 197.422, 203 197.938 C 203 198.454, 202.213 198.885, 201.250 198.896 C 200.287 198.906, 198.388 199.047, 197.030 199.208 C 195.112 199.435, 194.344 198.888, 193.592 196.765 C 192.794 194.509, 193.007 193.621, 194.805 191.708 C 196.494 189.909, 196.717 189.117, 195.793 188.193 C 194.869 187.269, 194.963 187, 196.212 187 C 197.179 187, 197.719 186.300, 197.563 185.250 C 197.205 182.841, 199.137 180, 201.134 180 C 202.758 180, 204.106 177.965, 204.454 174.992 C 204.551 174.162, 205.150 172.587, 205.785 171.492 C 206.913 169.546, 206.940 169.550, 206.970 171.691 C 206.986 172.896, 207.420 174.142, 207.934 174.459 C 208.448 174.777, 208.636 176.491, 208.352 178.268 C 207.923 180.957, 208.227 181.668, 210.162 182.500 C 211.442 183.050, 212.596 184.400, 212.727 185.500 C 212.858 186.600, 212.710 186.938, 212.399 186.250 C 211.324 183.875, 210.041 184.978, 210.987 187.465 C 211.583 189.034, 211.568 190.149, 210.945 190.534 C 210.408 190.866, 210.226 191.557, 210.543 192.069 C 210.859 192.581, 210.390 193, 209.500 193 C 208.610 193, 208.160 193.450, 208.500 194 C 208.840 194.550, 210.104 195.014, 211.309 195.032 C 213.448 195.063, 213.454 195.098, 211.563 196.529 C 209.710 197.931, 209.699 198.145, 211.308 201.520 C 212.975 205.016, 212.968 205.057, 210.526 206.170 C 209.171 206.787, 208.307 207.789, 208.606 208.396 C 208.904 209.003, 208.440 208.626, 207.574 207.559 C 206.708 206.491, 205.286 205.512, 204.413 205.384 C 203.014 205.179, 203.026 205.371, 204.516 207.018 C 205.445 208.044, 205.970 209.473, 205.682 210.192 C 205.288 211.176, 205.138 211.190, 205.079 210.250 C 205.036 209.563, 204.298 209, 203.441 209 C 202.584 209, 202.141 209.419, 202.457 209.931 C 202.774 210.443, 202.568 211.149, 202 211.500 C 200.339 212.527, 201.902 214, 204.653 214 C 206.346 214, 207.361 213.336, 207.710 212 C 208.380 209.438, 209.687 209.438, 210.500 212 C 211.408 214.862, 214 214.528, 214 211.550 C 214 210.202, 214.787 208.651, 215.750 208.103 C 217.212 207.271, 217.293 206.810, 216.244 205.303 C 213.994 202.074, 213.757 200.998, 214.973 199.532 C 216.599 197.574, 220 199.662, 220 202.618 C 220 203.793, 220.675 205.315, 221.500 206 C 222.325 206.685, 223 207.865, 223 208.622 C 223 209.380, 223.420 210, 223.933 210 C 224.446 210, 225.151 210.900, 225.500 212 C 225.849 213.100, 226.534 214, 227.023 214 C 227.512 214, 227.244 212.108, 226.428 209.795 C 225.611 207.482, 225.162 205.021, 225.428 204.327 C 225.695 203.632, 225.482 202.798, 224.956 202.473 C 223.448 201.541, 223.838 200.180, 225.750 199.702 C 226.713 199.461, 226.262 199.352, 224.750 199.459 C 222.750 199.601, 222 199.189, 222 197.949 C 222 197.012, 221.372 195.724, 220.605 195.087 C 219.242 193.956, 217.474 187.667, 217.859 185.325 C 217.966 184.679, 217.591 183.865, 217.027 183.516 C 215.402 182.513, 215.831 181.003, 217.750 180.970 C 219.417 180.941, 219.417 180.891, 217.750 179.920 C 216.787 179.359, 215.964 178.135, 215.921 177.200 C 215.868 176.050, 215.671 175.927, 215.314 176.820 C 214.936 177.768, 214.351 177.518, 213.242 175.935 C 211.184 172.997, 206 162.244, 206 160.913 C 206 160.332, 205.265 159.122, 204.366 158.223 C 199.196 153.053, 215.407 158.497, 229.250 166.580 L 235 169.937 235 126.492 L 235 83.046 232.549 81.440 C 229.963 79.746, 226.727 80.164, 224 82.547 C 223.175 83.268, 222.050 83.901, 221.500 83.954 C 220.950 84.007, 220.504 85.389, 220.510 87.025 C 220.515 88.661, 220.122 90, 219.637 90 C 219.152 90, 219.315 90.675, 220 91.500 C 220.941 92.634, 220.954 93, 220.051 93 C 219.394 93, 218.964 94.012, 219.095 95.250 C 219.384 97.988, 217.286 105.719, 216.131 106.173 C 215.673 106.353, 214.180 108.525, 212.815 111 C 208.597 118.644, 204.742 117.098, 203.515 107.271 C 203.155 104.389, 202.442 101.773, 201.930 101.457 C 200.675 100.681, 200.738 93, 202 93 C 202.550 93, 203 90.541, 203 87.534 C 203 82.810, 202.593 81.653, 200 79 C 197.352 76.291, 197 75.239, 197 70.025 C 197 66.776, 196.585 63.861, 196.077 63.548 C 195.569 63.234, 194.858 61.632, 194.497 59.989 C 194.136 58.345, 193.427 57, 192.921 57 C 192.414 57, 192 56.380, 192 55.622 C 192 54.865, 191.325 53.685, 190.500 53 C 189.295 52, 189 52.015, 189 53.078 C 189 54.055, 188.707 54.107, 187.878 53.278 C 187.261 52.661, 186.221 52.362, 185.567 52.613 C 183.887 53.257, 177 46.302, 177 43.960 C 177 42.891, 177.900 41.455, 179 40.768 C 180.100 40.081, 181 39.102, 181 38.593 C 181 38.083, 180.761 37.906, 180.468 38.198 C 179.047 39.620, 170.788 36.852, 168.029 34.029 C 166.400 32.363, 164.602 31, 164.034 31 C 163.465 31, 163 30.325, 163 29.500 C 163 28.675, 162.410 28, 161.689 28 C 160.967 28, 159.467 27.152, 158.355 26.116 C 157.243 25.080, 154.908 23.919, 153.166 23.537 C 151.425 23.154, 150 22.427, 150 21.921 C 150 21.414, 148.671 21, 147.047 21 C 145.423 21, 142.926 20.468, 141.498 19.817 C 139.474 18.895, 138.124 18.915, 135.379 19.907 C 132.360 20.999, 131.607 20.954, 130.100 19.590 C 127.987 17.679, 127.437 17.671, 123.229 19.500 M 77 60.559 C 77 61.416, 77.457 61.835, 78.016 61.490 C 78.575 61.144, 78.774 60.443, 78.457 59.931 C 77.600 58.544, 77 58.802, 77 60.559 M 72.680 71 C 72.337 75.675, 72.211 80.625, 72.400 82 C 72.590 83.375, 72.802 86.866, 72.872 89.758 C 72.997 94.905, 73.048 94.990, 75.250 93.758 C 76.487 93.066, 77.656 92.419, 77.846 92.320 C 78.785 91.833, 79.102 70.533, 78.199 68.637 C 77.639 67.462, 76.891 65.613, 76.537 64.528 C 76.041 63.012, 75.702 62.865, 75.067 63.891 C 74.382 64.999, 74.162 64.994, 73.773 63.863 C 73.515 63.113, 73.024 66.325, 72.680 71 M 185.557 72.908 C 185.249 73.407, 185.418 74.869, 185.935 76.158 C 186.813 78.349, 186.877 78.290, 186.937 75.250 C 187.001 71.964, 186.581 71.251, 185.557 72.908 M 119.492 84.368 C 118.397 85.135, 117.099 85.704, 116.609 85.632 C 115.326 85.442, 113.431 88.764, 114.316 89.649 C 114.726 90.059, 116.415 89.595, 118.069 88.618 C 119.723 87.641, 122.297 86.205, 123.788 85.427 C 125.280 84.649, 125.974 84.010, 125.332 84.006 C 124.689 84.003, 123.561 83.769, 122.824 83.486 C 122.088 83.203, 120.588 83.600, 119.492 84.368 M 195.079 91.583 C 195.127 92.748, 195.364 92.985, 195.683 92.188 C 195.972 91.466, 195.936 90.603, 195.604 90.271 C 195.272 89.939, 195.036 90.529, 195.079 91.583 M 135 94.402 C 135 96.100, 136.633 97.410, 137.326 96.266 C 137.581 95.845, 137.162 94.920, 136.395 94.211 C 135.249 93.151, 135 93.186, 135 94.402 M 75.747 98.413 C 75.032 103.078, 75.324 105.009, 76.559 103.774 C 76.867 103.467, 76.979 101.029, 76.809 98.357 L 76.500 93.500 75.747 98.413 M 119.288 95.801 C 118.584 96.248, 118.329 97.541, 118.679 98.882 C 119.191 100.838, 119.743 101.101, 122.267 100.597 C 123.908 100.268, 126.094 100, 127.125 100 C 128.458 100, 129 99.278, 129 97.500 C 129 95.223, 128.621 95.001, 124.750 95.015 C 122.412 95.024, 119.954 95.377, 119.288 95.801 M 88.500 102 C 88.840 102.550, 90.018 103, 91.118 103 C 92.218 103, 92.840 102.550, 92.500 102 C 92.160 101.450, 90.982 101, 89.882 101 C 88.782 101, 88.160 101.450, 88.500 102 M 76.388 116.662 L 76.407 128.824 79.850 130.465 C 84.388 132.630, 85.445 131.300, 82.925 126.598 C 81.797 124.493, 81.111 122.153, 81.401 121.398 C 81.691 120.642, 81.382 120.131, 80.714 120.262 C 80.046 120.393, 79.500 119.825, 79.500 119 C 79.500 118.175, 79.199 117.271, 78.830 116.991 C 78.462 116.711, 77.758 113.786, 77.265 110.491 C 76.462 105.114, 76.372 105.747, 76.388 116.662 M 205.733 123.252 C 205.412 124.089, 206.017 124.651, 207.347 124.751 C 208.517 124.839, 209.030 124.589, 208.487 124.194 C 207.944 123.800, 207.218 123.125, 206.874 122.695 C 206.529 122.265, 206.016 122.516, 205.733 123.252 M 110.655 126.750 C 110.400 127.162, 111.455 127.500, 113 127.500 C 114.545 127.500, 115.600 127.162, 115.345 126.750 C 115.091 126.338, 114.035 126, 113 126 C 111.965 126, 110.909 126.338, 110.655 126.750 M 96.021 140.475 C 94.943 141.774, 95.132 142, 97.294 142 C 98.691 142, 100.060 142.563, 100.338 143.250 C 100.629 143.972, 100.875 144.037, 100.921 143.405 C 100.964 142.803, 100.165 141.554, 99.143 140.630 C 97.486 139.130, 97.151 139.113, 96.021 140.475 M 201 171.333 C 201 173.490, 202.136 174.007, 203.619 172.524 C 205.509 170.634, 205.354 170, 203 170 C 201.900 170, 201 170.600, 201 171.333 M 98.964 178.295 C 97.203 180.955, 95.916 185.004, 96.836 184.989 C 97.708 184.973, 101.459 177.126, 100.875 176.542 C 100.627 176.294, 99.767 177.083, 98.964 178.295 M 205.250 184.360 C 202.693 185.626, 202.284 187, 204.465 187 C 205.270 187, 206.411 186.100, 207 185 C 207.589 183.900, 207.942 183.055, 207.785 183.123 C 207.628 183.190, 206.488 183.747, 205.250 184.360 M 200.534 190.065 C 201.892 192.692, 201.878 192.890, 200.375 192.314 C 199.238 191.877, 198.873 192.118, 199.197 193.091 C 199.808 194.925, 202.049 194.901, 204.250 193.037 C 206.366 191.246, 206.503 190, 204.583 190 C 203.804 190, 202.992 189.477, 202.779 188.837 C 202.566 188.198, 201.638 187.564, 200.718 187.429 C 199.191 187.205, 199.175 187.438, 200.534 190.065 M 207 188.227 C 207 190.050, 208.773 191.561, 209.757 190.576 C 210.100 190.233, 209.620 189.192, 208.690 188.262 C 207.132 186.703, 207 186.700, 207 188.227 M 88.126 192.209 C 87.005 194.476, 86.321 196.710, 86.607 197.173 C 87.208 198.146, 90 195.641, 90 194.128 C 90 193.570, 90.871 192.503, 91.936 191.757 C 93.812 190.443, 93.815 190.366, 92.019 189.244 C 90.396 188.230, 89.913 188.597, 88.126 192.209 M 207.512 196.750 C 207.696 197.713, 207.888 198.725, 207.939 199 C 207.989 199.275, 208.444 198.846, 208.949 198.048 C 209.919 196.515, 209.461 195, 208.029 195 C 207.561 195, 207.328 195.787, 207.512 196.750 M 79.178 202.727 C 77.624 204.658, 77.342 205.771, 78.064 207.119 C 79.149 209.146, 82 208.597, 82 206.362 C 82 205.578, 82.675 204.678, 83.500 204.362 C 84.325 204.045, 85 203.197, 85 202.476 C 85 201.756, 85.563 200.977, 86.250 200.746 C 86.938 200.515, 86.096 200.284, 84.379 200.233 C 82.156 200.168, 80.660 200.885, 79.178 202.727 M 197.500 202 C 197.160 202.550, 197.584 203, 198.441 203 C 199.298 203, 200 202.550, 200 202 C 200 201.450, 199.577 201, 199.059 201 C 198.541 201, 197.840 201.450, 197.500 202 M 182 203.059 C 182 203.641, 182.450 203.840, 183 203.500 C 183.550 203.160, 184 202.684, 184 202.441 C 184 202.198, 183.550 202, 183 202 C 182.450 202, 182 202.477, 182 203.059 M 105.322 210.003 C 105.173 213.345, 105.459 214, 107.072 214 C 109.361 214, 109.665 210.460, 107.608 207.750 C 105.737 205.285, 105.523 205.496, 105.322 210.003 M 74.182 211.500 C 73.412 213.189, 73.383 214, 74.093 214 C 75.739 214, 78.196 211.126, 77.505 210.008 C 76.484 208.356, 75.390 208.848, 74.182 211.500 M 198 212.559 C 198 213.416, 198.457 213.835, 199.016 213.490 C 199.575 213.144, 199.774 212.443, 199.457 211.931 C 198.600 210.544, 198 210.802, 198 212.559 M 160.813 212.683 C 161.534 212.972, 162.397 212.936, 162.729 212.604 C 163.061 212.272, 162.471 212.036, 161.417 212.079 C 160.252 212.127, 160.015 212.364, 160.813 212.683" stroke="none" fill="#271f1f" fill-rule="evenodd"/><path d="M 116.671 16.131 C 112.821 16.625, 108.023 18.029, 105.671 19.348 C 103.377 20.635, 99.475 22.251, 97 22.941 C 90.506 24.748, 89.719 25.277, 87.500 29.319 C 86.400 31.323, 83.138 35.055, 80.250 37.614 C 77.362 40.172, 75 42.811, 75 43.478 C 75 45.413, 71.319 48.211, 69.324 47.793 C 66.781 47.260, 64.085 50.617, 63.346 55.238 C 63.003 57.381, 62.078 59.779, 61.290 60.567 C 59.783 62.074, 53.504 62.611, 54.404 61.156 C 55.027 60.147, 50.480 60.452, 43.201 61.907 C 40.286 62.490, 37.586 62.903, 37.201 62.825 C 36.815 62.747, 35.693 63.035, 34.706 63.465 C 33.720 63.895, 31.245 63.945, 29.206 63.576 C 27.168 63.206, 24.375 62.737, 23 62.532 C 18.375 61.844, 17.288 61.431, 15.560 59.703 C 14.613 58.756, 13.448 58.223, 12.970 58.519 C 12.491 58.814, 11.612 58.143, 11.015 57.028 C 10.418 55.913, 9.319 55, 8.572 55 C 7.260 55, 5.516 52.285, 5.841 50.750 C 5.929 50.337, 5.527 50, 4.949 50 C 4.371 50, 3.133 48.313, 2.199 46.250 L 0.500 42.500 0.222 56.882 C -0.010 68.846, 0.219 71.685, 1.581 73.764 C 2.874 75.738, 3.403 75.973, 4.094 74.882 C 4.779 73.800, 4.973 73.784, 4.985 74.809 C 4.993 75.529, 5.461 75.833, 6.025 75.485 C 6.588 75.136, 6.926 75.222, 6.775 75.676 C 6.624 76.129, 6.894 76.575, 7.376 76.667 C 7.858 76.760, 9.043 78.041, 10.010 79.515 C 11.238 81.387, 11.930 81.789, 12.305 80.848 C 12.671 79.931, 12.867 79.889, 12.921 80.719 C 12.966 81.415, 13.686 81.674, 14.601 81.323 C 15.481 80.985, 16.600 81.337, 17.086 82.104 C 17.750 83.153, 17.973 83.181, 17.985 82.215 C 17.996 81.258, 18.490 81.192, 19.919 81.957 C 21.245 82.666, 21.947 82.658, 22.189 81.932 C 22.382 81.353, 24.106 80.838, 26.020 80.788 C 27.934 80.738, 30.585 79.990, 31.912 79.127 C 33.238 78.264, 35.454 77.406, 36.835 77.222 C 38.216 77.037, 40.056 76.544, 40.923 76.126 C 41.790 75.709, 43.920 75.397, 45.655 75.434 C 47.389 75.470, 48.586 75.140, 48.314 74.700 C 48.043 74.260, 50.076 74.057, 52.834 74.249 C 56.781 74.524, 58.124 74.216, 59.145 72.799 C 61.469 69.574, 63.749 70.572, 64.171 75 C 64.381 77.200, 64.246 79, 63.870 79 C 63.495 79, 63.426 79.915, 63.719 81.033 C 64.029 82.218, 63.508 83.886, 62.470 85.033 C 60.761 86.922, 60.764 87, 62.545 87 C 63.916 87, 64.107 87.293, 63.278 88.122 C 62.661 88.739, 62.396 89.869, 62.689 90.633 C 63.069 91.621, 62.717 91.829, 61.475 91.352 C 60.232 90.875, 59.872 91.088, 60.228 92.091 C 60.504 92.866, 60.296 94.342, 59.765 95.371 C 59.087 96.685, 59.128 97.039, 59.900 96.562 C 60.505 96.188, 61 96.328, 61 96.874 C 61 97.419, 60.100 98.151, 59 98.500 C 56.636 99.250, 56.270 104.455, 58.385 107.241 C 59.630 108.880, 59.816 108.861, 61.575 106.917 C 62.771 105.595, 62.959 104.969, 62.097 105.176 C 61.356 105.354, 60.544 104.937, 60.291 104.249 C 59.998 103.448, 60.402 103.217, 61.416 103.606 C 62.350 103.965, 63 103.691, 63 102.940 C 63 100.681, 64.337 102.925, 64.678 105.757 C 64.860 107.266, 65.103 109.287, 65.219 110.250 C 65.334 111.213, 65.809 112, 66.273 112 C 66.738 112, 66.840 112.450, 66.500 113 C 66.160 113.550, 66.385 114, 67 114 C 67.615 114, 67.794 114.563, 67.399 115.250 C 67.003 115.938, 67.048 116.166, 67.498 115.759 C 67.948 115.351, 68.920 115.519, 69.658 116.131 C 72.172 118.218, 73.905 115.428, 73.347 110.191 C 72.051 98.023, 71.327 87.390, 71.722 86.323 C 72.004 85.562, 71.423 85.338, 70.079 85.690 C 68.133 86.198, 68 85.822, 68 79.808 C 68 75.706, 68.531 72.680, 69.468 71.441 C 71.201 69.151, 71.463 64.404, 69.910 63.444 C 68.602 62.636, 69.602 56.204, 71.378 54 C 72.662 52.406, 74.051 49.492, 75.987 44.330 C 76.707 42.411, 79.194 39.747, 82.290 37.580 C 85.103 35.611, 86.976 33.986, 86.452 33.968 C 85.929 33.951, 86.218 33.388, 87.096 32.718 C 87.974 32.048, 89.391 30.150, 90.243 28.500 C 91.484 26.099, 93.032 25.133, 97.986 23.664 C 101.392 22.654, 105.212 22.087, 106.475 22.404 C 108.964 23.029, 111.626 20.821, 110.527 19.044 C 110.167 18.462, 110.793 17.923, 111.941 17.825 C 113.073 17.729, 115.237 17.508, 116.750 17.334 C 127.258 16.124, 138.859 16.158, 142.453 17.407 C 144.627 18.163, 147.081 18.523, 147.906 18.206 C 150.548 17.192, 138.798 15.081, 131 15.169 C 126.875 15.215, 120.427 15.648, 116.671 16.131 M 150 18.634 C 150 19.385, 150.863 20, 151.917 20 C 152.971 20, 153.993 20.478, 154.188 21.063 C 154.532 22.097, 155.419 22.347, 163.250 23.613 C 165.313 23.946, 167 24.620, 167 25.109 C 167 25.599, 167.469 26, 168.042 26 C 168.615 26, 169.628 26.434, 170.292 26.965 C 170.956 27.496, 173.300 29.386, 175.500 31.165 L 179.500 34.399 176 30.619 C 172.079 26.385, 164.581 21, 162.605 21 C 161.893 21, 158.766 20.160, 155.655 19.134 C 151.120 17.638, 150 17.539, 150 18.634 M 186.676 42.403 C 186.380 43.174, 186.714 44.594, 187.418 45.557 C 188.539 47.090, 188.641 46.914, 188.236 44.154 C 187.721 40.642, 187.462 40.353, 186.676 42.403 M 190.511 50.377 C 191.457 51.820, 192.419 53, 192.650 53 C 193.374 53, 191.045 49.146, 189.891 48.433 C 189.287 48.059, 189.566 48.934, 190.511 50.377 M 194.080 56 C 195.538 59.061, 196 59.628, 196 58.358 C 196 57.821, 195.300 56.509, 194.445 55.441 C 192.978 53.611, 192.958 53.643, 194.080 56 M 197.786 64.250 C 198.720 66.862, 200.050 69, 200.742 69 C 201.434 69, 202 69.450, 202 70 C 202 70.550, 203.323 71, 204.941 71 C 206.559 71, 208.174 71.472, 208.530 72.049 C 208.932 72.699, 209.619 72.748, 210.339 72.179 C 212.908 70.147, 224.944 68.594, 230.035 69.636 L 235 70.654 235 67.346 C 235 62.846, 232.656 62.387, 217.030 63.828 C 203.239 65.099, 200.330 64.765, 197.794 61.617 C 196.185 59.621, 196.184 59.771, 197.786 64.250 M 86.500 62.014 C 83.929 62.805, 80.218 66.619, 81.181 67.481 C 82.106 68.310, 86 65.827, 86 64.407 C 86 63.078, 86.630 62.876, 89.184 63.387 C 90.936 63.737, 93.154 64.734, 94.113 65.602 C 95.159 66.549, 96.656 66.927, 97.854 66.546 C 99.169 66.129, 100.169 66.479, 100.779 67.570 C 101.431 68.735, 102.367 69.018, 103.929 68.523 C 105.151 68.135, 105.921 67.587, 105.639 67.306 C 105.358 67.025, 105.495 65.828, 105.944 64.647 C 106.711 62.631, 106.447 62.493, 101.630 62.387 C 98.809 62.325, 94.925 62.008, 93 61.683 C 91.075 61.357, 88.150 61.506, 86.500 62.014 M 108 62.893 C 108 63.384, 108.652 64.036, 109.449 64.342 C 110.418 64.714, 110.714 64.418, 110.342 63.449 C 109.735 61.867, 108 61.455, 108 62.893 M 80.310 75.500 C 80.315 78.800, 80.502 80.029, 80.725 78.232 C 80.947 76.435, 80.943 73.735, 80.715 72.232 C 80.486 70.729, 80.304 72.200, 80.310 75.500 M 108 72.031 C 108 72.564, 108.675 73, 109.500 73 C 110.325 73, 111 72.823, 111 72.607 C 111 72.391, 110.325 71.955, 109.500 71.638 C 108.675 71.322, 108 71.499, 108 72.031 M 122.389 76.428 C 122.049 77.314, 120.915 77.671, 119.344 77.386 C 117.780 77.102, 117.080 77.320, 117.479 77.966 C 117.866 78.592, 116.911 79, 115.059 79 C 113.377 79, 112 79.450, 112 80 C 112 80.550, 111.339 81, 110.531 81 C 109.637 81, 109.288 81.586, 109.638 82.500 C 110.006 83.457, 109.621 84, 108.576 84 C 107.674 84, 106.658 84.787, 106.317 85.750 C 105.975 86.713, 105.060 88.243, 104.283 89.151 C 103.408 90.173, 103.248 91.035, 103.863 91.415 C 104.409 91.753, 105.144 91.123, 105.495 90.015 C 105.847 88.907, 106.731 88, 107.460 88 C 108.189 88, 109.045 87.325, 109.362 86.500 C 109.678 85.675, 110.444 85, 111.062 85 C 113.239 85, 123.001 78.515, 123.079 77.016 C 123.132 75.989, 123.321 75.903, 123.662 76.750 C 124.322 78.384, 126.649 78.358, 127.281 76.709 C 127.592 75.899, 126.873 75.343, 125.354 75.217 C 124.021 75.107, 122.687 75.652, 122.389 76.428 M 205.393 82.582 C 205.727 83.452, 206 84.378, 206 84.641 C 206 84.903, 206.450 84.840, 207 84.500 C 208.593 83.515, 208.157 81, 206.393 81 C 205.338 81, 204.995 81.544, 205.393 82.582 M 204 85.500 C 204 86.325, 204.436 87, 204.969 87 C 205.501 87, 205.678 86.325, 205.362 85.500 C 205.045 84.675, 204.609 84, 204.393 84 C 204.177 84, 204 84.675, 204 85.500 M 125.510 88.016 C 125.856 88.575, 126.557 88.774, 127.069 88.457 C 128.456 87.600, 128.198 87, 126.441 87 C 125.584 87, 125.165 87.457, 125.510 88.016 M 79.805 90.872 C 79.574 92.451, 79.716 94.589, 80.122 95.622 C 80.782 97.302, 80.867 97.316, 80.930 95.750 C 80.974 94.648, 81.833 93.971, 83.250 93.921 C 84.487 93.878, 84.938 93.615, 84.250 93.338 C 82.469 92.619, 82.704 90.328, 84.634 89.587 C 86.685 88.800, 92.668 89.847, 96.133 91.599 C 98.811 92.953, 100.619 97.190, 99.376 99.200 C 98.962 99.871, 99.147 100.027, 99.845 99.595 C 101.791 98.393, 101.144 101.540, 98.814 104.615 C 97.612 106.202, 96.599 107.557, 96.564 107.626 C 96.529 107.695, 95.449 108.075, 94.164 108.470 C 92.003 109.135, 91.917 109.023, 93.014 106.974 C 93.765 105.570, 93.807 105.001, 93.128 105.421 C 92.539 105.785, 90.995 105.388, 89.698 104.538 C 88.401 103.688, 87.039 103.295, 86.670 103.663 C 86.302 104.032, 86 103.319, 86 102.080 C 86 100.494, 86.889 99.491, 89 98.694 C 92.490 97.377, 92.753 96.473, 90.066 95.035 C 87.596 93.713, 86.708 93.719, 87.532 95.051 C 87.889 95.629, 87.016 97.183, 85.591 98.504 C 82.282 101.570, 82.331 102.603, 85.873 104.434 C 87.453 105.251, 88.986 106.838, 89.279 107.960 C 89.669 109.451, 90.634 110, 92.866 110 C 96.578 110, 100.738 105.914, 101.577 101.443 C 102.448 96.798, 101.698 91.500, 100.169 91.500 C 99.438 91.500, 98.263 90.713, 97.559 89.750 C 96.524 88.335, 94.743 88, 88.253 88 L 80.227 88 79.805 90.872 M 122.211 89.605 C 121.139 90.764, 121.266 91, 122.961 91 C 124.082 91, 125 90.577, 125 90.059 C 125 88.403, 123.541 88.166, 122.211 89.605 M 204.179 92.622 C 203.530 95.046, 203.059 98.035, 203.132 99.264 C 203.215 100.672, 203.492 100.233, 203.882 98.079 C 204.864 92.644, 206.721 93.194, 206.850 98.961 C 206.957 103.703, 205.865 105.543, 204.601 102.750 C 204.290 102.063, 204.140 102.363, 204.268 103.417 C 204.572 105.926, 206.033 106.285, 208.464 104.449 C 210.011 103.282, 210.429 101.762, 210.429 97.304 C 210.429 93.708, 209.979 91.493, 209.196 91.232 C 208.519 91.006, 207.378 90.235, 206.661 89.518 C 205.590 88.447, 205.147 89, 204.179 92.622 M 62.500 99 C 62.160 99.550, 62.359 100, 62.941 100 C 63.523 100, 64 99.550, 64 99 C 64 98.450, 63.802 98, 63.559 98 C 63.316 98, 62.840 98.450, 62.500 99 M 54.252 103.500 C 54.263 105.700, 54.468 106.482, 54.707 105.238 C 54.946 103.994, 54.937 102.194, 54.687 101.238 C 54.437 100.282, 54.241 101.300, 54.252 103.500 M 61.738 107.595 C 61.385 107.949, 61.770 108.913, 62.595 109.738 C 63.420 110.563, 64.385 110.949, 64.738 110.595 C 65.092 110.242, 64.706 109.277, 63.881 108.452 C 63.056 107.627, 62.092 107.242, 61.738 107.595 M 206 113.035 C 206 114.468, 208.118 115.282, 209.153 114.247 C 209.792 113.608, 209.414 113.080, 208.066 112.728 C 206.930 112.430, 206 112.569, 206 113.035 M 61.813 113.683 C 62.534 113.972, 63.397 113.936, 63.729 113.604 C 64.061 113.272, 63.471 113.036, 62.417 113.079 C 61.252 113.127, 61.015 113.364, 61.813 113.683 M 84.195 122.500 C 84.215 124.150, 84.439 124.704, 84.693 123.731 C 84.947 122.758, 84.930 121.408, 84.656 120.731 C 84.382 120.054, 84.175 120.850, 84.195 122.500 M 85.148 128.250 C 85.307 129.488, 85.028 131.175, 84.527 132 C 83.766 133.253, 83.872 133.293, 85.168 132.244 C 86.120 131.473, 86.536 130.024, 86.244 128.494 C 85.650 125.388, 84.752 125.188, 85.148 128.250 M 98 128 C 98 128.550, 98.477 129, 99.059 129 C 99.641 129, 99.840 128.550, 99.500 128 C 99.160 127.450, 98.684 127, 98.441 127 C 98.198 127, 98 127.450, 98 128 M 93.864 131.030 L 91.229 133.560 93.814 134.780 C 95.235 135.451, 96.972 136, 97.674 136 C 99.095 136, 102.475 130.142, 101.574 129.240 C 101.258 128.925, 101 129.192, 101 129.833 C 101 131.405, 97.232 131.330, 96.823 129.750 C 96.614 128.942, 95.567 129.395, 93.864 131.030 M 11.102 130.581 C 11.472 132.159, 9.836 135.016, 8.895 134.435 C 8.403 134.131, 8 134.407, 8 135.048 C 8 135.689, 7.348 135.964, 6.551 135.658 C 5.584 135.287, 5.286 135.582, 5.656 136.545 C 5.960 137.339, 6.520 137.796, 6.900 137.562 C 8.215 136.749, 7.494 141.700, 6.044 143.448 C 3.898 146.032, 3.947 147.753, 6.183 148.338 C 7.679 148.729, 8.081 149.544, 7.831 151.678 C 7.508 154.432, 7.628 154.507, 12.849 154.806 C 16.995 155.043, 18.481 154.725, 19.454 153.393 C 20.228 152.336, 21.363 151.925, 22.407 152.326 C 23.411 152.711, 23.854 152.574, 23.493 151.989 C 23.157 151.445, 23.359 151, 23.941 151 C 24.523 151, 25 149.650, 25 148 C 25 145.804, 24.531 145.004, 23.250 145.015 C 21.895 145.027, 21.804 145.224, 22.848 145.885 C 24.623 147.010, 23.925 150.391, 21.835 150.793 C 20.517 151.047, 20.223 150.331, 20.347 147.158 C 20.431 144.984, 20.734 143.347, 21.020 143.520 C 21.306 143.692, 21.306 141.522, 21.020 138.697 L 20.500 133.560 15.640 133.862 C 12.468 134.060, 11.003 133.804, 11.422 133.126 C 11.775 132.555, 12.837 132.364, 13.782 132.703 C 15.613 133.359, 15.519 133.216, 12.694 131.048 C 11.700 130.285, 10.984 130.075, 11.102 130.581 M 69.500 131.480 C 63.288 133.045, 58.748 135.064, 57.700 136.729 C 57.260 137.428, 56.221 138, 55.391 138 C 54.561 138, 54.156 137.556, 54.492 137.013 C 54.881 136.384, 54.268 136.335, 52.802 136.878 C 51.186 137.475, 50.076 139.180, 49.068 142.614 C 48.229 145.469, 47.471 146.773, 47.243 145.750 C 46.687 143.254, 45.033 143.573, 45.516 146.083 C 46.240 149.843, 44.940 153.914, 43.226 153.256 C 42.265 152.888, 41.926 153.071, 42.337 153.737 C 42.760 154.421, 42.277 154.624, 41.013 154.293 C 39.918 154.007, 39.213 153.465, 39.445 153.089 C 39.678 152.712, 39.455 151.751, 38.949 150.952 C 37.545 148.733, 37.705 152.580, 39.127 155.237 C 40.031 156.926, 39.932 157.577, 38.624 158.533 C 37.473 159.375, 37.168 160.590, 37.585 162.676 C 37.986 164.681, 37.514 166.804, 36.113 169.298 C 34.945 171.377, 34.326 173.735, 34.685 174.735 C 35.033 175.706, 34.963 176.178, 34.528 175.785 C 33.471 174.830, 29.682 177.556, 29.401 179.476 C 29.278 180.314, 29.812 181, 30.588 181 C 31.365 181, 32 181.221, 32 181.490 C 32 182.879, 20.856 203.875, 19.538 204.968 C 18.692 205.670, 18 207.119, 18 208.188 C 18 209.257, 17.485 211.114, 16.854 212.316 C 15.717 214.484, 15.725 214.486, 17.854 212.595 C 19.867 210.808, 20.115 210.794, 21.853 212.367 C 23.190 213.577, 24.345 213.808, 26.001 213.195 C 28.237 212.368, 28.202 212.288, 24.648 210.092 C 22.642 208.851, 21 207.399, 21 206.863 C 21 205.996, 30.957 185.535, 36.139 175.754 C 37.230 173.694, 37.801 171.487, 37.407 170.850 C 36.995 170.182, 37.126 169.960, 37.716 170.325 C 38.316 170.695, 40.508 166.504, 42.996 160.229 C 45.336 154.328, 48.448 147.702, 49.911 145.504 C 53.171 140.608, 61.882 134.727, 68.193 133.163 C 74.679 131.555, 76.071 131.652, 75.301 133.659 C 74.760 135.068, 75.159 135.218, 77.957 134.659 C 79.768 134.296, 81.750 134, 82.360 134 C 82.971 134, 81.791 133.100, 79.739 132 C 77.686 130.900, 75.668 130.050, 75.254 130.111 C 74.839 130.171, 72.250 130.788, 69.500 131.480 M 22 136.893 C 22 137.463, 22.913 138.418, 24.028 139.015 C 25.143 139.612, 25.795 140.523, 25.476 141.039 C 25.157 141.555, 25.594 141.709, 26.448 141.382 C 28.396 140.634, 28.480 139, 26.571 139 C 25.786 139, 24.436 138.293, 23.571 137.429 C 22.707 136.564, 22 136.323, 22 136.893 M 82.813 136.683 C 83.534 136.972, 84.397 136.936, 84.729 136.604 C 85.061 136.272, 84.471 136.036, 83.417 136.079 C 82.252 136.127, 82.015 136.364, 82.813 136.683 M 4.487 138.500 C 4.685 139.600, 4.881 141.089, 4.923 141.809 C 4.966 142.529, 5.450 142.840, 6 142.500 C 7.359 141.660, 7.259 140.732, 5.563 138.441 C 4.148 136.529, 4.132 136.530, 4.487 138.500 M 50.686 140.092 C 50.161 142.100, 50.217 142.113, 52.070 140.437 C 54.366 138.359, 54.447 138, 52.617 138 C 51.856 138, 50.987 138.941, 50.686 140.092 M 61 140 C 58.953 140.656, 59.350 140.819, 63.191 140.900 C 65.771 140.955, 68.160 140.550, 68.500 140 C 69.226 138.826, 64.667 138.826, 61 140 M 18.564 141.707 C 18.022 143.132, 18.136 143.247, 19.124 142.267 C 19.808 141.588, 20.115 140.781, 19.807 140.474 C 19.499 140.166, 18.940 140.721, 18.564 141.707 M 94.471 144.750 C 94.633 145.713, 95.381 146.342, 96.133 146.148 C 96.885 145.955, 99.525 145.411, 102 144.940 L 106.500 144.084 101.284 144.392 C 98.415 144.561, 96.304 144.317, 96.593 143.850 C 96.882 143.382, 96.456 143, 95.648 143 C 94.802 143, 94.302 143.743, 94.471 144.750 M 18.079 145.583 C 18.127 146.748, 18.364 146.985, 18.683 146.188 C 18.972 145.466, 18.936 144.603, 18.604 144.271 C 18.272 143.939, 18.036 144.529, 18.079 145.583 M 91 148 C 91 149.100, 91.173 150, 91.383 150 C 91.594 150, 92.002 149.100, 92.290 148 C 92.577 146.900, 92.405 146, 91.906 146 C 91.408 146, 91 146.900, 91 148 M 14.118 147.750 C 14.184 148.162, 14.146 148.725, 14.035 149 C 13.924 149.275, 13.721 150.512, 13.584 151.750 C 13.392 153.480, 13.845 154, 15.545 154 C 18.942 154, 20.251 151.803, 18.415 149.182 C 16.983 147.138, 13.857 146.096, 14.118 147.750 M 88.599 148.840 C 88.269 149.375, 87.211 149.608, 86.249 149.358 C 85.287 149.109, 83.600 149.634, 82.500 150.526 C 81.400 151.418, 81.116 151.830, 81.869 151.442 C 82.622 151.053, 84.556 150.623, 86.167 150.486 C 89.248 150.224, 90.719 149.385, 89.767 148.433 C 89.455 148.122, 88.930 148.305, 88.599 148.840 M 14.694 149.639 C 13.658 150.676, 14.967 152, 17.028 152 C 18.314 152, 18.749 151.511, 18.362 150.500 C 17.770 148.959, 15.829 148.504, 14.694 149.639 M 41.980 150.524 C 41.284 151.362, 41.004 152.337, 41.357 152.691 C 41.711 153.044, 42 152.782, 42 152.108 C 42 151.434, 42.450 151.160, 43 151.500 C 43.550 151.840, 44 151.416, 44 150.559 C 44 148.605, 43.578 148.598, 41.980 150.524 M 69.418 158.099 C 68.930 158.869, 68.524 159.950, 68.515 160.500 C 68.507 161.050, 67.938 161.455, 67.250 161.400 C 63.287 161.083, 62.927 160.921, 63.588 159.750 C 64.102 158.839, 63.975 158.792, 63.120 159.577 C 62.475 160.169, 61.846 162.037, 61.723 163.729 C 61.601 165.421, 61.223 166.635, 60.884 166.426 C 59.638 165.660, 57.148 169.612, 56.426 173.500 C 56.018 175.700, 55.771 177.629, 55.878 177.786 C 55.984 177.943, 55.341 178.801, 54.449 179.694 C 53.496 180.647, 53.016 182.305, 53.286 183.714 C 53.538 185.034, 53.239 186.661, 52.622 187.331 C 48.427 191.886, 44.910 197.323, 45.375 198.535 C 45.688 199.349, 45.077 200.424, 43.963 201.020 C 42.883 201.598, 42 202.939, 42 204 C 42 205.061, 41.065 206.430, 39.922 207.042 C 38.700 207.695, 38.076 208.755, 38.406 209.615 C 38.714 210.418, 38.301 211.331, 37.489 211.643 C 36.676 211.954, 36.260 212.612, 36.565 213.105 C 37.648 214.858, 40.836 213.955, 44 211 C 45.766 209.350, 47.717 208, 48.334 208 C 49.486 208, 55.659 201.588, 57.567 198.410 C 58.154 197.433, 59.428 196.154, 60.398 195.567 C 62.746 194.147, 69 188.296, 69 187.519 C 69 187.181, 70.035 185.913, 71.300 184.702 C 73.401 182.691, 73.991 178.270, 71.993 179.504 C 71.523 179.795, 70.813 179.506, 70.415 178.862 C 69.961 178.128, 70.125 177.959, 70.853 178.409 C 71.506 178.813, 72.283 178.427, 72.628 177.526 C 72.966 176.646, 74.650 175.195, 76.371 174.302 C 78.114 173.397, 78.944 172.490, 78.244 172.253 C 77.553 172.020, 77.302 171.305, 77.686 170.665 C 78.070 170.024, 77.623 170.118, 76.692 170.872 C 75.499 171.841, 75 171.897, 75 171.063 C 75 170.401, 74.451 170.198, 73.750 170.601 C 73.063 170.997, 72.834 170.952, 73.241 170.502 C 73.649 170.052, 73.424 168.994, 72.741 168.150 C 71.907 167.119, 71.882 166.845, 72.665 167.314 C 73.305 167.698, 74.019 167.672, 74.251 167.256 C 74.483 166.840, 74.531 167.073, 74.359 167.773 C 74.116 168.757, 74.514 168.795, 76.108 167.942 C 78.706 166.552, 77.890 165.670, 74.104 165.778 C 71.351 165.856, 71.228 165.693, 72 162.999 C 72.989 159.551, 70.949 155.680, 69.418 158.099 M 40.667 159.667 C 40.300 160.033, 40.029 161.271, 40.063 162.417 C 40.122 164.332, 40.204 164.307, 41.085 162.105 C 42.064 159.657, 41.861 158.472, 40.667 159.667 M 77.250 162.604 C 77.250 165.396, 79.444 166.413, 81.352 164.505 C 82.127 163.730, 83.138 163.411, 83.598 163.798 C 84.058 164.184, 83.873 163.762, 83.186 162.861 C 82.500 161.959, 80.884 161.020, 79.594 160.773 C 77.690 160.409, 77.250 160.753, 77.250 162.604 M 34 163.941 C 34 165.009, 34.337 166.091, 34.750 166.345 C 35.163 166.600, 35.500 165.727, 35.500 164.405 C 35.500 163.082, 35.163 162, 34.750 162 C 34.337 162, 34 162.873, 34 163.941" stroke="none" fill="#9a8c7e" fill-rule="evenodd"/><path d="M 113 61 C 113 61.515, 112.253 61.650, 111.339 61.300 C 110.025 60.796, 109.796 61.111, 110.241 62.814 C 110.735 64.702, 110.561 64.835, 108.816 63.902 C 106.526 62.676, 106.313 62.790, 105.845 65.500 C 105.655 66.600, 105.050 67.846, 104.500 68.268 C 103.476 69.055, 106.276 71.227, 108.842 71.636 C 109.580 71.754, 110.255 71.996, 110.342 72.175 C 110.429 72.354, 111.030 73.455, 111.678 74.622 C 112.399 75.920, 112.498 77.102, 111.932 77.668 C 111.367 78.233, 112.396 78.685, 114.586 78.833 C 116.923 78.990, 117.934 78.702, 117.502 78.003 C 117.075 77.312, 117.729 77.093, 119.344 77.386 C 120.959 77.679, 122.050 77.313, 122.417 76.356 C 122.730 75.540, 123.777 74.953, 124.743 75.051 C 128.605 75.445, 128.940 75.125, 127.871 72.061 C 127.202 70.142, 126.353 69.311, 125.423 69.668 C 124.641 69.968, 124 69.716, 124 69.107 C 124 68.498, 123.345 68, 122.545 68 C 120.990 68, 116 63.473, 116 62.062 C 116 61.595, 115.325 60.955, 114.500 60.638 C 113.675 60.322, 113 60.485, 113 61 M 98 66.833 C 98 67.292, 98.655 67.667, 99.456 67.667 C 100.257 67.667, 100.680 67.292, 100.397 66.833 C 100.114 66.375, 99.459 66, 98.941 66 C 98.423 66, 98 66.375, 98 66.833 M 105.179 83.037 C 103.431 84.101, 102 85.413, 102 85.953 C 102 86.494, 100.811 87.559, 99.357 88.321 C 97.288 89.405, 97.017 89.897, 98.107 90.587 C 98.873 91.073, 99.950 91.476, 100.500 91.485 C 101.050 91.493, 101.638 92.917, 101.806 94.648 C 102.020 96.855, 102.738 97.960, 104.208 98.344 C 106.191 98.863, 106.271 99.344, 105.681 107.196 C 104.915 117.397, 103.405 123, 101.422 123 C 100.605 123, 99.678 123.675, 99.362 124.500 C 99.045 125.325, 97.934 126, 96.893 126 C 95.852 126, 95 126.477, 95 127.059 C 95 127.641, 94.592 127.866, 94.093 127.558 C 93.595 127.249, 93.439 127.964, 93.749 129.146 C 94.286 131.203, 94.369 131.216, 95.655 129.457 C 96.860 127.809, 97 127.794, 97 129.309 C 97 133.420, 102.875 128.535, 106.513 121.398 C 107.606 119.254, 108.725 117.275, 109 117 C 109.275 116.725, 109.609 112.759, 109.743 108.187 C 109.976 100.198, 109.875 99.770, 107.132 97.187 C 104.075 94.309, 102.573 90.382, 104.156 89.404 C 104.688 89.075, 105.534 87.724, 106.037 86.403 C 106.539 85.081, 107.637 84, 108.475 84 C 109.314 84, 110 83.577, 110 83.059 C 110 81.159, 108.281 81.151, 105.179 83.037 M 138.588 104.858 C 138.296 105.330, 134.557 106.279, 130.279 106.967 C 126 107.655, 122.202 108.694, 121.838 109.276 C 120.350 111.653, 126.187 121.516, 131.465 125.541 C 135.563 128.667, 136.242 128.370, 140.836 121.434 C 142.428 119.030, 143.905 117.238, 144.118 117.451 C 144.331 117.664, 144.479 115.610, 144.446 112.886 C 144.374 106.777, 140.599 101.604, 138.588 104.858 M 98.872 106.750 C 97.629 108.336, 97.664 108.371, 99.250 107.128 C 100.916 105.821, 101.445 105, 100.622 105 C 100.415 105, 99.627 105.787, 98.872 106.750 M 94.441 110.450 C 92.568 111.849, 92.580 111.880, 94.766 111.330 C 96.012 111.016, 97.276 110.363, 97.575 109.879 C 98.420 108.511, 96.591 108.844, 94.441 110.450 M 98 128 C 98 128.550, 98.477 129, 99.059 129 C 99.641 129, 99.840 128.550, 99.500 128 C 99.160 127.450, 98.684 127, 98.441 127 C 98.198 127, 98 127.450, 98 128 M 88.250 133.491 C 86.463 134.268, 85 135.375, 85 135.952 C 85 136.528, 83.875 137, 82.500 137 C 81.125 137, 80 137.450, 80 138 C 80 138.550, 79.413 139, 78.695 139 C 77.978 139, 75.794 140.463, 73.843 142.250 C 71.891 144.037, 69.992 145.579, 69.622 145.675 C 67.350 146.266, 66.894 146.756, 66.743 148.765 C 66.650 149.994, 66.271 151, 65.901 151 C 65.530 151, 64.996 152.238, 64.715 153.750 C 64.433 155.262, 63.958 157.512, 63.659 158.750 C 63.129 160.940, 63.327 161.086, 67.250 161.400 C 67.938 161.455, 68.507 161.050, 68.515 160.500 C 68.524 159.950, 68.930 158.869, 69.418 158.099 C 70.949 155.680, 72.989 159.551, 72 162.999 C 71.228 165.693, 71.351 165.856, 74.104 165.778 C 77.890 165.670, 78.706 166.552, 76.108 167.942 C 74.514 168.795, 74.116 168.757, 74.359 167.773 C 74.531 167.073, 74.483 166.840, 74.251 167.256 C 74.019 167.672, 73.305 167.698, 72.665 167.314 C 71.882 166.845, 71.907 167.119, 72.741 168.150 C 73.424 168.994, 73.649 170.052, 73.241 170.502 C 72.834 170.952, 73.063 170.997, 73.750 170.601 C 74.438 170.206, 75 170.384, 75 170.998 C 75 171.686, 75.851 171.518, 77.223 170.557 C 79.789 168.759, 81 168.580, 81 170 C 81 170.550, 80.298 171, 79.441 171 C 78.584 171, 78.148 171.431, 78.474 171.957 C 78.799 172.484, 77.755 173.592, 76.154 174.420 C 74.553 175.249, 72.966 176.646, 72.628 177.526 C 72.283 178.427, 71.506 178.813, 70.853 178.409 C 70.125 177.959, 69.961 178.128, 70.415 178.862 C 70.813 179.506, 71.557 179.774, 72.069 179.457 C 72.581 179.141, 73 179.655, 73 180.599 C 73 182.018, 73.392 181.898, 75.250 179.908 C 76.487 178.584, 77.162 177.350, 76.750 177.167 C 74.900 176.344, 76.274 175, 78.965 175 C 82.276 175, 84.330 172.331, 83.813 168.698 C 83.497 166.476, 86.953 162, 88.986 162 C 89.578 162, 90.305 161.369, 90.601 160.599 C 90.896 159.828, 91.981 158.977, 93.010 158.708 C 94.040 158.438, 95.563 156.588, 96.396 154.595 C 97.228 152.602, 98.588 150.712, 99.417 150.394 C 100.246 150.075, 101.187 148.985, 101.509 147.971 C 101.831 146.957, 103.086 145.912, 104.297 145.649 C 105.509 145.387, 104.926 145.246, 103.003 145.336 C 100.391 145.458, 98.745 146.365, 96.503 148.917 C 94.851 150.796, 93.500 152.745, 93.500 153.247 C 93.500 154.276, 90.069 157, 88.774 157 C 88.309 157, 88.411 156.100, 89 155 C 90.344 152.489, 88.558 152.265, 87.006 154.750 C 86.129 156.154, 86.034 155.867, 86.526 153.294 C 87.072 150.444, 86.910 150.132, 85.066 150.487 C 83.926 150.707, 82.432 151.170, 81.746 151.517 C 81.061 151.864, 81.400 151.418, 82.500 150.526 C 83.600 149.634, 85.257 149.101, 86.181 149.341 C 87.106 149.580, 88.686 149.009, 89.693 148.071 C 90.700 147.133, 92.418 145.808, 93.512 145.126 C 97.305 142.759, 88.257 144.920, 83.269 147.572 C 80.012 149.303, 78.429 149.694, 77.931 148.889 C 77.542 148.259, 76.716 148.058, 76.095 148.441 C 75.475 148.824, 75.195 149.507, 75.473 149.957 C 75.752 150.407, 74.634 150.973, 72.990 151.215 C 70.601 151.565, 70 151.286, 70 149.827 C 70 148.822, 70.338 147.966, 70.750 147.923 C 71.162 147.881, 72.400 147.624, 73.500 147.351 C 74.600 147.079, 76.287 146.860, 77.250 146.866 C 78.213 146.871, 79 146.313, 79 145.625 C 79 144.175, 84.142 139, 85.582 139 C 86.488 139, 87.308 138.181, 90.872 133.718 C 92.501 131.679, 92.433 131.673, 88.250 133.491 M 71.777 134.051 C 70.279 134.470, 67.920 135.704, 66.535 136.794 L 64.016 138.775 67.258 139.278 C 70.598 139.796, 78.042 136.373, 76.339 135.102 C 75.877 134.758, 75.275 134.210, 75 133.883 C 74.725 133.557, 73.275 133.633, 71.777 134.051 M 93.500 147.765 C 92.950 148.169, 91.839 149.400, 91.030 150.500 C 89.945 151.977, 90.272 151.866, 92.280 150.076 C 94.728 147.894, 95.473 146.971, 94.750 147.015 C 94.612 147.024, 94.050 147.361, 93.500 147.765 M 77.250 162.604 C 77.250 165.396, 79.444 166.413, 81.352 164.505 C 82.127 163.730, 83.138 163.411, 83.598 163.798 C 84.058 164.184, 83.873 163.762, 83.186 162.861 C 82.500 161.959, 80.884 161.020, 79.594 160.773 C 77.690 160.409, 77.250 160.753, 77.250 162.604 M 96.804 171.310 C 94.428 173.327, 91.432 179.765, 92.412 180.745 C 93.142 181.475, 101 173.070, 101 171.559 C 101 169.112, 99.497 169.022, 96.804 171.310 M 97.750 171.963 C 96.788 172.900, 96.298 173.964, 96.661 174.327 C 97.024 174.690, 97.969 174.061, 98.762 172.929 C 100.603 170.301, 100.024 169.748, 97.750 171.963 M 102.026 180.894 C 101.352 183.702, 100.508 186, 100.150 186 C 99.793 186, 99.500 188.588, 99.500 191.750 C 99.500 194.912, 99.160 201.213, 98.745 205.750 C 98.035 213.515, 98.105 214, 99.936 214 C 102.503 214, 102.748 213.474, 103.449 206.465 C 104.544 195.516, 106.317 184.510, 107.135 183.578 C 108.392 182.146, 111.953 191.005, 111.978 195.625 C 112.013 202.211, 113.067 205.997, 114.875 206.030 C 116.297 206.057, 116.282 206.188, 114.750 207.080 C 113.709 207.686, 113 209.295, 113 211.050 C 113 213.464, 113.419 214, 115.305 214 C 117.465 214, 117.594 213.654, 117.341 208.500 C 117.084 203.238, 118.115 201.252, 119.386 204.563 C 119.716 205.423, 120.439 205.847, 120.993 205.504 C 121.547 205.162, 122 205.359, 122 205.941 C 122 207.670, 123.425 207.151, 124.823 204.913 C 126.001 203.026, 125.935 202.886, 124.147 203.453 C 121.381 204.331, 120.491 202.335, 122.961 200.792 C 124.083 200.092, 125 198.727, 125 197.759 C 125 196.792, 125.338 195.990, 125.750 195.978 C 126.162 195.966, 127.573 195.130, 128.886 194.121 L 131.271 192.287 128.499 189.176 C 126.975 187.465, 124.101 185.542, 122.114 184.902 C 120.126 184.263, 117.943 183.298, 117.263 182.758 C 116.583 182.218, 114.895 182.060, 113.513 182.407 C 112.126 182.756, 111 182.605, 111 182.071 C 111 180.180, 106.214 175.845, 105.465 177.057 C 104.930 177.923, 104.561 177.908, 104 177 C 103.552 176.276, 102.757 177.844, 102.026 180.894 M 124.667 209.667 C 123.405 210.928, 124.003 212.125, 125.750 211.838 C 126.713 211.679, 128.107 211.930, 128.850 212.396 C 129.945 213.082, 129.985 212.841, 129.065 211.121 C 127.944 209.026, 125.962 208.371, 124.667 209.667 M 69.506 211.994 C 67.971 213.690, 67.930 214, 69.238 214 C 70.089 214, 71.070 213.261, 71.417 212.357 C 72.361 209.894, 71.546 209.739, 69.506 211.994" stroke="none" fill="#c1847d" fill-rule="evenodd"/></g></svg>