<?xml version="1.0" encoding="iso-8859-1"?>
<!-- Uploaded to: SVG Repo, www.svgrepo.com, Generator: SVG Repo Mixer Tools -->
<svg height="800px" width="800px" version="1.1" id="Capa_1" xmlns="http://www.w3.org/2000/svg" xmlns:xlink="http://www.w3.org/1999/xlink" 
	 viewBox="0 0 17.211 17.211" xml:space="preserve">
<g>
	<g>
		<path style="fill:#030104;" d="M14.148,7.781l-5.579,3.327L3.097,7.781l-0.455,2.841c0.002-0.004,0.006-0.007,0.011-0.013
			c-0.065,0.109-0.102,0.222-0.102,0.337c0,1.003,4.418,4.094,5.821,4.094c1.404,0,6.323-3.091,6.323-4.094
			c0-0.109-0.036-0.214-0.092-0.532L14.148,7.781z"/>
		<path style="fill:#030104;" d="M17.211,4.873L8.635,2.17l-7.66,2.443C0.867,4.63,0.765,4.658,0.684,4.706l0,0l0,0
			c-0.098,0.058-0.165,0.142-0.17,0.266C0.473,5.468,0,11.17,0,11.17l0.514,1.708l0.477-1.708L0.789,5.294l7.823,4.813L17.211,4.873
			z M8.015,5.118H0.783l0.756-0.413h6.385C8.007,4.56,8.203,4.458,8.431,4.458c0.304,0,0.55,0.181,0.55,0.403
			c0,0.223-0.246,0.404-0.55,0.404C8.261,5.267,8.115,5.207,8.015,5.118z"/>
	</g>
</g>
</svg>