<svg id="svgContent" version="1.1" width="225" height="225" style="position: relative; width: 225px; height: 225px; margin:auto; user-select: none; cursor: default;" xmlns="http://www.w3.org/2000/svg" xmlns:xlink="http://www.w3.org/1999/xlink" viewBox="0 0 225 225"><g id="svgPath"><path d="M 45.346 18.748 C 57.040 19.010, 59.104 19.286, 58.627 20.529 C 58.218 21.597, 58.808 22.011, 60.781 22.040 C 63.346 22.077, 63.277 22.191, 59.571 24.040 C 55.185 26.229, 53 26.527, 53 24.937 C 53 24.353, 51.987 24.015, 50.750 24.187 C 49.210 24.401, 48.534 24.006, 48.608 22.935 C 48.757 20.774, 39.411 21.161, 37.163 23.408 C 35.708 24.864, 35.739 25.004, 37.536 25.041 C 38.616 25.064, 36.810 26.238, 33.521 27.652 C 28.058 30, 24 33.157, 24 35.059 C 24 36.076, 20.124 35.009, 19.367 33.784 C 19.035 33.248, 19.750 31.390, 20.955 29.655 L 23.146 26.500 20.514 29.375 C 19.066 30.956, 18.119 32.868, 18.409 33.625 C 18.700 34.381, 18.453 35, 17.862 35 C 17.270 35, 17.054 35.698, 17.382 36.552 C 17.723 37.442, 17.555 37.843, 16.989 37.493 C 16.010 36.888, 15.590 38.242, 15.948 40.850 C 16.050 41.593, 15.701 41.933, 15.172 41.606 C 14.643 41.279, 13.957 41.669, 13.648 42.474 C 13.340 43.278, 13.519 44.203, 14.046 44.529 C 14.644 44.898, 14.588 45.902, 13.895 47.196 C 12.994 48.880, 12.605 49.010, 11.827 47.885 C 11.135 46.885, 11.037 47.101, 11.474 48.663 C 11.807 49.853, 11.164 53.543, 10.046 56.864 C 8.364 61.856, 8.215 63.386, 9.183 65.701 C 10.301 68.370, 10.405 68.185, 11.427 61.695 C 12.286 56.248, 12.749 55.141, 13.750 56.145 C 14.752 57.151, 15.007 57.013, 15.035 55.450 C 15.102 51.774, 17.672 48.817, 23.109 46.160 C 26.912 44.301, 28.451 43, 28.220 41.842 C 27.989 40.688, 28.815 39.980, 30.933 39.515 C 34.542 38.722, 35.998 37, 33.059 37 C 30.409 37, 30.466 36.389, 33.483 32.434 C 35.274 30.085, 36.528 29.325, 37.983 29.706 C 39.116 30.002, 40 29.744, 40 29.117 C 40 27.259, 44.226 27.863, 46.557 30.054 L 48.743 32.107 48.210 29.304 C 47.729 26.769, 47.839 26.634, 49.361 27.891 C 50.300 28.667, 50.804 30.042, 50.500 31 C 50.200 31.945, 50.583 33.239, 51.351 33.876 C 52.457 34.795, 53.093 34.507, 54.415 32.489 C 55.333 31.089, 55.811 29.503, 55.478 28.965 C 54.723 27.743, 57.515 26.582, 59.001 27.500 C 59.733 27.953, 59.768 28.575, 59.106 29.373 C 58.561 30.030, 58.447 31.106, 58.854 31.764 C 59.389 32.630, 60.603 32.275, 63.244 30.480 C 66.992 27.933, 71.404 27.227, 72.500 29 C 73.350 30.375, 77.745 30.264, 78.215 28.855 C 78.569 27.794, 86.945 31.698, 89.450 34.092 C 89.972 34.591, 90.848 35, 91.395 35 C 91.943 35, 90.840 33.475, 88.945 31.610 C 83.397 26.151, 78 19.887, 78 18.907 C 78 18.384, 68.164 18.093, 54.750 18.219 C 38.796 18.370, 35.845 18.536, 45.346 18.748 M 25.872 24.750 C 24.629 26.336, 24.664 26.371, 26.250 25.128 C 27.916 23.821, 28.445 23, 27.622 23 C 27.415 23, 26.627 23.788, 25.872 24.750 M 43.813 24.683 C 44.534 24.972, 45.397 24.936, 45.729 24.604 C 46.061 24.272, 45.471 24.036, 44.417 24.079 C 43.252 24.127, 43.015 24.364, 43.813 24.683 M 19.581 37.649 C 18.733 39.859, 19.443 40.376, 20.906 38.613 C 21.616 37.758, 21.716 36.943, 21.153 36.595 C 20.634 36.274, 19.927 36.748, 19.581 37.649 M 68.479 40.445 C 61.205 43.676, 55.016 46, 53.687 46 C 52.894 46, 51.680 46.681, 50.989 47.513 C 50.298 48.345, 49.231 48.945, 48.617 48.846 C 46.677 48.533, 40 50.189, 40 50.983 C 40 51.402, 38.221 52.029, 36.048 52.376 C 31.217 53.149, 27.423 57.617, 26.094 64.096 C 25.598 66.518, 24.628 69.888, 23.939 71.583 C 22.883 74.184, 22.947 75.187, 24.344 77.987 C 25.255 79.813, 26 81.844, 26 82.500 C 26 83.156, 26.645 84.999, 27.433 86.596 C 28.222 88.193, 29.620 93.550, 30.541 98.500 C 32.141 107.103, 34.813 114.148, 36.986 115.491 C 37.544 115.836, 38 115.611, 38 114.991 C 38 114.371, 39.379 114.845, 41.064 116.045 C 42.934 117.377, 43.910 118.792, 43.570 119.679 C 43.168 120.725, 43.523 120.969, 44.839 120.551 C 47.637 119.663, 50.177 123.275, 51.303 129.745 C 51.855 132.910, 52.349 136.512, 52.403 137.750 C 52.519 140.437, 52.442 140.415, 54.502 138.355 C 55.819 137.038, 55.886 136.548, 54.837 135.899 C 53.811 135.265, 53.957 134.664, 55.513 133.125 C 56.606 132.044, 58.810 129.342, 60.411 127.121 C 63.662 122.610, 64.467 122.587, 65.346 126.979 C 65.969 130.097, 68 131.211, 68 128.434 C 68 126.509, 66.088 122.759, 64.600 121.765 C 63.860 121.271, 63.847 121.026, 64.561 121.015 C 66.562 120.986, 69.944 117.017, 69.330 115.418 C 68.949 114.425, 69.236 113.921, 70.114 114.043 C 73.109 114.462, 74.667 113.934, 74.667 112.500 C 74.667 110.833, 73.354 110.454, 72.833 111.971 C 72.631 112.559, 71.532 112.457, 70.043 111.712 C 68.370 110.876, 67.328 109.242, 66.777 106.591 C 65.855 102.150, 66.183 101.451, 68.707 102.493 C 69.911 102.990, 70.089 103.386, 69.250 103.700 C 67.528 104.343, 67.674 106, 69.453 106 C 74.102 106, 79.746 111.893, 78.416 115.359 C 78.102 116.175, 78.346 117.778, 78.957 118.920 C 79.886 120.655, 80.901 120.961, 85.121 120.777 C 87.899 120.656, 89.684 120.395, 89.086 120.195 C 88.489 119.996, 88 118.772, 88 117.476 C 88 116.179, 87.606 114.875, 87.125 114.577 C 85.495 113.570, 85.533 103, 87.167 103 C 87.625 103, 88 102.325, 88 101.500 C 88 100.675, 88.420 100, 88.933 100 C 89.446 100, 90.151 99.100, 90.500 98 C 90.849 96.900, 91.575 96, 92.113 96 C 92.651 96, 94.146 94.945, 95.436 93.655 C 97.118 91.973, 97.639 90.561, 97.277 88.666 C 96.999 87.213, 96.440 86.228, 96.035 86.479 C 95.630 86.729, 94.705 85.136, 93.980 82.940 C 92.703 79.071, 91.091 78.227, 90.183 80.952 C 89.919 81.743, 90.197 81.996, 90.870 81.580 C 91.525 81.175, 92 81.537, 92 82.441 C 92 83.298, 91.662 83.947, 91.250 83.882 C 90.838 83.816, 90.162 83.873, 89.750 84.007 C 88.590 84.383, 87.092 84.737, 86.079 84.875 C 85.573 84.944, 84.863 86.349, 84.500 87.999 C 83.845 90.982, 80.715 94, 78.277 94 C 76.106 94, 76.872 92.580, 80.006 90.797 C 81.653 89.860, 83 88.397, 83 87.547 C 83 85.568, 81.392 85.536, 80.638 87.500 C 79.962 89.263, 77 89.534, 77 87.833 C 77 87.192, 76.711 86.956, 76.357 87.309 C 76.004 87.663, 76.239 88.583, 76.879 89.354 C 77.805 90.470, 77.611 90.868, 75.925 91.309 C 71.644 92.429, 69.777 90.253, 72.250 87.027 C 72.938 86.130, 72.044 86.995, 70.265 88.948 C 68.486 90.902, 67.023 92.838, 67.015 93.250 C 67.007 93.662, 65.885 94, 64.523 94 C 61.295 94, 58.461 89.943, 59.867 87.333 C 60.410 86.325, 61.068 84.791, 61.329 83.924 C 61.590 83.057, 65.621 80.440, 70.286 78.107 C 77.396 74.552, 79.353 73.976, 82.384 74.544 C 84.634 74.966, 86 74.834, 86 74.195 C 86 73.629, 85.438 72.977, 84.750 72.746 C 83.774 72.417, 83.799 71.964, 84.863 70.674 C 85.613 69.765, 86.578 69.239, 87.009 69.505 C 87.900 70.056, 89 67.653, 89 65.153 C 89 64.228, 88.100 61.791, 87 59.739 C 85.900 57.686, 85 55.381, 85 54.615 C 85 53.849, 84.344 53.285, 83.543 53.361 C 82.719 53.440, 80.874 51.150, 79.293 48.088 C 77.757 45.111, 75.600 42.186, 74.500 41.588 C 73.400 40.989, 72.265 40.190, 71.979 39.811 C 71.692 39.432, 70.117 39.718, 68.479 40.445 M 81 49 C 81 49.550, 81.450 50, 82 50 C 82.550 50, 83 49.550, 83 49 C 83 48.450, 82.550 48, 82 48 C 81.450 48, 81 48.450, 81 49 M 81 56.941 C 81 58.617, 82.774 59.033, 83.364 57.494 C 83.712 56.587, 83.361 56, 82.469 56 C 81.661 56, 81 56.423, 81 56.941 M 54 61.707 C 48.606 62.277, 47.030 63.153, 50 63.928 C 52.334 64.538, 52.533 65.094, 53 72.292 C 53.374 78.062, 53.185 80.003, 52.250 80.002 C 51.563 80.001, 51 80.900, 51 82 C 51 84.289, 51.375 84.405, 54.094 82.950 C 55.173 82.372, 55.792 81.472, 55.469 80.950 C 55.146 80.427, 55.632 80, 56.548 80 C 57.642 80, 58.010 80.532, 57.620 81.549 C 57.114 82.866, 57.470 82.836, 59.992 81.346 C 61.763 80.300, 62.521 79.322, 61.873 78.921 C 61.132 78.464, 61.116 78.046, 61.824 77.609 C 62.395 77.256, 63.132 77.405, 63.463 77.940 C 64.188 79.113, 67 78.196, 67 76.786 C 67 76.236, 66.325 76.045, 65.500 76.362 C 64.361 76.799, 63.993 76.162, 63.972 73.719 C 63.942 70.317, 60.074 61.741, 58.455 61.487 C 57.930 61.404, 55.925 61.503, 54 61.707 M 79 64.833 C 79 66.242, 80.126 66.889, 81.598 66.324 C 83.685 65.523, 83.293 64, 81 64 C 79.900 64, 79 64.375, 79 64.833 M 109.691 81.707 C 110.055 84.438, 109.684 87.331, 108.634 89.957 C 106.991 94.062, 107.691 95.166, 110.288 92.569 C 111.796 91.061, 111.564 82.007, 109.941 79 C 109.483 78.152, 109.374 79.329, 109.691 81.707 M 35.046 89.407 C 32.027 91.168, 31.819 91.617, 32.314 95.301 C 32.608 97.494, 33.445 99.666, 34.174 100.129 C 36.266 101.455, 39 101.139, 39 99.571 C 39 97.912, 41.664 95, 43.182 95 C 43.754 95, 43.200 95.827, 41.952 96.838 C 38.954 99.265, 40.200 101.029, 44.809 100.884 C 46.926 100.817, 47.647 100.563, 46.500 100.287 C 43.398 99.541, 42.286 98.062, 44.008 96.974 C 46.405 95.458, 47.568 95.860, 45.441 97.468 C 43.579 98.877, 43.610 98.938, 46.200 98.968 C 47.685 98.986, 49.260 98.373, 49.700 97.608 C 50.140 96.842, 52.188 95.515, 54.250 94.659 C 58.561 92.869, 58.925 91.793, 55.750 90.232 C 49.009 86.918, 39.930 86.556, 35.046 89.407 M 60.195 98.500 C 60.215 100.150, 60.439 100.704, 60.693 99.731 C 60.947 98.758, 60.930 97.408, 60.656 96.731 C 60.382 96.054, 60.175 96.850, 60.195 98.500 M 44.800 103.200 C 45.733 104.133, 46.267 104.133, 47.200 103.200 C 48.133 102.267, 47.867 102, 46 102 C 44.133 102, 43.867 102.267, 44.800 103.200 M 63.676 114.401 C 63.352 115.245, 63.487 116.183, 63.975 116.484 C 65.282 117.292, 66.391 114.991, 65.246 113.846 C 64.606 113.206, 64.061 113.398, 63.676 114.401 M 56.158 116 C 56.158 117.375, 56.385 117.938, 56.662 117.250 C 56.940 116.563, 56.940 115.438, 56.662 114.750 C 56.385 114.063, 56.158 114.625, 56.158 116 M 59.064 119.939 C 57.900 120.676, 57.867 121.134, 58.887 122.364 C 60.481 124.285, 63 123.383, 63 120.893 C 63 118.862, 61.385 118.470, 59.064 119.939 M 71 124.941 C 71 126.073, 71.450 127, 72 127 C 72.550 127, 73 126.352, 73 125.559 C 73 124.766, 72.550 123.840, 72 123.500 C 71.450 123.160, 71 123.809, 71 124.941 M 121.128 127.692 C 122.060 128.842, 122.099 129.143, 121.250 128.633 C 119.676 127.687, 119.612 129.212, 121.161 130.761 C 124.197 133.797, 121.755 146.560, 117.344 150.702 C 116.055 151.913, 115 153.176, 115 153.507 C 115 153.838, 113.213 157.073, 111.028 160.695 C 108.843 164.318, 107.266 167.621, 107.522 168.036 C 108.019 168.840, 105.065 170.444, 103.666 170.131 C 103.207 170.028, 101.901 171.127, 100.764 172.573 C 99.627 174.018, 96.740 176.040, 94.348 177.065 C 89.941 178.954, 89.024 180.624, 91.200 182.800 C 92.800 184.400, 90.781 184.353, 89.053 182.750 C 87.951 181.728, 87.822 181.829, 88.341 183.302 C 88.719 184.373, 88.576 184.856, 87.989 184.493 C 87.445 184.157, 87 182.596, 87 181.024 C 87 177.652, 85.738 177.044, 81 178.133 C 76.887 179.079, 74 178.411, 74 176.514 C 74 174.897, 70.814 168.640, 69.750 168.167 C 69.338 167.983, 69 166.547, 69 164.976 C 69 163.404, 68.662 161.930, 68.250 161.700 C 66.965 160.984, 60.947 169.849, 62.195 170.620 C 62.831 171.014, 63.031 170.859, 62.660 170.259 C 62.303 169.682, 62.684 168.952, 63.506 168.636 C 64.688 168.183, 65 168.955, 65 172.331 C 65 174.679, 64.460 177.140, 63.800 177.800 C 61.830 179.770, 63.511 179.158, 66 177 C 67.268 175.900, 68.886 175, 69.594 175 C 71.745 175, 72.153 176.807, 70.271 177.997 C 68.961 178.825, 68.836 179.256, 69.792 179.655 C 70.784 180.069, 70.813 180.520, 69.919 181.597 C 69.002 182.703, 69.099 183, 70.378 183 C 72.772 183, 72.350 184.724, 69.500 186.592 C 68.125 187.493, 67 188.872, 67 189.657 C 67 190.442, 66.068 192.077, 64.930 193.292 C 62.920 195.436, 62.820 195.446, 61.473 193.617 C 60.710 192.582, 58.972 191.612, 57.611 191.463 C 55.630 191.245, 54.789 191.920, 53.391 194.846 C 52.431 196.856, 51.739 199.963, 51.854 201.750 C 51.969 203.537, 51.613 205, 51.063 205 C 48.734 205, 51.520 208.073, 55.671 210.083 C 64.641 214.425, 78.628 211.020, 91.035 201.473 C 98.721 195.559, 108 187.024, 108 185.868 C 108 185.356, 107.213 184.658, 106.250 184.317 C 105.287 183.975, 103.750 183.054, 102.833 182.268 C 101.519 181.143, 100.709 181.085, 99.005 181.997 C 97.816 182.633, 96.091 182.860, 95.172 182.500 C 93.759 181.947, 93.966 181.471, 96.500 179.428 C 98.150 178.098, 99.102 177.008, 98.615 177.005 C 98.128 177.002, 98.874 176.100, 100.273 175 C 101.671 173.900, 103.869 172.995, 105.158 172.989 C 106.446 172.983, 109.525 172.373, 112 171.634 C 116.922 170.163, 119.646 170.478, 118.180 172.347 C 117.683 172.981, 116.980 174.738, 116.619 176.250 C 116.019 178.763, 116.209 179, 118.825 179 C 122.308 179, 140.409 166.470, 139.365 164.782 C 138.989 164.173, 139.149 163.974, 139.726 164.331 C 140.703 164.934, 146.068 161.356, 150.500 157.145 C 151.600 156.100, 153.175 155, 154 154.701 C 155.013 154.334, 154.804 154.132, 153.356 154.079 C 152.176 154.036, 149.766 155.350, 148 157 C 146.234 158.650, 144.360 160, 143.835 160 C 143.311 160, 143.157 160.445, 143.493 160.989 C 143.850 161.566, 143.424 161.716, 142.468 161.349 C 141.299 160.901, 141.172 160.512, 142.022 159.987 C 143.582 159.022, 140.612 154.329, 137.896 153.467 C 136.837 153.131, 136.186 152.507, 136.450 152.081 C 136.713 151.655, 135.627 150.059, 134.036 148.534 C 132.256 146.829, 130.692 143.884, 129.971 140.881 C 129.327 138.197, 128.358 136, 127.817 136 C 127.276 136, 127.037 135.438, 127.286 134.750 C 127.535 134.063, 127.010 132.635, 126.120 131.578 C 124.796 130.008, 124.775 129.794, 126 130.409 C 126.825 130.823, 126.237 130, 124.694 128.581 C 121.535 125.675, 118.974 125.037, 121.128 127.692 M 70 132 C 68.781 132.788, 68.910 132.972, 70.691 132.985 C 71.896 132.993, 73.160 132.550, 73.500 132 C 74.287 130.727, 71.970 130.727, 70 132 M 79.500 132.006 C 77.850 132.447, 74.925 133.368, 73 134.054 C 71.075 134.739, 68.263 135.737, 66.750 136.271 C 60.377 138.522, 65.732 140.417, 73.027 138.493 C 75.786 137.765, 79.624 135.782, 81.556 134.085 C 85.141 130.937, 84.798 130.591, 79.500 132.006 M 61 141.500 C 61 142.325, 61.450 143, 62 143 C 62.550 143, 63 142.325, 63 141.500 C 63 140.675, 62.550 140, 62 140 C 61.450 140, 61 140.675, 61 141.500 M 76 142.619 C 71.325 143.963, 66.529 144.894, 65.341 144.688 C 63.851 144.429, 63.342 144.728, 63.698 145.656 C 63.982 146.395, 64.841 147, 65.607 147 C 66.426 147, 67 148.030, 67 149.500 C 67 151.890, 67.971 152.696, 69.277 151.390 C 69.613 151.054, 72.005 150.613, 74.594 150.409 C 77.183 150.205, 80.056 149.354, 80.979 148.519 C 81.902 147.684, 83.377 147, 84.255 147 C 85.973 147, 86.862 144.582, 86.185 141.750 C 85.687 139.667, 86.508 139.597, 76 142.619 M 148.083 144.303 C 148.313 144.469, 149.850 145.396, 151.500 146.362 L 154.500 148.119 152.139 146.059 C 150.841 144.927, 149.303 144, 148.723 144 C 148.142 144, 147.854 144.136, 148.083 144.303 M 115.822 156.500 C 115.177 159.496, 115.489 160.844, 116.575 159.758 C 116.892 159.442, 116.997 157.904, 116.809 156.341 L 116.467 153.500 115.822 156.500 M 181 166.913 L 184.500 170.045 181.500 169.917 C 176.502 169.702, 175 169.953, 175 171 C 175 171.550, 176.553 172, 178.450 172 C 180.348 172, 182.260 172.622, 182.700 173.383 C 183.363 174.529, 184.096 174.444, 186.984 172.883 C 189.650 171.443, 189.985 171, 188.409 171 C 187.276 171, 185.258 169.834, 183.924 168.408 C 182.591 166.983, 180.600 165.358, 179.500 164.798 C 178.400 164.239, 179.075 165.190, 181 166.913 M 159.405 167.250 L 157.500 169.500 159.750 167.595 C 161.864 165.805, 162.455 165, 161.655 165 C 161.465 165, 160.453 166.012, 159.405 167.250 M 125.441 172.552 C 123.576 174.043, 123.597 174.078, 126 173.439 C 129.085 172.620, 131.005 171, 128.891 171 C 128.061 171, 126.509 171.698, 125.441 172.552 M 60.345 173.543 C 60.019 174.392, 59.976 175.310, 60.249 175.583 C 60.523 175.856, 60.986 175.161, 61.279 174.040 C 61.903 171.657, 61.210 171.289, 60.345 173.543 M 191.750 172.662 C 192.438 172.940, 193.563 172.940, 194.250 172.662 C 194.938 172.385, 194.375 172.158, 193 172.158 C 191.625 172.158, 191.063 172.385, 191.750 172.662 M 183.563 176.529 C 181.613 178.336, 180.223 178.843, 178.443 178.396 C 177.040 178.044, 176 178.220, 176 178.810 C 176 179.375, 174.313 180.862, 172.250 182.116 C 170.188 183.369, 168.275 184.686, 168 185.043 C 167.012 186.326, 161.410 187.340, 156.750 187.081 C 153.004 186.872, 152 187.145, 152 188.373 C 152 189.229, 151.130 190.395, 150.066 190.965 C 147.894 192.127, 140.876 192.381, 142.613 191.235 C 144.562 189.948, 143.492 185.814, 140.851 184.430 C 138.444 183.169, 138.211 183.329, 134.699 188.662 C 132.692 191.710, 131.784 193.596, 132.681 192.852 C 134.160 191.627, 134.247 191.876, 133.606 195.500 C 132.882 199.592, 129.588 203.481, 127.789 202.369 C 127.167 201.985, 127.042 202.557, 127.460 203.875 C 127.893 205.237, 127.703 206, 126.933 206 C 125.480 206, 126.164 217.961, 127.862 222.250 L 128.950 225 151.225 224.937 L 173.500 224.874 167.500 222.898 C 164.200 221.812, 160.756 220.807, 159.848 220.665 C 158.939 220.523, 157.486 219.818, 156.619 219.098 C 155.341 218.038, 155.265 217.383, 156.215 215.645 C 156.860 214.465, 157.265 212.252, 157.116 210.728 L 156.845 207.955 171.360 208.058 C 183.461 208.143, 185.785 208.396, 185.331 209.580 C 185.031 210.361, 185.298 211, 185.924 211 C 186.551 211, 187.310 210.356, 187.612 209.569 C 188.025 208.492, 189.875 208.182, 195.079 208.319 C 198.884 208.418, 201.998 208.838, 201.999 209.250 C 201.999 209.662, 202.750 210, 203.667 210 C 204.583 210, 205.055 210.278, 204.715 210.618 C 204.375 210.959, 201.047 211.436, 197.320 211.680 C 193.593 211.924, 190.385 212.282, 190.191 212.476 C 189.997 212.670, 190.324 213.738, 190.919 214.849 C 191.514 215.960, 192 218.698, 192 220.934 L 192 225 201.250 224.985 C 206.338 224.976, 209.937 224.612, 209.249 224.175 C 208.284 223.562, 208.477 222.389, 210.094 219.041 C 211.457 216.221, 212.006 213.617, 211.663 211.601 C 211.373 209.896, 211.368 209.065, 211.653 209.756 C 212.540 211.908, 214.040 210.006, 213.416 207.521 C 212.987 205.813, 213.361 204.877, 214.775 204.120 C 217.488 202.668, 218.187 196.993, 216.395 190.959 C 215.302 187.276, 213.318 184.315, 208.874 179.729 C 205.555 176.303, 203.095 174.012, 203.408 174.637 C 204.936 177.685, 198.486 178.463, 192.500 175.952 C 187.525 173.866, 186.355 173.942, 183.563 176.529 M 142.323 177.250 C 139.157 180.767, 138.690 182, 140.524 182 C 141.428 182, 141.961 181.438, 141.711 180.750 C 141.460 180.063, 142.176 178.488, 143.302 177.250 C 144.427 176.012, 145.124 175, 144.849 175 C 144.574 175, 143.437 176.012, 142.323 177.250 M 50.872 179.750 C 49.629 181.336, 49.664 181.371, 51.250 180.128 C 52.916 178.821, 53.445 178, 52.622 178 C 52.415 178, 51.627 178.787, 50.872 179.750 M 137.638 185.500 C 137.322 186.325, 137.499 187, 138.031 187 C 138.564 187, 139 186.325, 139 185.500 C 139 184.675, 138.823 184, 138.607 184 C 138.391 184, 137.955 184.675, 137.638 185.500 M 34.980 192.750 C 36.258 195.387, 39 195.762, 39 193.300 C 39 192.006, 38.722 191.878, 37.835 192.765 C 36.948 193.652, 36.338 193.521, 35.280 192.215 C 34.041 190.687, 34.009 190.746, 34.980 192.750 M 77.594 192.896 C 75.272 195.462, 75.470 197.790, 77.829 195.655 C 78.835 194.745, 80.185 194, 80.829 194 C 82.464 194, 82.295 192.327, 80.594 191.674 C 79.821 191.378, 78.471 191.927, 77.594 192.896 M 30.935 195.121 C 30.138 196.611, 30.127 197.039, 30.900 196.562 C 31.564 196.151, 32 196.698, 32 197.941 C 32 199.073, 31.550 200, 31 200 C 30.450 200, 29.993 199.438, 29.985 198.750 C 29.954 196.252, 27.967 200.544, 25.407 208.641 C 23.991 213.118, 23.034 217.843, 23.280 219.141 C 23.689 221.299, 23.739 221.265, 23.864 218.750 C 23.939 217.238, 24.408 216, 24.906 216 C 25.405 216, 25.603 215.199, 25.347 214.220 C 25.091 213.242, 25.392 211.104, 26.016 209.470 C 27.126 206.561, 27.182 206.541, 28.709 208.500 C 30.180 210.386, 30.231 210.390, 29.601 208.580 C 29.205 207.443, 29.456 206.334, 30.216 205.860 C 31.248 205.218, 31.255 204.665, 30.250 203.044 C 28.510 200.237, 28.683 199.208, 30.500 201.559 C 31.985 203.480, 32.015 203.480, 33.500 201.559 C 35.473 199.006, 35.415 196, 33.393 196 C 32.375 196, 31.997 195.450, 32.362 194.500 C 33.221 192.261, 32.237 192.690, 30.935 195.121 M 49.232 199 C 49.232 200.925, 49.438 201.713, 49.689 200.750 C 49.941 199.787, 49.941 198.213, 49.689 197.250 C 49.438 196.287, 49.232 197.075, 49.232 199 M 27.079 210.583 C 27.127 211.748, 27.364 211.985, 27.683 211.188 C 27.972 210.466, 27.936 209.603, 27.604 209.271 C 27.272 208.939, 27.036 209.529, 27.079 210.583" stroke="none" fill="#be8173" fill-rule="evenodd"/><path d="M 156 155.969 C 156 156.501, 156.675 156.678, 157.500 156.362 C 158.325 156.045, 159 155.609, 159 155.393 C 159 155.177, 158.325 155, 157.500 155 C 156.675 155, 156 155.436, 156 155.969 M 158.957 158.869 C 156.302 161.616, 152.468 164.794, 149.751 166.500 C 148.875 167.050, 145.760 169.503, 142.829 171.952 C 139.898 174.400, 137.834 176.017, 138.241 175.544 C 139.243 174.382, 137.042 171.856, 135.732 172.666 C 135.115 173.047, 134.992 172.822, 135.430 172.114 C 135.848 171.437, 137.108 171.182, 138.334 171.525 C 139.946 171.976, 140.136 171.880, 139.075 171.148 C 137.921 170.352, 138.298 169.627, 141.059 167.333 C 146.872 162.502, 150.340 159, 149.311 159 C 148.195 159, 131.894 171.629, 130.765 173.368 C 130.354 174.002, 130.010 174.060, 129.984 173.500 C 129.958 172.950, 129.388 173.203, 128.718 174.062 C 128.048 174.921, 126.684 175.930, 125.687 176.305 C 124.689 176.679, 124.150 177.434, 124.489 177.981 C 124.856 178.577, 124.414 178.712, 123.388 178.319 C 122.356 177.923, 121.919 178.060, 122.291 178.662 C 122.961 179.746, 115.625 187, 113.860 187 C 113.270 187, 111.930 188.090, 110.882 189.423 C 109.833 190.756, 107.631 192.142, 105.988 192.503 C 104.345 192.864, 103 193.633, 103 194.212 C 103 195.556, 99.063 199, 97.527 199 C 96.886 199, 95.425 200.012, 94.281 201.250 C 89.541 206.377, 86.415 208.318, 82.500 208.564 C 80.300 208.702, 76.700 209.512, 74.500 210.364 C 62.411 215.044, 49 209.800, 49 200.394 C 49 198.947, 48.569 198.148, 47.984 198.510 C 47.425 198.856, 47.230 199.563, 47.550 200.082 C 48.456 201.547, 43.124 212, 41.471 212 C 40.662 212, 40 212.689, 40 213.531 C 40 214.374, 39.212 215.354, 38.250 215.709 C 35.207 216.833, 32.035 220.416, 32.017 222.750 L 32 225 80.402 225 L 128.804 225 127.328 220.250 C 126.376 217.186, 126.022 213.193, 126.330 209 C 126.782 202.843, 126.734 202.658, 125.414 205.500 C 124.647 207.150, 124.207 207.600, 124.435 206.500 C 124.664 205.400, 125.164 202.925, 125.547 201 C 126.485 196.289, 129.414 190.587, 134.160 184.231 C 136.324 181.332, 137.778 178.450, 137.393 177.826 C 137 177.192, 137.133 176.964, 137.692 177.310 C 138.243 177.650, 140 176.565, 141.597 174.897 C 145.229 171.104, 153.923 165.330, 156.250 165.165 C 157.213 165.097, 159.117 164.976, 160.482 164.896 C 161.847 164.816, 162.723 164.361, 162.430 163.886 C 162.136 163.412, 162.594 163.291, 163.448 163.618 C 164.302 163.946, 165 163.730, 165 163.138 C 165 162.547, 165.578 162.285, 166.285 162.556 C 167.066 162.856, 167.635 162.196, 167.734 160.876 C 167.858 159.238, 167.615 158.985, 166.749 159.851 C 164.906 161.694, 164.098 161.189, 164.586 158.500 C 165.195 155.139, 162.384 155.323, 158.957 158.869 M 171.500 158.989 L 168.500 159.622 172.250 160.110 C 174.313 160.379, 176 160.265, 176 159.858 C 176 158.597, 174.622 158.331, 171.500 158.989 M 170.750 161.662 C 171.438 161.940, 172.563 161.940, 173.250 161.662 C 173.938 161.385, 173.375 161.158, 172 161.158 C 170.625 161.158, 170.063 161.385, 170.750 161.662 M 145.507 173.989 C 145.157 174.555, 145.558 174.723, 146.448 174.382 C 148.180 173.717, 148.497 173, 147.059 173 C 146.541 173, 145.843 173.445, 145.507 173.989 M 60.500 178.500 C 60.500 179.770, 60.837 180.600, 61.250 180.345 C 61.663 180.091, 62 179.260, 62 178.500 C 62 177.740, 61.663 176.909, 61.250 176.655 C 60.837 176.400, 60.500 177.230, 60.500 178.500 M 54 185.059 C 54 185.641, 54.450 185.840, 55 185.500 C 55.550 185.160, 56 184.684, 56 184.441 C 56 184.198, 55.550 184, 55 184 C 54.450 184, 54 184.477, 54 185.059 M 78.813 210.683 C 79.534 210.972, 80.397 210.936, 80.729 210.604 C 81.061 210.272, 80.471 210.036, 79.417 210.079 C 78.252 210.127, 78.015 210.364, 78.813 210.683" stroke="none" fill="#4370d4" fill-rule="evenodd"/><path d="M 78 18.941 C 78 19.459, 78.445 20.157, 78.989 20.493 C 79.555 20.843, 79.723 20.442, 79.382 19.552 C 78.717 17.820, 78 17.503, 78 18.941 M 80 22.378 C 80 22.585, 80.787 23.373, 81.750 24.128 C 83.336 25.371, 83.371 25.336, 82.128 23.750 C 80.821 22.084, 80 21.555, 80 22.378 M 23.872 25.750 C 22.629 27.336, 22.664 27.371, 24.250 26.128 C 25.916 24.821, 26.445 24, 25.622 24 C 25.415 24, 24.627 24.788, 23.872 25.750 M 43.813 24.683 C 44.534 24.972, 45.397 24.936, 45.729 24.604 C 46.061 24.272, 45.471 24.036, 44.417 24.079 C 43.252 24.127, 43.015 24.364, 43.813 24.683 M 85.320 27.602 C 86.188 29.307, 88.085 31.481, 89.536 32.431 C 90.986 33.382, 91.920 34.413, 91.611 34.722 C 91.302 35.032, 90.475 34.818, 89.774 34.247 C 86.272 31.395, 78.567 27.800, 78.215 28.855 C 77.745 30.264, 73.350 30.375, 72.500 29 C 71.404 27.227, 66.992 27.933, 63.244 30.480 C 60.603 32.275, 59.389 32.630, 58.854 31.764 C 58.447 31.106, 58.589 29.995, 59.170 29.295 C 59.938 28.369, 59.800 27.860, 58.661 27.423 C 56.792 26.706, 54.738 27.767, 55.525 29.041 C 55.832 29.537, 55.333 31.089, 54.415 32.489 C 53.093 34.507, 52.457 34.795, 51.351 33.876 C 50.583 33.239, 50.200 31.945, 50.500 31 C 50.804 30.042, 50.300 28.667, 49.361 27.891 C 47.839 26.634, 47.729 26.769, 48.210 29.304 L 48.743 32.107 46.557 30.054 C 44.226 27.863, 40 27.259, 40 29.117 C 40 29.744, 39.116 30.002, 37.983 29.706 C 36.528 29.325, 35.274 30.085, 33.483 32.434 C 30.466 36.389, 30.409 37, 33.059 37 C 35.998 37, 34.542 38.722, 30.933 39.515 C 28.815 39.980, 27.989 40.688, 28.220 41.842 C 28.451 43, 26.912 44.301, 23.109 46.160 C 17.672 48.817, 15.102 51.774, 15.035 55.450 C 15.007 57.013, 14.752 57.151, 13.750 56.145 C 12.749 55.141, 12.285 56.248, 11.422 61.695 C 10.441 67.893, 10.246 68.277, 9.236 66 C 8.626 64.625, 8.098 64.146, 8.063 64.936 C 8.029 65.725, 8.951 67.383, 10.113 68.620 C 11.730 70.342, 12.515 70.598, 13.461 69.714 C 14.141 69.079, 14.470 67.688, 14.191 66.623 C 13.831 65.245, 14.049 64.912, 14.950 65.469 C 15.881 66.045, 16.037 65.690, 15.539 64.122 C 15.108 62.765, 15.432 61.425, 16.432 60.426 C 17.294 59.563, 18 57.764, 18 56.429 C 18 54.412, 18.495 54, 20.917 54 C 22.521 54, 24.060 53.438, 24.338 52.750 C 24.615 52.063, 24.878 53.203, 24.921 55.285 C 24.964 57.367, 24.343 60.073, 23.540 61.299 C 22.485 62.908, 22.138 66.027, 22.290 72.514 C 22.465 80.008, 22.895 82.135, 24.877 85.324 C 26.185 87.427, 27.878 91.027, 28.640 93.324 L 30.026 97.500 29.439 93.500 C 29.117 91.300, 28.211 88.193, 27.426 86.596 C 26.642 84.999, 26 83.156, 26 82.500 C 26 81.844, 25.255 79.813, 24.344 77.987 C 22.947 75.187, 22.883 74.184, 23.939 71.583 C 24.628 69.888, 25.598 66.518, 26.094 64.096 C 27.423 57.617, 31.217 53.149, 36.048 52.376 C 38.221 52.029, 40 51.402, 40 50.983 C 40 50.189, 46.677 48.533, 48.617 48.846 C 49.231 48.945, 50.298 48.345, 50.989 47.513 C 51.680 46.681, 52.894 46, 53.687 46 C 55.016 46, 61.205 43.676, 68.479 40.445 C 70.117 39.718, 71.692 39.432, 71.979 39.811 C 72.265 40.190, 73.400 40.989, 74.500 41.588 C 75.600 42.186, 77.757 45.111, 79.293 48.088 C 80.874 51.150, 82.719 53.440, 83.543 53.361 C 84.344 53.285, 85 53.849, 85 54.615 C 85 55.381, 85.900 57.686, 87 59.739 C 88.100 61.791, 89 64.228, 89 65.153 C 89 67.653, 87.900 70.056, 87.009 69.505 C 86.578 69.239, 85.613 69.765, 84.863 70.674 C 83.799 71.964, 83.774 72.417, 84.750 72.746 C 85.438 72.977, 86 73.629, 86 74.195 C 86 74.834, 84.634 74.966, 82.384 74.544 C 79.353 73.976, 77.396 74.552, 70.286 78.107 C 65.621 80.440, 61.590 83.057, 61.329 83.924 C 61.068 84.791, 60.410 86.325, 59.867 87.333 C 59.153 88.658, 59.318 89.837, 60.463 91.583 C 62.927 95.345, 65.996 94.606, 69.893 89.314 C 73.245 84.761, 72.623 84.386, 68.250 88.323 C 64.810 91.420, 65.466 88.379, 69.154 84.132 C 72.890 79.829, 75.258 78.164, 74.377 80.459 C 74.052 81.307, 73.329 82, 72.771 82 C 72.185 82, 72.282 82.635, 73 83.500 C 73.685 84.325, 74.977 84.948, 75.872 84.884 C 77.233 84.787, 77.211 84.693, 75.738 84.308 C 74.769 84.055, 74.233 83.433, 74.547 82.924 C 75.321 81.672, 84 81.742, 84 83 C 84 83.550, 82.965 84, 81.700 84 C 79.155 84, 77 85.697, 77 87.700 C 77 89.500, 79.933 89.339, 80.638 87.500 C 81.392 85.536, 83 85.568, 83 87.547 C 83 88.397, 81.653 89.860, 80.006 90.797 C 76.872 92.580, 76.106 94, 78.277 94 C 80.715 94, 83.845 90.982, 84.500 87.999 C 84.863 86.349, 85.573 84.944, 86.079 84.875 C 87.092 84.737, 88.590 84.383, 89.750 84.007 C 90.162 83.873, 90.838 83.816, 91.250 83.882 C 91.662 83.947, 92 83.298, 92 82.441 C 92 81.537, 91.525 81.175, 90.870 81.580 C 90.197 81.996, 89.919 81.743, 90.183 80.952 C 91.091 78.227, 92.703 79.071, 93.980 82.940 C 94.705 85.136, 95.630 86.729, 96.035 86.479 C 96.440 86.228, 96.999 87.213, 97.277 88.666 C 97.639 90.561, 97.118 91.973, 95.436 93.655 C 94.146 94.945, 92.651 96, 92.113 96 C 91.575 96, 90.849 96.900, 90.500 98 C 90.151 99.100, 89.446 100, 88.933 100 C 88.420 100, 88 100.675, 88 101.500 C 88 102.325, 87.625 103, 87.167 103 C 85.533 103, 85.495 113.570, 87.125 114.577 C 87.606 114.875, 88 116.179, 88 117.476 C 88 118.772, 88.489 119.996, 89.086 120.195 C 89.684 120.395, 87.899 120.656, 85.121 120.777 C 80.901 120.961, 79.886 120.655, 78.957 118.920 C 78.346 117.778, 78.102 116.175, 78.416 115.359 C 79.746 111.893, 74.102 106, 69.453 106 C 67.674 106, 67.528 104.343, 69.250 103.700 C 70.089 103.386, 69.911 102.990, 68.707 102.493 C 66.183 101.451, 65.855 102.150, 66.777 106.591 C 67.328 109.242, 68.370 110.876, 70.043 111.712 C 71.532 112.457, 72.631 112.559, 72.833 111.971 C 73.354 110.454, 74.667 110.833, 74.667 112.500 C 74.667 113.934, 73.109 114.462, 70.114 114.043 C 69.236 113.921, 68.949 114.425, 69.330 115.418 C 69.944 117.017, 66.562 120.986, 64.561 121.015 C 63.847 121.026, 63.860 121.271, 64.600 121.765 C 66.088 122.759, 68 126.509, 68 128.434 C 68 131.211, 65.969 130.097, 65.346 126.979 C 64.467 122.587, 63.662 122.610, 60.411 127.121 C 58.810 129.342, 56.606 132.044, 55.513 133.125 C 53.957 134.664, 53.811 135.265, 54.837 135.899 C 55.886 136.548, 55.819 137.038, 54.502 138.355 C 52.442 140.415, 52.519 140.437, 52.403 137.750 C 52.349 136.512, 51.855 132.910, 51.303 129.745 C 50.177 123.275, 47.637 119.663, 44.839 120.551 C 43.523 120.969, 43.168 120.725, 43.570 119.679 C 43.908 118.796, 42.959 117.395, 41.149 116.106 C 39.041 114.605, 38.051 114.347, 37.759 115.222 C 36.775 118.175, 31.205 106.125, 30.954 100.500 L 30.820 97.500 29.879 100.759 C 29.038 103.672, 29.473 104.987, 33.969 113.138 C 36.736 118.153, 39 122.776, 39 123.410 C 39 125.749, 46.166 136.016, 47.332 135.348 C 47.974 134.980, 48.175 135.039, 47.777 135.479 C 46.901 136.448, 55.685 146.231, 61.496 150.758 C 65.673 154.012, 68.504 158.376, 67.496 160.006 C 67.205 160.477, 67.425 161.144, 67.984 161.490 C 68.543 161.835, 69 163.404, 69 164.976 C 69 166.547, 69.338 167.983, 69.750 168.167 C 70.814 168.640, 74 174.897, 74 176.514 C 74 178.411, 76.887 179.079, 81 178.133 C 85.738 177.044, 87 177.652, 87 181.024 C 87 182.596, 87.445 184.157, 87.989 184.493 C 88.576 184.856, 88.719 184.373, 88.341 183.302 C 87.822 181.829, 87.951 181.728, 89.053 182.750 C 90.781 184.353, 92.800 184.400, 91.200 182.800 C 89.024 180.624, 89.941 178.954, 94.348 177.065 C 96.740 176.040, 99.627 174.018, 100.764 172.573 C 101.901 171.127, 103.207 170.028, 103.666 170.131 C 105.065 170.444, 108.019 168.840, 107.522 168.036 C 107.266 167.621, 108.843 164.318, 111.028 160.695 C 113.213 157.073, 115 153.838, 115 153.507 C 115 153.176, 116.055 151.913, 117.344 150.702 C 121.755 146.560, 124.197 133.797, 121.161 130.761 C 119.612 129.212, 119.676 127.687, 121.250 128.633 C 121.977 129.070, 121.873 128.598, 121 127.505 C 119.620 125.776, 119.660 125.682, 121.500 126.326 C 123.422 126.999, 123.419 126.958, 121.411 125.263 C 117.110 121.632, 114.781 117.090, 115.164 113.076 C 115.406 110.539, 115.152 109.388, 114.412 109.672 C 113.740 109.930, 112.785 107.700, 112.016 104.075 C 111.012 99.343, 110.995 97.426, 111.939 95.148 C 113.269 91.937, 111.814 77.414, 109.979 75.579 C 108.166 73.766, 107.056 76.313, 107.944 80.251 C 108.703 83.617, 107.742 85.726, 106.773 82.820 C 106.557 82.171, 105.677 81.910, 104.818 82.240 C 103.267 82.835, 103.206 84.698, 104.379 95.750 C 104.569 97.538, 104.389 99, 103.979 99 C 103.011 99, 102.031 95.290, 102.014 91.558 C 102.006 89.929, 100.193 85.574, 97.949 81.797 C 93.646 74.555, 91.029 67.331, 91.011 62.652 C 90.993 58.047, 83.416 43.419, 79.501 40.433 C 76.513 38.154, 75.299 37.862, 70.035 38.159 C 66.714 38.347, 63.997 38.325, 63.998 38.110 C 63.999 37.896, 64.787 37.075, 65.750 36.286 C 67.373 34.956, 67.336 34.887, 65.250 35.332 C 63.628 35.679, 63.001 35.350, 63.002 34.156 C 63.003 32.966, 64.028 32.427, 66.646 32.239 C 70.445 31.967, 81.914 34.352, 85.683 36.197 C 86.883 36.785, 88.594 36.986, 89.484 36.644 C 90.375 36.303, 90.890 36.369, 90.629 36.791 C 90.368 37.213, 91.676 38.035, 93.536 38.617 C 97.743 39.934, 97.473 39.401, 89.621 30.880 C 85.420 26.321, 84.192 25.385, 85.320 27.602 M 37.500 33 C 37.160 33.550, 37.557 34, 38.382 34 C 39.207 34, 40.160 33.550, 40.500 33 C 40.840 32.450, 40.443 32, 39.618 32 C 38.793 32, 37.840 32.450, 37.500 33 M 32.750 40.045 C 30.576 41.355, 30.545 42.402, 32.619 44.476 C 34.589 46.447, 33.655 47.789, 31.537 46.031 C 29.305 44.178, 27.474 45.357, 27.211 48.818 C 26.900 52.894, 28.576 53.690, 32.055 51.118 C 33.630 49.953, 35.194 49, 35.531 49 C 35.867 49, 36.818 48.325, 37.643 47.500 C 38.468 46.675, 40.019 46, 41.090 46 C 42.708 46, 42.926 45.535, 42.378 43.250 C 42.016 41.737, 41.669 40.428, 41.609 40.339 C 41.014 39.463, 34.096 39.233, 32.750 40.045 M 81 49 C 81 49.550, 81.450 50, 82 50 C 82.550 50, 83 49.550, 83 49 C 83 48.450, 82.550 48, 82 48 C 81.450 48, 81 48.450, 81 49 M 7.195 58.500 C 7.215 60.150, 7.439 60.704, 7.693 59.731 C 7.947 58.758, 7.930 57.408, 7.656 56.731 C 7.382 56.054, 7.175 56.850, 7.195 58.500 M 81 56.941 C 81 58.617, 82.774 59.033, 83.364 57.494 C 83.712 56.587, 83.361 56, 82.469 56 C 81.661 56, 81 56.423, 81 56.941 M 108.333 61 C 108.333 63.109, 108.819 64, 109.967 64 C 110.865 64, 112.140 64.540, 112.800 65.200 C 113.733 66.133, 114 65.950, 114 64.374 C 114 62.604, 110.282 58, 108.852 58 C 108.567 58, 108.333 59.350, 108.333 61 M 79 64.833 C 79 66.242, 80.126 66.889, 81.598 66.324 C 83.685 65.523, 83.293 64, 81 64 C 79.900 64, 79 64.375, 79 64.833 M 114 69.382 C 114 70.207, 114.450 71.160, 115 71.500 C 115.550 71.840, 116 71.443, 116 70.618 C 116 69.793, 115.550 68.840, 115 68.500 C 114.450 68.160, 114 68.557, 114 69.382 M 14.709 80.183 C 13.977 86.037, 15.065 91, 17.080 91 C 18.220 91, 18.059 88.639, 16.259 79 L 15.419 74.500 14.709 80.183 M 109.691 81.707 C 110.055 84.438, 109.684 87.331, 108.634 89.957 C 106.991 94.062, 107.691 95.166, 110.288 92.569 C 111.796 91.061, 111.564 82.007, 109.941 79 C 109.483 78.152, 109.374 79.329, 109.691 81.707 M 115.924 78.500 C 115.849 79.050, 115.855 80.850, 115.937 82.500 C 116.054 84.837, 115.859 85.168, 115.059 84 C 114.239 82.805, 114.028 83.059, 114.015 85.250 C 114.007 86.763, 114.384 88, 114.853 88 C 115.322 88, 115.496 90.192, 115.238 92.870 C 114.976 95.600, 115.214 98.014, 115.780 98.364 C 117.253 99.275, 118.501 81.697, 117.130 79.338 C 116.542 78.327, 115.999 77.950, 115.924 78.500 M 67.667 81.667 C 67.300 82.033, 67 82.798, 67 83.367 C 67 83.993, 67.466 83.934, 68.183 83.217 C 68.834 82.566, 69.134 81.801, 68.850 81.517 C 68.566 81.233, 68.033 81.300, 67.667 81.667 M 35.046 89.407 C 32.027 91.168, 31.819 91.617, 32.314 95.301 C 32.608 97.494, 33.445 99.666, 34.174 100.129 C 36.485 101.594, 38.748 101.071, 39.305 98.943 C 39.750 97.240, 39.594 97.092, 38.397 98.085 C 37.602 98.745, 36.625 98.957, 36.226 98.556 C 35.827 98.156, 36.586 96.947, 37.914 95.871 C 39.615 94.492, 40.539 94.253, 41.039 95.063 C 41.507 95.820, 41.966 95.864, 42.381 95.192 C 42.728 94.630, 42.447 93.961, 41.756 93.705 C 40.838 93.365, 40.986 92.736, 42.304 91.370 C 44.066 89.544, 44.091 89.545, 43.390 91.400 C 42.768 93.044, 43.018 93.212, 45.256 92.651 C 46.678 92.294, 48.565 92.280, 49.450 92.619 C 50.909 93.179, 50.900 93.353, 49.358 94.480 C 48.423 95.164, 46.722 95.551, 45.579 95.341 C 43.555 94.969, 43.553 94.983, 45.500 95.854 C 46.600 96.347, 47.837 96.554, 48.250 96.316 C 48.663 96.077, 49 96.389, 49 97.008 C 49 97.663, 48.198 97.880, 47.084 97.527 C 46.030 97.192, 44.879 97.387, 44.525 97.959 C 44.145 98.575, 44.908 99, 46.391 99 C 47.771 99, 49.260 98.373, 49.700 97.608 C 50.140 96.842, 52.188 95.515, 54.250 94.659 C 58.561 92.869, 58.925 91.793, 55.750 90.232 C 49.009 86.918, 39.930 86.556, 35.046 89.407 M 44.800 103.200 C 45.733 104.133, 46.267 104.133, 47.200 103.200 C 48.133 102.267, 47.867 102, 46 102 C 44.133 102, 43.867 102.267, 44.800 103.200 M 56.158 116 C 56.158 117.375, 56.385 117.938, 56.662 117.250 C 56.940 116.563, 56.940 115.438, 56.662 114.750 C 56.385 114.063, 56.158 114.625, 56.158 116 M 70.096 119.030 C 67.992 121.648, 67.392 123, 68.334 123 C 70.099 123, 75.336 116.326, 74.148 115.591 C 73.674 115.299, 71.851 116.846, 70.096 119.030 M 59.064 119.939 C 57.900 120.676, 57.867 121.134, 58.887 122.364 C 60.481 124.285, 63 123.383, 63 120.893 C 63 118.862, 61.385 118.470, 59.064 119.939 M 60 121.059 C 60 121.641, 60.450 121.840, 61 121.500 C 61.550 121.160, 62 120.684, 62 120.441 C 62 120.198, 61.550 120, 61 120 C 60.450 120, 60 120.477, 60 121.059 M 108 122.178 C 108 123.045, 107.381 124.269, 106.625 124.896 C 105.868 125.524, 104.978 127.736, 104.646 129.811 C 104.270 132.161, 102.902 134.677, 101.021 136.480 C 99.360 138.072, 98 139.895, 98 140.532 C 98 141.169, 97.100 142.505, 96 143.500 C 94.900 144.495, 94 145.899, 94 146.620 C 94 147.340, 93.135 148.393, 92.078 148.958 C 91.021 149.524, 89.558 150.576, 88.828 151.296 C 87.114 152.985, 80.561 155.538, 75.653 156.429 C 72.136 157.067, 71.934 157.272, 73.299 158.814 C 74.121 159.741, 74.957 161.400, 75.157 162.500 C 75.401 163.840, 76.717 164.796, 79.144 165.398 C 82.520 166.235, 83.180 165.978, 88.808 161.648 C 92.130 159.092, 95.342 157, 95.945 157 C 96.549 157, 97.555 155.875, 98.182 154.500 C 98.808 153.125, 99.659 152, 100.073 152 C 100.486 152, 101.140 150.088, 101.525 147.750 C 101.911 145.412, 102.575 143.050, 103 142.500 C 103.426 141.950, 105.214 137.286, 106.972 132.135 C 109.270 125.404, 109.864 122.464, 109.085 121.685 C 108.305 120.905, 108 121.044, 108 122.178 M 71 124.941 C 71 126.073, 71.450 127, 72 127 C 72.550 127, 73 126.352, 73 125.559 C 73 124.766, 72.550 123.840, 72 123.500 C 71.450 123.160, 71 123.809, 71 124.941 M 83.500 129 C 83.160 129.550, 83.332 130, 83.882 130 C 84.432 130, 85.160 129.550, 85.500 129 C 85.840 128.450, 85.668 128, 85.118 128 C 84.568 128, 83.840 128.450, 83.500 129 M 125 128.378 C 125 128.585, 125.787 129.373, 126.750 130.128 C 128.336 131.371, 128.371 131.336, 127.128 129.750 C 125.821 128.084, 125 127.555, 125 128.378 M 80 130.059 C 80 130.641, 80.450 130.840, 81 130.500 C 81.550 130.160, 82 129.684, 82 129.441 C 82 129.198, 81.550 129, 81 129 C 80.450 129, 80 129.477, 80 130.059 M 70 132 C 68.781 132.788, 68.910 132.972, 70.691 132.985 C 71.896 132.993, 73.160 132.550, 73.500 132 C 74.287 130.727, 71.970 130.727, 70 132 M 76.126 132.077 C 77.149 132.711, 72.743 135, 70.500 135 C 68.589 135, 64 137.149, 64 138.044 C 64 141.239, 76.511 138.515, 81.350 134.265 L 84.658 131.361 79.927 131.431 C 77.325 131.469, 75.614 131.759, 76.126 132.077 M 133 134.313 C 133 134.485, 134.463 135.948, 136.250 137.563 L 139.500 140.500 136.563 137.250 C 133.825 134.221, 133 133.540, 133 134.313 M 82.677 136.400 C 82.381 137.171, 80.195 138.114, 77.820 138.496 C 73.566 139.182, 68.372 141.706, 69.303 142.636 C 69.973 143.306, 82.235 140.040, 83.750 138.788 C 85.188 137.600, 85.433 135, 84.107 135 C 83.616 135, 82.972 135.630, 82.677 136.400 M 61 141.500 C 61 142.325, 61.450 143, 62 143 C 62.550 143, 63 142.325, 63 141.500 C 63 140.675, 62.550 140, 62 140 C 61.450 140, 61 140.675, 61 141.500 M 76 142.619 C 71.325 143.963, 66.529 144.894, 65.341 144.688 C 63.851 144.429, 63.342 144.728, 63.698 145.656 C 63.982 146.395, 64.841 147, 65.607 147 C 66.426 147, 67 148.030, 67 149.500 C 67 151.890, 67.971 152.696, 69.277 151.390 C 69.613 151.054, 72.005 150.613, 74.594 150.409 C 77.183 150.205, 80.056 149.354, 80.979 148.519 C 81.902 147.684, 83.377 147, 84.255 147 C 85.973 147, 86.862 144.582, 86.185 141.750 C 85.687 139.667, 86.508 139.597, 76 142.619 M 115.822 156.500 C 115.177 159.496, 115.489 160.844, 116.575 159.758 C 116.892 159.442, 116.997 157.904, 116.809 156.341 L 116.467 153.500 115.822 156.500 M 167.500 161 C 167.160 161.550, 167.584 162, 168.441 162 C 169.298 162, 170 161.550, 170 161 C 170 160.450, 169.577 160, 169.059 160 C 168.541 160, 167.840 160.450, 167.500 161 M 174.079 160.724 C 174.036 161.398, 175.377 162.661, 177.060 163.531 L 180.121 165.114 178.406 162.497 C 177.256 160.742, 176.453 160.267, 175.967 161.053 C 175.434 161.916, 175.098 161.865, 174.700 160.863 C 174.333 159.941, 174.132 159.896, 174.079 160.724 M 158.500 164.987 C 157.400 165.392, 156.010 165.540, 155.410 165.316 C 154.811 165.092, 153.686 165.675, 152.910 166.611 C 151.609 168.182, 151.810 168.257, 155.500 167.579 C 159.301 166.881, 161.873 165.491, 160.933 164.642 C 160.695 164.427, 159.600 164.582, 158.500 164.987 M 64.091 168.250 C 63.949 168.662, 63.809 170.688, 63.780 172.750 C 63.751 174.813, 63.251 177.175, 62.668 178 C 61.855 179.152, 62.018 179.129, 63.370 177.899 C 64.683 176.705, 65.031 175.182, 64.740 171.899 C 64.525 169.480, 64.233 167.838, 64.091 168.250 M 149.333 169.500 C 149.333 170.220, 149.933 170.579, 150.667 170.298 C 151.400 170.016, 152 169.657, 152 169.500 C 152 169.343, 151.400 168.984, 150.667 168.702 C 149.933 168.421, 149.333 168.780, 149.333 169.500 M 112 171.618 C 109.525 172.362, 106.446 172.976, 105.158 172.985 C 103.869 172.993, 101.671 173.900, 100.273 175 C 98.874 176.100, 98.128 177.002, 98.615 177.005 C 99.102 177.008, 98.150 178.098, 96.500 179.428 C 93.966 181.471, 93.759 181.947, 95.172 182.500 C 96.091 182.860, 97.816 182.633, 99.005 181.997 C 100.709 181.085, 101.519 181.143, 102.833 182.268 C 103.750 183.054, 105.287 183.975, 106.250 184.317 C 107.213 184.658, 108 185.356, 108 185.868 C 108 187.062, 98.572 195.683, 90.645 201.739 C 87.265 204.321, 84.349 206.788, 84.165 207.223 C 83.980 207.657, 83.418 207.758, 82.915 207.447 C 82.412 207.136, 82 207.407, 82 208.049 C 82 210.898, 88.886 207.086, 94.281 201.250 C 95.425 200.012, 96.886 199, 97.527 199 C 99.063 199, 103 195.556, 103 194.212 C 103 193.633, 104.345 192.864, 105.988 192.503 C 107.631 192.142, 109.833 190.756, 110.882 189.423 C 111.930 188.090, 113.285 187, 113.892 187 C 114.499 187, 116.907 185.200, 119.243 183 L 123.489 179 119.726 179 C 116.127 179, 115.991 178.879, 116.619 176.250 C 116.980 174.738, 117.675 172.990, 118.163 172.367 C 119.629 170.496, 116.860 170.159, 112 171.618 M 57.405 173.250 L 55.500 175.500 57.750 173.595 C 59.864 171.805, 60.455 171, 59.655 171 C 59.465 171, 58.453 172.012, 57.405 173.250 M 61.624 172.539 C 61.281 173.432, 61.039 174.914, 61.086 175.832 C 61.133 176.749, 61.568 176.173, 62.053 174.550 C 62.996 171.394, 62.662 169.832, 61.624 172.539 M 147.813 172.683 C 148.534 172.972, 149.397 172.936, 149.729 172.604 C 150.061 172.272, 149.471 172.036, 148.417 172.079 C 147.252 172.127, 147.015 172.364, 147.813 172.683 M 195.813 172.683 C 196.534 172.972, 197.397 172.936, 197.729 172.604 C 198.061 172.272, 197.471 172.036, 196.417 172.079 C 195.252 172.127, 195.015 172.364, 195.813 172.683 M 208.603 178.946 C 210.860 181.451, 213.448 184.613, 214.353 185.973 C 215.259 187.332, 216 187.907, 216 187.249 C 216 186.591, 213.412 183.429, 210.250 180.223 C 207.088 177.016, 206.347 176.441, 208.603 178.946 M 141.521 176.976 C 140.538 178.063, 139.273 178.669, 138.712 178.322 C 138.105 177.947, 137.999 178.189, 138.451 178.921 C 139.010 179.825, 139.845 179.555, 141.605 177.901 C 142.922 176.664, 144 175.505, 144 175.326 C 144 174.585, 143.209 175.111, 141.521 176.976 M 57.543 179.931 C 57.226 180.443, 57.494 181.187, 58.138 181.585 C 58.840 182.019, 59.042 181.877, 58.642 181.230 C 58.276 180.637, 58.769 179.945, 59.738 179.692 C 61.313 179.281, 61.321 179.220, 59.809 179.116 C 58.879 179.052, 57.859 179.419, 57.543 179.931 M 33.437 191.250 L 30.500 194.500 33.750 191.563 C 35.538 189.948, 37 188.485, 37 188.313 C 37 187.540, 36.175 188.221, 33.437 191.250 M 130.872 192.750 C 129.629 194.336, 129.664 194.371, 131.250 193.128 C 132.916 191.821, 133.445 191, 132.622 191 C 132.415 191, 131.627 191.787, 130.872 192.750 M 217.305 197.076 C 217.242 201.304, 216.786 202.653, 214.957 204.032 C 213.448 205.171, 212.909 206.320, 213.347 207.462 C 214.219 209.735, 213.037 211.660, 211.876 209.857 C 211.331 209.010, 211.226 209.665, 211.597 211.601 C 211.998 213.699, 211.512 216.106, 210.094 219.041 C 207.469 224.475, 208.099 224.964, 217.750 224.985 L 225 225 225 220.167 C 225 217.293, 223.456 210.570, 221.192 203.583 L 217.385 191.831 217.305 197.076 M 126.564 198.293 C 126.940 199.279, 127.499 199.834, 127.807 199.526 C 128.115 199.219, 127.808 198.412, 127.124 197.733 C 126.136 196.753, 126.022 196.868, 126.564 198.293 M 124.731 204.260 C 124.083 208.512, 124.514 208.833, 125.825 205.073 C 126.405 203.407, 126.508 201.814, 126.052 201.532 C 125.597 201.251, 125.002 202.478, 124.731 204.260 M 78.813 210.683 C 79.534 210.972, 80.397 210.936, 80.729 210.604 C 81.061 210.272, 80.471 210.036, 79.417 210.079 C 78.252 210.127, 78.015 210.364, 78.813 210.683 M 22.158 223 C 22.158 224.375, 22.385 224.938, 22.662 224.250 C 22.940 223.563, 22.940 222.438, 22.662 221.750 C 22.385 221.063, 22.158 221.625, 22.158 223" stroke="none" fill="#633d32" fill-rule="evenodd"/><path d="M 0 112.500 L 0 225 10.871 225 L 21.742 225 22.416 219.044 C 23.487 209.576, 28.194 196.759, 32.230 192.324 C 33.375 191.065, 33.889 189.630, 33.450 188.920 C 32.972 188.146, 33.105 187.947, 33.809 188.382 C 34.424 188.762, 35.816 188.184, 36.903 187.097 C 37.990 186.010, 41.455 183.860, 44.603 182.318 C 50.953 179.209, 62.938 167.757, 65.507 162.345 C 67.374 158.409, 66.503 156.105, 61.623 152.083 C 59.905 150.668, 57.150 148.019, 55.500 146.197 C 53.850 144.375, 50.188 140.398, 47.362 137.358 C 42.284 131.896, 41.280 130.282, 36.870 120.500 C 34.037 114.213, 26.265 101.386, 23.103 97.777 C 21.785 96.273, 19.868 94.775, 18.842 94.450 C 15.960 93.535, 14.005 88.678, 13.952 82.300 C 13.921 78.551, 13.227 75.262, 11.991 73 C 6.421 62.813, 5.963 60.192, 8.493 53.019 C 9.314 50.692, 9.695 48.315, 9.339 47.739 C 8.982 47.163, 9.138 46.968, 9.685 47.306 C 10.611 47.878, 12.569 44.228, 16.553 34.500 C 17.501 32.186, 20.996 27.866, 24.846 24.250 L 31.500 18.001 54.617 18 L 77.734 18 87.617 28.200 C 93.053 33.810, 99.871 40.832, 102.768 43.805 C 106.424 47.554, 108.313 50.436, 108.937 53.215 C 109.432 55.418, 110.971 58.408, 112.356 59.860 C 114.116 61.704, 115.093 64.159, 115.597 68 C 116.286 73.248, 116.235 73.431, 114.490 72 C 113.216 70.956, 113.450 71.716, 115.259 74.500 C 118.303 79.186, 119.588 86.343, 118.090 90.271 C 117.337 92.246, 117.367 95.187, 118.192 100.498 C 119.219 107.104, 119.160 108.165, 117.676 109.806 C 113.886 113.993, 116.647 120.672, 124.993 127.504 C 128.014 129.977, 130.872 132, 131.343 132 C 131.815 132, 134.239 134.009, 136.730 136.465 C 139.221 138.921, 142.888 141.445, 144.879 142.075 C 146.871 142.705, 149.964 144.056, 151.752 145.078 C 153.541 146.099, 155.791 146.682, 156.752 146.373 C 158.073 145.949, 158.171 146.046, 157.154 146.774 C 156.131 147.506, 156.604 148.015, 159.119 148.891 C 162.569 150.094, 179.242 160.852, 179.846 162.265 C 180.799 164.496, 185.602 169.279, 187.687 170.071 C 188.987 170.565, 193.059 171.450, 196.737 172.038 C 200.414 172.625, 203.983 173.571, 204.668 174.139 C 205.352 174.707, 206.377 174.885, 206.945 174.534 C 207.561 174.154, 207.737 174.522, 207.382 175.448 C 207.054 176.302, 207.236 177, 207.785 177 C 208.335 177, 210.514 179.268, 212.628 182.040 C 217.509 188.440, 223.886 206.573, 224.923 217 C 225.333 221.125, 225.743 173.988, 225.834 112.250 L 226 0 113 0 L 0 0 0 112.500 M 0.483 113 C 0.483 174.875, 0.603 200.188, 0.750 169.250 C 0.897 138.313, 0.897 87.688, 0.750 56.750 C 0.603 25.813, 0.483 51.125, 0.483 113 M 96 56 C 96 56.550, 96.675 57, 97.500 57 C 98.325 57, 99 56.550, 99 56 C 99 55.450, 98.325 55, 97.500 55 C 96.675 55, 96 55.450, 96 56 M 97 64.015 C 98.095 64.734, 98.184 65.205, 97.329 65.760 C 96.685 66.178, 95.891 67.866, 95.564 69.510 C 95.148 71.599, 95.223 71.917, 95.812 70.566 C 96.955 67.945, 98.399 70.275, 97.601 73.453 C 97.193 75.078, 97.513 75.983, 98.648 76.418 C 101.401 77.475, 103.545 76.157, 105.729 72.066 C 107.920 67.962, 107.775 67, 104.968 67 C 104.034 67, 102.126 66.100, 100.727 65 C 99.329 63.900, 97.581 63.007, 96.842 63.015 C 95.823 63.027, 95.861 63.268, 97 64.015 M 110.327 67.798 C 109.466 68.330, 109.501 68.965, 110.467 70.286 C 111.674 71.936, 111.808 71.942, 112.415 70.362 C 113.194 68.331, 111.945 66.798, 110.327 67.798 M 113.158 89 C 113.158 90.375, 113.385 90.938, 113.662 90.250 C 113.940 89.563, 113.940 88.438, 113.662 87.750 C 113.385 87.063, 113.158 87.625, 113.158 89 M 22.239 93 C 22.570 94.723, 25.145 95.066, 26.235 93.533 C 27.508 91.742, 27.077 91.207, 24.476 91.356 C 22.816 91.451, 22.050 92.014, 22.239 93 M 26.507 95.989 C 26.157 96.555, 26.558 96.723, 27.448 96.382 C 29.180 95.717, 29.497 95, 28.059 95 C 27.541 95, 26.843 95.445, 26.507 95.989 M 112.500 96 C 112.840 96.550, 113.316 97, 113.559 97 C 113.802 97, 114 96.550, 114 96 C 114 95.450, 113.523 95, 112.941 95 C 112.359 95, 112.160 95.450, 112.500 96 M 142.029 174.961 C 141.220 175.473, 140.818 176.152, 141.136 176.470 C 141.455 176.788, 142.284 176.362, 142.980 175.524 C 144.423 173.786, 144.146 173.622, 142.029 174.961 M 136.212 182.032 C 134.421 184.900, 134.739 185.818, 136.602 183.158 C 137.483 181.900, 138.029 180.695, 137.814 180.481 C 137.600 180.266, 136.879 180.964, 136.212 182.032 M 131 190.059 C 131 190.641, 131.450 190.840, 132 190.500 C 132.550 190.160, 133 189.684, 133 189.441 C 133 189.198, 132.550 189, 132 189 C 131.450 189, 131 189.477, 131 190.059 M 128.564 193.707 C 128.022 195.132, 128.136 195.247, 129.124 194.267 C 129.808 193.588, 130.115 192.781, 129.807 192.474 C 129.499 192.166, 128.940 192.721, 128.564 193.707" stroke="none" fill="#040404" fill-rule="evenodd"/><path d="M 30.534 20.750 C 30.204 21.712, 27.930 23.972, 25.482 25.770 C 23.034 27.569, 20.291 30.494, 19.388 32.270 C 18.485 34.047, 18.074 35.191, 18.476 34.814 C 18.877 34.436, 20.284 34.538, 21.603 35.039 C 22.921 35.540, 24 35.580, 24 35.128 C 24 33.160, 27.983 30.032, 33.521 27.652 C 36.810 26.238, 38.616 25.064, 37.536 25.041 C 35.739 25.004, 35.708 24.864, 37.163 23.408 C 39.411 21.161, 48.757 20.774, 48.608 22.935 C 48.534 24.006, 49.210 24.401, 50.750 24.187 C 51.987 24.015, 53 24.353, 53 24.937 C 53 26.527, 55.185 26.229, 59.571 24.040 C 63.277 22.191, 63.346 22.077, 60.781 22.040 C 58.784 22.011, 58.216 21.602, 58.638 20.500 C 59.133 19.211, 57.243 19, 45.174 19 C 32.699 19, 31.068 19.195, 30.534 20.750 M 19.581 37.649 C 18.733 39.859, 19.443 40.376, 20.906 38.613 C 21.616 37.758, 21.716 36.943, 21.153 36.595 C 20.634 36.274, 19.927 36.748, 19.581 37.649 M 10.966 49.735 C 9.287 53.439, 8.065 57.601, 8.252 58.985 C 8.511 60.909, 9.020 60.090, 10.416 55.500 C 11.420 52.200, 12.654 48.983, 13.158 48.352 C 14.159 47.099, 15.150 43, 14.453 43 C 14.215 43, 12.646 46.031, 10.966 49.735 M 54 61.707 C 48.606 62.277, 47.030 63.153, 50 63.928 C 52.334 64.538, 52.533 65.094, 53 72.292 C 53.374 78.062, 53.185 80.003, 52.250 80.002 C 51.563 80.001, 51 80.900, 51 82 C 51 84.289, 51.375 84.405, 54.094 82.950 C 55.173 82.372, 55.792 81.472, 55.469 80.950 C 55.146 80.427, 55.632 80, 56.548 80 C 57.642 80, 58.010 80.532, 57.620 81.549 C 57.114 82.866, 57.470 82.836, 59.992 81.346 C 61.763 80.300, 62.521 79.322, 61.873 78.921 C 61.132 78.464, 61.116 78.046, 61.824 77.609 C 62.395 77.256, 63.132 77.405, 63.463 77.940 C 64.188 79.113, 67 78.196, 67 76.786 C 67 76.236, 66.325 76.045, 65.500 76.362 C 64.361 76.799, 63.993 76.162, 63.972 73.719 C 63.942 70.317, 60.074 61.741, 58.455 61.487 C 57.930 61.404, 55.925 61.503, 54 61.707 M 72.677 86.804 C 69.683 90.113, 71.398 92.493, 75.925 91.309 C 77.505 90.896, 77.774 90.433, 76.986 89.483 C 76.405 88.783, 76.058 87.657, 76.215 86.980 C 76.688 84.938, 74.466 84.827, 72.677 86.804 M 41.036 97.456 C 39.208 99.660, 40.697 101.013, 44.809 100.884 C 46.926 100.817, 47.647 100.563, 46.500 100.287 C 43.398 99.541, 42.286 98.062, 44.008 96.974 C 45.299 96.158, 45.280 96.029, 43.872 96.015 C 42.977 96.007, 41.701 96.655, 41.036 97.456 M 60.195 98.500 C 60.215 100.150, 60.439 100.704, 60.693 99.731 C 60.947 98.758, 60.930 97.408, 60.656 96.731 C 60.382 96.054, 60.175 96.850, 60.195 98.500 M 63.676 114.401 C 63.352 115.245, 63.487 116.183, 63.975 116.484 C 65.282 117.292, 66.391 114.991, 65.246 113.846 C 64.606 113.206, 64.061 113.398, 63.676 114.401 M 126.120 131.613 C 127.010 132.651, 127.535 134.063, 127.286 134.750 C 127.037 135.438, 127.276 136, 127.817 136 C 128.358 136, 129.327 138.197, 129.971 140.881 C 130.692 143.884, 132.256 146.829, 134.036 148.534 C 135.627 150.059, 136.713 151.655, 136.450 152.081 C 136.186 152.507, 136.837 153.131, 137.896 153.467 C 140.612 154.329, 143.582 159.022, 142.022 159.987 C 141.172 160.512, 141.299 160.901, 142.468 161.349 C 143.424 161.716, 143.850 161.566, 143.493 160.989 C 143.157 160.445, 143.311 160, 143.835 160 C 144.360 160, 146.234 158.650, 148 157 C 150.963 154.232, 155.917 152.708, 154.500 155 C 154.160 155.550, 153.234 156, 152.441 156 C 151.648 156, 151 156.442, 151 156.982 C 151 158.097, 146.161 163.147, 141.075 167.341 C 138.302 169.628, 137.921 170.353, 139.075 171.148 C 140.136 171.880, 139.946 171.976, 138.334 171.525 C 137.108 171.182, 135.848 171.437, 135.430 172.114 C 134.992 172.822, 135.115 173.047, 135.732 172.666 C 137.042 171.856, 139.243 174.382, 138.241 175.544 C 137.834 176.017, 139.898 174.400, 142.829 171.952 C 145.760 169.503, 148.875 167.050, 149.751 166.500 C 152.251 164.930, 156.165 161.750, 159.290 158.750 C 162.958 155.228, 165.198 155.122, 164.586 158.500 C 164.146 160.923, 164.939 161.728, 166.362 160.304 C 167.206 159.461, 169.795 158.853, 172.500 158.864 C 174.076 158.870, 173.863 158.534, 171.500 157.283 C 169.850 156.409, 167.150 154.691, 165.500 153.463 C 163.850 152.236, 161.375 150.905, 160 150.504 C 158.625 150.104, 155.250 148.530, 152.500 147.007 C 149.750 145.484, 145.871 143.719, 143.879 143.084 C 141.888 142.450, 138.288 139.989, 135.879 137.617 C 131.150 132.959, 122.940 127.909, 126.120 131.613 M 156 155.969 C 156 156.501, 156.675 156.678, 157.500 156.362 C 158.325 156.045, 159 155.609, 159 155.393 C 159 155.177, 158.325 155, 157.500 155 C 156.675 155, 156 155.436, 156 155.969 M 166.431 163.352 C 164.743 163.983, 161.368 166.141, 158.931 168.146 C 156.494 170.152, 152.742 172.272, 150.594 172.859 C 146.076 174.092, 140.906 178.591, 141.682 180.615 C 141.984 181.402, 141.589 182, 140.768 182 C 139.972 182, 138.808 183.125, 138.182 184.500 C 137.489 186.021, 137.426 187, 138.021 187 C 138.560 187, 139 186.325, 139 185.500 C 139 183.794, 139.863 183.628, 141.930 184.935 C 143.682 186.045, 144.136 190.229, 142.613 191.235 C 140.876 192.381, 147.894 192.127, 150.066 190.965 C 151.130 190.395, 152 189.229, 152 188.373 C 152 187.145, 153.004 186.872, 156.750 187.081 C 161.410 187.340, 167.012 186.326, 168 185.043 C 168.275 184.686, 170.188 183.369, 172.250 182.116 C 174.313 180.862, 176 179.375, 176 178.810 C 176 178.220, 177.040 178.044, 178.443 178.396 C 180.223 178.843, 181.613 178.336, 183.563 176.529 C 186.353 173.943, 187.517 173.867, 192.500 175.945 C 196.463 177.598, 201.825 178.093, 202.577 176.875 C 202.949 176.274, 203.811 176.376, 204.839 177.143 C 205.753 177.825, 205.554 177.363, 204.397 176.116 C 201.489 172.982, 189.018 171.287, 185.556 173.555 C 183.484 174.913, 183.180 174.911, 182.652 173.536 C 182.276 172.556, 180.785 172, 178.531 172 C 176.589 172, 175 171.550, 175 171 C 175 169.207, 183.058 169.515, 184.235 171.352 C 184.716 172.104, 184.975 172.129, 184.985 171.424 C 185.002 170.175, 181.705 167.030, 177.720 164.498 C 174.216 162.271, 170.367 161.880, 166.431 163.352 M 57 174.638 C 53.860 177.842, 49.140 181.347, 46 182.810 C 38.968 186.085, 34.678 189.998, 35.570 192.322 C 36.086 193.667, 36.541 193.796, 37.617 192.903 C 38.698 192.006, 39 192.110, 39 193.378 C 39 195.419, 36.135 195.515, 35.362 193.500 C 34.431 191.074, 33.490 191.729, 31.135 196.445 C 29.238 200.242, 29.103 201.194, 30.207 202.976 C 31.259 204.672, 31.261 205.210, 30.216 205.860 C 29.456 206.334, 29.205 207.443, 29.601 208.580 C 30.231 210.390, 30.180 210.386, 28.709 208.500 C 27.182 206.541, 27.126 206.561, 26.016 209.470 C 25.392 211.104, 25.086 213.220, 25.335 214.172 C 25.584 215.125, 25.439 216.038, 25.012 216.202 C 24.585 216.366, 23.918 218.412, 23.530 220.750 L 22.824 225 27.412 225 C 31.498 225, 32.002 224.754, 32.017 222.750 C 32.035 220.416, 35.207 216.833, 38.250 215.709 C 39.212 215.354, 40 214.374, 40 213.531 C 40 212.689, 40.662 212, 41.471 212 C 43.009 212, 48.486 201.596, 47.655 200.251 C 47.392 199.826, 47.850 198.583, 48.672 197.489 C 50.064 195.638, 50.144 195.806, 49.834 199.909 C 49.610 202.860, 49.926 204.463, 50.788 204.755 C 51.694 205.062, 52.012 204.200, 51.860 201.846 C 51.742 200.006, 52.431 196.856, 53.391 194.846 C 54.789 191.920, 55.630 191.245, 57.611 191.463 C 58.972 191.612, 60.710 192.582, 61.473 193.617 C 62.820 195.446, 62.920 195.436, 64.930 193.292 C 66.068 192.077, 67 190.442, 67 189.657 C 67 188.872, 68.125 187.493, 69.500 186.592 C 72.350 184.724, 72.772 183, 70.378 183 C 69.099 183, 69.002 182.703, 69.919 181.597 C 70.813 180.520, 70.784 180.069, 69.792 179.655 C 68.836 179.256, 68.961 178.825, 70.271 177.997 C 72.133 176.820, 71.752 175, 69.644 175 C 68.964 175, 67.528 175.672, 66.453 176.494 C 65.379 177.316, 62.138 179.829, 59.250 182.079 C 56.362 184.329, 54 185.885, 54 185.535 C 54 183.620, 57.196 179.182, 58.895 178.738 C 60.294 178.372, 60.717 177.635, 60.345 176.213 C 60.056 175.108, 60.587 173.033, 61.525 171.602 C 62.463 170.171, 63.066 169.006, 62.865 169.014 C 62.664 169.022, 60.025 171.553, 57 174.638 M 125.441 172.552 C 123.576 174.043, 123.597 174.078, 126 173.439 C 129.085 172.620, 131.005 171, 128.891 171 C 128.061 171, 126.509 171.698, 125.441 172.552 M 77.594 192.896 C 75.272 195.462, 75.470 197.790, 77.829 195.655 C 78.835 194.745, 80.185 194, 80.829 194 C 82.464 194, 82.295 192.327, 80.594 191.674 C 79.821 191.378, 78.471 191.927, 77.594 192.896 M 131.258 194.637 C 130.089 196.279, 128.803 198.937, 128.400 200.544 C 127.674 203.434, 127.692 203.449, 130.045 201.886 C 132.325 200.372, 134.499 194.996, 133.745 192.734 C 133.546 192.139, 132.428 192.995, 131.258 194.637 M 32 197.917 C 32 198.971, 31.438 200.040, 30.750 200.292 C 29.765 200.653, 29.780 201.042, 30.817 202.125 C 31.930 203.287, 32.357 203.199, 33.567 201.559 C 35.438 199.025, 35.401 196, 33.500 196 C 32.675 196, 32 196.863, 32 197.917 M 157.116 210.728 C 157.265 212.252, 156.860 214.465, 156.215 215.645 C 155.265 217.383, 155.341 218.038, 156.619 219.098 C 157.486 219.818, 158.939 220.522, 159.848 220.662 C 160.756 220.802, 164.334 221.824, 167.798 222.932 C 172.246 224.355, 176.727 224.935, 183.048 224.905 L 192 224.863 192 220.866 C 192 218.667, 191.514 215.960, 190.919 214.849 C 190.324 213.738, 189.997 212.670, 190.191 212.476 C 190.385 212.282, 193.593 211.924, 197.320 211.680 C 201.047 211.436, 204.375 210.959, 204.715 210.618 C 205.055 210.278, 204.583 210, 203.667 210 C 202.750 210, 201.999 209.662, 201.999 209.250 C 201.998 208.838, 198.884 208.418, 195.079 208.319 C 189.875 208.182, 188.025 208.492, 187.612 209.569 C 187.310 210.356, 186.551 211, 185.924 211 C 185.298 211, 185.031 210.361, 185.331 209.580 C 185.785 208.396, 183.461 208.143, 171.360 208.058 L 156.845 207.955 157.116 210.728 M 27.079 210.583 C 27.127 211.748, 27.364 211.985, 27.683 211.188 C 27.972 210.466, 27.936 209.603, 27.604 209.271 C 27.272 208.939, 27.036 209.529, 27.079 210.583" stroke="none" fill="#c6b8d0" fill-rule="evenodd"/><path d="M 27.405 22.250 L 25.500 24.500 27.750 22.595 C 28.988 21.547, 30 20.535, 30 20.345 C 30 19.545, 29.195 20.136, 27.405 22.250 M 81.500 23 C 82.495 24.100, 83.535 25, 83.810 25 C 84.085 25, 83.495 24.100, 82.500 23 C 81.505 21.900, 80.465 21, 80.190 21 C 79.915 21, 80.505 21.900, 81.500 23 M 92.250 33.780 C 94.862 36.604, 97 39.091, 97 39.308 C 97 39.524, 95.460 39.219, 93.577 38.630 C 91.695 38.041, 90.368 37.213, 90.629 36.791 C 90.890 36.369, 90.375 36.303, 89.484 36.644 C 88.594 36.986, 86.883 36.785, 85.683 36.197 C 81.914 34.352, 70.445 31.967, 66.646 32.239 C 64.028 32.427, 63.003 32.966, 63.002 34.156 C 63.001 35.350, 63.628 35.679, 65.250 35.332 C 67.336 34.887, 67.373 34.956, 65.750 36.286 C 64.787 37.075, 63.999 37.896, 63.998 38.110 C 63.997 38.325, 66.714 38.347, 70.035 38.159 C 75.299 37.862, 76.513 38.154, 79.501 40.433 C 83.416 43.419, 90.993 58.047, 91.011 62.652 C 91.029 67.331, 93.646 74.555, 97.949 81.797 C 100.193 85.574, 102.006 89.929, 102.014 91.558 C 102.031 95.290, 103.011 99, 103.979 99 C 104.389 99, 104.569 97.538, 104.379 95.750 C 103.206 84.698, 103.267 82.835, 104.818 82.240 C 105.677 81.910, 106.557 82.171, 106.773 82.820 C 107.742 85.726, 108.703 83.617, 107.944 80.251 C 107.024 76.174, 107.786 74.597, 110.222 75.532 C 111.176 75.898, 111.583 76.879, 111.273 78.065 C 110.994 79.129, 111.226 80, 111.788 80 C 112.409 80, 112.591 81.629, 112.253 84.153 C 111.851 87.144, 112.018 88.107, 112.848 87.594 C 113.482 87.202, 114.007 85.896, 114.015 84.691 C 114.028 82.871, 114.210 82.754, 115.086 84 C 115.894 85.148, 116.047 84.727, 115.738 82.206 C 115.515 80.394, 115.708 78.680, 116.167 78.397 C 116.625 78.114, 117 78.434, 117 79.108 C 117 79.782, 117.286 80.047, 117.635 79.698 C 117.985 79.348, 117.516 77.911, 116.594 76.503 C 115.672 75.095, 115.168 73.537, 115.475 73.041 C 115.782 72.544, 115.575 71.856, 115.016 71.510 C 114.457 71.165, 114 70.207, 114 69.382 C 114 68.557, 114.443 68.156, 114.985 68.491 C 116.971 69.718, 114.702 62.464, 112.287 59.860 C 110.939 58.408, 109.432 55.418, 108.937 53.215 C 108.308 50.415, 106.448 47.598, 102.756 43.855 C 99.851 40.910, 95.850 36.649, 93.864 34.387 C 91.878 32.125, 89.634 29.908, 88.877 29.460 C 88.119 29.012, 89.638 30.956, 92.250 33.780 M 37.500 33 C 37.160 33.550, 37.557 34, 38.382 34 C 39.207 34, 40.160 33.550, 40.500 33 C 40.840 32.450, 40.443 32, 39.618 32 C 38.793 32, 37.840 32.450, 37.500 33 M 32.750 40.045 C 30.576 41.355, 30.545 42.402, 32.619 44.476 C 34.589 46.447, 33.655 47.789, 31.537 46.031 C 29.305 44.178, 27.474 45.357, 27.211 48.818 C 26.900 52.894, 28.576 53.690, 32.055 51.118 C 33.630 49.953, 35.194 49, 35.531 49 C 35.867 49, 36.818 48.325, 37.643 47.500 C 38.468 46.675, 40.019 46, 41.090 46 C 42.708 46, 42.926 45.535, 42.378 43.250 C 42.016 41.737, 41.669 40.428, 41.609 40.339 C 41.014 39.463, 34.096 39.233, 32.750 40.045 M 24.168 52.750 C 24.076 53.438, 22.650 54, 21 54 C 18.490 54, 18 54.397, 18 56.429 C 18 57.764, 17.294 59.563, 16.432 60.426 C 15.432 61.425, 15.108 62.765, 15.539 64.122 C 16.021 65.642, 15.870 66.038, 15.011 65.507 C 14.202 65.007, 13.931 65.376, 14.183 66.632 C 14.804 69.727, 12.826 71.083, 10.500 69.157 C 8.569 67.557, 8.555 67.569, 10.085 69.500 C 11.883 71.768, 13.710 76.302, 14.317 80 C 14.606 81.756, 14.805 81.310, 14.989 78.500 L 15.250 74.500 16.175 79 C 18.288 89.283, 18.363 91.353, 16.596 90.675 C 15.241 90.155, 15.132 90.379, 15.976 91.955 C 16.538 93.005, 17.832 94.129, 18.852 94.453 C 21.454 95.279, 24.803 99.321, 29.871 107.750 C 32.268 111.737, 34.446 115, 34.710 115 C 34.974 115, 33.919 112.862, 32.366 110.250 C 30.407 106.955, 29.536 104.122, 29.521 101 C 29.503 97.114, 29.227 96.524, 27.500 96.676 C 25.537 96.849, 25.536 96.826, 27.424 95.439 C 29.293 94.066, 29.252 93.849, 26 87.763 C 23.026 82.200, 22.620 80.496, 22.366 72.514 C 22.151 65.783, 22.460 62.947, 23.597 61.212 C 24.511 59.817, 24.960 57.425, 24.725 55.198 C 24.511 53.164, 24.261 52.063, 24.168 52.750 M 96 56 C 96 56.550, 96.675 57, 97.500 57 C 98.325 57, 99 56.550, 99 56 C 99 55.450, 98.325 55, 97.500 55 C 96.675 55, 96 55.450, 96 56 M 108.333 61 C 108.333 63.109, 108.819 64, 109.967 64 C 110.865 64, 112.140 64.540, 112.800 65.200 C 113.733 66.133, 114 65.950, 114 64.374 C 114 62.604, 110.282 58, 108.852 58 C 108.567 58, 108.333 59.350, 108.333 61 M 7.079 62.583 C 7.127 63.748, 7.364 63.985, 7.683 63.188 C 7.972 62.466, 7.936 61.603, 7.604 61.271 C 7.272 60.939, 7.036 61.529, 7.079 62.583 M 97 64.015 C 98.095 64.734, 98.184 65.205, 97.329 65.760 C 96.685 66.178, 95.891 67.866, 95.564 69.510 C 95.148 71.599, 95.223 71.917, 95.812 70.566 C 96.955 67.945, 98.399 70.275, 97.601 73.453 C 97.193 75.078, 97.513 75.983, 98.648 76.418 C 101.401 77.475, 103.545 76.157, 105.729 72.066 C 107.920 67.962, 107.775 67, 104.968 67 C 104.034 67, 102.126 66.100, 100.727 65 C 99.329 63.900, 97.581 63.007, 96.842 63.015 C 95.823 63.027, 95.861 63.268, 97 64.015 M 110.327 67.798 C 109.466 68.330, 109.501 68.965, 110.467 70.286 C 111.674 71.936, 111.808 71.942, 112.415 70.362 C 113.194 68.331, 111.945 66.798, 110.327 67.798 M 69.972 83.250 C 65.217 88.370, 64.600 91.355, 69.077 87.589 C 70.769 86.165, 72.681 84.923, 73.327 84.829 C 75.136 84.565, 78.223 84.297, 81.250 84.142 C 82.763 84.064, 84 83.550, 84 83 C 84 81.647, 75.678 81.722, 74.313 83.087 C 73.530 83.870, 73.038 83.870, 72.554 83.087 C 72.184 82.489, 72.310 82, 72.834 82 C 73.358 82, 74.045 81.325, 74.362 80.500 C 75.309 78.032, 74.138 78.766, 69.972 83.250 M 67.667 81.667 C 67.300 82.033, 67 82.798, 67 83.367 C 67 83.993, 67.466 83.934, 68.183 83.217 C 68.834 82.566, 69.134 81.801, 68.850 81.517 C 68.566 81.233, 68.033 81.300, 67.667 81.667 M 118.232 86 C 118.232 87.925, 118.438 88.713, 118.689 87.750 C 118.941 86.787, 118.941 85.213, 118.689 84.250 C 118.438 83.287, 118.232 84.075, 118.232 86 M 113.344 91.250 C 112.708 93.313, 112.595 95, 113.094 95 C 113.592 95, 114 95.436, 114 95.969 C 114 96.501, 113.325 96.678, 112.500 96.362 C 110.642 95.648, 110.557 97.928, 112.180 104.961 C 112.847 107.848, 113.833 109.894, 114.445 109.659 C 115.148 109.390, 115.397 110.637, 115.152 113.208 C 114.944 115.389, 115.258 117.658, 115.850 118.250 C 116.620 119.020, 116.756 118.274, 116.329 115.641 C 115.888 112.920, 116.186 111.452, 117.470 110.033 C 118.926 108.424, 119.088 107.084, 118.467 101.806 C 117.937 97.304, 117.509 96.072, 116.970 97.500 C 115.971 100.145, 115.166 98.119, 114.782 92 L 114.500 87.500 113.344 91.250 M 39.616 94.066 C 37.480 96.266, 36.055 98.388, 36.451 98.783 C 36.847 99.177, 38.212 98.289, 39.486 96.810 C 41.430 94.551, 42.257 94.248, 44.651 94.923 C 46.218 95.365, 47.388 96.238, 47.250 96.863 C 47.113 97.489, 47.498 98, 48.107 98 C 48.716 98, 48.948 97.308, 48.624 96.462 C 48.280 95.567, 48.689 94.673, 49.601 94.323 C 52.232 93.313, 48.945 91.910, 45.600 92.614 C 43.210 93.117, 42.809 92.941, 43.318 91.612 C 44.156 89.429, 44.055 89.496, 39.616 94.066 M 22.239 93 C 22.570 94.723, 25.145 95.066, 26.235 93.533 C 27.508 91.742, 27.077 91.207, 24.476 91.356 C 22.816 91.451, 22.050 92.014, 22.239 93 M 70.096 119.030 C 67.992 121.648, 67.392 123, 68.334 123 C 70.099 123, 75.336 116.326, 74.148 115.591 C 73.674 115.299, 71.851 116.846, 70.096 119.030 M 35 116.941 C 35 117.459, 35.445 118.157, 35.989 118.493 C 36.555 118.843, 36.723 118.442, 36.382 117.552 C 35.717 115.820, 35 115.503, 35 116.941 M 37.731 122.080 C 38.085 123.432, 38.538 123.886, 38.788 123.137 C 39.028 122.415, 38.750 121.350, 38.168 120.768 C 37.426 120.026, 37.296 120.417, 37.731 122.080 M 60 121.059 C 60 121.641, 60.450 121.840, 61 121.500 C 61.550 121.160, 62 120.684, 62 120.441 C 62 120.198, 61.550 120, 61 120 C 60.450 120, 60 120.477, 60 121.059 M 108 122.178 C 108 123.045, 107.381 124.269, 106.625 124.896 C 105.868 125.524, 104.978 127.736, 104.646 129.811 C 104.270 132.161, 102.902 134.677, 101.021 136.480 C 99.360 138.072, 98 139.895, 98 140.532 C 98 141.169, 97.100 142.505, 96 143.500 C 94.900 144.495, 94 145.899, 94 146.620 C 94 147.340, 93.135 148.393, 92.078 148.958 C 91.021 149.524, 89.558 150.576, 88.828 151.296 C 87.114 152.985, 80.561 155.538, 75.653 156.429 C 72.136 157.067, 71.934 157.272, 73.299 158.814 C 74.121 159.741, 74.957 161.400, 75.157 162.500 C 75.401 163.840, 76.717 164.796, 79.144 165.398 C 82.520 166.235, 83.180 165.978, 88.808 161.648 C 92.130 159.092, 95.342 157, 95.945 157 C 96.549 157, 97.555 155.875, 98.182 154.500 C 98.808 153.125, 99.659 152, 100.073 152 C 100.486 152, 101.140 150.088, 101.525 147.750 C 101.911 145.412, 102.575 143.050, 103 142.500 C 103.426 141.950, 105.214 137.286, 106.972 132.135 C 109.270 125.404, 109.864 122.464, 109.085 121.685 C 108.305 120.905, 108 121.044, 108 122.178 M 39.030 125.518 C 38.996 126.686, 43.802 134, 44.604 134 C 44.897 134, 44.274 132.762, 43.221 131.250 C 42.167 129.738, 40.800 127.600, 40.183 126.500 C 39.566 125.400, 39.047 124.958, 39.030 125.518 M 122 125.378 C 122 125.585, 122.787 126.373, 123.750 127.128 C 125.336 128.371, 125.371 128.336, 124.128 126.750 C 122.821 125.084, 122 124.555, 122 125.378 M 83.500 129 C 83.160 129.550, 83.332 130, 83.882 130 C 84.432 130, 85.160 129.550, 85.500 129 C 85.840 128.450, 85.668 128, 85.118 128 C 84.568 128, 83.840 128.450, 83.500 129 M 80 130.059 C 80 130.641, 80.450 130.840, 81 130.500 C 81.550 130.160, 82 129.684, 82 129.441 C 82 129.198, 81.550 129, 81 129 C 80.450 129, 80 129.477, 80 130.059 M 132 132.378 C 132 132.585, 132.787 133.373, 133.750 134.128 C 135.336 135.371, 135.371 135.336, 134.128 133.750 C 132.821 132.084, 132 131.555, 132 132.378 M 82.677 136.400 C 82.381 137.171, 80.195 138.114, 77.820 138.496 C 73.566 139.182, 68.372 141.706, 69.303 142.636 C 69.973 143.306, 82.235 140.040, 83.750 138.788 C 85.188 137.600, 85.433 135, 84.107 135 C 83.616 135, 82.972 135.630, 82.677 136.400 M 137 137.378 C 137 137.585, 137.787 138.373, 138.750 139.128 C 140.336 140.371, 140.371 140.336, 139.128 138.750 C 137.821 137.084, 137 136.555, 137 137.378 M 53.100 143.705 C 53.829 144.917, 54.640 145.694, 54.903 145.431 C 55.166 145.168, 54.570 144.176, 53.579 143.226 C 51.857 141.577, 51.835 141.598, 53.100 143.705 M 155.543 146.931 C 154.878 148.007, 156.835 149.498, 157.733 148.600 C 158.063 148.270, 157.696 147.993, 156.917 147.985 C 155.750 147.972, 155.765 147.798, 157 147 C 157.901 146.418, 158.025 146.025, 157.309 146.015 C 156.654 146.007, 155.859 146.419, 155.543 146.931 M 57.077 148.176 C 63.586 153.641, 64.876 154.899, 65.870 156.756 C 66.487 157.911, 66.735 159.675, 66.421 160.678 C 65.891 162.365, 65.932 162.372, 66.962 160.772 C 68.434 158.487, 66.292 154.390, 61.819 150.938 C 58.106 148.071, 54.340 145.878, 57.077 148.176 M 170.813 160.683 C 171.534 160.972, 172.397 160.936, 172.729 160.604 C 173.061 160.272, 172.471 160.036, 171.417 160.079 C 170.252 160.127, 170.015 160.364, 170.813 160.683 M 177.970 161.944 C 179.198 164.238, 181 165.538, 181 164.130 C 181 163.138, 178.260 160, 177.393 160 C 177.138 160, 177.398 160.875, 177.970 161.944 M 59.924 169.750 L 57.500 172.500 60.250 170.076 C 62.820 167.810, 63.459 167, 62.674 167 C 62.495 167, 61.258 168.238, 59.924 169.750 M 146.724 170.835 C 141.387 175.049, 141.523 174.893, 143.418 174.615 C 144.299 174.486, 145.556 173.844, 146.210 173.190 C 146.865 172.535, 148.462 172, 149.759 172 C 151.102 172, 151.848 171.562, 151.490 170.984 C 151.144 170.425, 150.330 170.266, 149.681 170.630 C 148.817 171.115, 148.825 170.943, 149.708 169.989 C 150.589 169.037, 151.269 168.978, 152.225 169.772 C 153.193 170.576, 154.144 170.400, 155.867 169.100 L 158.198 167.342 154.573 167.421 C 152.055 167.476, 149.658 168.519, 146.724 170.835 M 62 175.392 C 62 176.891, 62.410 177.865, 62.911 177.555 C 63.915 176.935, 63.787 174.454, 62.696 173.362 C 62.313 172.980, 62 173.893, 62 175.392 M 53.872 175.750 C 52.629 177.336, 52.664 177.371, 54.250 176.128 C 55.916 174.821, 56.445 174, 55.622 174 C 55.415 174, 54.627 174.787, 53.872 175.750 M 139.500 177 C 139.160 177.550, 139.359 178, 139.941 178 C 140.523 178, 141 177.550, 141 177 C 141 176.450, 140.802 176, 140.559 176 C 140.316 176, 139.840 176.450, 139.500 177 M 208 177.378 C 208 177.585, 208.787 178.373, 209.750 179.128 C 211.336 180.371, 211.371 180.336, 210.128 178.750 C 208.821 177.084, 208 176.555, 208 177.378 M 56.500 182 C 56.160 182.550, 56.359 183, 56.941 183 C 57.523 183, 58 182.550, 58 182 C 58 181.450, 57.802 181, 57.559 181 C 57.316 181, 56.840 181.450, 56.500 182 M 135.553 181.915 C 135.231 182.436, 135.394 183.125, 135.915 183.447 C 136.436 183.769, 137.125 183.606, 137.447 183.085 C 137.769 182.564, 137.606 181.875, 137.085 181.553 C 136.564 181.231, 135.875 181.394, 135.553 181.915 M 133.708 184.625 C 133.395 184.939, 133.408 185.900, 133.739 186.762 C 134.135 187.795, 133.942 188.082, 133.170 187.605 C 132.526 187.207, 132 187.359, 132 187.941 C 132 189.688, 133.856 189.137, 134.968 187.061 C 135.938 185.246, 134.967 183.367, 133.708 184.625 M 130 191.789 C 130 192.970, 130.283 193.010, 131.500 192 C 132.325 191.315, 133 190.660, 133 190.544 C 133 190.428, 132.325 190.333, 131.500 190.333 C 130.675 190.333, 130 190.988, 130 191.789 M 128.352 193.760 C 128.715 194.348, 128.570 194.980, 128.029 195.165 C 127.488 195.349, 126.810 197.075, 126.522 199 C 126.037 202.238, 126.067 202.290, 126.930 199.686 C 127.442 198.138, 128.364 196.266, 128.979 195.525 C 129.808 194.526, 129.786 193.986, 128.894 193.435 C 128.166 192.984, 127.952 193.113, 128.352 193.760 M 222.579 208 C 222.944 209.375, 223.624 211.175, 224.091 212 C 224.845 213.333, 224.939 213.333, 224.934 212 C 224.931 211.175, 224.251 209.375, 223.423 208 L 221.917 205.500 222.579 208 M 22.079 219.583 C 22.127 220.748, 22.364 220.985, 22.683 220.188 C 22.972 219.466, 22.936 218.603, 22.604 218.271 C 22.272 217.939, 22.036 218.529, 22.079 219.583" stroke="none" fill="#30190f" fill-rule="evenodd"/></g></svg>