<svg id="svgContent" version="1.1" width="173" height="150" style="position: relative; width: 173px; height: 150px; margin:auto; user-select: none; cursor: default;" xmlns="http://www.w3.org/2000/svg" xmlns:xlink="http://www.w3.org/1999/xlink" viewBox="0 0 173 150"><g id="svgPath"><path d="M 0 46.426 L 0 93.128 5.793 89.064 C 11.054 85.374, 12.156 85, 17.774 85 C 23.645 85, 23.996 84.863, 24.632 82.331 C 25.150 80.266, 24.791 79.249, 23.043 77.834 C 21.729 76.769, 21.025 75.377, 21.361 74.502 C 22.210 72.290, 23.483 72.666, 25.048 75.591 L 26.435 78.181 28.258 75.929 L 30.082 73.677 37.291 75.359 C 46.284 77.458, 45.304 77.345, 52.857 77.158 C 58.503 77.018, 59.129 76.804, 58.458 75.250 C 58.043 74.288, 57.603 72.150, 57.482 70.500 C 57.360 68.850, 56.728 63.767, 56.077 59.205 C 54.987 51.572, 55.046 50.655, 56.816 47.705 C 57.924 45.860, 58.801 42.427, 58.883 39.614 C 58.962 36.927, 59.889 32.780, 60.942 30.397 C 63.466 24.691, 71.336 16.350, 74.786 15.724 C 76.279 15.454, 80.875 14.290, 85 13.140 C 94.753 10.419, 98.353 10.486, 104.849 13.510 C 107.791 14.879, 111.033 16, 112.052 16 C 113.072 16, 114.940 16.413, 116.203 16.919 C 117.466 17.424, 119.400 18.144, 120.500 18.519 C 122.433 19.177, 122.424 19.229, 120.250 20.068 C 119.013 20.545, 118 21.611, 118 22.436 C 118 23.360, 118.577 23.716, 119.500 23.362 C 120.325 23.045, 121 23.311, 121 23.952 C 121 24.593, 121.477 24.823, 122.060 24.463 C 122.735 24.046, 122.503 23.357, 121.420 22.565 C 119.822 21.397, 119.824 21.282, 121.450 20.658 C 123.623 19.824, 125.294 20.791, 124.637 22.503 C 123.918 24.378, 125.090 25.170, 126.658 23.869 C 127.648 23.047, 128 23.056, 128 23.902 C 128 24.533, 129.169 25.494, 130.597 26.037 C 132.025 26.580, 133.426 27.914, 133.710 29.001 C 133.995 30.088, 134.569 30.767, 134.986 30.509 C 135.980 29.894, 139.631 41.128, 140.507 47.500 C 140.885 50.250, 141.471 52.948, 141.808 53.495 C 142.994 55.420, 142.549 62.998, 141.250 62.999 C 140.563 63, 140 63.477, 140 64.059 C 140 64.641, 140.498 64.810, 141.107 64.434 C 141.862 63.967, 141.986 64.468, 141.498 66.006 C 141.104 67.247, 140.653 71.915, 140.496 76.381 C 140.339 80.846, 139.701 85.625, 139.078 87 C 137.963 89.464, 137.953 89.457, 138.403 86.500 C 138.654 84.850, 139.193 82.639, 139.600 81.586 C 140.117 80.248, 139.988 79.889, 139.170 80.395 C 138.367 80.891, 138 80.087, 138 77.837 C 138 74.671, 137.948 74.629, 136.537 76.644 C 135.352 78.335, 135.296 79.324, 136.241 81.829 C 137.552 85.302, 136.770 86.950, 134.798 84.869 C 133.997 84.025, 133.563 81.304, 133.664 77.769 C 133.811 72.607, 133.634 72.068, 131.877 72.337 C 130.805 72.500, 129.156 74.179, 128.214 76.067 C 126.114 80.274, 121.381 82.193, 114.877 81.475 L 110.253 80.965 116.574 87.539 C 120.408 91.527, 122.678 94.675, 122.346 95.542 C 121.914 96.667, 121.431 96.519, 120.072 94.841 C 118.388 92.761, 118.350 92.830, 118.424 97.804 C 118.518 104.099, 117.111 105.891, 113.862 103.616 C 112.593 102.727, 109.968 102.032, 108.027 102.070 C 105.050 102.130, 104.812 102.287, 106.500 103.081 C 108.002 103.787, 107.585 103.887, 104.828 103.480 C 100.402 102.827, 98.779 104.506, 103.016 105.353 C 104.964 105.743, 106.011 106.566, 106.032 107.725 C 106.049 108.701, 106.724 110.374, 107.532 111.441 C 110.091 114.825, 109.364 115.736, 104.493 115.249 C 100.436 114.845, 100.055 114.984, 100.676 116.650 C 101.880 119.875, 106.409 124, 108.747 124 C 109.986 124, 111.063 124.563, 111.140 125.250 C 111.217 125.938, 111.378 128.220, 111.497 130.322 C 111.756 134.859, 113.824 137.250, 117.492 137.250 L 120.162 137.250 116.418 141.084 C 114.360 143.192, 112.339 144.709, 111.928 144.455 C 110.616 143.645, 108 145.159, 108 146.729 C 108 147.954, 108.284 148.009, 109.479 147.017 C 110.600 146.087, 111.726 146.058, 114.128 146.895 C 118.308 148.352, 119.061 148.240, 116.104 146.601 L 113.707 145.273 117.634 140.886 C 127.103 130.308, 128.699 127.729, 128.390 123.500 C 128.134 119.985, 128.190 119.863, 128.854 122.500 L 129.610 125.500 130.209 122 C 130.640 119.484, 130.373 118.158, 129.261 117.285 C 128.061 116.343, 127.840 114.837, 128.279 110.584 C 128.591 107.567, 129.276 104.330, 129.802 103.390 C 130.667 101.844, 130.876 101.899, 131.979 103.961 C 132.913 105.706, 132.918 106.067, 132 105.500 C 131.108 104.948, 131.057 105.238, 131.802 106.629 C 132.352 107.658, 132.813 108.939, 132.826 109.475 C 132.839 110.011, 133.353 110.618, 133.969 110.823 C 134.718 111.073, 134.865 110.255, 134.415 108.348 C 133.859 105.998, 133.975 105.720, 135.077 106.756 C 136.175 107.789, 136.187 108.851, 135.146 112.743 C 134.450 115.345, 133.302 118.155, 132.594 118.987 C 131.821 119.897, 131.479 122.102, 131.737 124.519 C 132.088 127.807, 132.822 128.969, 135.771 130.902 C 140.266 133.848, 149.900 136.170, 154.125 135.325 C 156.499 134.850, 157.118 135, 156.554 135.912 C 156.138 136.585, 155.056 136.880, 154.149 136.566 C 152.933 136.145, 153.010 136.389, 154.441 137.498 C 155.509 138.324, 156.859 138.993, 157.441 138.985 C 158.024 138.976, 157.848 138.557, 157.052 138.053 C 154.907 136.696, 160.060 135.619, 165.297 136.330 L 169.500 136.900 166 135.526 L 162.500 134.152 167.750 134.076 C 172.786 134.003, 174.904 135.356, 171.250 136.311 C 169.652 136.728, 169.660 136.778, 171.333 136.884 C 172.342 136.948, 172.968 137.563, 172.726 138.250 C 172.483 138.938, 171.433 139.407, 170.392 139.292 C 169.352 139.178, 166.250 138.833, 163.500 138.525 C 160.355 138.173, 159.011 138.302, 159.878 138.871 C 160.636 139.369, 160.992 140.204, 160.670 140.726 C 159.965 141.866, 167.335 149.285, 169.486 149.601 C 170.579 149.761, 171 148.898, 171 146.495 C 171 144.664, 171.497 143.001, 172.104 142.799 C 172.891 142.536, 173.294 121.947, 173.509 70.965 C 173.675 31.659, 173.594 0.781, 173.329 2.346 L 172.849 5.191 155.674 4.515 C 146.228 4.143, 126.575 3.172, 112 2.358 C 97.425 1.544, 66.263 0.619, 42.750 0.301 L -0 -0.275 0 46.426 M 0.461 47 C 0.461 72.575, 0.591 83.038, 0.749 70.250 C 0.907 57.463, 0.907 36.538, 0.749 23.750 C 0.591 10.963, 0.461 21.425, 0.461 47 M 100.198 31.600 C 97.095 34.068, 96.995 34.337, 98.542 36.046 C 99.447 37.047, 100.790 37.634, 101.526 37.352 C 102.322 37.046, 103.528 38.121, 104.501 40.002 C 105.781 42.477, 105.912 43.815, 105.101 46.140 C 104.152 48.862, 104.402 49.481, 108.056 53.445 L 112.048 57.776 121.344 57.915 L 130.640 58.054 129.384 50.777 C 126.705 35.252, 122.443 30.607, 109.885 29.523 C 104.065 29.021, 103.208 29.205, 100.198 31.600 M 113.684 33.750 C 112.667 35.506, 113.814 41.316, 115.347 42.174 C 116.256 42.683, 117 43.740, 117 44.524 C 117 45.308, 118.356 46.650, 120.013 47.506 C 122.948 49.025, 123.050 48.998, 124.013 46.467 C 125.555 42.409, 125.268 41.518, 121.001 37.121 C 117.228 33.233, 114.667 32.053, 113.684 33.750 M 131.638 41.500 C 131.955 42.325, 132.391 43, 132.607 43 C 132.823 43, 133 42.325, 133 41.500 C 133 40.675, 132.564 40, 132.031 40 C 131.499 40, 131.322 40.675, 131.638 41.500 M 113.229 50.188 C 113.847 52.042, 116 52.349, 116 50.583 C 116 49.712, 115.287 49, 114.417 49 C 113.546 49, 113.011 49.534, 113.229 50.188 M 133.079 50.583 C 133.127 51.748, 133.364 51.985, 133.683 51.188 C 133.972 50.466, 133.936 49.603, 133.604 49.271 C 133.272 48.939, 133.036 49.529, 133.079 50.583 M 133.636 61.506 C 132.903 63.415, 133.930 66.161, 135.105 65.435 C 135.597 65.131, 136 64.035, 136 63 C 136 60.581, 134.383 59.559, 133.636 61.506 M 98.428 78.135 C 98.767 81.636, 99.148 86.166, 99.273 88.203 L 99.500 91.906 101.558 89.325 C 103.115 87.372, 104.150 86.913, 105.808 87.439 C 107.551 87.992, 108 87.736, 108 86.190 C 108 85.120, 107.275 83.643, 106.388 82.907 C 105.501 82.171, 103.814 79.562, 102.638 77.109 C 99.274 70.091, 97.685 70.478, 98.428 78.135 M 100.070 75.691 C 100.032 76.896, 100.450 78.160, 101 78.500 C 102.183 79.231, 102.183 78.252, 101 75.500 C 100.171 73.572, 100.138 73.579, 100.070 75.691 M 101.195 82.500 C 101.215 84.150, 101.439 84.704, 101.693 83.731 C 101.947 82.758, 101.930 81.408, 101.656 80.731 C 101.382 80.054, 101.175 80.850, 101.195 82.500 M 105 83.882 C 105 84.432, 105.450 85.160, 106 85.500 C 106.550 85.840, 107 85.668, 107 85.118 C 107 84.568, 106.550 83.840, 106 83.500 C 105.450 83.160, 105 83.332, 105 83.882 M 9.064 87.939 C 7.929 88.657, 7.881 89.152, 8.835 90.301 C 9.696 91.338, 12.200 91.753, 17.575 91.750 C 22.029 91.747, 26.619 92.365, 28.804 93.262 C 30.837 94.096, 35.993 95.543, 40.262 96.478 C 45.440 97.611, 48.341 98.769, 48.977 99.957 C 49.501 100.936, 49.739 101.927, 49.507 102.160 C 49.274 102.392, 51.432 105.208, 54.303 108.417 L 59.521 114.252 71.349 112.626 C 77.854 111.732, 85.837 111, 89.088 111 C 93.114 111, 95.022 110.601, 95.070 109.750 C 95.109 109.063, 95.555 109.400, 96.062 110.500 L 96.983 112.500 96.742 110.500 C 96.335 107.135, 87.944 103.729, 78.081 102.926 C 68.475 102.143, 59.612 99.454, 60.345 97.544 C 61.163 95.412, 59.696 94.395, 52 91.762 C 43.826 88.966, 36 87.661, 36 89.095 C 36 89.593, 37.237 90.009, 38.750 90.021 C 42.489 90.050, 54.752 94.466, 57.171 96.655 C 59.030 98.337, 59.040 98.497, 57.375 99.715 C 54.565 101.770, 51 101.352, 51 98.969 C 51 97.851, 50.438 96.780, 49.750 96.589 C 49.063 96.397, 43.775 94.872, 38 93.199 C 26.548 89.882, 14.369 86.984, 12 87.013 C 11.175 87.023, 9.854 87.439, 9.064 87.939 M 102.346 92.054 C 101.608 92.792, 101.755 94.128, 102.838 96.516 C 104.901 101.068, 109.219 102.187, 111.907 98.867 C 113.504 96.894, 114.002 96.757, 115.385 97.905 C 116.409 98.754, 117 98.843, 117 98.148 C 117 97.545, 115.672 96.365, 114.050 95.526 C 112.427 94.687, 110.671 93.234, 110.146 92.297 C 109.368 90.906, 108.918 90.824, 107.686 91.846 C 106.667 92.692, 105.968 92.757, 105.530 92.049 C 104.706 90.716, 103.682 90.718, 102.346 92.054 M 7 93.965 C 7 94.909, 10.162 97, 11.589 97 C 11.986 97, 11.495 96.100, 10.500 95 C 8.561 92.857, 7 92.396, 7 93.965 M 131 96.738 C 131 102.286, 133.465 103.190, 135.716 98.469 C 137.054 95.663, 137.133 94.737, 136.119 93.740 C 135.425 93.058, 134.943 92.950, 135.047 93.500 C 135.499 95.882, 134.868 96.190, 133 94.500 C 131.031 92.718, 131 92.753, 131 96.738 M 7.564 98.293 C 7.940 99.279, 8.499 99.834, 8.807 99.526 C 9.115 99.219, 8.808 98.412, 8.124 97.733 C 7.136 96.753, 7.022 96.868, 7.564 98.293 M 28.609 103.020 C 26.978 107.094, 26.431 113, 27.684 113 C 28.326 113, 37.041 109.042, 37.888 108.366 C 38.394 107.963, 31.699 99.071, 30.859 99.031 C 30.506 99.014, 29.493 100.809, 28.609 103.020 M 5.510 102.016 C 5.856 102.575, 6.557 102.774, 7.069 102.457 C 8.456 101.600, 8.198 101, 6.441 101 C 5.584 101, 5.165 101.457, 5.510 102.016 M 83.195 116.500 C 83.215 118.150, 83.439 118.704, 83.693 117.731 C 83.947 116.758, 83.930 115.408, 83.656 114.731 C 83.382 114.054, 83.175 114.850, 83.195 116.500 M 38.275 120.250 C 34.884 122.037, 29.497 125.106, 26.305 127.070 C 19.104 131.499, 12.872 133.127, 6.166 132.333 L 1 131.721 1 136.861 C 1 140.847, 1.350 142, 2.558 142 C 3.414 142, 6.130 143.125, 8.593 144.500 C 14.265 147.667, 15.087 147.667, 11.406 144.501 C 9.807 143.127, 7.938 142.002, 7.250 142.001 C 5.110 141.999, 5.848 140.683, 10.236 136.672 C 14.112 133.129, 14.813 132.855, 18.486 133.447 C 20.694 133.804, 24.506 134.311, 26.958 134.574 C 29.409 134.838, 31.659 135.379, 31.958 135.777 C 32.256 136.175, 33.175 136.667, 34 136.872 C 39.859 138.325, 39.657 138.345, 37.233 136.546 C 35.987 135.620, 35.226 134.444, 35.542 133.932 C 35.859 133.419, 35.116 133, 33.892 133 C 32.668 133, 31.921 132.746, 32.231 132.436 C 32.542 132.125, 34.522 132.195, 36.631 132.591 C 39.800 133.185, 40.122 133.445, 38.483 134.085 C 36.642 134.804, 36.665 134.864, 38.809 134.930 C 40.081 134.968, 40.840 135.449, 40.500 136 C 40.153 136.561, 40.938 137, 42.286 137 C 43.608 137, 45.505 137.900, 46.500 139 C 47.495 140.100, 49.017 141, 49.880 141 C 53.294 141, 65.034 135.598, 66.508 133.348 L 68.046 131 62.084 131 L 56.122 131 50.811 124.033 C 47.890 120.202, 45.262 117.052, 44.971 117.033 C 44.680 117.015, 41.667 118.463, 38.275 120.250 M 91.195 120.500 C 91.215 122.150, 91.439 122.704, 91.693 121.731 C 91.947 120.758, 91.930 119.408, 91.656 118.731 C 91.382 118.054, 91.175 118.850, 91.195 120.500 M 95.079 124.583 C 95.127 125.748, 95.364 125.985, 95.683 125.188 C 95.972 124.466, 95.936 123.603, 95.604 123.271 C 95.272 122.939, 95.036 123.529, 95.079 124.583 M 82.136 126.250 C 81.990 129.211, 82.644 129.585, 85 127.890 C 86.281 126.969, 86.254 126.890, 84.812 127.350 C 83.640 127.725, 82.994 127.219, 82.698 125.695 C 82.346 123.880, 82.249 123.976, 82.136 126.250 M 139.818 137.218 C 140.351 137.751, 141.623 138.011, 142.644 137.794 C 144.019 137.503, 143.767 137.251, 141.674 136.825 C 139.849 136.452, 139.192 136.592, 139.818 137.218 M 25.606 139.416 C 25.941 140.287, 26.653 141, 27.190 141 C 28.505 141, 27.682 138.727, 26.187 138.229 C 25.456 137.985, 25.233 138.443, 25.606 139.416 M 145.079 139.250 C 145.036 140.213, 144.662 141.016, 144.250 141.036 C 143.838 141.056, 142.264 142.084, 140.752 143.322 C 138.387 145.258, 138.273 145.571, 139.931 145.571 C 140.990 145.571, 141.777 145.277, 141.679 144.918 C 141.580 144.559, 142.576 143.384, 143.892 142.308 C 145.239 141.206, 146.038 139.729, 145.721 138.926 C 145.301 137.861, 145.138 137.943, 145.079 139.250 M 97.658 143.676 C 97.286 144.048, 97.948 145.380, 99.129 146.637 C 100.806 148.422, 101.684 148.704, 103.138 147.926 C 105.152 146.848, 105.659 145, 103.941 145 C 103.359 145, 103.196 145.508, 103.580 146.130 C 104.008 146.822, 103.740 147.064, 102.889 146.755 C 102.125 146.477, 101.607 145.760, 101.738 145.161 C 101.875 144.532, 101.278 144.340, 100.324 144.706 C 99.216 145.131, 98.910 144.955, 99.395 144.170 C 100.164 142.926, 98.796 142.537, 97.658 143.676 M 148 145 C 147.411 146.100, 146.060 147, 144.996 147 C 143.672 147, 143.248 147.482, 143.650 148.530 C 144.048 149.568, 144.921 149.846, 146.368 149.395 C 148.866 148.616, 150.115 146.995, 149.270 145.628 C 148.916 145.055, 149.409 144.943, 150.477 145.353 C 152.004 145.939, 152.087 145.810, 151.019 144.523 C 149.407 142.581, 149.285 142.600, 148 145 M 168 146 C 168 146.550, 168.477 147, 169.059 147 C 169.641 147, 169.840 146.550, 169.500 146 C 169.160 145.450, 168.684 145, 168.441 145 C 168.198 145, 168 145.450, 168 146 M 172.079 148.583 C 172.127 149.748, 172.364 149.985, 172.683 149.188 C 172.972 148.466, 172.936 147.603, 172.604 147.271 C 172.272 146.939, 172.036 147.529, 172.079 148.583 M 136.813 149.683 C 137.534 149.972, 138.397 149.936, 138.729 149.604 C 139.061 149.272, 138.471 149.036, 137.417 149.079 C 136.252 149.127, 136.015 149.364, 136.813 149.683" stroke="none" fill="#86827b" fill-rule="evenodd"/><path d="M 88.244 12.643 C 87.553 12.933, 87.192 13.501, 87.441 13.904 C 87.690 14.308, 86.664 14.458, 85.161 14.237 C 81.167 13.651, 72.121 18.057, 67.500 22.839 C 61.982 28.549, 60 32.628, 60 38.274 C 60 40.974, 59.182 44.706, 58.133 46.790 C 57.107 48.830, 56.376 51.850, 56.509 53.500 C 57.643 67.530, 58.408 73.760, 59.180 75.265 C 59.833 76.537, 59.656 77.195, 58.543 77.622 C 57.694 77.948, 57 78.889, 57 79.714 C 57 80.619, 56.420 80.991, 55.538 80.653 C 54.314 80.183, 54.344 80.653, 55.717 83.533 C 56.620 85.426, 57.106 87.227, 56.797 87.536 C 55.927 88.406, 51 86.909, 51 85.775 C 51 85.220, 49.199 83.019, 46.999 80.883 C 43.364 77.355, 41.266 76.545, 36.250 76.731 C 35.563 76.757, 35 76.406, 35 75.951 C 35 74.388, 30.835 75.439, 29.868 77.247 C 29.335 78.242, 28.585 78.862, 28.200 78.624 C 27.815 78.386, 27.435 79.274, 27.356 80.596 C 27.219 82.878, 27.524 83.006, 33.356 83.119 L 39.500 83.238 34.500 84.455 L 29.500 85.672 36.958 86.961 C 41.060 87.671, 46.798 89.070, 49.708 90.072 C 52.619 91.073, 55 91.496, 55 91.012 C 55 90.165, 59.530 90.591, 61.147 91.591 C 61.580 91.859, 61.679 93.353, 61.368 94.912 C 60.809 97.704, 60.866 97.743, 65.150 97.497 C 67.615 97.356, 70.355 97.844, 71.473 98.624 C 73.779 100.233, 75.385 100.433, 74.500 99 C 73.464 97.324, 75.518 97.872, 80.311 100.550 C 86.835 104.197, 93.309 104.963, 99.500 102.823 L 104.500 101.094 96.887 101.673 C 91.386 102.091, 89.061 101.908, 88.508 101.014 C 88.074 100.311, 88.339 99.399, 89.122 98.904 C 89.880 98.423, 90.050 98.006, 89.500 97.975 C 88.950 97.945, 89.682 97.278, 91.127 96.492 C 93.619 95.138, 95.472 90.572, 94.299 88.675 C 94.015 88.214, 92.733 88.101, 91.452 88.423 C 90.171 88.744, 88.840 88.550, 88.495 87.992 C 87.930 87.078, 93.417 85.274, 95.223 85.780 C 95.621 85.891, 95.688 84.691, 95.372 83.112 C 95.054 81.521, 95.274 79.948, 95.867 79.583 C 96.464 79.213, 96.678 77.638, 96.351 76.006 C 95.953 74.017, 96.291 72.567, 97.412 71.445 C 99.404 69.453, 101.171 70.585, 103.014 75.033 C 103.690 76.665, 104.836 78, 105.562 78 C 106.288 78, 107.157 78.445, 107.493 78.989 C 107.857 79.578, 107.376 79.716, 106.302 79.329 C 105.311 78.973, 104.797 79.012, 105.160 79.417 C 106.350 80.744, 119.895 81.190, 123.444 80.018 C 126.182 79.115, 127.221 77.987, 128.570 74.456 C 130.051 70.578, 130.556 70.101, 132.631 70.622 C 135.298 71.292, 135.660 70.082, 133.812 66.684 C 133.158 65.483, 132.738 63.093, 132.878 61.374 L 133.132 58.248 111.644 57.831 C 90.275 57.417, 90.145 57.401, 88.112 54.957 C 85.529 51.853, 85.449 49.310, 87.910 48.529 C 88.960 48.195, 90.372 47.257, 91.048 46.443 C 92.037 45.250, 91.928 44.578, 90.483 42.981 C 89.497 41.892, 88.133 41, 87.452 41 C 86.771 41, 85.936 40.274, 85.595 39.387 C 85.133 38.183, 84.644 38.051, 83.664 38.864 C 82.713 39.653, 82.029 39.629, 81.176 38.776 C 79.406 37.006, 79.758 36.124, 82 36.710 C 83.396 37.075, 84 36.741, 84 35.603 C 84 33.986, 93.311 29, 96.330 29 C 97.245 29, 97.735 28.100, 97.644 26.584 C 97.565 25.255, 97.275 24.239, 97 24.326 C 96.725 24.413, 95.439 23.736, 94.142 22.822 C 91.709 21.108, 92.069 18.429, 94.601 19.400 C 96.372 20.080, 96.483 16.895, 94.750 15.117 C 93.738 14.079, 94.118 13.929, 96.750 14.330 C 98.938 14.664, 100 14.420, 100 13.584 C 100 12.314, 90.782 11.576, 88.244 12.643 M 103 14.378 C 103 14.585, 103.787 15.373, 104.750 16.128 C 106.336 17.371, 106.371 17.336, 105.128 15.750 C 103.821 14.084, 103 13.555, 103 14.378 M 98 17 C 98 17.550, 98.477 18, 99.059 18 C 99.641 18, 99.840 17.550, 99.500 17 C 99.160 16.450, 98.684 16, 98.441 16 C 98.198 16, 98 16.450, 98 17 M 128.813 27.683 C 129.534 27.972, 130.397 27.936, 130.729 27.604 C 131.061 27.272, 130.471 27.036, 129.417 27.079 C 128.252 27.127, 128.015 27.364, 128.813 27.683 M 75 39.500 C 75 40.351, 75.897 41, 77.071 41 C 78.913 41, 78.976 40.833, 77.643 39.500 C 76.818 38.675, 75.886 38, 75.571 38 C 75.257 38, 75 38.675, 75 39.500 M 80 42 C 80 42.550, 80.702 43, 81.559 43 C 82.416 43, 82.840 42.550, 82.500 42 C 82.160 41.450, 81.459 41, 80.941 41 C 80.423 41, 80 41.450, 80 42 M 62.232 64 C 62.232 65.925, 62.438 66.713, 62.689 65.750 C 62.941 64.787, 62.941 63.212, 62.689 62.250 C 62.438 61.288, 62.232 62.075, 62.232 64 M 124.232 63 C 125.458 64.963, 128 65.773, 128 64.200 C 128 62.951, 125.739 61, 124.292 61 C 123.233 61, 123.222 61.383, 124.232 63 M 136.070 67.191 C 136.032 69.221, 136.480 71.179, 137.067 71.541 C 138.907 72.679, 139.057 71.459, 137.574 67.413 L 136.141 63.500 136.070 67.191 M 120.900 74.982 C 118.480 76.622, 115.911 77.972, 115.191 77.982 C 114.471 77.992, 114.111 78.370, 114.390 78.822 C 115.037 79.869, 122.569 79.301, 124.951 78.026 C 127.074 76.890, 128.341 72, 126.512 72 C 125.846 72, 123.321 73.342, 120.900 74.982 M 21.568 74.891 C 21.265 75.380, 22.131 76.511, 23.493 77.403 C 25.954 79.016, 25.962 79.011, 24.824 76.513 C 23.638 73.911, 22.518 73.353, 21.568 74.891 M 40.003 84.331 C 41.081 85.421, 49 87.720, 49 86.942 C 49 86.489, 48.663 85.926, 48.250 85.690 C 47.074 85.020, 39.440 83.761, 40.003 84.331 M 108.732 86.624 C 108.360 88.569, 108.693 89.369, 110.023 89.716 C 111.008 89.974, 112.040 91.043, 112.314 92.092 C 112.588 93.142, 113.417 93.993, 114.156 93.985 C 115.246 93.972, 115.254 93.814, 114.200 93.145 C 113.485 92.691, 112.827 91.360, 112.739 90.186 C 112.651 89.012, 111.952 87.812, 111.185 87.518 C 110.419 87.224, 110.050 86.312, 110.365 85.492 C 110.680 84.671, 110.554 84, 110.085 84 C 109.617 84, 109.007 85.181, 108.732 86.624 M 14.993 95.004 C 14.182 95.506, 13.514 96.723, 13.509 97.708 C 13.503 98.825, 12.869 99.396, 11.826 99.224 C 10.869 99.066, 9.878 99.808, 9.514 100.956 C 9.163 102.060, 6.884 105.104, 4.448 107.719 C 0.315 112.157, 0.028 112.824, 0.142 117.737 C 0.214 120.854, 0.719 123.015, 1.382 123.036 C 1.997 123.056, 3.788 124.125, 5.362 125.413 C 7.020 126.769, 9.019 127.546, 10.112 127.260 C 11.150 126.989, 12 127.255, 12 127.852 C 12 128.453, 12.742 128.653, 13.664 128.299 C 14.783 127.869, 15.091 128.043, 14.605 128.830 C 14.140 129.583, 14.638 130, 16 130 C 17.165 130, 17.874 129.606, 17.577 129.124 C 17.279 128.642, 18.368 128.361, 19.998 128.500 C 21.628 128.639, 23.475 128.133, 24.103 127.376 C 24.731 126.619, 25.865 126, 26.622 126 C 27.380 126, 28 125.550, 28 125 C 28 124.450, 28.567 124, 29.260 124 C 29.953 124, 31.759 122.852, 33.272 121.448 C 34.786 120.045, 36.463 119.168, 37.001 119.500 C 37.556 119.843, 37.718 119.429, 37.377 118.541 C 36.942 117.405, 37.219 117.147, 38.389 117.596 C 39.275 117.936, 40 117.730, 40 117.138 C 40 116.547, 40.629 116.304, 41.399 116.600 C 43.748 117.501, 44 115.529, 41.963 112.179 C 39.691 108.443, 39.165 108.365, 34 111 C 31.844 112.100, 29.436 113, 28.648 113 C 25.698 113, 25.702 105.860, 28.655 101.527 C 30.755 98.448, 30.331 98, 25.314 98 C 22.042 98, 20.002 97.411, 18.549 96.046 C 17.109 94.693, 16.015 94.373, 14.993 95.004 M 96.500 95.765 C 94.446 97.274, 95.015 98.976, 97.504 98.770 C 99.882 98.574, 101.159 97, 98.941 97 C 98.359 97, 98.160 96.550, 98.500 96 C 99.217 94.840, 97.961 94.692, 96.500 95.765 M 52 99.031 C 52 99.564, 52.675 100, 53.500 100 C 54.325 100, 55 99.823, 55 99.607 C 55 99.391, 54.325 98.955, 53.500 98.638 C 52.675 98.322, 52 98.499, 52 99.031 M 34.564 100.293 C 34.940 101.279, 35.499 101.834, 35.807 101.526 C 36.115 101.219, 35.808 100.412, 35.124 99.733 C 34.136 98.753, 34.022 98.868, 34.564 100.293 M 37 100.941 C 37 101.459, 37.450 102.160, 38 102.500 C 38.550 102.840, 39 102.416, 39 101.559 C 39 100.702, 38.550 100, 38 100 C 37.450 100, 37 100.423, 37 100.941 M 41.908 102.389 C 43.475 104.277, 48 105.086, 48 103.478 C 48 102.287, 45.034 101.043, 42.128 101.014 C 41.069 101.003, 41.019 101.318, 41.908 102.389 M 112 101.393 C 112 101.609, 112.675 102.045, 113.500 102.362 C 114.325 102.678, 115 102.501, 115 101.969 C 115 101.436, 114.325 101, 113.500 101 C 112.675 101, 112 101.177, 112 101.393 M 66.899 116.750 C 66.595 118.537, 66.718 120, 67.173 120 C 67.628 120, 68 120.900, 68 122 C 68 124.417, 70.720 124.692, 71.177 122.321 C 71.476 120.765, 71.620 120.763, 73.141 122.284 C 74.662 123.804, 74.816 123.744, 75.252 121.462 C 75.737 118.925, 74.559 118.027, 73.662 120.250 C 73.259 121.250, 73.142 121.250, 73.079 120.250 C 73.036 119.563, 71.905 119, 70.566 119 C 68.661 119, 68.059 118.403, 67.793 116.250 C 67.459 113.556, 67.441 113.566, 66.899 116.750 M 53.543 116.931 C 53.226 117.443, 53.425 118.144, 53.984 118.490 C 54.543 118.835, 55 118.416, 55 117.559 C 55 115.802, 54.400 115.544, 53.543 116.931 M 53 120.882 C 53 121.432, 53.450 122.160, 54 122.500 C 54.550 122.840, 55 122.668, 55 122.118 C 55 121.568, 54.550 120.840, 54 120.500 C 53.450 120.160, 53 120.332, 53 120.882 M 66.195 128.500 C 66.215 130.150, 66.439 130.704, 66.693 129.731 C 66.947 128.758, 66.930 127.408, 66.656 126.731 C 66.382 126.054, 66.175 126.850, 66.195 128.500 M 83.250 130.679 C 78.410 131.176, 77.919 132.084, 81.466 133.982 C 82.822 134.708, 83.725 135.636, 83.472 136.046 C 83.219 136.455, 83.707 137.057, 84.558 137.384 C 85.574 137.774, 85.889 137.553, 85.478 136.739 C 85.133 136.057, 85.560 136.374, 86.426 137.441 C 87.292 138.509, 88 139.021, 88 138.580 C 88 138.139, 88.787 138.637, 89.750 139.686 C 90.713 140.736, 91.107 141.011, 90.628 140.297 C 89.463 138.566, 89.940 138.643, 95.456 141.084 C 98.047 142.230, 100.301 143.017, 100.467 142.834 C 100.632 142.650, 100.303 141.375, 99.736 140 C 98.143 136.140, 97.909 134, 99.078 134 C 99.664 134, 99.448 133.305, 98.599 132.456 C 96.926 130.783, 90.024 129.984, 83.250 130.679 M 69.882 140.250 C 69.816 142.037, 69.819 143.845, 69.887 144.266 C 69.955 144.688, 68.658 144.930, 67.006 144.804 C 64.544 144.616, 64.110 144.229, 64.607 142.662 C 65.023 141.351, 64.845 140.978, 64.040 141.475 C 63.329 141.915, 62.662 141.424, 62.350 140.231 C 61.847 138.306, 61.722 138.315, 56.922 140.630 C 54.220 141.934, 51.333 143, 50.505 143 C 49.677 143, 49.053 143.338, 49.118 143.750 C 49.399 145.526, 48.934 147, 48.094 147 C 47.595 147, 47.423 146.100, 47.710 145 C 48.301 142.740, 47.049 142.382, 45.088 144.250 C 44.015 145.271, 43.899 145.043, 44.453 143 C 44.999 140.985, 44.907 140.791, 43.979 142 C 43.025 143.241, 42.911 143.115, 43.315 141.267 C 43.745 139.301, 43.566 139.162, 41.806 140.104 C 39.827 141.163, 39.828 141.191, 41.984 143.200 C 43.590 144.695, 44 145.918, 43.550 147.863 C 43.092 149.840, 43.193 150.125, 43.954 149 C 44.535 148.141, 44.976 147.996, 44.985 148.660 C 44.996 149.493, 49.581 149.813, 61.250 149.795 C 70.188 149.781, 76.520 149.569, 75.323 149.325 C 73.019 148.854, 70.355 146.312, 71.238 145.428 C 71.526 145.140, 72.512 145.655, 73.429 146.571 C 74.345 147.488, 75.398 147.935, 75.769 147.565 C 76.139 147.194, 75.835 146.516, 75.093 146.057 C 74.310 145.574, 74.072 144.692, 74.526 143.957 C 75.017 143.163, 74.906 142.940, 74.227 143.360 C 73.102 144.055, 71.425 140.453, 71.848 138.250 C 71.980 137.563, 71.618 137, 71.044 137 C 70.470 137, 69.947 138.463, 69.882 140.250 M 33.495 142.015 C 33.144 143.123, 32.469 143.790, 31.997 143.498 C 31.525 143.206, 30.813 143.494, 30.415 144.138 C 29.963 144.869, 30.124 145.041, 30.845 144.595 C 32.280 143.709, 32.341 145.494, 30.965 148.066 C 30.155 149.578, 30.257 150, 31.430 150 C 33.176 150, 34.481 147.815, 35.461 143.250 C 36.229 139.673, 34.570 138.630, 33.495 142.015 M 112.454 140.926 C 112.761 141.423, 112.469 142.010, 111.805 142.232 C 110.966 142.511, 110.929 142.838, 111.686 143.306 C 112.284 143.676, 113.286 143.360, 113.912 142.606 C 114.788 141.551, 114.687 141.094, 113.474 140.628 C 112.606 140.295, 112.147 140.429, 112.454 140.926 M 156.619 146 C 158.075 148.200, 159.662 150, 160.147 150 C 160.632 150, 159.837 148.200, 158.381 146 C 156.925 143.800, 155.338 142, 154.853 142 C 154.368 142, 155.163 143.800, 156.619 146 M 19.970 146.055 C 19.365 147.186, 19.018 148.555, 19.200 149.099 C 19.381 149.642, 20.046 148.717, 20.678 147.043 C 21.991 143.562, 21.598 143.013, 19.970 146.055 M 26.357 144.660 C 27.205 146.174, 26.053 149.151, 24.895 148.435 C 24.403 148.131, 24 148.359, 24 148.941 C 24 150.748, 25.873 150.106, 27.057 147.893 C 27.913 146.294, 27.886 145.510, 26.946 144.643 C 26.015 143.784, 25.868 143.788, 26.357 144.660 M 37.399 146.547 C 37.047 147.947, 37.063 149.397, 37.434 149.768 C 38.303 150.637, 39.965 148.019, 39.985 145.750 C 40.008 143.083, 38.122 143.664, 37.399 146.547 M 106.792 147.925 C 99.281 148.974, 100.014 150, 108.274 150 C 115.530 150, 118.797 148.904, 115.412 147.605 C 113.711 146.952, 113.773 146.950, 106.792 147.925" stroke="none" fill="#201410" fill-rule="evenodd"/><path d="M 74.500 0.680 C 97.197 1.822, 144.115 4.036, 157.250 4.584 L 173 5.242 173 2.621 L 173 0 120.750 0.189 C 92.013 0.293, 71.200 0.514, 74.500 0.680 M 91.113 11.446 C 91.359 11.692, 93.459 12.005, 95.780 12.142 C 98.292 12.290, 100 12.884, 100 13.608 C 100 14.417, 98.908 14.659, 96.750 14.330 C 94.118 13.929, 93.738 14.079, 94.750 15.117 C 96.483 16.895, 96.372 20.080, 94.601 19.400 C 92.069 18.429, 91.709 21.108, 94.142 22.822 C 95.439 23.736, 96.725 24.413, 97 24.326 C 97.275 24.239, 97.565 25.255, 97.644 26.584 C 97.735 28.100, 97.245 29, 96.330 29 C 93.311 29, 84 33.986, 84 35.603 C 84 36.741, 83.396 37.075, 82 36.710 C 79.717 36.113, 79.365 37.228, 81.324 38.854 C 82.288 39.654, 82.958 39.642, 83.791 38.809 C 84.649 37.951, 85.094 38.082, 85.574 39.333 C 85.926 40.250, 86.771 41, 87.452 41 C 88.133 41, 89.497 41.892, 90.483 42.981 C 91.928 44.578, 92.037 45.250, 91.048 46.443 C 90.372 47.257, 88.960 48.195, 87.910 48.529 C 85.497 49.294, 85.517 51.841, 87.959 54.769 C 89.652 56.799, 91.047 57.106, 101.176 57.676 L 112.500 58.313 108.282 53.714 C 104.405 49.486, 104.148 48.874, 105.101 46.140 C 105.912 43.815, 105.781 42.477, 104.501 40.002 C 103.528 38.121, 102.322 37.046, 101.526 37.352 C 100.790 37.634, 99.442 37.040, 98.530 36.033 C 96.965 34.304, 97.068 34.050, 100.338 31.555 C 103.497 29.146, 104.361 28.964, 110.048 29.505 C 113.481 29.831, 117.462 30.708, 118.895 31.454 C 124.733 34.493, 128.195 41.005, 129.451 51.312 C 129.886 54.883, 130.707 57.334, 131.580 57.669 C 132.361 57.969, 133.007 59.178, 133.015 60.357 C 133.028 62.069, 133.218 62.204, 133.962 61.028 C 134.781 59.732, 134.957 59.732, 135.430 61.028 C 139.118 71.135, 139.406 72.987, 137.067 71.541 C 136.480 71.179, 136 69.532, 136 67.882 C 136 66.137, 135.582 65.140, 135 65.500 C 134.450 65.840, 134 65.641, 134 65.059 C 134 64.477, 133.524 64, 132.943 64 C 132.351 64, 132.571 64.977, 133.443 66.223 C 135.790 69.572, 135.454 71.331, 132.604 70.616 C 131.022 70.218, 130.024 70.495, 129.665 71.430 C 129.268 72.465, 129.754 72.731, 131.475 72.419 C 133.737 72.009, 133.822 72.215, 133.664 77.746 C 133.563 81.300, 133.996 84.023, 134.798 84.869 C 136.770 86.950, 137.552 85.302, 136.241 81.829 C 135.296 79.324, 135.352 78.335, 136.537 76.644 C 137.948 74.629, 138 74.671, 138 77.837 C 138 80.087, 138.367 80.891, 139.170 80.395 C 139.988 79.889, 140.117 80.248, 139.600 81.586 C 139.193 82.639, 138.654 84.850, 138.403 86.500 C 137.953 89.457, 137.963 89.464, 139.078 87 C 139.701 85.625, 140.339 80.846, 140.496 76.381 C 140.653 71.915, 141.104 67.247, 141.498 66.006 C 141.986 64.468, 141.862 63.967, 141.107 64.434 C 140.498 64.810, 140 64.641, 140 64.059 C 140 63.477, 140.563 63, 141.250 62.999 C 142.549 62.998, 142.994 55.420, 141.808 53.495 C 141.471 52.948, 140.885 50.250, 140.507 47.500 C 139.631 41.128, 135.980 29.894, 134.986 30.509 C 134.569 30.767, 133.995 30.088, 133.710 29.001 C 133.426 27.914, 132.025 26.580, 130.597 26.037 C 129.169 25.494, 128 24.533, 128 23.902 C 128 23.056, 127.648 23.047, 126.658 23.869 C 125.090 25.170, 123.918 24.378, 124.637 22.503 C 125.294 20.791, 123.623 19.824, 121.450 20.658 C 119.824 21.282, 119.822 21.397, 121.420 22.565 C 122.503 23.357, 122.735 24.046, 122.060 24.463 C 121.477 24.823, 121 24.593, 121 23.952 C 121 23.311, 120.325 23.045, 119.500 23.362 C 118.577 23.716, 118 23.360, 118 22.436 C 118 21.611, 119.013 20.545, 120.250 20.068 C 122.424 19.229, 122.433 19.177, 120.500 18.519 C 119.400 18.144, 117.466 17.424, 116.203 16.919 C 114.940 16.413, 113.072 16, 112.052 16 C 111.033 16, 107.791 14.879, 104.849 13.510 C 101.713 12.050, 97.673 11.015, 95.083 11.010 C 92.654 11.004, 90.868 11.201, 91.113 11.446 M 85.554 12.902 C 83.696 13.629, 83.708 13.690, 85.805 14.239 C 87.014 14.555, 87.774 14.444, 87.495 13.992 C 87.216 13.540, 87.553 12.943, 88.244 12.664 C 88.935 12.386, 89.050 12.154, 88.500 12.149 C 87.950 12.144, 86.624 12.483, 85.554 12.902 M 78 15 C 77.175 15.533, 76.950 15.969, 77.500 15.969 C 78.050 15.969, 79.175 15.533, 80 15 C 80.825 14.467, 81.050 14.031, 80.500 14.031 C 79.950 14.031, 78.825 14.467, 78 15 M 103 14.378 C 103 14.585, 103.787 15.373, 104.750 16.128 C 106.336 17.371, 106.371 17.336, 105.128 15.750 C 103.821 14.084, 103 13.555, 103 14.378 M 67.773 20.812 C 65.297 23.459, 62.736 26.721, 62.081 28.062 C 60.937 30.403, 60.953 30.421, 62.482 28.500 C 65.288 24.975, 72.995 17.010, 73.532 17.081 C 73.817 17.119, 74.601 16.927, 75.275 16.654 C 75.949 16.381, 75.549 16.122, 74.387 16.079 C 73.088 16.030, 70.539 17.855, 67.773 20.812 M 98 17 C 98 17.550, 98.477 18, 99.059 18 C 99.641 18, 99.840 17.550, 99.500 17 C 99.160 16.450, 98.684 16, 98.441 16 C 98.198 16, 98 16.450, 98 17 M 105 22.941 C 105 23.459, 105.445 24.157, 105.989 24.493 C 106.555 24.843, 106.723 24.442, 106.382 23.552 C 105.717 21.820, 105 21.503, 105 22.941 M 128.813 27.683 C 129.534 27.972, 130.397 27.936, 130.729 27.604 C 131.061 27.272, 130.471 27.036, 129.417 27.079 C 128.252 27.127, 128.015 27.364, 128.813 27.683 M 58.824 38.046 C 58.612 40.271, 58.783 42.633, 59.204 43.296 C 59.625 43.958, 59.976 42.138, 59.985 39.250 C 60.003 33.015, 59.367 32.355, 58.824 38.046 M 75 39.500 C 75 40.351, 75.897 41, 77.071 41 C 78.913 41, 78.976 40.833, 77.643 39.500 C 76.818 38.675, 75.886 38, 75.571 38 C 75.257 38, 75 38.675, 75 39.500 M 131.638 41.500 C 131.955 42.325, 132.391 43, 132.607 43 C 132.823 43, 133 42.325, 133 41.500 C 133 40.675, 132.564 40, 132.031 40 C 131.499 40, 131.322 40.675, 131.638 41.500 M 80 42 C 80 42.550, 80.702 43, 81.559 43 C 82.416 43, 82.840 42.550, 82.500 42 C 82.160 41.450, 81.459 41, 80.941 41 C 80.423 41, 80 41.450, 80 42 M 56.035 48.934 C 55.039 50.796, 54.539 55.794, 55.439 54.894 C 55.681 54.653, 56.100 53.235, 56.370 51.744 C 56.640 50.253, 57.144 48.576, 57.490 48.016 C 57.835 47.457, 57.882 47, 57.594 47 C 57.306 47, 56.605 47.870, 56.035 48.934 M 133.079 50.583 C 133.127 51.748, 133.364 51.985, 133.683 51.188 C 133.972 50.466, 133.936 49.603, 133.604 49.271 C 133.272 48.939, 133.036 49.529, 133.079 50.583 M 56.233 59 C 56.235 60.925, 56.580 63.850, 57 65.500 C 57.695 68.233, 57.769 68.278, 57.824 66 C 57.857 64.625, 57.512 61.700, 57.057 59.500 L 56.230 55.500 56.233 59 M 62.232 64 C 62.232 65.925, 62.438 66.713, 62.689 65.750 C 62.941 64.787, 62.941 63.212, 62.689 62.250 C 62.438 61.288, 62.232 62.075, 62.232 64 M 124.232 63 C 125.458 64.963, 128 65.773, 128 64.200 C 128 62.951, 125.739 61, 124.292 61 C 123.233 61, 123.222 61.383, 124.232 63 M 57.079 71.583 C 57.127 72.748, 57.364 72.985, 57.683 72.188 C 57.972 71.466, 57.936 70.603, 57.604 70.271 C 57.272 69.939, 57.036 70.529, 57.079 71.583 M 97.140 71.616 C 96.308 72.556, 96.004 74.270, 96.357 76.037 C 96.678 77.642, 96.461 79.215, 95.867 79.583 C 95.274 79.948, 95.054 81.521, 95.372 83.112 C 95.688 84.691, 95.621 85.891, 95.223 85.780 C 93.417 85.274, 87.930 87.078, 88.495 87.992 C 88.840 88.550, 90.171 88.744, 91.452 88.423 C 92.733 88.101, 94.015 88.214, 94.299 88.675 C 95.472 90.572, 93.619 95.138, 91.127 96.492 C 89.682 97.278, 88.950 97.945, 89.500 97.975 C 90.050 98.006, 89.880 98.423, 89.122 98.904 C 88.339 99.399, 88.074 100.311, 88.508 101.014 C 89.059 101.905, 91.403 102.095, 96.887 101.692 L 104.500 101.132 100 102.664 C 97.525 103.507, 93.700 104.135, 91.500 104.059 L 87.500 103.922 92 106.211 C 98.869 109.705, 98.474 111.580, 90.959 111.158 C 87.607 110.970, 79.157 111.584, 72.183 112.523 L 59.502 114.231 54.293 108.407 C 51.428 105.203, 49.274 102.392, 49.507 102.160 C 49.739 101.927, 49.501 100.936, 48.977 99.957 C 48.341 98.769, 45.440 97.611, 40.262 96.478 C 35.993 95.543, 30.837 94.096, 28.804 93.262 C 26.619 92.365, 22.029 91.747, 17.575 91.750 C 12.200 91.753, 9.696 91.338, 8.835 90.301 C 7.881 89.152, 7.929 88.657, 9.064 87.939 C 9.854 87.439, 11.175 87.023, 12 87.013 C 14.369 86.984, 26.548 89.882, 38 93.199 C 43.775 94.872, 49.063 96.397, 49.750 96.589 C 50.438 96.780, 51 97.851, 51 98.969 C 51 101.352, 54.565 101.770, 57.375 99.715 C 59.040 98.497, 59.030 98.337, 57.171 96.655 C 54.752 94.466, 42.489 90.050, 38.750 90.021 C 37.237 90.009, 36 89.605, 36 89.123 C 36 88.640, 38.137 88.395, 40.750 88.577 C 44.247 88.820, 43.389 88.479, 37.500 87.282 L 29.500 85.657 34.500 84.447 L 39.500 83.238 33.183 83.119 C 27.657 83.015, 26.932 82.781, 27.402 81.250 C 27.697 80.287, 27.047 78.375, 25.956 77 C 24.507 75.172, 24.157 75.015, 24.657 76.414 C 25.184 77.892, 25.017 78.133, 23.920 77.472 C 22.711 76.743, 22.703 76.866, 23.862 78.295 C 24.680 79.304, 24.972 80.977, 24.593 82.487 C 24.003 84.835, 23.552 85, 17.731 85 C 12.048 85, 10.994 85.359, 5.750 89.079 L -0 93.158 -0 102.827 L 0 112.496 4.438 107.730 C 6.879 105.109, 9.163 102.060, 9.514 100.956 C 9.878 99.808, 10.869 99.066, 11.826 99.224 C 12.879 99.397, 13.503 98.823, 13.508 97.675 C 13.520 94.699, 16.450 93.735, 18.522 96.025 C 19.827 97.466, 21.600 98, 25.084 98 C 30.173 98, 31.117 98.605, 35.759 104.837 C 37.260 106.851, 39.053 108.860, 39.744 109.300 C 41.772 110.591, 44.126 115.804, 42.996 116.502 C 42.448 116.841, 41.550 116.840, 41 116.500 C 40.450 116.160, 40 116.407, 40 117.048 C 40 117.709, 39.303 117.946, 38.389 117.596 C 37.219 117.147, 36.942 117.405, 37.377 118.541 C 37.718 119.429, 37.556 119.843, 37.001 119.500 C 36.463 119.168, 34.786 120.045, 33.272 121.448 C 31.759 122.852, 29.953 124, 29.260 124 C 28.567 124, 28 124.450, 28 125 C 28 125.550, 27.380 126, 26.622 126 C 25.865 126, 24.627 126.749, 23.872 127.664 C 22.618 129.185, 22.714 129.217, 25 128.038 C 26.375 127.329, 28.850 125.745, 30.500 124.519 C 35.115 121.088, 45.143 116.626, 45.863 117.684 C 49.110 122.455, 52.409 125.865, 53.266 125.336 C 53.892 124.949, 54.008 125.178, 53.557 125.909 C 52.051 128.345, 56.013 131, 61.155 131 C 65.745 131, 66.006 130.855, 66.118 128.250 L 66.237 125.500 66.920 128.500 C 67.938 132.972, 65.827 135.360, 58.210 138.348 C 50.105 141.528, 48.851 141.598, 46.500 139 C 45.505 137.900, 43.608 137, 42.286 137 C 40.938 137, 40.153 136.561, 40.500 136 C 40.840 135.449, 40.081 134.968, 38.809 134.930 C 36.665 134.864, 36.642 134.804, 38.483 134.085 C 40.122 133.445, 39.800 133.185, 36.631 132.591 C 34.522 132.195, 32.542 132.125, 32.231 132.436 C 31.921 132.746, 32.668 133, 33.892 133 C 35.116 133, 35.859 133.419, 35.542 133.932 C 35.226 134.444, 35.987 135.620, 37.233 136.546 C 39.657 138.345, 39.859 138.325, 34 136.872 C 33.175 136.667, 32.256 136.175, 31.958 135.777 C 31.659 135.379, 29.409 134.838, 26.958 134.574 C 24.506 134.311, 20.694 133.804, 18.486 133.447 C 14.813 132.855, 14.112 133.129, 10.236 136.672 C 5.848 140.683, 5.110 141.999, 7.250 142.001 C 7.938 142.002, 9.807 143.127, 11.406 144.501 C 14.965 147.562, 14.269 147.682, 9.280 144.867 C 7.201 143.693, 4.263 142.375, 2.750 141.937 C 0.051 141.154, 0 141.220, 0 145.466 L 0 149.793 9.500 149.834 C 16.441 149.864, 19 149.540, 19 148.629 C 19 147.943, 19.700 146.509, 20.555 145.441 C 22.057 143.566, 22.074 143.574, 21.055 145.684 C 19.509 148.885, 19.753 150, 22 150 C 23.100 150, 24 149.460, 24 148.800 C 24 147.867, 24.267 147.867, 25.200 148.800 C 27.002 150.602, 29.798 150.246, 30.965 148.066 C 32.341 145.494, 32.280 143.709, 30.845 144.595 C 30.124 145.041, 29.963 144.869, 30.415 144.138 C 30.813 143.494, 31.525 143.206, 31.997 143.498 C 32.469 143.790, 33.144 143.123, 33.495 142.015 C 34.195 139.812, 36.027 139.243, 35.956 141.250 C 35.932 141.938, 35.310 144.188, 34.574 146.250 C 33.354 149.668, 33.391 150, 34.993 150 C 36.145 150, 36.957 148.967, 37.350 147 C 37.680 145.350, 38.468 144, 39.100 144 C 39.825 144, 40.044 145.031, 39.692 146.792 C 39.240 149.050, 39.503 149.612, 41.067 149.730 C 42.130 149.810, 43.007 149.341, 43.015 148.688 C 43.025 147.958, 43.446 148.078, 44.110 149 C 45.007 150.248, 45.089 150.192, 44.594 148.668 C 44.267 147.661, 44 146.441, 44 145.957 C 44 145.474, 43.057 144.199, 41.904 143.125 C 39.820 141.183, 39.819 141.167, 41.806 140.104 C 43.566 139.162, 43.745 139.301, 43.315 141.267 C 42.911 143.115, 43.025 143.241, 43.979 142 C 44.907 140.791, 44.999 140.985, 44.453 143 C 43.899 145.043, 44.015 145.271, 45.088 144.250 C 47.049 142.382, 48.301 142.740, 47.710 145 C 47.423 146.100, 47.595 147, 48.094 147 C 48.934 147, 49.399 145.526, 49.118 143.750 C 49.053 143.338, 49.677 143, 50.505 143 C 51.333 143, 54.220 141.934, 56.922 140.630 C 61.722 138.315, 61.847 138.306, 62.350 140.231 C 62.662 141.424, 63.329 141.915, 64.040 141.475 C 64.845 140.978, 65.023 141.351, 64.607 142.662 C 64.110 144.229, 64.544 144.616, 67.006 144.804 C 68.658 144.930, 69.955 144.688, 69.887 144.266 C 69.447 141.546, 70.171 137, 71.044 137 C 71.618 137, 71.980 137.563, 71.848 138.250 C 71.425 140.453, 73.102 144.055, 74.227 143.360 C 74.906 142.940, 75.017 143.163, 74.526 143.957 C 74.072 144.692, 74.310 145.574, 75.093 146.057 C 75.835 146.516, 76.139 147.194, 75.769 147.565 C 75.398 147.935, 74.345 147.488, 73.429 146.571 C 72.512 145.655, 71.505 145.162, 71.190 145.476 C 70.876 145.790, 71.395 146.824, 72.344 147.774 C 73.785 149.216, 76.287 149.532, 87.535 149.696 C 94.941 149.803, 101 149.535, 101 149.101 C 101 148.666, 100.089 147.486, 98.976 146.479 C 97.632 145.262, 97.287 144.313, 97.949 143.651 C 98.610 142.990, 97.574 142.041, 94.863 140.827 C 90.010 138.655, 89.478 138.588, 90.628 140.297 C 91.107 141.011, 90.713 140.736, 89.750 139.686 C 88.787 138.637, 88 138.139, 88 138.580 C 88 139.021, 87.292 138.509, 86.426 137.441 C 85.560 136.374, 85.133 136.057, 85.478 136.739 C 85.889 137.553, 85.574 137.774, 84.558 137.384 C 83.707 137.057, 83.219 136.455, 83.472 136.046 C 83.725 135.636, 82.822 134.708, 81.466 133.982 C 80.110 133.256, 79 132.350, 79 131.969 C 79 130.915, 91.571 129.854, 94.715 130.643 C 97.568 131.359, 101 134, 99.078 134 C 97.909 134, 98.143 136.139, 99.735 140 C 100.301 141.375, 100.589 142.801, 100.373 143.169 C 100.158 143.538, 101.539 144.353, 103.442 144.981 C 105.984 145.820, 107.451 145.829, 108.972 145.015 C 110.110 144.406, 111.409 144.135, 111.858 144.412 C 112.307 144.690, 114.360 143.192, 116.418 141.084 L 120.162 137.250 117.492 137.250 C 113.824 137.250, 111.756 134.859, 111.497 130.322 C 111.378 128.220, 111.217 125.938, 111.140 125.250 C 111.063 124.563, 109.986 124, 108.747 124 C 106.409 124, 101.880 119.875, 100.676 116.650 C 100.055 114.984, 100.436 114.845, 104.493 115.249 C 109.364 115.736, 110.091 114.825, 107.532 111.441 C 106.724 110.374, 106.049 108.701, 106.032 107.725 C 106.011 106.556, 104.955 105.741, 102.938 105.338 C 98.904 104.531, 100.425 103.178, 106.264 102.377 C 109.824 101.889, 111.579 102.149, 113.581 103.461 C 117.172 105.814, 118.520 104.239, 118.424 97.804 C 118.350 92.830, 118.388 92.761, 120.072 94.841 C 121.389 96.467, 121.923 96.644, 122.327 95.589 C 123.085 93.616, 111.635 81.529, 109.871 82.440 C 109.117 82.830, 109.400 82.388, 110.500 81.459 C 112.461 79.802, 112.447 79.778, 109.815 80.234 C 108.338 80.489, 106.538 80.273, 105.815 79.755 C 104.858 79.068, 104.990 78.970, 106.302 79.394 C 107.359 79.736, 107.851 79.568, 107.493 78.989 C 107.157 78.445, 106.346 77.999, 105.691 77.997 C 105.036 77.996, 103.600 76.339, 102.500 74.315 C 100.187 70.060, 99.034 69.479, 97.140 71.616 M 98.428 78.135 C 98.767 81.636, 99.148 86.166, 99.273 88.203 L 99.500 91.906 101.558 89.325 C 103.115 87.372, 104.150 86.913, 105.808 87.439 C 107.551 87.992, 108 87.736, 108 86.190 C 108 85.120, 107.275 83.643, 106.388 82.907 C 105.501 82.171, 103.814 79.562, 102.638 77.109 C 99.274 70.091, 97.685 70.478, 98.428 78.135 M 120.900 74.982 C 118.480 76.622, 115.911 77.972, 115.191 77.982 C 114.471 77.992, 114.111 78.370, 114.390 78.822 C 115.036 79.867, 122.567 79.302, 124.942 78.031 C 125.929 77.503, 126.909 77.242, 127.119 77.452 C 127.328 77.662, 127.500 76.521, 127.500 74.917 C 127.500 71.247, 126.396 71.258, 120.900 74.982 M 21.507 73.989 C 21.157 74.555, 21.558 74.723, 22.448 74.382 C 24.180 73.717, 24.497 73, 23.059 73 C 22.541 73, 21.843 73.445, 21.507 73.989 M 28.261 75.954 C 27.545 77.100, 27.425 78.145, 27.970 78.482 C 28.481 78.798, 29.395 78.131, 30 77 C 30.605 75.869, 31.497 75.189, 31.981 75.488 C 32.465 75.788, 33.144 75.575, 33.490 75.016 C 33.846 74.440, 33.115 74, 31.800 74 C 30.524 74, 28.932 74.879, 28.261 75.954 M 35 75.889 C 35 76.378, 35.563 76.757, 36.250 76.731 C 41.266 76.545, 43.364 77.355, 46.999 80.883 C 49.199 83.019, 51 85.220, 51 85.775 C 51 86.909, 55.927 88.406, 56.797 87.536 C 57.106 87.227, 56.620 85.426, 55.717 83.533 C 54.344 80.653, 54.314 80.183, 55.538 80.653 C 56.342 80.962, 57 80.653, 57 79.967 C 57 79.282, 57.691 78.215, 58.536 77.598 C 59.701 76.745, 58.314 76.607, 52.786 77.024 C 48.149 77.374, 44.227 77.122, 42 76.331 C 37.819 74.846, 35 74.668, 35 75.889 M 115.250 81.689 C 116.213 81.941, 117.787 81.941, 118.750 81.689 C 119.713 81.438, 118.925 81.232, 117 81.232 C 115.075 81.232, 114.287 81.438, 115.250 81.689 M 40.003 84.331 C 41.081 85.421, 49 87.720, 49 86.942 C 49 86.489, 48.663 85.926, 48.250 85.690 C 47.074 85.020, 39.440 83.761, 40.003 84.331 M 108.732 86.624 C 108.360 88.569, 108.693 89.369, 110.023 89.716 C 111.008 89.974, 112.040 91.043, 112.314 92.092 C 112.588 93.142, 113.417 93.993, 114.156 93.985 C 115.246 93.972, 115.254 93.814, 114.200 93.145 C 113.485 92.691, 112.827 91.360, 112.739 90.186 C 112.651 89.012, 111.952 87.812, 111.185 87.518 C 110.419 87.224, 110.050 86.312, 110.365 85.492 C 110.680 84.671, 110.554 84, 110.085 84 C 109.617 84, 109.007 85.181, 108.732 86.624 M 47 90 C 47.825 90.533, 49.175 90.945, 50 90.914 C 50.989 90.878, 50.819 90.567, 49.500 90 C 46.751 88.819, 45.172 88.819, 47 90 M 55 91.035 C 55 91.531, 54.212 91.720, 53.250 91.454 C 52.288 91.188, 52.850 91.631, 54.500 92.440 C 56.150 93.248, 58.063 93.930, 58.750 93.955 C 59.438 93.980, 60.014 94.563, 60.030 95.250 C 60.047 95.938, 60.544 95.669, 61.134 94.654 C 61.726 93.635, 61.825 92.429, 61.354 91.963 C 60.102 90.726, 55 89.980, 55 91.035 M 102.346 92.054 C 101.608 92.792, 101.755 94.128, 102.838 96.516 C 104.901 101.068, 109.219 102.187, 111.907 98.867 C 113.504 96.894, 114.002 96.757, 115.385 97.905 C 116.409 98.754, 117 98.843, 117 98.148 C 117 97.545, 115.672 96.365, 114.050 95.526 C 112.427 94.687, 110.671 93.234, 110.146 92.297 C 109.368 90.906, 108.918 90.824, 107.686 91.846 C 106.667 92.692, 105.968 92.757, 105.530 92.049 C 104.706 90.716, 103.682 90.718, 102.346 92.054 M 7 93.965 C 7 94.909, 10.162 97, 11.589 97 C 11.986 97, 11.495 96.100, 10.500 95 C 8.561 92.857, 7 92.396, 7 93.965 M 131 96.738 C 131 101.949, 133.357 103.144, 135.492 99.015 C 137.370 95.383, 137.548 93.052, 135.814 94.786 C 134.899 95.701, 134.213 95.597, 132.814 94.331 C 131.090 92.772, 131 92.892, 131 96.738 M 96.500 95.765 C 94.446 97.274, 95.015 98.976, 97.504 98.770 C 99.882 98.574, 101.159 97, 98.941 97 C 98.359 97, 98.160 96.550, 98.500 96 C 99.217 94.840, 97.961 94.692, 96.500 95.765 M 7.564 98.293 C 7.940 99.279, 8.499 99.834, 8.807 99.526 C 9.115 99.219, 8.808 98.412, 8.124 97.733 C 7.136 96.753, 7.022 96.868, 7.564 98.293 M 60 98.116 C 60 99.656, 72.657 102.999, 78.444 102.988 L 84.500 102.976 80.148 100.488 C 75.580 97.876, 73.461 97.318, 74.500 99 C 75.329 100.341, 74.332 100.260, 71.684 98.773 C 69.357 97.466, 60 96.939, 60 98.116 M 52 99.031 C 52 99.564, 52.675 100, 53.500 100 C 54.325 100, 55 99.823, 55 99.607 C 55 99.391, 54.325 98.955, 53.500 98.638 C 52.675 98.322, 52 98.499, 52 99.031 M 34.564 100.293 C 34.940 101.279, 35.499 101.834, 35.807 101.526 C 36.115 101.219, 35.808 100.412, 35.124 99.733 C 34.136 98.753, 34.022 98.868, 34.564 100.293 M 37 100.941 C 37 101.459, 37.450 102.160, 38 102.500 C 38.550 102.840, 39 102.416, 39 101.559 C 39 100.702, 38.550 100, 38 100 C 37.450 100, 37 100.423, 37 100.941 M 5.510 102.016 C 5.856 102.575, 6.557 102.774, 7.069 102.457 C 8.456 101.600, 8.198 101, 6.441 101 C 5.584 101, 5.165 101.457, 5.510 102.016 M 41.908 102.389 C 43.475 104.277, 48 105.086, 48 103.478 C 48 102.287, 45.034 101.043, 42.128 101.014 C 41.069 101.003, 41.019 101.318, 41.908 102.389 M 112 101.393 C 112 101.609, 112.675 102.045, 113.500 102.362 C 114.325 102.678, 115 102.501, 115 101.969 C 115 101.436, 114.325 101, 113.500 101 C 112.675 101, 112 101.177, 112 101.393 M 27.345 103.543 C 27.019 104.392, 26.976 105.310, 27.249 105.583 C 27.523 105.856, 27.986 105.161, 28.279 104.040 C 28.903 101.657, 28.210 101.289, 27.345 103.543 M 129.053 105.750 C 127.461 111.483, 127.770 115.770, 129.933 117.933 C 132.342 120.342, 133.395 119.290, 135.153 112.717 C 136.187 108.852, 136.173 107.787, 135.077 106.756 C 133.975 105.720, 133.859 105.998, 134.415 108.348 C 134.865 110.255, 134.718 111.073, 133.969 110.823 C 133.353 110.618, 132.960 110.236, 133.094 109.975 C 133.228 109.714, 132.767 108.433, 132.069 107.129 C 131.132 105.379, 131.114 104.953, 132 105.500 C 132.921 106.069, 132.936 105.749, 132.065 104.121 C 130.532 101.256, 130.260 101.404, 129.053 105.750 M 26.079 108.583 C 26.127 109.748, 26.364 109.985, 26.683 109.188 C 26.972 108.466, 26.936 107.603, 26.604 107.271 C 26.272 106.939, 26.036 107.529, 26.079 108.583 M 31.441 111.555 C 29.611 113.022, 29.643 113.042, 32 111.920 C 35.061 110.462, 35.628 110, 34.358 110 C 33.821 110, 32.509 110.700, 31.441 111.555 M 66.899 116.750 C 66.595 118.537, 66.718 120, 67.173 120 C 67.628 120, 68 120.900, 68 122 C 68 124.417, 70.720 124.692, 71.177 122.321 C 71.476 120.765, 71.620 120.763, 73.141 122.284 C 74.662 123.804, 74.816 123.744, 75.252 121.462 C 75.737 118.925, 74.559 118.027, 73.662 120.250 C 73.259 121.250, 73.142 121.250, 73.079 120.250 C 73.036 119.563, 71.905 119, 70.566 119 C 68.661 119, 68.059 118.403, 67.793 116.250 C 67.459 113.556, 67.441 113.566, 66.899 116.750 M 83.195 116.500 C 83.215 118.150, 83.439 118.704, 83.693 117.731 C 83.947 116.758, 83.930 115.408, 83.656 114.731 C 83.382 114.054, 83.175 114.850, 83.195 116.500 M 53.543 116.931 C 53.226 117.443, 53.425 118.144, 53.984 118.490 C 54.543 118.835, 55 118.416, 55 117.559 C 55 115.802, 54.400 115.544, 53.543 116.931 M 90.070 118.750 C 90.109 119.162, 90.527 120.400, 91 121.500 C 91.762 123.272, 91.867 123.187, 91.930 120.750 C 91.968 119.237, 91.550 118, 91 118 C 90.450 118, 90.032 118.338, 90.070 118.750 M 53 120.882 C 53 121.432, 53.450 122.160, 54 122.500 C 54.550 122.840, 55 122.668, 55 122.118 C 55 121.568, 54.550 120.840, 54 120.500 C 53.450 120.160, 53 120.332, 53 120.882 M 128.232 123 C 128.232 124.925, 128.438 125.713, 128.689 124.750 C 128.941 123.787, 128.941 122.213, 128.689 121.250 C 128.438 120.287, 128.232 121.075, 128.232 123 M 0 127.500 C 0 131.740, 0.159 132.001, 2.750 132.011 C 4.263 132.017, 7.257 132.312, 9.405 132.667 C 12.413 133.164, 13.131 133.022, 12.530 132.049 C 11.971 131.145, 12.282 130.954, 13.625 131.377 C 15.892 132.092, 21.240 130.780, 21.702 129.395 C 21.884 128.848, 20.930 128.400, 19.581 128.400 C 18.233 128.400, 17.352 128.760, 17.624 129.200 C 17.896 129.640, 17.165 130, 16 130 C 14.638 130, 14.140 129.583, 14.605 128.830 C 15.091 128.043, 14.783 127.869, 13.664 128.299 C 12.742 128.653, 12 128.453, 12 127.852 C 12 127.255, 11.150 126.989, 10.112 127.260 C 9.019 127.546, 7.020 126.769, 5.362 125.413 C 1.076 121.908, 0 122.327, 0 127.500 M 95.079 124.583 C 95.127 125.748, 95.364 125.985, 95.683 125.188 C 95.972 124.466, 95.936 123.603, 95.604 123.271 C 95.272 122.939, 95.036 123.529, 95.079 124.583 M 82.136 126.250 C 81.990 129.211, 82.644 129.585, 85 127.890 C 86.281 126.969, 86.254 126.890, 84.812 127.350 C 83.640 127.725, 82.994 127.219, 82.698 125.695 C 82.346 123.880, 82.249 123.976, 82.136 126.250 M 139.716 135.021 C 139.970 135.992, 141.487 137.047, 143.089 137.368 C 146.657 138.081, 146.866 140.386, 143.560 142.552 C 142.146 143.479, 141.350 144.750, 141.667 145.575 C 142.519 147.794, 146.771 147.296, 148.095 144.822 C 149.248 142.668, 149.292 142.682, 152.058 146.072 C 153.596 147.957, 155.793 149.551, 156.939 149.614 L 159.024 149.728 157.035 146.614 C 155.778 144.646, 154.394 143.627, 153.273 143.845 C 152.298 144.035, 151.819 143.865, 152.210 143.469 C 152.600 143.072, 154.400 142.583, 156.210 142.383 C 158.394 142.142, 159.032 142.318, 158.108 142.907 C 156.963 143.636, 157.108 144.343, 158.926 146.897 C 160.705 149.395, 161.846 150, 164.776 150 L 168.416 150 163.958 145.397 C 157.763 138.999, 153.530 136.512, 145.861 134.763 C 139.624 133.340, 139.280 133.355, 139.716 135.021 M 25.638 139.500 C 26.282 141.178, 27.596 141.462, 28.435 140.105 C 28.740 139.612, 28.279 138.937, 27.412 138.605 C 25.160 137.741, 24.995 137.824, 25.638 139.500 M 112.454 140.926 C 112.761 141.423, 112.469 142.010, 111.805 142.232 C 110.966 142.511, 110.929 142.838, 111.686 143.306 C 112.284 143.676, 113.286 143.360, 113.912 142.606 C 114.788 141.551, 114.687 141.094, 113.474 140.628 C 112.606 140.295, 112.147 140.429, 112.454 140.926 M 26.343 146.761 C 26.207 149.048, 26.327 149.167, 27.196 147.614 C 27.755 146.616, 27.825 145.426, 27.354 144.955 C 26.882 144.484, 26.430 145.293, 26.343 146.761 M 168 146 C 168 146.550, 168.477 147, 169.059 147 C 169.641 147, 169.840 146.550, 169.500 146 C 169.160 145.450, 168.684 145, 168.441 145 C 168.198 145, 168 145.450, 168 146 M 109.500 147 C 108.718 148.266, 110.042 148.266, 112 147 C 113.293 146.165, 113.266 146.029, 111.809 146.015 C 110.879 146.007, 109.840 146.450, 109.500 147 M 116.500 149 C 116.160 149.550, 116.332 150, 116.882 150 C 117.432 150, 118.160 149.550, 118.500 149 C 118.840 148.450, 118.668 148, 118.118 148 C 117.568 148, 116.840 148.450, 116.500 149" stroke="none" fill="#422b22" fill-rule="evenodd"/><path d="M 113.684 33.750 C 112.667 35.506, 113.814 41.316, 115.347 42.174 C 116.256 42.683, 117 43.740, 117 44.524 C 117 45.308, 118.356 46.650, 120.013 47.506 C 122.948 49.025, 123.050 48.998, 124.013 46.467 C 125.555 42.409, 125.268 41.518, 121.001 37.121 C 117.228 33.233, 114.667 32.053, 113.684 33.750 M 113.229 50.188 C 113.847 52.042, 116 52.349, 116 50.583 C 116 49.712, 115.287 49, 114.417 49 C 113.546 49, 113.011 49.534, 113.229 50.188 M 100.070 75.691 C 100.032 76.896, 100.450 78.160, 101 78.500 C 102.183 79.231, 102.183 78.252, 101 75.500 C 100.171 73.572, 100.138 73.579, 100.070 75.691 M 101.195 82.500 C 101.215 84.150, 101.439 84.704, 101.693 83.731 C 101.947 82.758, 101.930 81.408, 101.656 80.731 C 101.382 80.054, 101.175 80.850, 101.195 82.500 M 105 83.882 C 105 84.432, 105.450 85.160, 106 85.500 C 106.550 85.840, 107 85.668, 107 85.118 C 107 84.568, 106.550 83.840, 106 83.500 C 105.450 83.160, 105 83.332, 105 83.882 M 104.750 103.662 C 105.438 103.940, 106.563 103.940, 107.250 103.662 C 107.938 103.385, 107.375 103.158, 106 103.158 C 104.625 103.158, 104.063 103.385, 104.750 103.662 M 129.705 123.429 C 129.140 126.910, 125.725 131.848, 117.622 140.899 L 113.684 145.298 118.092 147.607 C 121.959 149.633, 123.819 149.901, 133.250 149.794 C 139.162 149.727, 144 149.366, 144 148.991 C 144 147.498, 140.047 144.847, 138.813 145.512 C 138.091 145.901, 138.850 145.061, 140.500 143.646 C 142.150 142.230, 143.838 141.056, 144.250 141.036 C 144.662 141.016, 145 140.355, 145 139.566 C 145 138.746, 143.824 137.998, 142.250 137.816 C 140.286 137.590, 139.583 137.005, 139.790 135.769 C 139.971 134.686, 138.579 132.999, 136.078 131.269 C 132.952 129.106, 132.064 127.843, 132.023 125.500 C 131.937 120.663, 130.380 119.271, 129.705 123.429 M 165.794 135.346 C 168.941 136.486, 168.800 136.539, 162.641 136.520 C 159.095 136.509, 156.402 136.162, 156.656 135.750 C 156.910 135.338, 156.079 135.014, 154.809 135.032 C 152.541 135.063, 152.536 135.089, 154.500 136.486 C 155.600 137.268, 157.286 138.681, 158.246 139.625 C 159.206 140.569, 160.318 141.015, 160.717 140.616 C 161.116 140.218, 160.780 139.458, 159.971 138.929 C 158.976 138.277, 160.118 138.147, 163.500 138.525 C 166.250 138.833, 169.352 139.178, 170.392 139.292 C 172.860 139.563, 173.654 137.309, 171.305 136.700 C 169.646 136.270, 169.642 136.223, 171.250 136.116 C 172.213 136.052, 173 135.550, 173 135 C 173 134.450, 170.637 134.034, 167.750 134.076 L 162.500 134.152 165.794 135.346 M 171 146.667 C 171 150.968, 171.887 150.645, 172.457 146.136 C 172.676 144.411, 172.437 143, 171.927 143 C 171.417 143, 171 144.650, 171 146.667 M 100.559 145.468 C 101.626 146.276, 102.950 146.936, 103.500 146.936 C 104.050 146.936, 103.626 146.276, 102.559 145.468 C 101.491 144.661, 100.168 144, 99.618 144 C 99.068 144, 99.491 144.661, 100.559 145.468 M 149.087 145.656 C 149.455 147.728, 148.872 148.887, 147.250 149.311 C 146.287 149.562, 147.467 149.820, 149.872 149.884 C 154.158 149.998, 154.215 149.957, 152.786 147.805 C 151.302 145.569, 148.816 144.125, 149.087 145.656 M 105.813 146.683 C 106.534 146.972, 107.397 146.936, 107.729 146.604 C 108.061 146.272, 107.471 146.036, 106.417 146.079 C 105.252 146.127, 105.015 146.364, 105.813 146.683" stroke="none" fill="#c7c4ce" fill-rule="evenodd"/></g></svg>