<?xml version="1.0" encoding="utf-8"?><!-- Uploaded to: SVG Repo, www.svgrepo.com, Generator: SVG Repo Mixer Tools -->
<svg width="800px" height="800px" viewBox="0 0 24 24" fill="none" xmlns="http://www.w3.org/2000/svg">
<path d="M8.88853 13.5412C8.63799 13.0557 8.04287 12.8605 7.55278 13.1056C7.0588 13.3526 6.85857 13.9532 7.10556 14.4472C7.18803 14.6116 7.29303 14.7657 7.40311 14.9125C7.58592 15.1562 7.86187 15.4701 8.2503 15.7809C9.03983 16.4125 10.2571 17 12 17C13.7429 17 14.9602 16.4125 15.7497 15.7809C16.1381 15.4701 16.4141 15.1562 16.5969 14.9125C16.7074 14.7652 16.8078 14.6111 16.8939 14.4483C17.1385 13.9608 16.935 13.3495 16.4472 13.1056C15.9571 12.8605 15.362 13.0557 15.1115 13.5412C15.0976 13.5661 14.9095 13.8918 14.5003 14.2191C14.0398 14.5875 13.2571 15 12 15C10.7429 15 9.96016 14.5875 9.49969 14.2191C9.09049 13.8918 8.90232 13.5661 8.88853 13.5412Z" fill="#0F0F0F"/>
<path d="M7.44712 7.10557C6.95317 6.8586 6.35253 7.05881 6.10556 7.55276C5.85858 8.04671 6.05879 8.64735 6.55275 8.89433L7.04346 9.13969C7.01502 9.25507 6.99993 9.37571 6.99993 9.49987C6.99993 10.3282 7.67147 10.9998 8.49985 10.9998C9.32823 10.9998 9.99977 10.3282 9.99977 9.49987L9.99977 8.99989C9.99977 8.49992 9.86851 8.31626 9.44701 8.10552L7.44712 7.10557Z" fill="#0F0F0F"/>
<path d="M17.8942 7.55298C17.6472 7.05902 17.0466 6.85881 16.5526 7.10579L14.5528 8.10573C14.1313 8.31648 14 8.50013 14 9.0001L14 9.50008C14 10.3285 14.6715 11 15.4999 11C16.3283 11 16.9998 10.3285 16.9998 9.50008C16.9998 9.37592 16.9848 9.25528 16.9563 9.1399L17.447 8.89454C17.941 8.64757 18.1412 8.04693 17.8942 7.55298Z" fill="#0F0F0F"/>
<path fill-rule="evenodd" clip-rule="evenodd" d="M7.31841 2.0431L2.02457 0.0975463C0.65158 -0.407043 -0.557874 1.15124 0.271636 2.35609L2.77964 5.99892C1.65412 7.72469 1 9.78596 1 12C1 18.0751 5.92487 23 12 23C18.0751 23 23 18.0751 23 12C23 9.78596 22.3459 7.72469 21.2204 5.99892L23.7284 2.35609C24.5579 1.15124 23.3484 -0.407043 21.9754 0.0975463L16.6816 2.0431C15.2611 1.37403 13.6742 1 12 1C10.3258 1 8.73891 1.37403 7.31841 2.0431ZM5.16347 3.38192L2.81078 2.51728L4.0822 4.36399C4.42037 4.01342 4.78161 3.68525 5.16347 3.38192ZM21.1892 2.51728L19.9178 4.36399C19.5796 4.01342 19.2184 3.68525 18.8365 3.38192L21.1892 2.51728ZM12 20.9932C7.03321 20.9932 3.00683 16.9668 3.00683 12C3.00683 7.03321 7.03321 3.00683 12 3.00683C16.9668 3.00683 20.9932 7.03321 20.9932 12C20.9932 16.9668 16.9668 20.9932 12 20.9932Z" fill="#0F0F0F"/>
</svg>