<?xml version="1.0" encoding="UTF-8" standalone="no" ?>
<!DOCTYPE svg PUBLIC "-//W3C//DTD SVG 1.1//EN" "http://www.w3.org/Graphics/SVG/1.1/DTD/svg11.dtd">
<svg xmlns="http://www.w3.org/2000/svg" xmlns:xlink="http://www.w3.org/1999/xlink" version="1.1" width="1000" height="400" viewBox="0 0 1000 400" xml:space="preserve">
<desc>Created with Fabric.js 5.3.0</desc>
<defs>
</defs>
<g transform="matrix(1 0 0 1.1163269753 249.1113719353 202.0563965075)" id="50NTO9R-QV09FpoRrdnbV"  >
<path style="stroke: rgb(49,168,247); stroke-width: 1; stroke-dasharray: none; stroke-linecap: butt; stroke-dashoffset: 0; stroke-linejoin: miter; stroke-miterlimit: 4; fill: rgb(167,220,251); fill-rule: nonzero; opacity: 1;"  transform=" translate(0, 0)" d="M 0 -179.7153 L 0 179.7153" stroke-linecap="round" />
</g>
<g transform="matrix(0 -1 2.7629118959 0 498.7961891686 48.6228070175)" id="A54kSwvqL0Dxyd_4ULNjj"  >
<path style="stroke: rgb(49,168,247); stroke-width: 1; stroke-dasharray: none; stroke-linecap: butt; stroke-dashoffset: 0; stroke-linejoin: miter; stroke-miterlimit: 4; fill: rgb(167,220,251); fill-rule: nonzero; opacity: 1;"  transform=" translate(0, 0)" d="M 0 -179.7153 L 0 179.7153" stroke-linecap="round" />
</g>
<g transform="matrix(0 -1 2.7629118959 0 498.4680851064 348.6228070175)" id="QksXWb71I2kfprvsljMUf"  >
<path style="stroke: rgb(49,168,247); stroke-width: 1; stroke-dasharray: none; stroke-linecap: butt; stroke-dashoffset: 0; stroke-linejoin: miter; stroke-miterlimit: 4; fill: rgb(167,220,251); fill-rule: nonzero; opacity: 1;"  transform=" translate(0, 0)" d="M 0 -179.7153 L 0 179.7153" stroke-linecap="round" />
</g>
<g transform="matrix(1 0 0 1.1176824873 498.9680851064 200)" id="utUR-rP-ElOYQ968Ac4lb"  >
<path style="stroke: rgb(49,168,247); stroke-width: 1; stroke-dasharray: none; stroke-linecap: butt; stroke-dashoffset: 0; stroke-linejoin: miter; stroke-miterlimit: 4; fill: rgb(167,220,251); fill-rule: nonzero; opacity: 1;"  transform=" translate(0, 0)" d="M 0 -179.7153 L 0 179.7153" stroke-linecap="round" />
</g>
<g transform="matrix(1 0 0 1.1176824873 748.9680851064 201.9553996471)" id="7x6sBJ7RLrSpeTN20o-7f"  >
<path style="stroke: rgb(49,168,247); stroke-width: 1; stroke-dasharray: none; stroke-linecap: butt; stroke-dashoffset: 0; stroke-linejoin: miter; stroke-miterlimit: 4; fill: rgb(167,220,251); fill-rule: nonzero; opacity: 1;"  transform=" translate(0, 0)" d="M 0 -179.7153 L 0 179.7153" stroke-linecap="round" />
</g>
</svg>