<svg width="383" height="345" viewBox="0 0 383 345" fill="none" xmlns="http://www.w3.org/2000/svg">
<path d="M382.43 102.33C380.06 78.8196 369.83 58.9896 353.59 42.2396C331.86 19.8596 305.13 6.76963 274.48 1.97963C234.48 -4.27037 197.89 4.10963 165.88 29.3196C143.49 46.9396 129.5 69.9096 125.09 98.3196C124.09 104.95 124 104.73 117.18 105.49C83.2603 109.27 53.5403 122.26 29.5303 146.85C10.8903 165.95 0.300264 188.85 0.0102645 215.85C-0.279736 242.85 9.36026 265.94 26.9303 286.01C28.6004 287.839 29.6503 290.149 29.9303 292.61C31.7903 307.09 27.7903 319.703 17.9303 330.45C15.4903 333.11 13.9303 335.9 15.5503 339.54C17.1703 343.18 20.2603 344.29 24.0903 344.16C43.8313 343.731 62.7597 336.217 77.4203 322.99C78.8203 321.75 79.9403 321.06 81.9403 321.71C94.4223 325.635 107.346 327.987 120.41 328.71C158.51 331.18 192.77 321.34 221.77 296C242.58 277.78 255.36 254.93 258.22 227.05C258.45 224.76 259.4 224.23 261.47 224.05C274.664 223.384 287.723 221.066 300.34 217.15C302.66 216.4 304.06 216.8 305.89 218.4C320.667 231.701 339.781 239.166 359.66 239.4C362.66 239.47 365.05 238.6 366.77 236.12C369.06 232.81 368.55 229.5 365.11 225.73C355.177 214.85 351.197 202.113 353.17 187.52C353.394 185.285 354.33 183.182 355.84 181.52C367.281 168.94 375.514 153.784 379.84 137.34C380.967 132.668 381.835 127.937 382.44 123.17C382.77 120.54 382.45 102.57 382.43 102.33ZM213.07 283.74C187.07 307.08 156.16 316.02 121.7 313.84C107.634 313.107 93.7559 310.286 80.5203 305.47C76.8503 304.1 73.8303 305.4 71.1503 308.24C62.8052 317.059 52.2167 323.441 40.5203 326.7C40.0703 326.83 39.6003 326.86 38.7103 327.01C42.2386 319.78 44.424 311.97 45.1603 303.96C45.6471 296.991 44.9953 289.989 43.2303 283.23C42.6403 280.8 40.8703 279.23 39.2303 277.44C24.4803 261.09 15.7703 242.08 15.0103 219.89C14.1803 193.89 24.5503 172.28 43.0103 154.66C70.8303 128.09 104.54 117.4 142.56 120.31C170.56 122.45 195.27 132.75 215.56 152.42C254.32 190.05 253.27 247.59 213.07 283.74ZM367.97 115.42C367.23 136.92 358.97 155.62 344.65 171.42C340.48 176.02 338.87 181.06 338.12 186.82C336.51 199.12 338.81 210.76 344.33 222.34C332.26 219.29 321.98 213.86 313.8 205.25C309.1 200.3 304.8 199.58 298.58 201.93C286.51 206.53 273.77 208.18 260.93 209.18C258.84 209.36 258.37 208.58 258.19 206.78C255.95 184.21 246.69 164.78 231.82 147.78C227.611 143.012 223.011 138.604 218.07 134.6H313.07C314.314 134.662 315.561 134.628 316.8 134.5C318.581 134.242 320.209 133.348 321.382 131.983C322.555 130.619 323.195 128.876 323.182 127.076C323.17 125.277 322.507 123.542 321.316 122.194C320.124 120.845 318.485 119.973 316.7 119.74C315.46 119.624 314.214 119.594 312.97 119.65C275.064 119.65 237.157 119.65 199.25 119.65C196.527 119.675 193.836 119.066 191.39 117.87C176.755 110.906 160.975 106.663 144.82 105.35C139.08 104.86 139.09 104.98 140.05 99.2496C143.78 76.9696 154.52 58.5496 171.51 43.9296C197.51 21.5496 228.04 12.7496 261.94 15.3796C291.86 17.6996 318.26 28.6396 339.94 49.6996C358.34 67.6796 368.87 89.2796 367.97 115.42Z" fill="#5E9D5E"/>
<path d="M129.11 254.391H70.0397C68.7956 254.448 67.549 254.414 66.3097 254.291C64.4971 254.059 62.833 253.168 61.6341 251.789C60.4352 250.41 59.785 248.638 59.8072 246.811C59.8294 244.983 60.5225 243.228 61.7546 241.878C62.9868 240.529 64.672 239.679 66.4897 239.491C67.3609 239.416 68.236 239.396 69.1097 239.431H189.48C190.11 239.431 190.73 239.431 191.35 239.431C195.82 239.661 199.01 242.841 198.95 246.991C198.89 251.141 195.82 254.091 191.54 254.361C190.54 254.421 189.54 254.361 188.54 254.361L129.11 254.391Z" fill="#5E9D5E"/>
<path d="M144.32 194.53C159.52 194.53 174.72 194.53 189.92 194.53C195.58 194.53 199.06 197.53 198.92 202.15C198.78 206.77 195.44 209.48 189.92 209.48H98.7696C93.1196 209.48 89.6496 206.48 89.7696 201.84C89.8696 197.32 93.2396 194.53 98.7696 194.53C113.936 194.516 129.12 194.516 144.32 194.53Z" fill="#5E9D5E"/>
<path d="M67.3504 209.471C65.8837 209.481 64.4464 209.06 63.2181 208.258C61.9897 207.457 61.025 206.311 60.4443 204.964C59.8637 203.617 59.6931 202.129 59.9537 200.685C60.2143 199.242 60.8946 197.907 61.9095 196.849C62.9245 195.79 64.229 195.054 65.6601 194.732C67.0912 194.411 68.5853 194.518 69.9555 195.041C71.3258 195.564 72.5115 196.48 73.3643 197.673C74.2171 198.867 74.6993 200.285 74.7504 201.751C74.777 202.745 74.6061 203.734 74.2476 204.662C73.8891 205.59 73.3501 206.437 72.6619 207.155C71.9736 207.873 71.1498 208.448 70.2381 208.845C69.3264 209.242 68.3449 209.455 67.3504 209.471Z" fill="#5E9D5E"/>
<path d="M268.45 89.7695C252.997 89.7695 237.547 89.7695 222.1 89.7695C218.82 89.7695 216.29 88.5195 214.77 85.5695C214.111 84.3557 213.826 82.9741 213.95 81.5986C214.075 80.2231 214.604 78.9152 215.47 77.8395C217.36 75.2695 220.06 74.7695 223.08 74.7695C250.24 74.8229 277.4 74.8229 304.56 74.7695H313.9C319.69 74.7695 323.12 77.5395 323.17 82.1695C323.22 86.7995 319.75 89.7195 314.05 89.7295L268.45 89.7695Z" fill="#5E9D5E"/>
<path d="M198.96 82.3194C198.956 83.8052 198.508 85.2559 197.675 86.486C196.842 87.7161 195.66 88.6697 194.282 89.2249C192.904 89.7802 191.392 89.9119 189.938 89.6031C188.485 89.2943 187.157 88.5592 186.123 87.4916C185.09 86.424 184.398 85.0725 184.137 83.6098C183.876 82.1472 184.056 80.6398 184.656 79.2805C185.256 77.9211 186.248 76.7715 187.504 75.9787C188.761 75.1858 190.225 74.7857 191.71 74.8294C193.651 74.9041 195.488 75.7245 196.838 77.1198C198.189 78.515 198.949 80.3776 198.96 82.3194Z" fill="#5E9D5E"/>
</svg>
