<?xml version="1.0" encoding="utf-8"?>
<!-- Generator: Adobe Illustrator 25.4.1, SVG Export Plug-In . SVG Version: 6.00 Build 0)  -->
<svg version="1.1" id="Layer_1" xmlns="http://www.w3.org/2000/svg" xmlns:xlink="http://www.w3.org/1999/xlink" x="0px" y="0px"
	 viewBox="0 0 383 345" style="enable-background:new 0 0 383 345;" xml:space="preserve">
<style type="text/css">
	.st0{fill:#FFFFFF;}
</style>
<path class="st0" d="M382.4,102.3c-2.4-23.5-12.6-43.3-28.8-60.1C331.9,19.9,305.1,6.8,274.5,2c-40-6.2-76.6,2.1-108.6,27.3
	c-22.4,17.6-36.4,40.6-40.8,69c-1,6.6-1.1,6.4-7.9,7.2c-33.9,3.8-63.6,16.8-87.6,41.4c-18.6,19.1-29.2,42-29.5,69
	c-0.3,27,9.3,50.1,26.9,70.2c1.7,1.8,2.7,4.1,3,6.6c1.9,14.5-2.1,27.1-12,37.8c-2.4,2.7-4,5.4-2.4,9.1c1.6,3.6,4.7,4.8,8.5,4.6
	c19.7-0.4,38.7-7.9,53.3-21.2c1.4-1.2,2.5-1.9,4.5-1.3c12.5,3.9,25.4,6.3,38.5,7c38.1,2.5,72.4-7.4,101.4-32.7
	c20.8-18.2,33.6-41.1,36.4-69c0.2-2.3,1.2-2.8,3.2-3c13.2-0.7,26.3-3,38.9-6.9c2.3-0.8,3.7-0.3,5.6,1.2c14.8,13.3,33.9,20.8,53.8,21
	c3,0.1,5.4-0.8,7.1-3.3c2.3-3.3,1.8-6.6-1.7-10.4c-9.9-10.9-13.9-23.6-11.9-38.2c0.2-2.2,1.2-4.3,2.7-6c11.4-12.6,19.7-27.7,24-44.2
	c1.1-4.7,2-9.4,2.6-14.2C382.8,120.5,382.5,102.6,382.4,102.3z M213.1,283.7c-26,23.3-56.9,32.3-91.4,30.1
	c-14.1-0.7-27.9-3.6-41.2-8.4c-3.7-1.4-6.7-0.1-9.4,2.8c-8.3,8.8-18.9,15.2-30.6,18.5c-0.5,0.1-0.9,0.2-1.8,0.3
	c3.5-7.2,5.7-15,6.5-23.1c0.5-7-0.2-14-1.9-20.7c-0.6-2.4-2.4-4-4-5.8c-14.8-16.4-23.5-35.4-24.2-57.6c-0.8-26,9.5-47.6,28-65.2
	c27.8-26.6,61.5-37.3,99.5-34.3c28,2.1,52.7,12.4,73,32.1C254.3,190,253.3,247.6,213.1,283.7z M368,115.4c-0.7,21.5-9,40.2-23.3,56
	c-4.2,4.6-5.8,9.6-6.5,15.4c-1.6,12.3,0.7,23.9,6.2,35.5c-12.1-3.1-22.3-8.5-30.5-17.1c-4.7-4.9-9-5.7-15.2-3.3
	c-12.1,4.6-24.8,6.2-37.6,7.2c-2.1,0.2-2.6-0.6-2.7-2.4c-2.2-22.6-11.5-42-26.4-59c-4.2-4.8-8.8-9.2-13.8-13.2h95
	c1.2,0.1,2.5,0,3.7-0.1c1.8-0.3,3.4-1.2,4.6-2.5c1.2-1.4,1.8-3.1,1.8-4.9c0-1.8-0.7-3.5-1.9-4.9c-1.2-1.3-2.8-2.2-4.6-2.5
	c-1.2-0.1-2.5-0.1-3.7-0.1c-37.9,0-75.8,0-113.7,0c-2.7,0-5.4-0.6-7.9-1.8c-14.6-7-30.4-11.2-46.6-12.5c-5.7-0.5-5.7-0.4-4.8-6.1
	c3.7-22.3,14.5-40.7,31.5-55.3c26-22.4,56.5-31.2,90.4-28.6c29.9,2.3,56.3,13.3,78,34.3C358.3,67.7,368.9,89.3,368,115.4z"/>
<path class="st0" d="M129.1,254.4H70c-1.2,0.1-2.5,0-3.7-0.1c-1.8-0.2-3.5-1.1-4.7-2.5c-1.2-1.4-1.8-3.2-1.8-5
	c0-1.8,0.7-3.6,1.9-4.9c1.2-1.3,2.9-2.2,4.7-2.4c0.9-0.1,1.7-0.1,2.6-0.1h120.4c0.6,0,1.2,0,1.9,0c4.5,0.2,7.7,3.4,7.6,7.6
	c-0.1,4.2-3.1,7.1-7.4,7.4c-1,0.1-2,0-3,0L129.1,254.4z"/>
<path class="st0" d="M144.3,194.5c15.2,0,30.4,0,45.6,0c5.7,0,9.1,3,9,7.6c-0.1,4.6-3.5,7.3-9,7.3H98.8c-5.7,0-9.1-3-9-7.6
	c0.1-4.5,3.5-7.3,9-7.3C113.9,194.5,129.1,194.5,144.3,194.5z"/>
<path class="st0" d="M67.4,209.5c-1.5,0-2.9-0.4-4.1-1.2c-1.2-0.8-2.2-1.9-2.8-3.3c-0.6-1.3-0.8-2.8-0.5-4.3c0.3-1.4,0.9-2.8,2-3.8
	c1-1.1,2.3-1.8,3.8-2.1c1.4-0.3,2.9-0.2,4.3,0.3c1.4,0.5,2.6,1.4,3.4,2.6c0.9,1.2,1.3,2.6,1.4,4.1c0,1-0.1,2-0.5,2.9
	c-0.4,0.9-0.9,1.8-1.6,2.5c-0.7,0.7-1.5,1.3-2.4,1.7C69.3,209.2,68.3,209.5,67.4,209.5z"/>
<path class="st0" d="M268.5,89.8c-15.5,0-30.9,0-46.4,0c-3.3,0-5.8-1.2-7.3-4.2c-0.7-1.2-0.9-2.6-0.8-4c0.1-1.4,0.7-2.7,1.5-3.8
	c1.9-2.6,4.6-3.1,7.6-3.1c27.2,0.1,54.3,0.1,81.5,0h9.3c5.8,0,9.2,2.8,9.3,7.4c0,4.6-3.4,7.5-9.1,7.6L268.5,89.8z"/>
<path class="st0" d="M199,82.3c0,1.5-0.5,2.9-1.3,4.2c-0.8,1.2-2,2.2-3.4,2.7c-1.4,0.6-2.9,0.7-4.3,0.4c-1.5-0.3-2.8-1-3.8-2.1
	c-1-1.1-1.7-2.4-2-3.9c-0.3-1.5-0.1-3,0.5-4.3c0.6-1.4,1.6-2.5,2.8-3.3c1.3-0.8,2.7-1.2,4.2-1.1c1.9,0.1,3.8,0.9,5.1,2.3
	C198.2,78.5,198.9,80.4,199,82.3z"/>
</svg>
