<?xml version="1.0" encoding="UTF-8" standalone="no"?>
<svg
   xmlns:dc="http://purl.org/dc/elements/1.1/"
   xmlns:cc="http://creativecommons.org/ns#"
   xmlns:rdf="http://www.w3.org/1999/02/22-rdf-syntax-ns#"
   xmlns:svg="http://www.w3.org/2000/svg"
   xmlns="http://www.w3.org/2000/svg"
   id="svg8"
   version="1.1"
   viewBox="0 0 84.666665 24.908439"
   height="94.142128"
   width="320">
  <defs
     id="defs2">
	
	
	
	
	
	
	
	
	
	
	
	
	
	
	
	
	
	
	
</defs>
  <metadata
     id="metadata5">
    <rdf:RDF>
      <cc:Work
         rdf:about="">
        <dc:format>image/svg+xml</dc:format>
        <dc:type
           rdf:resource="http://purl.org/dc/dcmitype/StillImage" />
        <dc:title></dc:title>
      </cc:Work>
    </rdf:RDF>
  </metadata>
  <g
     transform="translate(-74.251775,-37.24225)"
     id="layer1">
    <g
       transform="matrix(0.58354404,0,0,0.58354404,54.015326,8.7948884)"
       id="g4906">
      <path
         id="path4586"
         d="m 80.699271,57.653002 c -1.243542,-0.05292 -2.487083,-0.02646 -3.757083,-0.02646 0.185208,0.978958 0.396875,1.852083 0.502708,2.751667 0.687917,6.958547 -4.788958,13.096877 -11.826875,13.255627 -5.079996,0.13229 -9.736666,-2.93688 -11.615206,-7.69938 -0.15875,-0.39687 -0.34396,-0.52916 -0.76729,-0.52916 -4.33917,0.0265 -8.65188,0 -12.99105,0 -0.15875,0 -0.34395,0 -0.55562,0 0.0265,0.21166 0.0265,0.39687 0.0529,0.55562 2.32833,11.00667 13.17625,18.28271 24.288746,16.24542 9.921875,-1.79917 17.118542,-10.23938 17.250833,-20.293544 0.02646,-1.243542 -0.15875,-2.513542 -0.264583,-3.757083 0,-0.15875 -0.185208,-0.502709 -0.3175,-0.502709 z"
         class="st3"
         style="fill:#162269;stroke-width:0.26458332" />
      <path
         id="path4588"
         d="m 65.194688,69.691546 c 4.630208,0.0265 8.307917,-3.59834 8.360833,-8.175627 0.02646,-4.497917 -3.65125,-8.175625 -8.149166,-8.228542 -4.57729,-0.02646 -8.30792,3.624792 -8.33438,8.175625 -0.0264,4.497914 3.6248,8.202084 8.122713,8.228544 z m 0.105833,-12.514794 c 2.434167,0 4.365625,1.931459 4.365625,4.365625 0,2.381249 -1.984375,4.312709 -4.365625,4.312709 -2.38125,0 -4.339166,-1.95792 -4.339166,-4.339167 0,-2.407708 1.931458,-4.312708 4.339166,-4.339167 z"
         class="st3"
         style="fill:#162269;stroke-width:0.26458332" />
      <path
         id="path4590"
         d="m 120.51906,73.686756 c 0,-0.18521 0,-0.39688 0,-0.635 -0.42333,0 -0.79375,0 -1.16416,0 -1.05834,0 -1.05834,0 -1.32292,1.00541 0,0.0265 -0.0529,0.0529 -0.10583,0.10584 -0.92605,-0.9525 -2.06375,-1.42875 -3.38667,-1.34938 -1.34938,0.0794 -2.48708,0.60854 -3.36021,1.61396 -1.56104,1.79917 -1.56104,4.65667 -0.0265,6.48229 0.74084,0.87313 1.66688,1.45521 2.80459,1.61396 1.50812,0.21167 2.88395,-0.0794 3.9952,-1.42875 0,0.55562 0.0265,0.97896 0,1.37583 -0.13229,1.21709 -0.92604,2.01084 -2.16958,2.19604 -1.24354,0.18521 -2.38125,-0.37041 -2.8575,-1.37583 -0.0529,-0.10583 -0.15875,-0.29104 -0.26458,-0.29104 -0.76729,-0.0265 -1.56104,0 -2.32834,0 0.18521,1.85208 1.27,3.06917 3.20146,3.62479 3.33375,0.97896 7.19667,-0.635 7.01146,-5.15937 -0.10583,-2.54 -0.0265,-5.15938 -0.0265,-7.77875 z m -5.21229,6.69395 c -1.56104,0 -2.67229,-1.08479 -2.67229,-2.61937 -0.0265,-1.56104 1.08479,-2.67229 2.67229,-2.67229 1.56104,0 2.67229,1.08479 2.67229,2.64583 -0.0265,1.50813 -1.13771,2.64583 -2.67229,2.64583 z"
         class="st3"
         style="fill:#162269;stroke-width:0.26458332" />
      <path
         id="path4592"
         d="m 97.764896,69.665086 c -0.132292,-0.34396 -0.3175,-0.50271 -0.687917,-0.47625 -0.582083,0.0265 -1.164166,0.0529 -1.772708,0 -0.449792,-0.0265 -0.608542,0.13229 -0.767292,0.52917 -1.613958,4.10104 -3.254375,8.20208 -4.894791,12.30312 -0.05292,0.15875 -0.105834,0.3175 -0.185209,0.55563 0.767292,0 1.508125,-0.0265 2.2225,0 0.343959,0 0.502709,-0.1323 0.608542,-0.4498 0.291042,-0.76729 0.608542,-1.50812 0.873125,-2.27541 0.105833,-0.29104 0.238125,-0.37042 0.555625,-0.37042 1.613958,0 3.227917,0.0265 4.868333,0 0.343959,0 0.47625,0.10583 0.582084,0.39688 0.291041,0.76729 0.582083,1.56104 0.899582,2.32833 0.0529,0.13229 0.23813,0.3175 0.39688,0.34396 0.79375,0.0265 1.5875,0 2.46062,0 -0.18521,-0.50271 -0.37042,-0.92604 -0.52917,-1.34938 -1.5875,-3.81 -3.122079,-7.67291 -4.630204,-11.53583 z m -3.677708,7.80521 c 0.661458,-1.71979 1.322916,-3.38667 2.037291,-5.21229 0.714375,1.79916 1.349375,3.4925 2.037292,5.21229 -1.402292,0 -2.69875,0 -4.074583,0 z"
         class="st3"
         style="fill:#162269;stroke-width:0.26458332" />
      <path
         id="path4594"
         d="m 94.060729,66.728206 c 1.640417,0.55563 3.33375,0.55563 4.974167,-0.0529 1.852084,-0.66146 2.936874,-2.03729 3.307294,-4.04813 -0.84667,0 -1.61396,0 -2.407711,0 -0.291041,0 -0.396875,0.13229 -0.529166,0.37042 -0.291042,0.44979 -0.582084,0.9525 -1.005417,1.27 -1.481667,1.05833 -3.915833,0.58208 -5.000625,-0.89958 -1.190625,-1.613962 -1.164167,-4.788962 0.02646,-6.40292 0.873125,-1.164167 2.090209,-1.481667 3.466042,-1.349375 1.27,0.132291 2.169583,0.767291 2.566458,2.010833 0.02646,0.105833 0.15875,0.264583 0.264584,0.264583 0.846665,0.02646 1.693335,0 2.566455,0 -0.0265,-0.15875 -0.0265,-0.291041 -0.0529,-0.370416 -0.55562,-2.434167 -2.19604,-3.889375 -4.947705,-4.180417 -3.4925,-0.396875 -6.217708,1.296458 -7.117292,4.60375 -0.343958,1.27 -0.396875,2.566458 -0.132291,3.836458 0.47625,2.381254 1.693333,4.153954 4.021666,4.947704 z"
         class="st3"
         style="fill:#162269;stroke-width:0.26458332" />
      <path
         id="path4596"
         d="m 127.74219,72.919456 c -3.06917,-0.47625 -5.42396,1.16417 -5.90021,4.1275 -0.44979,2.77813 1.24354,5.23875 3.86292,5.63563 2.67229,0.42333 5.13291,-0.97896 5.50333,-3.20146 -0.68792,0 -1.34938,0 -2.01083,0 -0.34396,0 -0.52917,0.0794 -0.74084,0.37042 -0.55562,0.76729 -1.61396,1.03187 -2.59291,0.66146 -0.89959,-0.34396 -1.45521,-1.13771 -1.42875,-2.09021 2.35479,0 4.70958,0 7.03791,0 0.42334,-2.75167 -1.19062,-5.10646 -3.73062,-5.50334 z m 1.11125,3.88938 c -1.45521,0 -2.88396,0 -4.39209,0 0.15875,-1.19063 1.27,-2.01083 2.51355,-1.87854 1.1377,0.10583 1.93145,0.89958 1.87854,1.87854 z"
         class="st3"
         style="fill:#162269;stroke-width:0.26458332" />
      <path
         id="path4598"
         d="m 162.13802,73.131126 c -1.5875,-0.66146 -3.36021,-0.23812 -4.52437,1.03188 -0.0529,0.0529 -0.10584,0.10583 -0.23813,0.21166 -0.0794,-0.47625 -0.13229,-0.89958 -0.21167,-1.29646 -0.76729,0 -1.4552,0 -2.19604,0 0,3.175 0,6.29709 0,9.44563 0.84667,0 1.66688,0 2.51354,0 0,-0.21167 0,-0.42333 0,-0.60854 0,-1.48167 -0.0264,-2.96334 0.0265,-4.41854 0,-0.4498 0.13229,-0.9525 0.34396,-1.37584 0.42333,-0.89958 1.45521,-1.29646 2.46062,-1.08479 0.82021,0.18521 1.32292,0.84667 1.4023,1.85208 0.0265,0.23813 0.0265,0.50271 0.0265,0.74084 0,1.45521 0,2.88396 0,4.31271 0,0.1852 0,0.37041 0,0.58208 0.87313,0 1.69334,0 2.61938,0 -0.0794,-2.32833 -0.0794,-4.60375 -0.26458,-6.87917 -0.10584,-1.13771 -0.82021,-2.03729 -1.95792,-2.51354 z"
         class="st3"
         style="fill:#162269;stroke-width:0.26458332" />
      <path
         id="path4600"
         d="m 139.51615,72.998836 c -1.66688,-0.39688 -3.12209,-0.0529 -4.28625,1.45521 -0.0794,-0.52917 -0.1323,-0.92604 -0.18521,-1.34938 -0.74084,0 -1.45521,0 -2.19604,0 0,3.175 0,6.29709 0,9.44563 0.84666,0 1.66687,0 2.51354,0 0,-0.26459 0,-0.44979 0,-0.66146 0,-1.56104 -0.0265,-3.12208 0.0529,-4.68313 0.0529,-1.34937 1.05833,-2.19604 2.35479,-2.16958 1.16417,0.0265 1.79917,0.82021 1.82562,2.2225 0,0.15875 0,0.3175 0,0.47625 0,1.42875 0,2.83104 0,4.25979 0,0.18521 0,0.37042 0,0.55563 0.89959,0 1.69334,0 2.51355,0 0,-2.09021 0.0794,-4.1275 -0.0265,-6.16479 -0.10584,-1.85209 -1.05834,-3.04271 -2.56646,-3.38667 z"
         class="st3"
         style="fill:#162269;stroke-width:0.26458332" />
      <path
         id="path4602"
         d="m 53.632395,57.626544 c -0.15875,0 -0.34396,0 -0.55562,0 -4.2598,0 -8.51959,0 -12.77938,0 -0.10583,0 -0.23812,-0.02646 -0.3175,0 -0.15875,0.07937 -0.37042,0.211667 -0.37042,0.3175 -0.13229,1.164167 -0.26458,2.301875 -0.39687,3.518958 4.70958,0 9.26042,0 13.81125,0 0.21167,-1.27 0.42333,-2.513541 0.60854,-3.836458 z"
         class="st3"
         style="fill:#162269;stroke-width:0.26458332" />
      <path
         id="path4604"
         d="m 146.95094,70.591126 c -0.76729,0 -1.48167,0 -2.24896,0 -0.0794,0.66146 -0.18521,1.29646 -0.21167,1.93146 -0.0265,0.44979 -0.21166,0.58208 -0.60854,0.55562 -0.34396,-0.0265 -0.68792,0 -1.03187,0 0,0.7673 0,1.45521 0,2.16959 0.52916,0 1.03187,0 1.56104,0 0,0.29104 0,0.55562 0,0.76729 0.0265,1.34937 0,2.69875 0.0794,4.04812 0.0529,1.00542 0.55562,1.74625 1.48166,2.16959 1.11125,0.47625 2.27542,0.34396 3.43959,0.3175 0,-0.76729 0,-1.45521 0,-2.16959 -0.47625,0 -0.89959,0 -1.32292,0 -0.82021,-0.0264 -1.08479,-0.26458 -1.11125,-1.08479 -0.0265,-0.87312 0,-1.74625 -0.0265,-2.61937 0,-0.47625 0,-0.9525 0,-1.48167 0.89958,0 1.69333,0 2.51354,0 0,-0.74083 0,-1.40229 0,-2.14312 -0.84666,0 -1.64041,0 -2.51354,0 0,-0.84667 0,-1.64042 0,-2.46063 z"
         class="st3"
         style="fill:#162269;stroke-width:0.26458332" />
      <path
         id="path4606"
         d="m 117.0001,66.278416 c 0,-1.16416 -0.0265,-2.30187 0,-3.46604 0.0265,-1.587499 1.21709,-2.778124 2.83105,-2.804582 0.1852,0 0.37041,0 0.58208,0 0,-0.9525 0,-1.825625 0,-2.725208 -1.42875,0 -2.54,0.582083 -3.43958,1.772708 -0.10584,-0.608542 -0.15875,-1.11125 -0.23813,-1.613958 -0.76729,0 -1.50812,0 -2.24896,0 0,3.175 0,6.29708 0,9.44562 0.84667,0 1.64042,0 2.51354,0 0,-0.23812 0,-0.42333 0,-0.60854 z"
         class="st3"
         style="fill:#162269;stroke-width:0.26458332" />
      <path
         id="path4608"
         d="m 123.95865,66.251956 c 0,-1.1377 0,-2.27541 0,-3.41312 0.0265,-1.402292 0.89958,-2.460625 2.27541,-2.778125 0.37042,-0.07937 0.71438,-0.07937 1.11125,-0.132292 0,-0.899583 0,-1.799167 0,-2.69875 -1.45521,0 -2.51354,0.608542 -3.43958,1.772708 -0.0794,-0.635 -0.15875,-1.11125 -0.21167,-1.613958 -0.76729,0 -1.50812,0 -2.24896,0 0,3.175 0,6.297087 0,9.445627 0.84667,0 1.66688,0 2.51355,0 0,-0.18521 0,-0.37042 0,-0.58209 z"
         class="st3"
         style="fill:#162269;stroke-width:0.26458332" />
      <path
         id="path4610"
         d="m 106.09927,74.745086 c -0.0529,-0.52917 -0.0794,-0.89958 -0.15875,-1.29646 -0.0265,-0.13229 -0.15875,-0.37042 -0.29104,-0.37042 -0.66146,-0.0265 -1.34938,-0.0265 -2.01083,-0.0265 0,3.22791 0,6.35 0,9.47208 0.84666,0 1.64041,0 2.51354,0 0,-1.40229 0,-2.72521 0,-4.04813 0,-1.40229 0.89958,-2.46062 2.27541,-2.75166 0.37042,-0.0794 0.71438,-0.0794 1.11125,-0.10584 0,-0.89958 0,-1.7727 0,-2.67229 -1.42875,-0.0265 -2.51354,0.60854 -3.43958,1.79917 z"
         class="st3"
         style="fill:#162269;stroke-width:0.26458332" />
      <path
         id="path4612"
         d="m 151.13135,73.051756 c -0.42333,-0.0265 -0.55562,0.10583 -0.55562,0.52916 0.0265,2.83104 0,5.63563 0,8.46667 0,0.15875 0.0265,0.34396 0.0265,0.50271 0.87312,0 1.66687,0 2.48708,0 0,-3.14854 0,-6.29709 0,-9.47209 -0.635,-0.0265 -1.29646,0 -1.95791,-0.0265 z"
         class="st3"
         style="fill:#162269;stroke-width:0.26458332" />
      <path
         id="path4614"
         d="m 151.9251,68.844876 c -0.9525,0 -1.61395,0.58208 -1.61395,1.45521 0,0.84667 0.66145,1.42875 1.56104,1.42875 0.89958,0 1.56104,-0.58208 1.56104,-1.42875 0.0265,-0.87313 -0.58208,-1.42875 -1.50813,-1.45521 z"
         class="st3"
         style="fill:#162269;stroke-width:0.26458332" />
      <g
         id="g4634"
         transform="matrix(0.26458333,0,0,0.26458333,37.307605,52.229044)">
		<path
   id="path4616"
   d="m 403.5,27.6 c 2.2,0.9 4,2.7 4.8,5.1 0.5,1.5 0.7,3.1 0.8,3.9 -0.1,3.5 -0.5,6.2 -2.4,8.3 -1.8,2 -4,3.1 -6.6,2.9 2.6,0.2 4.8,-0.9 6.6,-2.9 1.9,-2.1 2.3,-4.8 2.4,-8.3 -0.2,-0.8 -0.4,-2.4 -0.8,-3.9 -0.8,-2.4 -2.6,-4.2 -4.8,-5.1 z"
   class="st4"
   style="fill:none" />

		<path
   id="path4618"
   d="m 401.5,27.1 c 0.1,0 0.2,0 0.4,0.1 -0.1,-0.1 -0.3,-0.1 -0.4,-0.1 z"
   class="st4"
   style="fill:none" />

		<path
   id="path4620"
   d="m 402.5,27.3 c 0.3,0.1 0.6,0.2 0.9,0.3 -0.3,-0.1 -0.6,-0.2 -0.9,-0.3 z"
   class="st4"
   style="fill:none" />

		<path
   id="path4622"
   d="m 400.4,27 c 0,0 0,0 0,0 0,0 0,0 0,0 0,0 0,0 0,0 z"
   class="st4"
   style="fill:none" />

		<path
   id="path4624"
   d="m 400.6,18.6 c -10.7,0 -18.5,8 -18.5,18.9 0,10.9 7.7,18.8 18.3,18.8 10.7,0 18.5,-7.9 18.5,-18.9 0,-10.8 -7.8,-18.7 -18.3,-18.8 z m 6.2,26.3 c -1.8,2 -4,3.1 -6.6,2.9 -0.4,0 -0.8,-0.1 -1.2,-0.1 -3.2,-0.6 -5.4,-2.5 -6.5,-5.7 -1,-3 -1,-6.1 0,-9.1 1.1,-3.5 4.2,-5.8 7.8,-5.9 0,0 0,0 0,0 0,0 0,0 0,0 0,0 0,0 0,0 0.4,0 0.8,0 1.1,0.1 0.1,0 0.2,0 0.4,0.1 0.2,0 0.4,0.1 0.6,0.1 0.3,0.1 0.6,0.2 0.9,0.3 0,0 0.1,0 0.1,0 2.2,0.9 4,2.7 4.8,5.1 0.5,1.5 0.7,3.1 0.8,3.9 0,3.5 -0.3,6.2 -2.2,8.3 z"
   class="st3"
   style="fill:#162269" />

		<path
   id="path4626"
   d="m 400.4,27 c 0.4,0 0.8,0 1.1,0.1 C 401.1,27 400.8,27 400.4,27 Z"
   class="st3"
   style="fill:#162269" />

		<path
   id="path4628"
   d="m 392.6,42 c -1,-3 -1,-6.1 0,-9.1 1.1,-3.5 4.2,-5.8 7.8,-5.9 0,0 0,0 0,0 -3.6,0.1 -6.7,2.4 -7.8,5.9 -1,3 -1.1,6.1 0,9.1 1,3.2 3.2,5.1 6.4,5.7 0.4,0.1 0.8,0.1 1.2,0.1 -0.4,0 -0.8,-0.1 -1.1,-0.1 -3.3,-0.6 -5.5,-2.6 -6.5,-5.7 z"
   class="st3"
   style="fill:#162269" />

		<path
   id="path4630"
   d="m 403.4,27.6 c 0,0 0.1,0 0.1,0 0,0 -0.1,0 -0.1,0 z"
   class="st3"
   style="fill:#162269" />

		<path
   id="path4632"
   d="m 401.9,27.2 c 0.2,0 0.4,0.1 0.6,0.1 -0.2,-0.1 -0.4,-0.1 -0.6,-0.1 z"
   class="st3"
   style="fill:#162269" />

	</g>
      <path
         id="path4636"
         d="m 108.05719,67.125086 c 2.83104,0 4.89479,-2.09021 4.89479,-5.000625 0,-2.883959 -2.03729,-4.974167 -4.84188,-4.974167 -2.83104,0 -4.89479,2.116667 -4.89479,5.000625 0,2.857497 2.03729,4.974167 4.84188,4.974167 z m -2.06375,-6.19125 c 0.29104,-0.926042 1.11125,-1.534584 2.06375,-1.561042 0.89958,-0.02646 1.79916,0.582083 2.11666,1.508125 0.1323,0.396875 0.18521,0.820208 0.21167,1.031875 -0.0265,0.926042 -0.13229,1.640412 -0.635,2.196042 -0.55562,0.60854 -1.21708,0.89958 -2.06375,0.74083 -0.84667,-0.15875 -1.45521,-0.68791 -1.71979,-1.50812 -0.23813,-0.793752 -0.21167,-1.61396 0.0265,-2.40771 z"
         class="st3"
         style="fill:#162269;stroke-width:0.26458332" />
      <path
         id="path4638"
         d="m 170.3401,82.841336 c 2.83105,0 4.8948,-2.09021 4.8948,-5.00063 0,-2.88395 -2.0373,-4.97416 -4.84188,-4.97416 -2.83104,0 -4.89479,2.11666 -4.89479,5.00062 -0.0265,2.8575 2.03729,4.94771 4.84187,4.97417 z m -2.0902,-6.19125 c 0.29104,-0.92604 1.11125,-1.53458 2.06375,-1.56104 0.89958,-0.0265 1.79916,0.58208 2.11666,1.50812 0.13229,0.39688 0.18521,0.82021 0.21167,1.03188 -0.0265,0.92604 -0.13229,1.64041 -0.635,2.19604 -0.55563,0.60854 -1.21708,0.89958 -2.06375,0.74083 -0.84667,-0.15875 -1.45521,-0.68791 -1.71979,-1.50812 -0.21167,-0.79375 -0.21167,-1.61396 0.0265,-2.40771 z"
         class="st3"
         style="fill:#162269;stroke-width:0.26458332" />
      <path
         id="path4640"
         d="m 133.24552,57.176752 c -2.8575,-0.3175 -5.15937,1.613959 -5.3975,4.577292 -0.23812,2.963332 1.64042,5.185832 4.57729,5.371042 2.30188,0.15875 4.68313,-1.48167 4.7625,-3.30729 -0.66146,0 -1.32291,0 -1.95791,0 -0.3175,0 -0.55563,0.0529 -0.74084,0.34396 -0.55562,0.76729 -1.56104,1.03187 -2.54,0.71437 -0.89958,-0.29104 -1.48166,-1.08479 -1.50812,-2.09021 2.32833,0 4.68312,0 7.06437,0 0.39688,-3.069164 -1.29646,-5.291664 -4.25979,-5.609164 z m -2.72521,3.942292 c 0,-1.005417 0.97896,-1.825625 2.19604,-1.852083 1.21709,-0.02646 2.11667,0.714375 2.19605,1.852083 -1.48167,0 -2.93688,0 -4.39209,0 z"
         class="st3"
         style="fill:#162269;stroke-width:0.26458332" />
    </g>
  </g>
  <style
     type="text/css"
     id="style4518">
	.st0{fill-rule:evenodd;clip-rule:evenodd;fill:#00B1F2;}
	.st1{fill-rule:evenodd;clip-rule:evenodd;fill:#FFFFFF;}
	.st2{fill-rule:evenodd;clip-rule:evenodd;fill:#475992;}
	.st3{fill:#162269;}
	.st4{fill:none;}
</style>
</svg>
