<?xml version="1.0" encoding="utf-8"?>
<!-- Generator: Adobe Illustrator 25.4.1, SVG Export Plug-In . SVG Version: 6.00 Build 0)  -->
<svg version="1.1" id="Layer_1" xmlns="http://www.w3.org/2000/svg" xmlns:xlink="http://www.w3.org/1999/xlink" x="0px" y="0px"
	 viewBox="0 0 512 397" style="enable-background:new 0 0 512 397;" xml:space="preserve">
<style type="text/css">
	.st0{clip-path:url(#SVGID_00000178885867477457095970000010432971267333012646_);}
	.st1{fill:#FFFFFF;}
</style>
<g>
	<defs>
		<rect id="SVGID_1_" x="0.8" y="0" width="510.8" height="396.9"/>
	</defs>
	<clipPath id="SVGID_00000078045811267723282270000014300571652612161208_">
		<use xlink:href="#SVGID_1_"  style="overflow:visible;"/>
	</clipPath>
	<g style="clip-path:url(#SVGID_00000078045811267723282270000014300571652612161208_);">
		<path class="st1" d="M511.5,210.5c-1.5,3-3.2,5.8-6.7,7c-2.3,0.7-4.8,0.5-7-0.4c-2.2-1-4-2.7-5-4.9c-1-2.2-1.2-4.7-0.5-7
			c0.7-2.3,2.2-4.3,4.2-5.6c2.1-1.2,4.6-1.6,7-1.1c2.4,0.5,4.5,1.8,6,3.8c0.8,1,1.4,2.2,2,3.4L511.5,210.5z"/>
		<path class="st1" d="M17.8,272.3c-2.7,0.1-5.3,0.1-8-0.1C7.3,272,5,270.9,3.3,269s-2.6-4.3-2.6-6.8c0-2.5,1-4.9,2.8-6.7
			c1.8-1.8,4.2-2.9,6.7-2.9c5-0.2,10-0.2,14.9,0c5.8,0.2,9.7,4.3,9.7,9.8c0,5.5-3.8,9.6-9.6,10C22.7,272.5,20.2,272.3,17.8,272.3
			L17.8,272.3z"/>
		<path class="st1" d="M41.4,190.6c-0.1-1.3,0.2-2.6,0.6-3.9c0.5-1.2,1.2-2.4,2.1-3.3c0.9-0.9,2-1.7,3.3-2.2
			c1.2-0.5,2.5-0.8,3.9-0.7c2.6,0,5.1,1,6.9,2.9c1.9,1.8,3,4.3,3.1,6.9c0,2.7-1.1,5.2-2.9,7.1c-1.9,1.9-4.4,3-7.1,3.1
			c-2.6,0-5.1-1.1-6.9-2.9C42.6,195.7,41.5,193.2,41.4,190.6z"/>
		<path class="st1" d="M490.3,167.7c0,2.8,1,5.5,2.8,7.6c1.8,2.1,4.4,3.5,7.1,3.8c4.9,0.7,9.1-2.1,11.3-7.6v-71
			c-2.2-2.8-4.9-5.2-8-7c-55.4-30.3-110.7-60.8-166-91.3c-5.4-3-9.9-2.9-15.3,0.2c-23.6,13.2-47.3,26.1-71,39.2
			c-32,17.6-63.9,35.2-95.9,52.7c-4.8,2.6-7.2,6.1-6.9,11.5c0.2,4.2-0.3,8.4,0.1,12.5c0.4,4.8-0.7,6.4-6,6.3
			c-25.8-0.3-51.5-0.2-77.3-0.2c-10.5,0-21-0.1-31.4,0.1c-7,0.1-11.2,5.2-10.2,11.7c0.8,5.3,5,8.2,11.9,8.2
			c36.1,0,72.1,0.1,108.2-0.1c4,0,4.9,1.1,4.8,4.9c-0.3,9-0.3,18,0,27c0.1,3.6-1,4.3-4.4,4.3c-16.8-0.2-33.6-0.1-50.4-0.1
			c-2.3,0-4.6-0.1-6.8,1c-2,1-3.7,2.7-4.6,4.7c-1,2.1-1.2,4.4-0.7,6.6c1,4.5,4.9,7.6,10.3,7.7c17.3,0.1,34.6,0.2,51.9-0.1
			c4.1-0.1,4.8,1.3,4.7,5c-0.2,12.5-0.1,25-0.1,37.5c0,9.6,0,9.6-9.4,9.6c-24.6,0-49.2,0-73.8,0c-6.2,0-10.4,4.1-10.6,9.6
			c-0.2,5.6,4.2,10,10.5,10.3c1.2,0.1,2.3,0,3.5,0c25.1,0,50.2,0.1,75.3-0.1c3.8,0,4.9,0.9,4.6,4.6c-0.4,4.5,0.1,9-0.1,13.5
			c-0.3,5.8,2.2,9.5,7.3,12.3c55.9,30.6,111.7,61.3,167.4,92.1c4.9,2.7,9.1,2.6,14,0c55.5-30.6,111-61.1,166.5-91.6
			c3.5-1.9,6.3-4.2,8-7.8v-50c-1.6-6.1-4.6-8.5-10.4-8.3c-5.6,0.2-9.5,3.6-10.6,9.4c-0.3,2-0.4,4-0.3,6c0,9.3-0.1,18.7,0.1,28
			c0.1,3.8-1.2,6.2-4.6,8c-6.6,3.5-13.1,7.2-19.7,10.8c-39.4,21.8-78.9,43.5-118.4,65.1c-1.8,1-3.5,2.4-5.5,2.7
			c-0.3-0.3-0.5-0.6-0.6-0.9c-0.1-0.4-0.2-0.7-0.1-1.1c0-51.6,0-103.2,0-154.9c0-3.8,1.6-6.1,4.9-7.9c11.9-6.3,23.6-12.9,35.4-19.4
			c4.2-2.3,4.7-2.1,4.7,2.8c0.1,10.3-0.1,20.7,0.1,31c0.3,12.6,8.2,17.3,19.4,11.8c10.6-5.2,20.6-11.6,31.1-16.9
			c6.4-3.2,9.3-7.7,9.2-15c-0.3-14,0.1-28-0.2-42c-0.1-4.9,1.3-8.1,5.9-10.3c4.5-2.1,8.7-4.8,13.1-7.2c7-3.9,14-7.6,20.9-11.6
			c2.8-1.7,4.4-1.3,4.2,2.3c0,1.3,0,2.7,0,4C490.2,143.7,490,155.7,490.3,167.7z M319.9,368.9c0,0.2-0.1,0.4-0.1,0.5
			c-1.7,0.6-2.8-0.8-4-1.4c-48-26.3-95.9-52.7-143.8-79.1c-2.3-1.2-3.8-2.3-3.8-5.5c0.1-53.1,0.2-106.3,0.1-159.4
			c0-0.8,0.1-1.6,0.1-2.3c1.6-0.6,2.4,0.5,3.4,1c48.2,26.5,96.5,53,144.7,79.6c2.2,1.2,3.5,2.2,3.5,5.2
			C320,261.3,319.9,315.1,319.9,368.9z M332.4,185.7c-2.7,1.5-4.4,0.2-6.3-0.9C289,164.4,252,144,214.9,123.6l-35.8-19.7
			c15.5-8.5,30.4-16.6,45.1-24.9c2.7-1.5,4.4,0,6.3,1c45.3,24.9,90.7,49.9,136,74.8c3.5,1.9,6.9,3.9,10.8,6
			C362,169.3,347.2,177.4,332.4,185.7z M399.5,148.7c-2.4,1.4-3.8-0.6-5.3-1.5c-35.5-19.4-70.9-38.9-106.3-58.4
			c-11.9-6.6-23.8-13.1-35.7-19.7c-1.4-0.8-3.1-1.1-4.1-3c4.6-2.6,9.3-4.9,13.8-7.7c2.3-1.4,3.7,0.1,5.4,1
			c35.2,19.3,70.3,38.7,105.4,58c12.8,7,25.6,14.1,38.3,21.1c1,0.5,2.2,0.7,2.8,2.4C409,143.5,404.2,146,399.5,148.7L399.5,148.7z
			 M413.6,199.9c-1.7,0.5-3.2,1.7-5.6,3c0-11.8,0-22.8,0-33.7c-0.1-0.7,0.1-1.5,0.5-2.1s0.9-1.1,1.6-1.4c4.7-2.5,9.3-5,14.8-8
			c0,8.2-0.8,15.8,0.2,23.2C426.3,190.7,423.1,196.9,413.6,199.9z M437.6,127.8c-2.7,1.5-4.4,0.1-6.3-1
			c-40.4-22.2-80.8-44.4-121.2-66.6c-8.4-4.7-16.8-9.3-25.7-14.2c14.8-8.2,29.2-16,43.5-24c2.5-1.4,4.1,0,5.9,1
			c33,18.1,66,36.3,98.9,54.4l48.2,26.5C466,112.1,451.7,119.9,437.6,127.8z"/>
	</g>
</g>
</svg>
