<svg width="512" height="397" viewBox="0 0 512 397" fill="none" xmlns="http://www.w3.org/2000/svg">
<g clip-path="url(#clip0_702_2)">
<path d="M511.55 210.469C510.04 213.469 508.3 216.259 504.89 217.469C502.578 218.17 500.091 218.01 497.887 217.019C495.684 216.028 493.914 214.273 492.904 212.079C491.895 209.884 491.714 207.398 492.395 205.08C493.076 202.762 494.574 200.769 496.61 199.469C498.723 198.281 501.195 197.897 503.57 198.388C505.944 198.878 508.061 200.211 509.53 202.139C510.3 203.139 510.88 204.389 511.53 205.519L511.55 210.469Z" fill="#5E9D5E"/>
<path d="M17.7901 272.32C15.1243 272.439 12.4542 272.423 9.79008 272.27C7.28141 272.036 4.95352 270.863 3.27192 268.987C1.59032 267.111 0.678961 264.669 0.720083 262.15C0.734594 259.627 1.72809 257.209 3.49107 255.405C5.25405 253.601 7.64871 252.552 10.1701 252.48C15.1701 252.25 20.1701 252.27 25.1001 252.48C30.8901 252.69 34.7801 256.78 34.8101 262.32C34.8401 267.86 30.9801 271.95 25.2101 272.32C22.7401 272.5 20.2101 272.32 17.7501 272.32H17.7901Z" fill="#5E9D5E"/>
<path d="M41.4498 190.58C41.3981 189.257 41.6164 187.937 42.0912 186.7C42.5661 185.464 43.2877 184.337 44.212 183.388C45.1363 182.44 46.244 181.689 47.4677 181.182C48.6914 180.675 50.0054 180.423 51.3298 180.44C53.9242 180.466 56.4092 181.489 58.2706 183.297C60.132 185.104 61.2273 187.558 61.3298 190.15C61.3229 192.822 60.2742 195.385 58.4068 197.296C56.5393 199.206 54.0004 200.313 51.3298 200.38C48.7328 200.35 46.2495 199.31 44.4056 197.481C42.5616 195.652 41.5016 193.177 41.4498 190.58Z" fill="#5E9D5E"/>
<path d="M490.3 167.71C490.296 170.492 491.301 173.18 493.129 175.276C494.957 177.373 497.484 178.735 500.24 179.11C505.13 179.84 509.36 176.98 511.55 171.49V100.49C509.38 97.6433 506.659 95.2626 503.55 93.4902C448.156 63.1569 392.806 32.7169 337.5 2.17019C332.06 -0.829812 327.58 -0.679812 322.2 2.34019C298.62 15.5802 274.89 28.4802 251.21 41.5102C219.25 59.1035 187.28 76.6802 155.3 94.2402C150.53 96.8402 148.12 100.31 148.36 105.79C148.54 109.94 148.08 114.15 148.48 118.27C148.93 123.03 147.81 124.66 142.48 124.59C116.72 124.24 90.9496 124.43 65.1796 124.43C54.7096 124.43 44.2296 124.34 33.7596 124.48C26.7596 124.57 22.5196 129.66 23.5796 136.23C24.4196 141.49 28.5796 144.41 35.4496 144.41C71.5196 144.41 107.59 144.49 143.66 144.32C147.66 144.32 148.59 145.39 148.47 149.22C148.176 158.214 148.176 167.214 148.47 176.22C148.58 179.85 147.47 180.55 144.03 180.51C127.24 180.33 110.45 180.42 93.6596 180.43C91.3496 180.43 89.0396 180.32 86.8396 181.43C84.8077 182.433 83.1768 184.097 82.2139 186.148C81.251 188.199 81.0132 190.516 81.5396 192.72C82.5396 197.26 86.4496 200.35 91.8596 200.38C109.15 200.46 126.44 200.56 143.72 200.3C147.83 200.23 148.52 201.57 148.46 205.3C148.24 217.79 148.37 230.3 148.37 242.77C148.37 252.42 148.37 252.42 138.99 252.42C114.39 252.42 89.7896 252.42 65.1796 252.42C59.0096 252.42 54.7796 256.48 54.6196 262.05C54.4596 267.62 58.8496 272.05 65.1096 272.36C66.2696 272.41 67.4296 272.36 68.5996 272.36C93.6996 272.36 118.8 272.46 143.9 272.26C147.68 272.26 148.75 273.2 148.46 276.9C148.11 281.37 148.56 285.9 148.33 290.39C148.02 296.24 150.5 299.89 155.66 302.71C211.52 333.29 267.316 364 323.05 394.84C327.98 397.56 332.16 397.49 337.05 394.84C392.51 364.227 448.013 333.694 503.56 303.24C507.01 301.35 509.88 299.08 511.56 295.48V245.48C509.97 239.38 506.94 236.98 501.13 237.18C495.5 237.37 491.62 240.81 490.55 246.59C490.255 248.576 490.142 250.584 490.21 252.59C490.21 261.92 490.11 271.24 490.26 280.59C490.32 284.34 489.08 286.82 485.69 288.59C479.1 292.12 472.56 295.76 466.01 299.37C426.576 321.137 387.113 342.844 347.62 364.49C345.81 365.49 344.11 366.9 342.09 367.15C341.812 366.891 341.603 366.567 341.479 366.208C341.355 365.849 341.321 365.465 341.38 365.09C341.38 313.464 341.38 261.84 341.38 210.22C341.38 206.41 343 204.08 346.31 202.34C358.21 196.04 369.92 189.39 381.73 182.92C385.93 180.62 386.43 180.86 386.47 185.67C386.55 196 386.33 206.33 386.55 216.67C386.82 229.26 394.73 234 405.98 228.44C416.56 223.2 426.55 216.84 437.07 211.52C443.47 208.28 446.41 203.79 446.24 196.52C445.92 182.52 446.3 168.52 446.07 154.52C445.99 149.62 447.35 146.42 452.01 144.24C456.5 142.14 460.75 139.46 465.11 137.04C472.11 133.17 479.11 129.45 486.04 125.43C488.88 123.78 490.39 124.12 490.25 127.75C490.2 129.08 490.25 130.41 490.25 131.75C490.24 143.73 490.01 155.73 490.3 167.71ZM319.94 368.88C319.918 369.067 319.878 369.251 319.82 369.43C318.14 370.02 317.06 368.64 315.87 367.99C267.87 341.657 219.92 315.297 172.02 288.91C169.75 287.66 168.24 286.6 168.25 283.42C168.39 230.294 168.423 177.17 168.35 124.05C168.35 123.26 168.43 122.47 168.47 121.79C170.05 121.15 170.89 122.25 171.83 122.79C220.07 149.317 268.306 175.837 316.54 202.35C318.72 203.55 320.08 204.6 320.07 207.52C319.95 261.314 319.906 315.1 319.94 368.88ZM332.44 185.68C329.72 187.22 328.09 185.89 326.11 184.81C289.05 164.43 251.996 144.044 214.95 123.65L179.15 103.95C194.66 95.4202 209.52 87.3502 224.25 79.0602C226.97 77.5302 228.64 79.0602 230.58 80.0602C275.913 104.98 321.246 129.917 366.58 154.87C370.04 156.78 373.49 158.72 377.37 160.87C362.04 169.33 347.17 177.37 332.44 185.68ZM399.49 148.68C397.1 150.06 395.72 148.05 394.18 147.21C358.72 127.784 323.293 108.3 287.9 88.7602C275.99 82.2002 264.07 75.6902 252.18 69.1002C250.8 68.3302 249.06 67.9702 248.04 66.1002C252.67 63.5402 257.33 61.1502 261.79 58.4102C264.13 56.9802 265.52 58.5402 267.14 59.4102C302.293 78.7435 337.43 98.0769 372.55 117.41C385.33 124.444 398.103 131.477 410.87 138.51C411.82 139.03 413.07 139.22 413.68 140.88C408.96 143.48 404.18 146.01 399.49 148.72V148.68ZM413.62 199.93C411.93 200.47 410.43 201.59 408.01 202.93C408.01 191.13 408.01 180.18 408.01 169.23C407.938 168.5 408.099 167.766 408.469 167.132C408.839 166.498 409.399 165.997 410.07 165.7C414.73 163.21 419.36 160.7 424.87 157.7C424.87 165.91 424.11 173.53 425.06 180.93C426.33 190.72 423.12 196.91 413.62 199.93ZM437.62 127.84C434.91 129.37 433.27 127.96 431.31 126.84C390.91 104.667 350.516 82.4669 310.13 60.2402C301.72 55.5802 293.32 50.9602 284.42 46.0502C299.22 37.9002 313.6 30.0502 327.88 22.0502C330.38 20.6502 331.98 22.0502 333.79 23.0502C366.77 41.1702 399.743 59.3102 432.71 77.4702L480.88 103.97C466.03 112.12 451.74 119.86 437.62 127.84Z" fill="#5E9D5E"/>
</g>
<defs>
<clipPath id="clip0_702_2">
<rect width="510.79" height="396.85" fill="white" transform="translate(0.759766)"/>
</clipPath>
</defs>
</svg>
