<svg width="256" height="386" viewBox="0 0 256 386" fill="none" xmlns="http://www.w3.org/2000/svg">
<path d="M236.7 304.4C227.1 297.9 216.6 293.7 205.6 290.2C195.3 287 184.7 284.9 173.5 283.1C176.6 279.1 179.4 275.5 182.2 271.9C199.2 249.8 217 228.3 231.8 204.5C251.1 173.4 259.3 140.1 252.3 103.8C238.9 34.2002 169.5 -11.0998 100.3 4.30023C33.1002 19.3002 -9.9998 84.6002 2.4002 152.3C6.5002 174.7 16.3002 194.4 28.8002 213.1C42.4002 233.6 58.0002 252.5 73.0002 271.9C75.8002 275.5 78.6002 279.1 81.7002 283.1C80.5002 283.3 79.9002 283.4 79.4002 283.5C64.3002 285.9 49.4002 289.5 35.2002 295.5C24.4002 300.1 14.3002 305.6 6.9002 315C-1.7998 325.9 -1.6998 338.7 7.0002 349.6C11.8002 355.5 17.7002 360 24.3002 363.6C44.8002 374.8 67.1002 379.4 89.9002 382.4C95.5002 383.1 110.7 384.2 111.3 384.2C111.7 384.2 112.2 384.2 112.6 384.2C113 384.2 113.5 384.2 113.9 384.2C114.5 384.2 139.1 384.2 139.7 384.2C140.1 384.2 140.6 384.2 141 384.2C141.4 384.2 141.9 384.2 142.3 384.2C142.9 384.2 154.4 383.6 158.1 383.2C178.6 381.1 198.8 377.4 218 369.7C228.9 365.3 239.3 359.8 247.1 350.8C257.2 339.2 257.2 325.5 247.2 313.9C244.3 310.1 240.7 307.1 236.7 304.4ZM51.5002 219.5C39.4002 203.2 28.2002 186.3 21.5002 166.9C19.5002 161.1 18.0002 155.2 17.0002 149.2C16.0002 142.7 15.2002 136.1 15.4002 129.5C15.2002 76.1002 51.8002 30.3002 104 18.8002C166.4 5.00022 228.9 48.1002 238.5 111.3C243.3 142.8 235 171.2 218.5 197.7C205.2 219.1 189.3 238.6 173.8 258.5C158.8 277.8 143.8 297 129.5 316.8C128.2 318.6 127.6 319.4 125.9 317C102.2 283.7 75.9002 252.3 51.5002 219.5ZM234.7 342.3C228.2 348.9 219.9 352.8 211.4 356.1C194.1 362.8 176 366.2 157.6 368C147.6 369 137.5 369.6 127.4 369.6C100.4 369.3 73.7002 366.5 48.0002 357.7C40.6002 355.2 33.4002 352 26.8002 347.7C24.1002 345.9 21.6002 343.9 19.4002 341.4C13.8002 335 13.8002 329.1 19.7002 322.9C25.4002 316.8 32.7002 313 40.3002 309.7C56.2002 302.9 73.0002 299.5 90.0002 297.1C92.3002 296.8 93.1002 298.1 94.1002 299.5C102.7 311.1 111.3 322.7 119.8 334.4C125 341.5 129.9 341.6 135.1 334.5C143.7 322.7 152.4 311.1 161 299.3C162.1 297.8 163 296.7 165.2 297.1C184.6 299.9 203.7 303.8 221.3 312.8C226.1 315.2 230.6 318.1 234.4 322C241.5 328.8 241.6 335.4 234.7 342.3Z" fill="#5E9D5E"/>
<path d="M224.8 125.6C224.8 126.9 224.8 127.9 224.8 128.9C224.6 133.4 221.6 136.7 217.5 136.8C213.3 136.9 209.9 133.5 209.9 128.8C209.8 118.5 208.1 108.5 204.3 98.8999C195.3 76.2999 179.4 60.5999 156.8 51.5999C152.1 49.6999 149.9 46.8999 150.3 43.1999C151 37.9999 155.8 35.2999 161.3 37.2999C179.9 44.1999 195.1 55.6999 206.6 71.7999C218.2 87.9999 224.1 106.1 224.8 125.6Z" fill="#5E9D5E"/>
<path d="M128.4 31.3008C132.4 31.4008 135.7 34.7008 135.8 38.7008C135.8 42.8008 132.3 46.3008 128.2 46.2008C124 46.1008 120.7 42.6008 120.9 38.4008C121 34.5008 124.3 31.3008 128.4 31.3008Z" fill="#5E9D5E"/>
<path d="M127.5 76.1992C98.5995 76.1992 75.0995 99.7992 75.1995 128.799C75.2995 157.499 98.8995 180.999 127.6 180.899C156.4 180.899 179.9 157.399 179.9 128.599C180 99.6992 156.4 76.1992 127.5 76.1992ZM127.5 165.999C106.9 165.999 90.0995 148.999 90.1995 128.299C90.2995 107.799 107.2 91.0992 127.7 91.0992C148.3 91.0992 165.1 108.099 165 128.799C164.9 149.299 148 165.999 127.5 165.999Z" fill="#5E9D5E"/>
</svg>
