<?xml version="1.0" encoding="utf-8"?>
<!-- Generator: Adobe Illustrator 25.4.1, SVG Export Plug-In . SVG Version: 6.00 Build 0)  -->
<svg version="1.1" id="Layer_1" xmlns="http://www.w3.org/2000/svg" xmlns:xlink="http://www.w3.org/1999/xlink" x="0px" y="0px"
	 viewBox="0 0 256 386" style="enable-background:new 0 0 256 386;" xml:space="preserve">
<style type="text/css">
	.st0{fill:#FFFFFF;}
</style>
<path class="st0" d="M236.7,304.4c-9.6-6.5-20.1-10.7-31.1-14.2c-10.3-3.2-20.9-5.3-32.1-7.1c3.1-4,5.9-7.6,8.7-11.2
	c17-22.1,34.8-43.6,49.6-67.4c19.3-31.1,27.5-64.4,20.5-100.7c-13.4-69.6-82.8-114.9-152-99.5C33.1,19.3-10,84.6,2.4,152.3
	c4.1,22.4,13.9,42.1,26.4,60.8C42.4,233.6,58,252.5,73,271.9c2.8,3.6,5.6,7.2,8.7,11.2c-1.2,0.2-1.8,0.3-2.3,0.4
	c-15.1,2.4-30,6-44.2,12c-10.8,4.6-20.9,10.1-28.3,19.5c-8.7,10.9-8.6,23.7,0.1,34.6c4.8,5.9,10.7,10.4,17.3,14
	c20.5,11.2,42.8,15.8,65.6,18.8c5.6,0.7,20.8,1.8,21.4,1.8c0.4,0,0.9,0,1.3,0s0.9,0,1.3,0c0.6,0,25.2,0,25.8,0c0.4,0,0.9,0,1.3,0
	s0.9,0,1.3,0c0.6,0,12.1-0.6,15.8-1c20.5-2.1,40.7-5.8,59.9-13.5c10.9-4.4,21.3-9.9,29.1-18.9c10.1-11.6,10.1-25.3,0.1-36.9
	C244.3,310.1,240.7,307.1,236.7,304.4z M51.5,219.5c-12.1-16.3-23.3-33.2-30-52.6c-2-5.8-3.5-11.7-4.5-17.7
	c-1-6.5-1.8-13.1-1.6-19.7C15.2,76.1,51.8,30.3,104,18.8C166.4,5,228.9,48.1,238.5,111.3c4.8,31.5-3.5,59.9-20,86.4
	c-13.3,21.4-29.2,40.9-44.7,60.8c-15,19.3-30,38.5-44.3,58.3c-1.3,1.8-1.9,2.6-3.6,0.2C102.2,283.7,75.9,252.3,51.5,219.5z
	 M234.7,342.3c-6.5,6.6-14.8,10.5-23.3,13.8c-17.3,6.7-35.4,10.1-53.8,11.9c-10,1-20.1,1.6-30.2,1.6c-27-0.3-53.7-3.1-79.4-11.9
	c-7.4-2.5-14.6-5.7-21.2-10c-2.7-1.8-5.2-3.8-7.4-6.3c-5.6-6.4-5.6-12.3,0.3-18.5c5.7-6.1,13-9.9,20.6-13.2
	c15.9-6.8,32.7-10.2,49.7-12.6c2.3-0.3,3.1,1,4.1,2.4c8.6,11.6,17.2,23.2,25.7,34.9c5.2,7.1,10.1,7.2,15.3,0.1
	c8.6-11.8,17.3-23.4,25.9-35.2c1.1-1.5,2-2.6,4.2-2.2c19.4,2.8,38.5,6.7,56.1,15.7c4.8,2.4,9.3,5.3,13.1,9.2
	C241.5,328.8,241.6,335.4,234.7,342.3z"/>
<path class="st0" d="M224.8,125.6c0,1.3,0,2.3,0,3.3c-0.2,4.5-3.2,7.8-7.3,7.9c-4.2,0.1-7.6-3.3-7.6-8c-0.1-10.3-1.8-20.3-5.6-29.9
	c-9-22.6-24.9-38.3-47.5-47.3c-4.7-1.9-6.9-4.7-6.5-8.4c0.7-5.2,5.5-7.9,11-5.9c18.6,6.9,33.8,18.4,45.3,34.5
	C218.2,88,224.1,106.1,224.8,125.6z"/>
<path class="st0" d="M128.4,31.3c4,0.1,7.3,3.4,7.4,7.4c0,4.1-3.5,7.6-7.6,7.5c-4.2-0.1-7.5-3.6-7.3-7.8
	C121,34.5,124.3,31.3,128.4,31.3z"/>
<path class="st0" d="M127.5,76.2c-28.9,0-52.4,23.6-52.3,52.6c0.1,28.7,23.7,52.2,52.4,52.1c28.8,0,52.3-23.5,52.3-52.3
	C180,99.7,156.4,76.2,127.5,76.2z M127.5,166c-20.6,0-37.4-17-37.3-37.7c0.1-20.5,17-37.2,37.5-37.2c20.6,0,37.4,17,37.3,37.7
	C164.9,149.3,148,166,127.5,166z"/>
</svg>
