<svg id="svgContent" version="1.1" width="2564" height="1807" style="position: relative; width: 2564px; height: 1807px; margin:auto; user-select: none; cursor: default;" xmlns="http://www.w3.org/2000/svg" xmlns:xlink="http://www.w3.org/1999/xlink" viewBox="0 0 2564 1807"><g id="svgPath"><path d="M 897.620 1.111 C 860.161 3.499, 836.518 9.501, 805.500 24.499 C 698.092 76.429, 569.967 220.787, 418.524 460.500 C 391.756 502.870, 373.971 532.120, 318.804 624.500 C 232.785 768.545, 165.572 862.324, 103.181 925.351 C 64.959 963.962, 34.493 985.718, 6.910 994.096 L 0 996.195 0 1017.659 L 0 1039.123 4.750 1038.477 C 66.479 1030.088, 140.607 963.453, 234.156 832.257 C 265.085 788.882, 301.885 732.356, 352.487 650.500 C 386.190 595.981, 392.731 585.582, 413.503 553.500 C 422.406 539.750, 442.654 508.025, 458.499 483 C 512.426 397.827, 539.976 355.771, 568.553 315 C 642.120 210.041, 705.711 139.797, 767 95.792 C 807.633 66.618, 845.780 50.828, 892.500 43.845 C 906.569 41.742, 948.461 42.061, 963.500 44.384 C 1020.976 53.266, 1071.405 78.415, 1111.059 117.974 C 1139.588 146.434, 1166.208 188.192, 1170.521 211.250 C 1170.907 213.313, 1170.822 215, 1170.332 215 C 1168.917 215, 1158.085 203.426, 1148.809 192 C 1136.125 176.377, 1115.779 157.423, 1094.100 141.033 C 1053.027 109.979, 999.940 88.142, 949.386 81.503 C 935.572 79.690, 905.097 79.412, 891 80.971 C 861.243 84.262, 828.266 94.281, 799.351 108.815 C 713.824 151.806, 631.945 240.028, 539.313 389 C 516.395 425.857, 443.193 549.260, 427.792 577 C 414.586 600.785, 387.271 654.883, 350.689 729.701 C 271.674 891.301, 234.423 951.094, 178.853 1005.514 C 154.657 1029.209, 128.759 1050.085, 101 1068.269 C 77.891 1083.406, 21.321 1113.867, 6.654 1119.071 L -0.193 1121.500 0.479 1128.500 C 1.508 1139.235, 2.864 1144.395, 5.927 1149.224 C 9.446 1154.773, 13.969 1157, 21.720 1157 C 33.095 1157, 43.610 1152.256, 72 1134.315 C 81.625 1128.232, 96.925 1118.647, 106 1113.015 C 168.939 1073.952, 215.869 1032.250, 254 981.500 C 273.594 955.421, 292.268 925.060, 326.110 864.261 C 338.283 842.392, 355.918 811, 365.299 794.500 C 376.108 775.490, 392.119 744.718, 409.005 710.500 C 438.441 650.851, 443.548 641.265, 478.070 580.882 C 510.348 524.423, 518.915 508.985, 533.659 480.708 C 557.315 435.342, 578.216 401.247, 607.352 360.500 C 672.249 269.738, 741.267 197.390, 798.609 160.011 C 853.870 123.989, 918.164 113.873, 979.593 131.535 C 1008.007 139.704, 1037.623 154.383, 1064 173.370 C 1127.805 219.299, 1181.595 297.396, 1187.916 353.284 C 1188.516 358.588, 1188.617 364.835, 1188.153 368 L 1187.348 373.500 1178.892 365 C 1172.592 358.668, 1167.164 351.527, 1157.606 337 C 1145.823 319.091, 1143.581 316.313, 1130.138 302.955 C 1113.366 286.288, 1103.847 278.434, 1085.467 266.093 C 1040.236 235.722, 991.881 221, 937.362 221 C 895.597 221, 859.810 228.134, 816.500 245.092 C 734.484 277.206, 656.922 339.299, 585.380 430.115 C 548.830 476.512, 512.243 531.946, 483.509 584.462 C 460.033 627.368, 438.296 673.225, 392.600 776.246 C 362.299 844.560, 346.139 879.764, 333.470 905.061 C 328.183 915.616, 313.140 939.780, 278.990 992.571 C 232.566 1064.337, 231.650 1065.662, 221.569 1075.652 C 215.934 1081.236, 208.697 1089.336, 205.485 1093.652 C 202.273 1097.968, 194.834 1107.575, 188.955 1115 C 165.338 1144.827, 157.998 1159.919, 158.002 1178.644 C 158.004 1192.100, 162.975 1198, 174.310 1198 C 182.997 1198, 186.808 1195.352, 199.083 1180.788 C 220.124 1155.822, 227.893 1149.108, 254.149 1133.198 C 330.561 1086.896, 399.921 1017.091, 460.523 925.500 C 484.721 888.929, 504.074 855.300, 526.417 811 C 549.304 765.620, 560.596 740.168, 590.526 666.500 C 621.325 590.693, 626.886 577.994, 645.071 541.954 C 692.562 447.832, 745.973 390.817, 812 363.759 C 841.488 351.674, 856.839 349.039, 902.151 348.284 C 937.280 347.699, 942 348.008, 942 350.894 C 942 352.469, 940.757 352.774, 932.204 353.295 C 900.365 355.234, 857.721 371.435, 820.500 395.732 C 801.637 408.045, 791.471 416.445, 772.422 435.458 C 742.767 465.058, 730.081 483.427, 705.062 533 C 678.278 586.069, 663.069 627.376, 637.498 716.500 C 625.052 759.879, 617.424 784.111, 606.806 814 C 579.367 891.234, 554.421 942.632, 520.170 992.500 C 504.291 1015.621, 471.256 1059.040, 458.596 1073.430 C 450.575 1082.547, 386.090 1141.363, 369.548 1154.649 C 346.846 1172.883, 316.143 1192.651, 282 1211.018 C 247.027 1229.832, 191.566 1254.846, 155.500 1268.073 C 147.800 1270.897, 137.969 1275.033, 133.654 1277.265 C 124.835 1281.826, 115.888 1289.443, 114.002 1293.995 C 112.019 1298.783, 113.219 1306.409, 116.727 1311.301 C 120.986 1317.243, 126.669 1319.163, 138.500 1318.657 C 149.953 1318.167, 160.370 1314.742, 182.871 1304.069 C 192.017 1299.730, 218.400 1287.783, 241.500 1277.521 C 283.445 1258.886, 300.436 1250.382, 324 1236.229 C 360.949 1214.038, 415.817 1174.170, 445.944 1147.623 C 505.469 1095.173, 558.899 1023.230, 601.253 938.500 C 623.356 894.283, 635.727 861.049, 662.117 775 C 681.548 711.643, 688.410 689.951, 697.230 664 C 736.277 549.122, 776.853 480.803, 829.273 441.672 C 851.403 425.152, 889.656 406.835, 917.507 399.422 C 932.285 395.489, 942.599 394.002, 955 394.016 C 974.740 394.039, 987.203 398.441, 998.181 409.268 L 1004.500 415.500 977.500 416.140 C 917.335 417.565, 881.910 424.943, 866.265 439.307 C 860.229 444.849, 858.043 449.822, 858.048 458 C 858.058 475.517, 870.503 494.873, 909.486 538 C 946.244 578.667, 959.866 594.670, 971.774 611.180 L 978.035 619.859 966.446 641.580 C 950.320 671.805, 931.646 709.351, 922.719 729.500 C 885.383 813.767, 857.967 906.979, 830.509 1043 C 807.691 1156.037, 795.764 1225.517, 788.024 1290.500 C 786.321 1304.800, 782.923 1333.150, 780.474 1353.500 C 772.419 1420.409, 770.772 1437.289, 769.010 1471 C 767.022 1509.050, 764.431 1538.855, 757.058 1608.500 C 753.719 1640.039, 753.057 1650.076, 752.574 1676.500 C 752.190 1697.520, 751.484 1710.880, 750.382 1718 C 749.168 1725.840, 748.638 1738.445, 748.289 1767.750 L 747.822 1807 774.300 1807 L 800.777 1807 801.386 1784.250 C 804.404 1671.458, 809.231 1603.509, 824.563 1458.027 C 844.373 1270.053, 858.071 1171.621, 878.979 1067 C 904.617 938.711, 935.935 835.072, 977.491 741 C 992.021 708.110, 1014.720 663.001, 1016.744 662.996 C 1017.710 662.994, 1025.411 666.446, 1033.857 670.668 C 1048.267 677.870, 1049.693 678.371, 1056.987 678.793 C 1066.922 679.368, 1074.622 676.941, 1085.589 669.775 C 1108.456 654.835, 1124.679 630.442, 1148.051 575.854 C 1174.896 513.157, 1190.971 488.617, 1216.640 471.152 C 1229.318 462.526, 1240.727 458.750, 1257.852 457.511 C 1262.995 457.138, 1272.445 456.160, 1278.852 455.335 C 1287.355 454.241, 1307.781 453.611, 1354.500 453 C 1421.294 452.128, 1431.029 451.532, 1452.813 446.987 C 1493.795 438.435, 1505.099 427.796, 1506.719 396.250 L 1507.297 385 1540.256 385 C 1566.882 385, 1573.118 385.250, 1572.715 386.300 C 1572.441 387.014, 1556.813 412.777, 1537.986 443.550 C 1504.890 497.644, 1481.256 539.682, 1425.290 644 C 1370.401 746.309, 1329.479 833.337, 1290.807 930 C 1205.027 1144.410, 1125.023 1365.157, 1111.407 1425 C 1108.348 1438.447, 1108.321 1441.566, 1111.250 1443.133 C 1112.487 1443.795, 1116.032 1446.752, 1119.126 1449.703 C 1122.221 1452.654, 1126.268 1455.503, 1128.120 1456.034 C 1129.972 1456.565, 1136.078 1457, 1141.690 1457 L 1151.894 1457 1156.488 1447.365 C 1164.128 1431.342, 1175.180 1402.428, 1187.971 1365 C 1201.473 1325.496, 1253.470 1179.436, 1278.217 1111.500 C 1295.764 1063.330, 1312.623 1018.652, 1327.273 981.500 C 1397.577 803.205, 1485.350 629.373, 1588.826 463.500 C 1624.544 406.243, 1631.357 396.906, 1640.623 392.509 C 1650.332 387.902, 1667.515 388.755, 1693.444 395.131 C 1801.939 421.811, 1894.224 471.945, 2006.919 565.425 C 2023.954 579.556, 2056.299 611.321, 2070.824 628.184 C 2117.717 682.628, 2161.113 747.535, 2190.648 807.404 C 2208.637 843.870, 2212.089 856.205, 2216.002 898.017 C 2218.429 923.953, 2218.487 927, 2216.550 927 C 2215.753 927, 2209.115 924.918, 2201.800 922.373 C 2189.525 918.103, 2187.575 917.711, 2176.500 917.284 C 2161.494 916.705, 2152.646 918.411, 2141.086 924.111 C 2126.837 931.136, 2115.966 943.873, 2110.314 960.165 C 2106.562 970.978, 2105.953 989.044, 2108.920 1001.460 C 2112.320 1015.683, 2116.724 1023.741, 2125.168 1031.193 C 2129.099 1034.662, 2134.918 1039.906, 2138.100 1042.847 L 2143.885 1048.194 2140.116 1052.001 C 2131.734 1060.467, 2084.619 1080.498, 2057.833 1086.983 C 2043.443 1090.467, 2010.726 1096.116, 1990 1098.695 C 1972.781 1100.838, 1925.188 1101.056, 1897.500 1099.119 C 1755.103 1089.154, 1641.904 1045.880, 1549.543 966.100 C 1527.595 947.142, 1501.688 919.177, 1488.770 900.500 C 1483.486 892.861, 1477 881.088, 1477 879.138 C 1477 878.632, 1480.263 879.552, 1484.250 881.183 C 1498.001 886.805, 1508.473 889.140, 1522.500 889.713 C 1543.344 890.564, 1554.365 886.780, 1566.588 874.577 C 1579.226 861.958, 1585.193 845.847, 1585.319 824 C 1585.402 809.691, 1583.837 802.226, 1578.754 792.691 C 1562.768 762.698, 1517.978 749.863, 1485.856 766.071 C 1481.874 768.081, 1476.849 771.934, 1472.400 776.389 C 1457.599 791.213, 1451.256 814.088, 1455.386 837.750 C 1456.831 846.033, 1457.483 854, 1456.715 854 C 1456.559 854, 1453.948 853.127, 1450.913 852.061 C 1438.203 847.593, 1428.204 848.710, 1420.295 855.479 C 1393.648 878.288, 1449.431 958.526, 1538.500 1025.503 C 1604.758 1075.326, 1682.751 1112.828, 1761 1132.488 C 1779.650 1137.174, 1792.206 1139.638, 1814.729 1143.035 C 1825.355 1144.637, 1837.300 1147.069, 1841.274 1148.439 C 1852.986 1152.477, 1854.609 1155.235, 1867.505 1193 C 1878.781 1226.018, 1891.204 1260.196, 1915.488 1325 C 1946.404 1407.507, 1958.886 1442.438, 1978.555 1501.500 C 2019.196 1623.541, 2037.338 1686.522, 2062.235 1792 L 2065.657 1806.500 2092.329 1806.766 C 2118.465 1807.027, 2119 1806.992, 2119 1805.023 C 2119 1796.565, 2106.927 1746.452, 2090.928 1688.500 C 2067.422 1603.356, 2063.879 1590.183, 2062.779 1583.840 L 2061.624 1577.180 2065.937 1571.467 C 2074.120 1560.629, 2085.862 1548.375, 2109.642 1525.857 C 2141.761 1495.443, 2175.565 1459.530, 2204.105 1425.500 C 2208.256 1420.550, 2222.616 1402.775, 2236.016 1386 C 2249.415 1369.225, 2266.075 1348.525, 2273.037 1340 C 2283.476 1327.218, 2302.242 1299.420, 2380.037 1181.500 C 2431.924 1102.850, 2476.205 1036.067, 2478.439 1033.092 C 2485.019 1024.331, 2486.520 1023.585, 2498.856 1022.941 C 2512.549 1022.228, 2514.467 1021.212, 2539.250 1001.548 L 2558 986.672 2558.001 981.086 C 2558.002 978.014, 2557.258 970.238, 2556.349 963.806 C 2554.527 950.921, 2554.733 949.350, 2560.317 933.500 C 2561.673 929.650, 2562.993 923.288, 2563.250 919.362 L 2563.717 912.224 2555.608 908.126 C 2550.578 905.583, 2544.843 903.577, 2540.500 902.841 C 2536.650 902.188, 2533.356 901.551, 2533.181 901.425 C 2533.006 901.299, 2535.378 897.295, 2538.454 892.528 C 2553.567 869.101, 2557.066 855.031, 2550.931 842.358 C 2543.655 827.327, 2526.261 832.530, 2502.009 856.991 C 2480.418 878.768, 2462.472 903.987, 2447.921 933 C 2438.574 951.636, 2437.049 959.660, 2440.463 972.241 C 2442.190 978.607, 2442.200 979.353, 2440.646 985.653 C 2436.820 1001.155, 2423.489 1024.296, 2386.051 1080.424 C 2372.368 1100.937, 2349.364 1135.896, 2334.930 1158.110 C 2278.087 1245.594, 2258.577 1273.369, 2221.891 1319.035 C 2197.058 1349.946, 2164.913 1386.934, 2128.073 1426.988 C 2121.237 1434.420, 2110.248 1447.025, 2103.651 1455 C 2090.465 1470.942, 2055.880 1506.577, 2046.645 1513.738 C 2042.032 1517.316, 2040.606 1517.984, 2039.924 1516.889 C 2038.339 1514.349, 2027.054 1482.293, 1999.474 1402 C 1944.576 1242.169, 1931.176 1204.431, 1916.626 1168.675 C 1913.532 1161.071, 1911 1154.724, 1911 1154.571 C 1911 1154.417, 1922.138 1153.987, 1935.750 1153.616 C 2045.038 1150.635, 2109.793 1135.807, 2165.829 1100.929 C 2196.218 1082.014, 2227.178 1052.583, 2245.176 1025.500 C 2278.451 975.430, 2282.700 909.950, 2257.572 834.500 C 2245.234 797.454, 2224.600 754.855, 2198.820 713.201 C 2173.393 672.119, 2146.064 634.486, 2119.332 603.742 C 2094.802 575.531, 2040.159 523.096, 2006.500 495.469 C 1968.211 464.041, 1911.368 425.834, 1868.500 402.712 C 1837.035 385.741, 1793.995 368.581, 1753.500 356.862 C 1738.279 352.457, 1680.145 338, 1677.654 338 C 1674.952 338, 1674.782 336.074, 1676.881 329.208 C 1678.239 324.764, 1680.344 320.813, 1683.118 317.500 C 1689.072 310.389, 1697.923 296.632, 1701.888 288.326 L 1705.276 281.228 1721.388 280.815 C 1732.349 280.533, 1738.299 279.968, 1740 279.046 C 1741.375 278.300, 1745.875 274.542, 1750 270.694 C 1758.232 263.015, 1772.174 251.970, 1779.385 247.414 L 1783.996 244.500 1784.015 238.500 C 1784.025 235.200, 1783.493 226.369, 1782.831 218.875 C 1781.663 205.638, 1781.694 205.068, 1783.918 198.875 C 1787.399 189.182, 1788.651 184.133, 1789.371 176.881 L 1790.029 170.262 1783.383 165.131 C 1777.509 160.597, 1776.180 160, 1771.950 160 C 1765.233 160, 1763.999 159.323, 1764.006 155.643 C 1764.015 150.291, 1766.039 144.692, 1769.662 140 C 1775.450 132.502, 1782 117.114, 1782 111.014 C 1782 109.411, 1781.579 105.939, 1781.065 103.299 C 1780.551 100.660, 1779.850 96.783, 1779.507 94.685 L 1778.885 90.870 1773.193 91.501 C 1765.447 92.358, 1754.810 95.563, 1747.535 99.231 C 1723.293 111.453, 1698.270 139.328, 1681.762 172.500 C 1673.025 190.055, 1671.367 195.167, 1668.137 214.500 C 1664.642 235.421, 1661.620 246.454, 1655.423 260.920 C 1644.456 286.519, 1619.389 320.790, 1607.855 325.954 C 1603.961 327.697, 1601.840 327.822, 1584.536 327.334 C 1568.453 326.880, 1563.018 327.134, 1549.500 328.974 C 1538.165 330.517, 1525.862 331.318, 1507.305 331.721 L 1481.111 332.290 1480.394 329.395 C 1474.745 306.593, 1412.702 189.173, 1382.823 144.736 C 1367.005 121.212, 1349.376 111.970, 1330.687 117.403 C 1305.201 124.812, 1274.996 166.790, 1250.028 229.500 C 1247.401 236.100, 1243.976 245.438, 1242.419 250.250 L 1239.588 259 1234.937 259 L 1230.287 259 1229.643 252.063 C 1228.728 242.226, 1223.835 224.045, 1218.397 210.278 C 1194.998 151.045, 1149.731 89.123, 1109.271 61 C 1040.630 13.289, 979.211 -4.090, 897.620 1.111 M 1333.996 183.510 C 1333.448 184.951, 1333 186.345, 1333 186.608 C 1333 188.115, 1314.623 228.016, 1289.980 280.014 C 1250.336 363.663, 1234.806 398.139, 1236.158 399.492 C 1236.422 399.755, 1250.332 399.640, 1267.069 399.236 C 1283.806 398.831, 1302.450 398.857, 1308.500 399.294 C 1314.550 399.731, 1327.600 399.912, 1337.500 399.695 C 1352.099 399.376, 1356.728 398.914, 1362 397.249 C 1367.829 395.408, 1371.956 395.138, 1402 394.631 C 1442.812 393.942, 1448 392.962, 1448 385.942 C 1448 384.417, 1443.144 373.702, 1437.080 361.847 C 1425.356 338.928, 1422.023 331.203, 1419.453 321.002 C 1418.553 317.429, 1416.681 311.804, 1415.293 308.502 C 1410.562 297.253, 1398.757 281, 1395.317 281 C 1394.615 281, 1392.278 280.295, 1390.123 279.433 L 1386.206 277.865 1385.842 270.183 C 1385.433 261.532, 1383.678 257.639, 1365.406 224.857 C 1353.892 204.198, 1348.216 192.970, 1346.018 186.500 C 1344.333 181.539, 1344.283 181.498, 1339.656 181.195 C 1335.418 180.918, 1334.901 181.129, 1333.996 183.510 M 920.500 261.708 C 911.712 262.190, 893.027 264.756, 881 267.133 C 845.341 274.178, 809.312 290.515, 765.500 319.506 C 728.545 343.959, 704.331 363.591, 674.912 392.952 C 618.039 449.715, 573.031 512.138, 527.660 597.179 C 483.534 679.886, 454.855 739.232, 428.197 803 C 423.254 814.825, 414.606 834.175, 408.981 846 C 403.355 857.825, 394.960 876.275, 390.324 887 C 379.123 912.917, 365.452 939.260, 341.543 981 C 330.673 999.975, 320.452 1018.128, 318.830 1021.341 L 315.880 1027.181 322.120 1023.855 C 329.674 1019.829, 339.769 1010.094, 351.006 996 C 355.610 990.225, 363.703 980.550, 368.991 974.500 C 423.726 911.881, 479.650 818.244, 523.978 715 C 527.402 707.025, 537.546 682.725, 546.520 661 C 573.561 595.537, 582.747 574.766, 602.909 533.500 C 622.371 493.666, 629.942 480.291, 651.303 448 C 670.268 419.331, 696.263 391.841, 727.183 367.756 C 791.522 317.638, 865.305 295.405, 933.642 305.543 C 979.124 312.290, 1014.763 330.079, 1043.938 360.597 C 1057.261 374.532, 1067.127 390.124, 1071.560 404.250 L 1073.365 410 1111.762 410 L 1150.159 410 1149.454 406.750 C 1148.328 401.555, 1141.742 386.943, 1136.435 377.865 C 1127.583 362.725, 1114.309 346.169, 1097.571 329.390 C 1073.597 305.357, 1056.699 293.596, 1028.844 281.559 C 992.247 265.743, 958.760 259.607, 920.500 261.708 M 1087.500 465.121 C 1079.800 465.576, 1054.150 467.304, 1030.500 468.959 C 993.212 471.568, 958.940 473.468, 934.641 474.273 L 927.782 474.500 933.518 482.500 C 940.274 491.922, 945.956 498.716, 959.025 513 C 964.308 518.775, 978.083 534.300, 989.636 547.500 C 1015.898 577.506, 1030.139 592.811, 1040.895 602.587 C 1051.442 612.173, 1061.088 619.317, 1062.096 618.288 C 1063.283 617.077, 1096.530 556.689, 1108.886 533.301 C 1121.254 509.891, 1130.984 489.175, 1136.367 474.794 C 1138.365 469.455, 1140 464.843, 1140 464.544 C 1140 463.754, 1103.877 464.151, 1087.500 465.121 M 1700.406 735.223 C 1695.747 741.153, 1695.499 741.783, 1695.157 748.565 C 1694.869 754.275, 1695.206 756.483, 1696.863 759.732 C 1700.216 766.304, 1708.484 775.025, 1725.500 789.938 C 1747.159 808.921, 1758.557 822.152, 1761.416 831.630 C 1762.020 833.631, 1761.619 833.797, 1754.779 834.384 C 1750.776 834.727, 1735.125 835.465, 1720 836.024 C 1680.202 837.496, 1669.513 839.251, 1662.279 845.505 C 1659.145 848.214, 1658.640 849.294, 1658.237 854.154 C 1657.005 869.017, 1666.867 876.185, 1690.500 877.601 C 1706.133 878.538, 1772.024 876.340, 1782.205 874.542 C 1798.708 871.629, 1808.501 866.333, 1812.822 857.986 C 1814.796 854.174, 1815.081 852.403, 1814.719 846.198 C 1813.882 831.823, 1802.708 814.327, 1777.714 788.254 C 1769.896 780.099, 1758.550 768.074, 1752.500 761.532 C 1736.033 743.724, 1725.240 735.727, 1711.116 730.868 C 1708.130 729.841, 1705.599 729, 1705.491 729 C 1705.383 729, 1703.095 731.801, 1700.406 735.223 M 2059.500 842.594 C 2009.774 846.271, 1974.380 858.276, 1959.413 876.540 C 1955.763 880.995, 1955.724 881.135, 1956.965 885.284 C 1959.060 892.285, 1963.573 900.333, 1969.771 908.120 C 1978.834 919.508, 1989.605 928.420, 2020.494 950.087 C 2027.091 954.714, 2035.471 961.313, 2039.116 964.750 L 2045.743 971 2056.372 971 L 2067 971 2070.944 967.056 C 2076.782 961.218, 2077.128 956.913, 2072.971 941.857 C 2071.711 937.292, 2066.575 934.652, 2060.626 935.510 C 2056.661 936.082, 2056.416 935.957, 2054.356 932.303 C 2050.515 925.489, 2044.192 919.324, 2033.751 912.216 C 2021.961 904.189, 2015.075 898.661, 2012.036 894.783 L 2009.907 892.066 2013.703 890.438 C 2019.227 888.071, 2033.426 885.350, 2050 883.482 C 2070.871 881.131, 2081.304 878.784, 2093.250 873.754 L 2098 871.754 2098 858.002 L 2098 844.250 2095.126 843.675 C 2091.273 842.905, 2065.768 842.131, 2059.500 842.594" stroke="none" fill="#241c1c" fill-rule="evenodd"/></g></svg>