<!DOCTYPE svg PUBLIC "-//W3C//DTD SVG 1.1//EN" "http://www.w3.org/Graphics/SVG/1.1/DTD/svg11.dtd">
<!-- Uploaded to: SVG Repo, www.svgrepo.com, Transformed by: SVG Repo Mixer Tools -->
<svg fill="#000000" height="800px" width="800px" version="1.1" id="Layer_1" xmlns="http://www.w3.org/2000/svg" xmlns:xlink="http://www.w3.org/1999/xlink" viewBox="0 0 512 512" xml:space="preserve">
<g id="SVGRepo_bgCarrier" stroke-width="0"/>
<g id="SVGRepo_tracerCarrier" stroke-linecap="round" stroke-linejoin="round"/>
<g id="SVGRepo_iconCarrier"> <g> <g> <path d="M256,160.681c-76.586,0-138.894,62.307-138.894,138.894S179.413,438.468,256,438.468s138.894-62.307,138.894-138.894 S332.586,160.681,256,160.681z M256,422.128c-67.575,0-122.553-54.977-122.553-122.553S188.425,177.021,256,177.021 s122.553,54.977,122.553,122.553S323.575,422.128,256,422.128z"/> </g> </g> <g> <g> <path d="M471.149,0H40.851c-4.513,0-8.17,3.658-8.17,8.17s3.657,8.17,8.17,8.17h3.074l2.769,63.014 c0.465,10.576,7.706,19.577,17.345,22.831l16.236,369.354c0.98,22.31,19.946,40.461,42.278,40.461h266.894 c22.332,0,41.298-18.151,42.279-40.461l16.236-369.355c9.638-3.255,16.88-12.256,17.345-22.831l2.768-63.013h3.074 c4.513,0,8.17-3.658,8.17-8.17S475.662,0,471.149,0z M448.979,78.636c-0.203,4.615-4.277,8.513-8.896,8.513H169.959 c-4.513,0-8.17,3.658-8.17,8.17s3.657,8.17,8.17,8.17h261.587L415.4,470.822c-0.601,13.695-12.244,24.837-25.953,24.837H122.553 c-13.709,0-25.352-11.142-25.953-24.837L80.454,103.489h56.824c4.513,0,8.17-3.658,8.17-8.17s-3.657-8.17-8.17-8.17H71.916 c-4.619,0-8.693-3.899-8.896-8.512L60.282,16.34h391.435L448.979,78.636z"/> </g> </g> <g> <g> <path d="M256,193.362c-58.566,0-106.213,47.647-106.213,106.213c0,22.19,6.803,43.463,19.674,61.52 c2.619,3.673,7.72,4.53,11.396,1.911c3.674-2.619,4.53-7.721,1.911-11.396c-10.886-15.271-16.64-33.265-16.64-52.034 c0-49.556,40.317-89.872,89.872-89.872s89.872,40.316,89.872,89.872S305.555,389.447,256,389.447 c-18.77,0-36.764-5.754-52.036-16.639c-3.677-2.62-8.777-1.764-11.396,1.911c-2.619,3.674-1.764,8.777,1.911,11.396 c18.057,12.87,39.33,19.673,61.521,19.673c58.566,0,106.213-47.646,106.213-106.213S314.566,193.362,256,193.362z"/> </g> </g> <g> <g> <path d="M317.549,271.068h-24.433l3.621-21.325c0.755-4.448-2.24-8.667-6.688-9.422c-4.458-0.759-8.667,2.239-9.423,6.688 l-4.31,25.382c-4.839,1.245-8.858,3.186-12.145,5.026v-39.936c0-4.512-3.657-8.17-8.17-8.17c-4.513,0-8.17,3.658-8.17,8.17v39.934 c-3.288-1.839-7.307-3.781-12.145-5.026l-4.31-25.382c-0.756-4.449-4.975-7.443-9.423-6.688c-4.448,0.755-7.443,4.974-6.688,9.422 l3.621,21.325h-24.435c-4.513,0.002-8.17,3.659-8.17,8.172v30.957c0,21.475,17.47,38.945,38.945,38.945 c12.066,0,20.489-5.034,26.061-8.365c1.595-0.953,3.737-2.233,4.714-2.541c0.977,0.307,3.119,1.588,4.714,2.541 c5.572,3.331,13.995,8.365,26.061,8.365c21.475,0,38.945-17.47,38.945-38.945v-30.957 C325.719,274.726,322.062,271.068,317.549,271.068z M309.379,310.196c0,12.463-10.141,22.604-22.604,22.604 c-7.555,0-12.7-3.076-17.677-6.05c-4.211-2.518-8.19-4.896-13.097-4.896c-4.908,0-8.886,2.378-13.097,4.896 c-4.976,2.974-10.122,6.05-17.677,6.05c-12.463,0-22.604-10.141-22.604-22.604v-22.787h22.604c0.873,0,1.708,0.046,2.52,0.122 c0.08,0.008,0.159,0.014,0.24,0.021c6.095,0.636,10.571,3.311,14.917,5.908c3.943,2.357,7.692,4.566,12.181,4.841 c0.302,0.034,0.607,0.054,0.917,0.054c0.31,0,0.615-0.021,0.917-0.054c4.489-0.276,8.238-2.484,12.181-4.841 c4.347-2.598,8.822-5.271,14.917-5.908c0.081-0.005,0.16-0.012,0.24-0.021c0.812-0.077,1.648-0.122,2.52-0.122h22.604V310.196z"/> </g> </g> </g>
</svg>