<svg width="154" height="134" viewBox="0 0 154 134" fill="none" xmlns="http://www.w3.org/2000/svg">
<g clip-path="url(#clip0_662_420)">
<path d="M153.606 84.2426C153.599 84.1316 153.561 84.0247 153.496 83.9341C153.431 83.8435 153.342 83.7728 153.239 83.73C153.136 83.6872 153.023 83.674 152.913 83.6918C152.803 83.7097 152.7 83.7579 152.616 83.8311C141.051 94.0116 126.489 100.178 111.115 101.405C111.003 101.421 110.897 101.463 110.806 101.529C109.834 98.4061 109.381 95.1459 109.465 91.8774C109.465 91.3629 108.825 91.3011 108.537 91.5686L95.5417 103.093L88.8173 109.061C87.0714 110.313 85.5568 111.859 84.3413 113.629C83.7019 115.09 85.4552 115.687 86.6515 116.407L88.2604 117.477C88.2442 117.52 88.2429 117.568 88.2567 117.611C88.2705 117.655 88.2986 117.693 88.3366 117.719C88.3746 117.745 88.4202 117.758 88.4663 117.755C88.5123 117.752 88.556 117.734 88.5904 117.704L90.4056 118.918C90.4268 118.964 90.462 119.003 90.5064 119.029C90.5507 119.055 90.602 119.066 90.6531 119.062C92.9221 120.585 95.191 122.066 97.4806 123.548L101.379 126.079C101.379 126.182 101.523 126.285 101.627 126.244L103.689 127.623C103.689 127.746 103.854 127.869 103.978 127.808L106.35 129.372L106.144 129.639C105.979 129.866 106.35 130.092 106.515 129.866L106.701 129.619L112.353 133.405C112.423 133.469 112.508 133.513 112.601 133.533C112.694 133.553 112.79 133.548 112.88 133.519C112.97 133.489 113.051 133.437 113.114 133.366C113.177 133.296 113.221 133.21 113.24 133.117L114.168 126.141C124.937 125.892 135.17 121.403 142.632 113.653C150.095 105.904 154.181 95.5228 153.998 84.7777C154.016 84.6551 153.985 84.5304 153.912 84.4304C153.838 84.3303 153.729 84.2629 153.606 84.2426ZM126.936 122.642C130.03 118.033 133.11 113.416 136.177 108.793C136.321 108.567 135.95 108.361 135.805 108.587L126.564 122.437C126.547 122.466 126.537 122.498 126.536 122.532C126.534 122.565 126.54 122.599 126.555 122.629C126.569 122.66 126.59 122.686 126.617 122.706C126.644 122.727 126.676 122.74 126.709 122.745C123.386 123.941 119.917 124.689 116.395 124.968L128.503 107.908C128.668 107.682 128.297 107.455 128.132 107.682L115.88 124.968C115.323 124.968 114.766 124.968 114.188 124.968C114.125 124.887 114.04 124.826 113.943 124.792C113.846 124.758 113.741 124.753 113.641 124.777C113.541 124.801 113.45 124.853 113.379 124.927C113.308 125.001 113.259 125.094 113.24 125.194L112.332 131.985L109.506 130.071L114.085 123.898C114.25 123.671 113.858 123.445 113.714 123.671L109.135 129.845L107.361 128.651C110.977 123.877 114.58 119.076 118.169 114.246C118.334 114.041 117.942 113.814 117.798 114.041C114.195 118.815 110.599 123.617 107.01 128.446L104.741 126.923C109.466 121.729 113.842 116.23 117.839 110.46C118.004 110.234 117.633 110.028 117.468 110.254C113.466 116.015 109.098 121.514 104.391 126.717L102.328 125.441C106.753 121.029 110.745 116.206 114.25 111.036C114.263 110.989 114.26 110.939 114.242 110.894C114.223 110.848 114.191 110.81 114.149 110.785C114.108 110.759 114.059 110.748 114.01 110.752C113.961 110.757 113.915 110.777 113.879 110.81C110.385 115.988 106.392 120.812 101.957 125.215L99.8939 123.877C104.372 119.641 108.452 115.005 112.084 110.028C112.249 109.801 111.878 109.575 111.713 109.801C108.086 114.776 104.005 119.406 99.5227 123.63L97.7488 122.498C102.903 117.386 107.527 111.767 111.548 105.727C111.693 105.5 111.321 105.295 111.177 105.521C107.15 111.551 102.527 117.162 97.3775 122.272C96.7999 121.881 96.2018 121.531 95.6036 121.14C99.1924 118.314 102.384 115.02 105.092 111.345C105.257 111.118 104.886 110.913 104.721 111.139C102.012 114.808 98.8209 118.096 95.2323 120.914L93.6234 119.885L105.381 107.414C105.566 107.208 105.257 106.92 105.071 107.106L93.2521 119.659L91.1894 118.403C96.245 113.782 100.776 108.62 104.7 103.01C104.865 102.784 104.494 102.578 104.329 102.805C100.398 108.409 95.8599 113.564 90.7975 118.177L88.9411 117.045C92.8292 112.699 96.9612 108.577 101.317 104.698C101.544 104.513 101.317 104.225 101.028 104.389C96.675 108.271 92.5432 112.393 88.6523 116.736L86.4453 115.399L100.884 101.529C101.09 101.344 100.781 101.035 100.595 101.22L86.1565 115.172L84.527 114.164L108.351 93.0092C108.383 96.1152 108.898 99.1975 109.877 102.146C109.906 102.24 109.962 102.324 110.037 102.387C110.112 102.451 110.204 102.491 110.302 102.504C110.399 102.517 110.499 102.502 110.588 102.46C110.677 102.419 110.753 102.353 110.806 102.27C110.854 102.309 110.91 102.338 110.971 102.356C111.031 102.374 111.094 102.379 111.156 102.372C126.573 101.128 141.186 94.999 152.864 84.8806C153.008 93.0818 150.589 101.124 145.943 107.891C141.296 114.658 134.653 119.814 126.936 122.642Z" fill="#5E9D5E" stroke="#5E9D5E"/>
<path d="M71.863 95.7256C58.3928 97.5255 44.7629 97.8154 31.2281 96.5899C30.8155 96.5899 30.6712 96.9192 30.7537 97.2278C30.7175 97.3346 30.7175 97.4503 30.7537 97.5571C30.7537 98.4214 30.9806 99.2857 31.1043 100.15C31.0435 100.302 31.0435 100.471 31.1043 100.623C32.2149 108.218 34.0805 115.684 36.6736 122.91C36.5999 122.977 36.5443 123.062 36.5117 123.156C36.4792 123.25 36.4707 123.351 36.4871 123.449C36.5035 123.547 36.5443 123.639 36.6057 123.718C36.667 123.796 36.7471 123.858 36.8386 123.898C38.0762 124.33 39.3344 124.721 40.5927 125.112C40.6252 125.137 40.6651 125.151 40.7061 125.151C40.7472 125.151 40.7871 125.137 40.8196 125.112C51.8587 128.433 63.421 129.675 74.9157 128.775H75.0189C75.2045 129.331 76.1327 129.043 76.009 128.405C74.1528 117.905 72.9541 107.3 72.4199 96.6516C72.7499 96.4458 72.4611 95.6433 71.863 95.7256ZM33.9715 110.234L44.5943 98.9153C44.7799 98.7095 44.4911 98.4008 44.2849 98.6066L33.8683 109.719C33.8683 109.225 33.6414 108.731 33.5383 108.258C33.5756 108.29 33.6232 108.307 33.6724 108.307C33.7215 108.307 33.7691 108.29 33.8064 108.258C35.6586 105.157 38.1131 102.456 41.0258 100.315C41.2321 100.15 41.0258 99.7796 40.7989 99.9442C37.842 102.109 35.3518 104.846 33.4764 107.991C33.3526 107.497 33.2495 106.982 33.167 106.468C35.0682 103.977 37.3597 101.809 39.9532 100.047C40.1801 99.9031 39.9532 99.5326 39.7263 99.6767C37.2001 101.38 34.9527 103.462 33.0639 105.85C33.0639 105.48 32.8989 105.089 32.837 104.719C34.3615 102.665 36.2236 100.884 38.3443 99.4504C38.5712 99.2857 38.3443 98.9153 38.1174 99.08C36.0635 100.478 34.2462 102.194 32.7338 104.163C32.6101 103.484 32.5069 102.805 32.4038 102.105C33.2216 100.699 34.453 99.5785 35.931 98.8947C36.1785 98.7712 35.931 98.4008 35.7247 98.5243C34.3389 99.1706 33.1554 100.181 32.3007 101.446C32.115 100.191 31.9294 98.9359 31.7644 97.66C37.1824 98.0716 42.6141 98.2911 48.0596 98.3185C47.2551 99.1211 46.4507 99.9237 45.6669 100.747C45.6513 100.717 45.6276 100.691 45.5985 100.674C45.5694 100.656 45.5359 100.646 45.5019 100.646C45.4678 100.646 45.4343 100.656 45.4052 100.674C45.3761 100.691 45.3525 100.717 45.3368 100.747C41.4703 104.415 37.8656 108.348 34.549 112.518C34.3427 111.736 34.1571 110.995 33.9715 110.234ZM34.6728 113.012C37.2871 109.718 40.0829 106.571 43.0473 103.587C40.1389 106.756 37.3955 110.048 34.7965 113.464C34.7346 113.32 34.714 113.176 34.6109 113.012H34.6728ZM38.2206 123.301L37.7668 123.157L37.2305 121.552C43.171 114.596 49.1872 107.696 55.279 100.85C55.4646 100.644 55.279 100.335 54.9902 100.541C48.9397 107.332 42.9648 114.192 37.0655 121.12L36.5704 119.659C36.6031 119.672 36.6382 119.679 36.6736 119.679C36.709 119.679 36.744 119.672 36.7767 119.659C42.2311 112.43 48.1424 105.557 54.4745 99.08C54.6602 98.8948 54.3508 98.586 54.1651 98.7712C47.8334 105.249 41.9222 112.122 36.4673 119.35C36.1579 118.383 35.8485 117.395 35.5597 116.407L49.4209 100.973C49.6066 100.767 49.2972 100.479 49.1116 100.685L35.4153 115.646L34.9203 113.917C39.1142 108.386 43.7054 103.166 48.6578 98.298C51.9168 98.298 55.1552 98.298 58.3936 98.051C52.5116 107.023 45.7693 115.404 38.2618 123.075C38.2406 123.096 38.2256 123.122 38.2183 123.151C38.2111 123.18 38.2118 123.211 38.2206 123.239V123.301ZM38.6331 123.445C46.1869 115.714 52.9642 107.264 58.868 98.2156C60.4976 98.1127 62.1271 97.9893 63.736 97.8452C56.4341 106.872 48.8709 115.687 41.0465 124.289L38.6331 123.445ZM41.5621 124.351C49.3041 115.804 56.8122 107.03 64.0866 98.0304C64.1091 98.0093 64.127 97.9838 64.1393 97.9554C64.1515 97.9271 64.1578 97.8966 64.1578 97.8658C64.1578 97.8349 64.1515 97.8045 64.1393 97.7761C64.127 97.7478 64.1091 97.7223 64.0866 97.7012C65.5511 97.5777 67.0156 97.4131 68.4802 97.2484C60.5319 106.55 52.5837 115.845 44.6355 125.133C43.6042 124.886 42.5728 124.598 41.5621 124.289V124.351ZM48.0183 125.997C48.0183 125.997 48.0183 125.997 48.0183 125.894C48.0183 125.791 47.8946 125.606 47.7502 125.647L69.9653 98.7918C70.1303 98.586 69.8415 98.2774 69.6559 98.5038L47.0695 125.812L45.0068 125.318L68.7896 97.4748C68.8077 97.4398 68.8171 97.401 68.8171 97.3616C68.8171 97.3222 68.8077 97.2834 68.7896 97.2484L71.141 96.9398C71.141 97.8041 71.141 98.6684 71.306 99.5327C64.2733 108.88 56.6391 117.761 48.4515 126.12L48.0183 125.997ZM54.2064 127.129C52.4944 126.861 50.7823 126.573 49.0909 126.223C57.0946 118.02 64.5761 109.326 71.4917 100.191C71.4917 101.2 71.6361 102.249 71.7186 103.216C71.6818 103.192 71.6387 103.18 71.5948 103.18C71.5509 103.18 71.5079 103.192 71.471 103.216C65.512 111.416 58.8298 119.067 51.5043 126.079C51.298 126.264 51.6074 126.573 51.793 126.367C59.1207 119.393 65.797 111.768 71.7392 103.587L72.1105 107.846L54.2476 126.985L54.2064 127.129ZM74.8332 127.828C73.4719 127.931 72.1105 128.014 70.7079 128.055L74.1113 123.939C74.2969 125.133 74.5032 126.45 74.7301 127.767L74.8332 127.828ZM74.0907 123.301L70.089 127.993C68.6452 127.993 67.2013 127.993 65.778 127.993L72.4612 120.235C72.6468 120.029 72.3374 119.72 72.1517 119.947L65.5511 127.746C65.5331 127.763 65.5187 127.784 65.5088 127.807C65.499 127.83 65.4939 127.855 65.4939 127.88C65.4939 127.905 65.499 127.93 65.5088 127.953C65.5187 127.976 65.5331 127.996 65.5511 128.014C64.1691 128.014 62.8078 128.014 61.4258 127.828C64.9732 123.994 68.7113 120.34 72.6261 116.881C72.8324 116.695 72.6262 116.387 72.3167 116.572C68.3976 120.05 64.6436 123.733 61.0751 127.581C61.0552 127.616 61.0447 127.655 61.0447 127.695C61.0447 127.734 61.0552 127.773 61.0751 127.808C59.0124 127.643 56.9498 127.417 54.8871 127.129L72.358 108.423C72.6743 113.375 73.2174 118.314 73.9875 123.239L74.0907 123.301Z" fill="#5E9D5E" stroke="#5E9D5E"/>
<path d="M31.063 76.7725C31.0836 76.6706 31.0836 76.5657 31.063 76.4638C34.3391 76.5471 37.5792 77.1658 40.6545 78.2954C41.1496 78.4806 41.3971 77.8838 41.2527 77.5134C38.9631 72.2041 36.6942 66.9153 34.4252 61.606C33.2289 58.8691 32.0531 56.1115 30.8774 53.3745C30.2423 51.335 29.2583 49.4204 27.969 47.7154C26.7727 46.6659 25.7207 48.1476 24.5862 49.0119C21.1828 51.6048 17.7587 54.2183 14.3966 56.8935C9.73489 60.5977 5.02511 64.2264 0.267185 67.7796C0.186134 67.8293 0.119198 67.899 0.0727698 67.9818C0.0263413 68.0647 0.00195312 68.158 0.00195312 68.253C0.00195312 68.3479 0.0263413 68.4412 0.0727698 68.5241C0.119198 68.6069 0.186134 68.6766 0.267185 68.7263L6.57899 71.8131L5.15574 73.233C4.97009 73.4388 5.27948 73.7475 5.46513 73.5417L6.33145 72.6568C5.91622 74.1335 5.57887 75.631 5.32075 77.143L4.70194 77.8838C4.53693 78.0895 4.84632 78.3983 5.01133 78.1719L5.17635 77.9867C5.01134 79.2008 4.88758 80.4355 4.8257 81.6702C4.80008 81.6894 4.77931 81.7142 4.76499 81.7428C4.75066 81.7714 4.74321 81.8029 4.74321 81.8349C4.74321 81.8668 4.75066 81.8983 4.76499 81.9269C4.77931 81.9555 4.80008 81.9803 4.8257 81.9995C4.74291 83.48 4.74291 84.964 4.8257 86.4445L4.61945 86.6709C4.57569 86.7036 4.54674 86.7524 4.539 86.8064C4.53127 86.8604 4.54536 86.9153 4.57819 86.959C4.61101 87.0026 4.65987 87.0315 4.71403 87.0392C4.76819 87.0469 4.8232 87.0328 4.86696 87.0001C5.16952 90.6069 5.9534 94.1572 7.1978 97.557L7.07402 97.6804C6.88838 97.8656 7.17715 98.1538 7.36279 97.9892C7.94493 99.5839 8.63405 101.138 9.42548 102.64L9.23984 102.825C9.0542 103.031 9.36362 103.319 9.54926 103.134V103.031C10.4956 104.771 11.5639 106.442 12.7464 108.032L12.5195 108.299C12.3339 108.505 12.6433 108.814 12.8083 108.587C12.8875 108.522 12.957 108.446 13.0146 108.361C14.39 110.172 15.9148 111.865 17.5731 113.423L17.3668 113.67C17.1812 113.876 17.4906 114.185 17.6762 113.958L17.9031 113.691C22.2827 117.698 27.4946 120.691 33.167 122.457C33.2715 122.494 33.3858 122.491 33.4884 122.449C33.591 122.408 33.6748 122.33 33.7239 122.231C33.8298 122.264 33.9429 122.266 34.0499 122.236C34.1569 122.207 34.2531 122.148 34.327 122.065C34.401 121.983 34.4496 121.881 34.467 121.771C34.4844 121.662 34.4699 121.55 34.4252 121.449C28.4668 107.317 27.2865 91.6333 31.063 76.7725ZM30.6505 120.358L31.4756 119.206C31.6406 118.979 31.2693 118.753 31.1043 118.979L30.238 120.194C29.4542 119.864 28.691 119.535 27.9484 119.165C28.2991 118.835 28.6291 118.485 28.9797 118.136C29.3304 117.786 28.8766 117.642 28.6703 117.848L27.5565 118.959C25.8577 118.113 24.2238 117.143 22.6679 116.057C22.7407 116.048 22.807 116.011 22.8536 115.954L27.144 110.336C27.309 110.11 26.9377 109.904 26.7727 110.131L22.4823 115.749C22.4731 115.768 22.4684 115.789 22.4684 115.81C22.4684 115.832 22.4731 115.853 22.4823 115.872C21.6572 115.296 20.8528 114.678 20.0896 114.041C22.0189 112.824 23.5412 111.062 24.4625 108.978C24.5862 108.731 24.2149 108.525 24.0912 108.772C23.1944 110.832 21.6815 112.564 19.7595 113.732L18.8107 112.888L23.9674 106.92C24.153 106.715 23.8437 106.406 23.658 106.612L18.4807 112.6C17.9031 112.044 17.3256 111.468 16.7893 110.892L21.5128 105.274C21.6984 105.068 21.389 104.76 21.224 104.986C19.6358 106.838 18.0681 108.711 16.4799 110.583C15.923 109.966 15.366 109.349 14.8503 108.711C17.024 107.147 18.8324 105.132 20.1515 102.805C20.1641 102.757 20.1611 102.707 20.1429 102.662C20.1247 102.617 20.0923 102.579 20.0505 102.553C20.0088 102.528 19.9599 102.516 19.9112 102.521C19.8624 102.525 19.8165 102.545 19.7802 102.578C18.4928 104.868 16.7186 106.849 14.5822 108.381L13.9428 107.538L19.677 101.035C19.8627 100.829 19.5533 100.52 19.3676 100.726L13.6746 107.188C13.1177 106.426 12.5814 105.665 12.0864 104.862L16.9749 100.479C17.1605 100.294 16.8718 99.9853 16.6655 100.17L11.8595 104.492C11.385 103.751 10.9519 102.99 10.5393 102.228C13.0146 99.656 15.5104 97.1042 18.0062 94.5319C18.1919 94.3467 17.8825 94.038 17.6969 94.2438L10.3331 101.817C9.98241 101.138 9.65238 100.438 9.34298 99.7589L14.2522 94.8406C14.4584 94.6554 14.149 94.3467 13.9634 94.5525L9.15735 99.3473C8.84795 98.627 8.53855 97.9068 8.29102 97.166L16.0467 89.4078C16.253 89.2226 16.0467 88.914 15.7579 89.0992L8.12601 96.7338C7.8166 95.8489 7.54844 94.9435 7.30091 94.0586C7.33018 94.082 7.36656 94.0947 7.40405 94.0947C7.44155 94.0947 7.47793 94.082 7.50719 94.0586L13.9428 87.6381C14.149 87.4323 13.8396 87.1442 13.6334 87.3294L7.1978 93.7705C6.90903 92.6387 6.66151 91.5068 6.45524 90.3544C6.48927 90.3848 6.53333 90.4016 6.57899 90.4016C6.62466 90.4016 6.66871 90.3848 6.70275 90.3544L6.86777 90.1898C6.89565 90.1931 6.92391 90.1901 6.95045 90.1809C6.97699 90.1717 7.00109 90.1567 7.02095 90.1369C7.04081 90.1171 7.05592 90.093 7.06511 90.0665C7.0743 90.0401 7.07733 90.0118 7.07402 89.984L15.3248 81.5468C15.531 81.341 15.2216 81.0323 15.036 81.2381L6.41397 90.0458C6.20771 88.7493 6.0633 87.4117 5.9808 86.0741L13.4271 78.2954C13.4654 78.2544 13.4858 78.2 13.4839 78.144C13.482 78.088 13.4578 78.0351 13.4168 77.9969C13.3758 77.9587 13.3212 77.9383 13.2651 77.9403C13.209 77.9422 13.156 77.9663 13.1177 78.0072L5.96018 85.4979C5.86739 83.9696 5.86739 82.4371 5.96018 80.9088L14.9329 72.6774C15.1391 72.4921 14.8297 72.1835 14.6234 72.3893L6.02206 80.3326C6.1299 79.0615 6.30894 77.7973 6.55835 76.5462C9.11095 73.6858 12.0308 71.1741 15.2423 69.0761C15.4692 68.9115 15.2422 68.5411 15.036 68.7057C12.0011 70.6896 9.22899 73.0473 6.78524 75.723C7.03276 74.5706 7.32156 73.4182 7.67221 72.2864C8.00224 72.1423 8.18787 71.6484 7.87846 71.4015C10.2048 69.2032 12.7092 67.2002 15.366 65.4131C15.5929 65.269 15.366 64.8986 15.1598 65.0427C12.4329 66.8907 9.85993 68.9553 7.46593 71.2163L5.40325 70.1668L17.7794 60.9475C17.9856 60.7829 17.7794 60.4125 17.5525 60.5771L5.03198 69.9404L3.50558 69.1996C7.30847 65.9564 11.4031 63.07 15.7373 60.5771C15.9848 60.4536 15.7373 60.0832 15.531 60.2067C11.138 62.741 6.99424 65.6831 3.15493 68.9938L1.8142 68.3353C10.5875 61.7638 19.1614 54.9522 27.5359 47.9006C31.6612 57.6275 35.8416 67.3544 40.077 77.0812C37.1127 76.1162 34.0161 75.6164 30.898 75.5996C30.7563 76.0085 30.5472 76.3911 30.2792 76.7314C26.5812 91.6555 27.7666 107.369 33.662 121.572C32.5482 121.058 31.5375 120.729 30.6505 120.358Z" fill="#5E9D5E" stroke="#5E9D5E"/>
<path d="M113.818 66.6069C113.751 66.6959 113.714 66.8042 113.714 66.9156C113.714 67.0269 113.751 67.1352 113.818 67.2242L115.179 68.8088C115.116 68.9213 115.06 69.0382 115.014 69.1586C114.89 69.4056 115.261 69.6319 115.385 69.385V69.1792C121.47 76.6493 125.286 85.4364 130.463 93.5444V93.6472C130.4 93.6953 130.35 93.7591 130.319 93.8324C130.294 93.9237 130.293 94.0201 130.317 94.1117C130.341 94.2032 130.39 94.2867 130.457 94.3537C130.524 94.4207 130.607 94.4687 130.699 94.4928C130.791 94.5169 130.888 94.5163 130.979 94.491C132.031 94.0794 132.609 93.5238 133.722 93.1739C136.097 92.4039 138.402 91.4332 140.612 90.2724C145.125 87.9111 149.227 84.8398 152.761 81.1766C152.835 81.0983 152.879 80.9961 152.885 80.8884C152.957 80.9046 153.032 80.9038 153.103 80.8861C153.175 80.8683 153.242 80.834 153.298 80.7861C153.354 80.7381 153.398 80.6778 153.427 80.6098C153.455 80.5418 153.467 80.4681 153.462 80.3946C152.228 66.4054 147.24 53.006 139.024 41.6037C138.673 41.1304 137.91 41.4803 138.013 41.9536C137.931 41.9897 137.86 42.0464 137.807 42.1182C131.282 51.577 122.852 59.574 113.054 65.5985C112.92 65.6995 112.832 65.8494 112.809 66.0154C112.786 66.1813 112.829 66.3496 112.931 66.4834C113.032 66.6171 113.182 66.7053 113.348 66.7284C113.515 66.7516 113.684 66.7079 113.818 66.6069ZM124.564 58.8076L119.304 71.34C119.201 71.5869 119.614 71.6898 119.717 71.34C121.491 67.2242 123.244 62.9233 125.018 58.7252C125.018 58.5812 125.018 58.4783 124.812 58.4783C126.441 57.0584 128.029 55.5972 129.535 54.0744C125.929 60.3367 123.096 67.0116 121.099 73.9534C121.082 74.008 121.088 74.0669 121.116 74.117C121.143 74.1672 121.189 74.2046 121.243 74.221C121.298 74.2373 121.357 74.2314 121.407 74.2044C121.458 74.1774 121.495 74.1315 121.511 74.0769C123.593 66.8023 126.602 59.8241 130.463 53.313C130.484 53.2826 130.495 53.2468 130.495 53.2102C130.495 53.1735 130.484 53.1377 130.463 53.1072C133.547 49.9084 136.368 46.4676 138.9 42.8179C140.607 45.2601 142.177 47.7952 143.603 50.4114C138.817 60.9477 134.004 71.484 129.164 82.0203C129.061 82.2672 129.432 82.4936 129.535 82.2261C134.307 71.7721 139.058 61.3181 143.788 50.8642C144.304 51.8108 144.778 52.7574 145.232 53.704C145.186 53.7184 145.146 53.7471 145.117 53.786C145.088 53.8248 145.073 53.8719 145.073 53.9201C145.073 53.9684 145.088 54.0153 145.117 54.0542C145.146 54.0931 145.186 54.1218 145.232 54.1362C145.28 54.1475 145.329 54.1475 145.377 54.1362C145.954 55.3503 146.511 56.5645 147.027 57.7992C146.972 57.7992 146.92 57.8209 146.881 57.8594C146.842 57.898 146.821 57.9504 146.821 58.005C146.821 58.0595 146.842 58.1119 146.881 58.1505C146.92 58.1891 146.972 58.2108 147.027 58.2108C149.906 65.2639 151.713 72.7062 152.39 80.2917C152.32 80.2914 152.25 80.3058 152.186 80.3342C152.122 80.3626 152.065 80.4042 152.018 80.4563C146.877 85.8122 140.505 89.8382 133.454 92.1862C132.803 92.3369 132.167 92.5506 131.557 92.8241C131.473 92.8754 131.397 92.9377 131.33 93.0093C126.524 85.4775 122.852 77.3489 117.51 70.2493C118.367 67.3237 119.45 64.4685 120.748 61.7092C122.137 60.7625 123.409 59.7953 124.564 58.8076ZM120.274 62.1413C119.163 64.6115 118.206 67.1475 117.407 69.7348C116.973 69.1586 116.52 68.5824 116.045 68.0268L118.108 63.767C118.789 63.3349 119.552 62.7792 120.274 62.1413ZM117.345 64.1992C116.808 65.331 116.272 66.4628 115.756 67.5946L114.643 66.3188C114.604 66.2751 114.556 66.2398 114.503 66.215C114.45 66.1903 114.392 66.1765 114.333 66.1747C115.344 65.6808 116.355 65.0223 117.345 64.3432V64.1992Z" fill="#5E9D5E" stroke="#5E9D5E"/>
<path d="M70.7904 113.588L57.3004 126.367C57.0942 126.573 57.4036 126.861 57.6098 126.676L71.0379 113.835C71.2855 113.588 70.9967 113.341 70.7904 113.588Z" fill="#5E9D5E" stroke="#5E9D5E"/>
<path d="M25.7007 117.086C25.5563 117.312 25.9276 117.539 26.072 117.292L28.1347 113.814C28.2791 113.588 27.9078 113.361 27.7634 113.608C27.124 114.761 26.3608 115.913 25.7007 117.086Z" fill="#5E9D5E" stroke="#5E9D5E"/>
<path d="M59.1152 21.1894C59.5483 19.7078 59.9609 18.2261 60.3734 16.7238C60.5797 15.9418 60.7859 15.1598 60.9716 14.3779C61.0747 14.0074 61.1366 13.5753 61.281 13.2049C61.4253 12.8345 61.6935 12.6492 62.2092 12.4846C62.7249 12.32 62.3536 11.9907 62.0854 12.0731C61.8173 12.1554 61.2191 12.2171 61.0128 12.4846C60.7279 13.1829 60.5405 13.9168 60.4559 14.666C60.0434 16.2917 59.6102 17.9174 59.1564 19.5226C58.2488 22.6917 57.2588 25.8333 56.1862 28.9476C53.9741 35.3462 51.4266 41.6246 48.5542 47.7565C48.4304 48.0035 48.8017 48.2092 48.9255 47.9622C51.6757 42.2414 54.0822 36.3834 56.1449 30.3881C57.2175 27.3425 58.2076 24.2762 59.1152 21.1894Z" fill="#5E9D5E" stroke="#5E9D5E"/>
<path d="M55.2374 10.2828L46.7598 33.084C46.7598 33.3515 47.0898 33.4544 47.1929 33.2075C49.9432 25.5933 52.7622 17.9861 55.6499 10.3857C55.6706 10.1388 55.2374 10.0153 55.2374 10.2828Z" fill="#5E9D5E" stroke="#5E9D5E"/>
<path d="M56.7646 13.4108L46.1211 43.2499C46.1211 43.5175 46.4511 43.6203 46.5336 43.3734L57.1771 13.5137C57.3008 13.2462 56.8677 13.1433 56.7646 13.4108Z" fill="#5E9D5E" stroke="#5E9D5E"/>
<path d="M77.7001 21.1898C77.6746 21.0747 77.6088 20.9725 77.5144 20.9016C70.7278 15.4221 63.3451 10.7212 55.5056 6.88755C55.5163 6.7882 55.5 6.68783 55.4583 6.59697C55.4167 6.5061 55.3512 6.42811 55.2689 6.37123C55.1865 6.31435 55.0903 6.28071 54.9904 6.27379C54.8905 6.26688 54.7906 6.28696 54.7012 6.33195C42.9784 11.7981 32.5255 19.6406 24.0084 29.3595C23.4927 29.092 23.0183 29.9562 23.5546 30.3472C25.1223 31.4585 26.6693 32.6109 28.2163 33.7633C28.2163 34.0514 28.01 34.3395 27.9275 34.6276C27.845 34.9157 28.2576 34.998 28.3401 34.6276C28.4226 34.2572 28.5051 34.1543 28.567 33.928C30.6296 35.4714 32.6923 37.0353 34.755 38.6404C34.7681 38.6914 34.7972 38.7369 34.838 38.7702C34.8788 38.8035 34.9292 38.823 34.9819 38.8257C38.6328 41.7479 42.2219 44.7935 45.7285 47.9214C45.7174 47.9758 45.7174 48.0318 45.7285 48.0861C45.6047 48.3331 45.976 48.5388 46.0998 48.2918L48.5131 50.4938C48.3893 50.9671 49.1525 51.3375 49.5238 50.8642C57.89 40.1824 67.4235 30.4642 77.9476 21.8894C77.9857 21.829 78.0096 21.7608 78.0175 21.6899C78.0254 21.619 78.0172 21.5472 77.9934 21.4799C77.9696 21.4126 77.9308 21.3515 77.88 21.3013C77.8292 21.2511 77.7677 21.2129 77.7001 21.1898ZM24.8335 30.0386C25.8236 28.9067 26.8962 27.8161 27.9069 26.7254C27.1829 28.0935 26.6089 29.5355 26.1948 31.0264L24.8335 30.0386ZM26.5661 31.2939C27.123 29.2724 27.9633 27.3395 29.062 25.5524C30.774 23.865 32.5273 22.2187 34.3631 20.6753C32.0094 24.4896 30.0599 28.538 28.5463 32.755L26.5661 31.2939ZM28.897 33.0225C30.4187 28.7589 32.3892 24.6683 34.7756 20.8194C34.7756 20.6341 34.7756 20.4901 34.5487 20.4901C35.7657 19.4612 37.0239 18.4322 38.2822 17.5062L31.8466 33.8662C31.8466 34.1132 32.1766 34.2366 32.2591 33.9691L38.7566 17.5062C38.7566 17.5062 38.7566 17.321 38.7566 17.2798C41.3983 15.2595 44.153 13.3907 47.0073 11.6824L35.0644 37.8379C33.0223 36.171 30.9803 34.5865 28.897 33.0225ZM35.3944 38.0437C39.4235 29.2497 43.4389 20.4489 47.4405 11.6413C47.4663 11.6014 47.48 11.5549 47.48 11.5075C47.48 11.46 47.4663 11.4136 47.4405 11.3737C48.4306 10.7975 49.5032 10.2213 50.452 9.68625C46.9225 19.9775 42.5271 29.9525 37.3127 39.5048L35.3944 38.0437ZM37.6428 39.8752C42.9648 30.1152 47.4234 19.9107 50.9677 9.37758C52.0609 8.80138 53.0304 8.26633 54.2474 7.73128C50.3663 19.3242 45.6084 30.6063 40.0148 41.4803C39.8911 41.7273 40.2624 41.9536 40.3861 41.7067C46.0107 30.7415 50.8027 19.3707 54.7218 7.69012L56.9907 8.84255C53.5179 21.093 48.8691 32.9807 43.1089 44.3408C41.2731 42.8797 39.4579 41.3774 37.6428 39.8752ZM43.3976 44.7112C49.1798 33.2942 53.8358 21.3435 57.3001 9.02775C58.2215 9.4942 59.1497 9.98809 60.0848 10.5094C56.3012 23.02 51.5993 35.2356 46.0172 47.0572L43.3976 44.7112ZM49.0494 49.7941L46.471 47.4481C52.0505 35.5572 56.7455 23.2729 60.5179 10.6946C62.9106 12.0322 65.2621 13.4522 67.5517 14.9544C64.8014 22.5274 62.0512 30.1072 59.3009 37.6938C55.6724 41.5442 52.2504 45.5833 49.0494 49.7941ZM60.0848 37.0353L67.9848 15.3042L70.0475 16.7242C67.9848 22.2187 65.9221 27.7337 63.8594 33.1871C62.5187 34.3807 61.2605 35.6566 60.0229 36.953L60.0848 37.0353ZM64.5814 32.5286L70.4601 16.9917C71.2439 17.5267 72.0071 18.0823 72.7703 18.638C71.6977 21.7248 70.7076 24.8116 69.5318 27.8778C67.7992 29.3183 66.149 30.8617 64.5195 32.4463L64.5814 32.5286ZM72.9765 24.8116L70.1919 27.281L73.1415 18.9055L75.2042 20.4284C75.0804 20.4284 74.9361 20.4284 74.9154 20.5518C74.6394 22.0909 74.0034 23.5433 73.059 24.791L72.9765 24.8116ZM74.1523 23.8032C74.6908 22.8276 75.067 21.7712 75.2661 20.6753C75.2802 20.6144 75.2802 20.551 75.2661 20.4901L76.7306 21.6425L74.1523 23.8032Z" fill="#5E9D5E" stroke="#5E9D5E"/>
<path d="M43.0895 14.6453L33.9312 33.7629C33.8074 34.0098 34.1787 34.2362 34.3025 33.9893L43.4607 14.8717C43.5845 14.6247 43.2132 14.3983 43.0895 14.6453Z" fill="#5E9D5E" stroke="#5E9D5E"/>
<path d="M64.0034 13.7194C61.6681 24.5524 57.571 34.9309 51.8749 44.4434C51.8622 44.4905 51.8653 44.5405 51.8834 44.5859C51.9016 44.6312 51.934 44.6694 51.9758 44.6949C52.0175 44.7203 52.0664 44.7316 52.1152 44.7271C52.1639 44.7226 52.2098 44.7025 52.2462 44.6698C57.9566 35.1061 62.0736 24.6812 64.4366 13.8017C64.4779 13.5548 64.0653 13.4313 64.0034 13.7194Z" fill="#5E9D5E" stroke="#5E9D5E"/>
<path d="M87.1679 43.8672L100.06 49.1765L101.504 49.7733L101.174 50.1849C101.009 50.4112 101.38 50.617 101.545 50.4112L101.916 49.9379L103.257 50.4935L103.071 50.6787C102.886 50.8845 103.174 51.1932 103.381 50.9874L103.69 50.6787L105.753 51.5225L105.299 52.0781C105.134 52.2839 105.443 52.5926 105.608 52.3868L106.165 51.6871L108.372 52.5925C109.239 52.9424 110.435 53.5392 111.673 53.9919C111.711 54.0296 111.763 54.0507 111.817 54.0507C111.871 54.0507 111.923 54.0296 111.961 53.9919C112.738 54.3214 113.572 54.4961 114.416 54.5064C116.025 54.5064 115.736 52.6543 115.922 51.2344C116.541 46.9952 117.159 42.7354 117.696 38.4756C118.424 32.5901 119.236 26.7114 120.13 20.8397C120.13 20.4692 119.903 20.0371 119.47 20.1811L112.786 22.3831C107.849 12.8559 99.3341 5.66464 89.1005 2.37964C78.8669 -0.90537 67.7461 -0.0172548 58.1666 4.85004C58.0651 4.89143 57.9832 4.96965 57.9372 5.06894C57.8913 5.16823 57.8848 5.2812 57.9191 5.38508C57.818 5.43081 57.7323 5.50463 57.6722 5.59769C57.6121 5.69075 57.5801 5.79913 57.5801 5.90984C57.5801 6.02056 57.6121 6.12894 57.6722 6.222C57.7323 6.31506 57.818 6.38885 57.9191 6.43458C60.6225 7.56201 63.2539 8.85405 65.7985 10.3034C65.8245 10.3147 65.8527 10.3206 65.881 10.3206C65.9094 10.3206 65.9375 10.3147 65.9635 10.3034L67.263 11.0648C67.2675 11.0943 67.2784 11.1226 67.295 11.1475C67.3115 11.1724 67.3333 11.1935 67.3588 11.2091C67.3844 11.2248 67.413 11.2347 67.4428 11.2382C67.4726 11.2417 67.5027 11.2387 67.5312 11.2294C69.037 12.1349 70.5221 13.1227 71.966 14.1516L71.5947 14.7072C71.582 14.7544 71.5851 14.8044 71.6033 14.8497C71.6214 14.895 71.6538 14.9332 71.6956 14.9587C71.7374 14.9842 71.7862 14.9955 71.835 14.991C71.8837 14.9865 71.9296 14.9663 71.966 14.9336C72.0691 14.7484 72.1929 14.5838 72.3166 14.3986L73.7605 15.4892L73.4305 15.9214C73.2655 16.1477 73.6367 16.3535 73.8017 16.1477L74.0905 15.7567C76.506 17.6113 78.7938 19.6258 80.9386 21.7863V21.9303C80.753 22.1361 81.0624 22.4448 81.2274 22.239L81.3512 22.095C81.805 22.5477 82.2381 23.021 82.6919 23.4943L82.3619 23.8647C82.1762 24.0705 82.3619 24.3792 82.6506 24.1734L82.9807 23.8236C84.7997 25.7792 86.501 27.8407 88.0755 29.9972L87.7867 30.3059C87.7678 30.3261 87.753 30.3499 87.7433 30.3759C87.7335 30.4018 87.729 30.4295 87.73 30.4572C87.7309 30.4849 87.7373 30.5122 87.7488 30.5374C87.7604 30.5626 87.7767 30.5853 87.7971 30.6042C87.8174 30.6231 87.8412 30.6379 87.8673 30.6476C87.8933 30.6573 87.921 30.6619 87.9487 30.6609C87.9765 30.66 88.0038 30.6535 88.0291 30.642C88.0544 30.6305 88.0772 30.6143 88.0961 30.594L88.323 30.347C89.1687 31.52 89.9732 32.7135 90.757 33.9483C90.7475 33.9739 90.7438 34.0014 90.7462 34.0286C90.7486 34.0558 90.757 34.0822 90.7708 34.1058C90.7846 34.1294 90.8035 34.1496 90.8261 34.1651C90.8486 34.1805 90.8743 34.1909 90.9014 34.1953C91.2314 34.7097 91.5614 35.2242 91.8708 35.7592C91.9248 35.8484 92.0036 35.9199 92.0977 35.965C89.6999 38.2731 86.9322 40.165 83.9089 41.5624C83.4345 41.7682 83.6614 42.3856 84.0327 42.5502L87.0029 43.7643C87.0159 43.7967 87.0389 43.8241 87.0686 43.8426C87.0983 43.8611 87.133 43.8697 87.1679 43.8672ZM114.911 54.1565L113.116 53.4157C113.935 52.8236 114.634 52.0838 115.179 51.2344C115.055 52.2016 115.055 53.1687 114.911 54.1359V54.1565ZM93.0879 36.7264C93.159 36.6595 93.2096 36.5738 93.2339 36.4793C93.2581 36.3848 93.2549 36.2854 93.2246 36.1927C93.1943 36.0999 93.1383 36.0176 93.0629 35.9555C92.9876 35.8933 92.8961 35.8538 92.7991 35.8415C92.8384 35.7282 92.8384 35.605 92.7991 35.4917L92.6341 35.2242C95.4913 32.8094 98.0904 30.106 100.39 27.1573C100.555 26.931 100.245 26.6223 100.08 26.8487C97.7952 29.7901 95.2098 32.4867 92.3659 34.8949L91.7058 33.8248L98.2652 27.1779C98.4714 26.9927 98.2652 26.684 97.9558 26.8898L91.4583 33.3309L90.2001 31.4377L98.2446 23.3297C98.4508 23.1445 98.2445 22.8358 97.9351 23.021L89.9526 31.0879C89.6432 30.6351 89.3337 30.2029 89.0037 29.7708L94.7792 23.5972C94.8175 23.5563 94.838 23.5019 94.836 23.4459C94.8341 23.3899 94.8099 23.337 94.7689 23.2988C94.7279 23.2606 94.6733 23.2402 94.6172 23.2422C94.5612 23.2441 94.5081 23.2682 94.4698 23.3091L88.7562 29.3798L88.1374 28.5361C89.8907 26.3548 91.644 24.1529 93.4179 21.9715C93.5829 21.7452 93.2735 21.457 93.1085 21.6628L87.8693 28.1863L87.0648 27.1779L92.8197 20.8397C93.0053 20.6339 92.6959 20.3458 92.5103 20.5516L86.7967 26.8487C86.3016 26.2313 85.7859 25.6139 85.2703 25.0171C87.6067 23.0486 89.6305 20.7382 91.2727 18.1645C91.4377 17.9175 91.0664 17.7117 90.9014 17.9381C89.2878 20.4722 87.2988 22.7479 85.0021 24.6879L83.6408 23.1651L90.3857 15.7567C90.5714 15.5509 90.3857 15.2423 90.0969 15.4481L83.3313 22.8564C82.8775 22.3625 82.4238 21.8892 81.9493 21.4159L88.2818 13.6371C88.4468 13.4313 88.158 13.1227 87.9724 13.3285L81.6606 21.1072L80.3198 19.7902L87.993 10.4063C88.158 10.2005 87.8692 9.89183 87.6836 10.0976C85.1259 13.253 82.5613 16.3878 79.9898 19.5021L78.4428 18.0821L83.1457 12.814C83.3313 12.6082 83.022 12.2995 82.8363 12.5053L78.1334 17.7941L76.5864 16.4976L81.9081 9.95355C82.0731 9.72718 81.7843 9.43909 81.5987 9.64488L76.2563 16.2301L74.7712 15.0571L80.0104 8.24551C80.1754 8.03973 79.8042 7.81338 79.6391 8.03975L74.4412 14.8101C73.9461 14.4191 73.4305 14.0487 72.9148 13.6783C74.7873 10.9194 76.8993 8.33029 79.2266 5.94071C79.4329 5.7555 79.2266 5.44682 78.9172 5.65261C76.578 8.05186 74.4588 10.6552 72.5848 13.4314L71.3059 12.5259L76.4214 5.50855C76.5864 5.28218 76.2151 5.07639 76.0501 5.28218L70.9552 12.2995L69.9239 11.6204L73.8017 6.08475C73.9461 5.85838 73.5749 5.65259 73.4305 5.85838L69.6764 11.4558L68.3356 10.6121L72.791 4.85004C72.9767 4.64426 72.6673 4.33556 72.5022 4.54135L67.9643 10.3857L66.6855 9.62428C67.7184 7.73861 69.0805 6.05212 70.7077 4.64424C70.914 4.45904 70.7077 4.17095 70.4189 4.33558C68.7403 5.76048 67.3414 7.48402 66.2936 9.41851L64.4372 8.41015C65.1973 6.86785 66.2889 5.51178 67.6343 4.43848C67.8406 4.27385 67.6343 3.96517 67.3249 4.15038C65.9421 5.26028 64.8281 6.66712 64.0659 8.26611C64.0562 8.28891 64.0513 8.31337 64.0513 8.33811C64.0513 8.36286 64.0562 8.38735 64.0659 8.41015L62.1063 7.42238L63.9009 5.61145C64.1071 5.40566 63.9009 5.11757 63.5915 5.30278L61.6938 7.21658L58.8679 5.94071C68.1782 1.2753 78.9552 0.453865 88.8678 3.65409C98.7805 6.85432 107.032 13.8189 111.838 23.0416C111.673 23.4326 111.941 23.9676 112.436 23.803L118.975 21.7451C117.503 31.2525 116.279 40.7941 115.303 50.3701C114.694 51.5863 113.777 52.6222 112.642 53.3745L109.569 52.0987C111.363 50.2076 112.959 48.139 114.333 45.9251C114.478 45.6987 114.107 45.4929 113.962 45.7193C112.566 47.9344 110.949 50.0028 109.136 51.8929L106.867 50.9463L111.693 44.9373C111.858 44.7315 111.569 44.4228 111.384 44.6286C109.734 46.6865 108.084 48.7443 106.454 50.8022L104.391 49.9997C106.823 47.4646 109.012 44.7089 110.93 41.7682C111.074 41.5418 110.703 41.336 110.559 41.5624C108.671 44.4588 106.516 47.1732 104.123 49.6704L102.659 49.0736L108.269 41.7887C108.434 41.5829 108.063 41.3566 107.898 41.583C106 44.0113 104.116 46.4533 102.246 48.909L99.6059 47.8183L106.908 39.7309C107.093 39.5251 106.805 39.2164 106.619 39.4222L99.1934 47.6537L96.6769 46.6042L104.598 36.6441C104.763 36.4177 104.474 36.1296 104.288 36.3354C101.62 39.7103 98.9459 43.0784 96.2644 46.4395L88.2612 43.1469C91.8931 40.4524 95.1649 37.3059 97.997 33.7837C98.162 33.5573 97.8733 33.2486 97.6876 33.475C94.821 37.0589 91.4918 40.2488 87.7867 42.9617L85.559 42.0357C88.3217 40.6447 90.8595 38.8481 93.0879 36.7059V36.7264Z" fill="#5E9D5E" stroke="#5E9D5E"/>
<path d="M91.8911 44.0732L103.112 32.7961C103.132 32.7772 103.149 32.7545 103.16 32.7292C103.172 32.704 103.178 32.6768 103.179 32.6491C103.18 32.6214 103.176 32.5937 103.166 32.5678C103.156 32.5418 103.141 32.518 103.122 32.4977C103.103 32.4775 103.081 32.4611 103.055 32.4496C103.03 32.4381 103.003 32.4317 102.975 32.4308C102.947 32.4298 102.92 32.4343 102.894 32.444C102.868 32.4538 102.844 32.4685 102.823 32.4874C99.0693 36.2533 95.3152 39.9987 91.5817 43.7646C91.3754 43.9704 91.6848 44.2585 91.8911 44.0732Z" fill="#5E9D5E" stroke="#5E9D5E"/>
<path d="M101.647 36.4175C99.1658 39.205 96.5282 41.8502 93.7471 44.3403C93.5615 44.5255 93.8503 44.8342 94.0565 44.6489C96.8327 42.1537 99.4699 39.5088 101.957 36.7261C102.142 36.5204 101.833 36.2117 101.647 36.4175Z" fill="#5E9D5E" stroke="#5E9D5E"/>
<path d="M121.574 123.877C125.547 119.204 129.069 114.167 132.094 108.834C132.238 108.608 131.867 108.381 131.723 108.628C128.695 113.885 125.187 118.852 121.244 123.466C121.1 123.671 121.409 123.98 121.574 123.877Z" fill="#5E9D5E" stroke="#5E9D5E"/>
<path d="M114.272 124.742L123.967 112.168C124.132 111.942 123.76 111.736 123.595 111.942C120.378 116.057 117.139 120.317 113.901 124.515C113.736 124.742 114.107 124.947 114.272 124.742Z" fill="#5E9D5E" stroke="#5E9D5E"/>
<path d="M132.464 120.049L141.498 104.471C141.511 104.424 141.508 104.374 141.49 104.329C141.472 104.283 141.439 104.245 141.397 104.22C141.356 104.194 141.307 104.183 141.258 104.188C141.209 104.192 141.163 104.212 141.127 104.245L132.092 119.761C132.074 119.786 132.06 119.813 132.051 119.843C132.043 119.873 132.041 119.904 132.045 119.934C132.049 119.965 132.058 119.994 132.074 120.021C132.089 120.048 132.109 120.072 132.134 120.09C132.158 120.109 132.186 120.123 132.216 120.131C132.246 120.14 132.277 120.142 132.307 120.138C132.338 120.134 132.368 120.124 132.394 120.109C132.421 120.094 132.445 120.074 132.464 120.049Z" fill="#5E9D5E" stroke="#5E9D5E"/>
<path d="M144.511 99.1826C144.557 99.1682 144.597 99.1395 144.626 99.1007C144.655 99.0618 144.67 99.0148 144.67 98.9665C144.67 98.9183 144.655 98.8713 144.626 98.8324C144.597 98.7936 144.557 98.7649 144.511 98.7505C144.465 98.7649 144.424 98.7936 144.396 98.8324C144.367 98.8713 144.352 98.9183 144.352 98.9665C144.352 99.0148 144.367 99.0618 144.396 99.1007C144.424 99.1395 144.465 99.1682 144.511 99.1826Z" fill="#5E9D5E" stroke="#5E9D5E"/>
<path d="M138.55 113.835C140.776 109.505 142.652 105.004 144.16 100.376C144.177 100.322 144.171 100.263 144.143 100.213C144.116 100.162 144.07 100.125 144.016 100.109C143.961 100.092 143.902 100.098 143.852 100.125C143.801 100.152 143.764 100.198 143.748 100.253C142.248 104.844 140.386 109.31 138.178 113.608C138.055 113.855 138.405 114.082 138.55 113.835Z" fill="#5E9D5E" stroke="#5E9D5E"/>
<path d="M142.572 110.336C145.089 105.363 147.06 100.133 148.451 94.7375C148.436 94.6914 148.407 94.6512 148.368 94.6226C148.329 94.5941 148.282 94.5786 148.234 94.5786C148.186 94.5786 148.139 94.5941 148.1 94.6226C148.061 94.6512 148.032 94.6914 148.017 94.7375C146.653 100.1 144.702 105.296 142.201 110.233C142.077 110.377 142.448 110.583 142.572 110.336Z" fill="#5E9D5E" stroke="#5E9D5E"/>
<path d="M146.821 105.788C149.041 101.4 150.439 96.6436 150.946 91.7539C150.946 91.4863 150.554 91.4863 150.513 91.7539C150.039 96.5651 148.676 101.247 146.491 105.562C146.326 105.809 146.697 106.035 146.821 105.788Z" fill="#5E9D5E" stroke="#5E9D5E"/>
<path d="M123.306 75.7436C126.937 67.0182 130.842 58.4095 135.022 49.9174C135.146 49.6704 134.775 49.4646 134.651 49.7116C130.526 58.2037 126.607 66.8468 122.894 75.6407C122.729 75.8877 123.141 75.9905 123.306 75.7436Z" fill="#5E9D5E" stroke="#5E9D5E"/>
<path d="M125.533 77.0814L139.209 47.3658C139.333 47.1189 138.961 46.8925 138.858 47.1394C134.279 57.0583 129.714 66.9704 125.162 76.8756C125.038 77.1226 125.368 77.3284 125.533 77.0814Z" fill="#5E9D5E" stroke="#5E9D5E"/>
<path d="M128.588 78.2132C133.959 68.7195 138.407 58.7344 141.871 48.3948C141.888 48.3402 141.882 48.2813 141.855 48.2312C141.827 48.181 141.782 48.1436 141.727 48.1272C141.672 48.1108 141.613 48.1168 141.563 48.1439C141.513 48.1709 141.475 48.2167 141.459 48.2713C137.997 58.5754 133.555 68.5259 128.196 77.9869C128.092 78.2338 128.464 78.4396 128.588 78.2132Z" fill="#5E9D5E" stroke="#5E9D5E"/>
<path d="M130.154 88.3583C135.893 77.4263 140.942 66.1479 145.273 54.5887C145.273 54.3418 144.964 54.2389 144.861 54.4858C140.531 66.0056 135.495 77.2491 129.783 88.1526C129.659 88.3789 130.03 88.6053 130.154 88.3583Z" fill="#5E9D5E" stroke="#5E9D5E"/>
<path d="M133.351 89.408C138.858 79.5407 143.489 69.212 147.192 58.54C147.192 58.293 146.862 58.1696 146.779 58.4371C143.081 69.045 138.464 79.3113 132.98 89.1199C132.836 89.4286 133.207 89.6549 133.351 89.408Z" fill="#5E9D5E" stroke="#5E9D5E"/>
<path d="M137.745 86.5888C141.293 79.0021 144.847 71.4085 148.409 63.8082C148.409 63.5612 148.141 63.3349 148.038 63.5818C144.476 71.1822 140.921 78.7826 137.374 86.383C137.147 86.6299 137.518 86.8357 137.745 86.5888Z" fill="#5E9D5E" stroke="#5E9D5E"/>
<path d="M140.385 86.9798C142.914 80.7705 145.956 74.782 149.481 69.0763C149.625 68.8499 149.254 68.6235 149.11 68.8705C145.563 74.5992 142.506 80.6158 139.972 86.8563C139.807 87.1238 140.281 87.2267 140.385 86.9798Z" fill="#5E9D5E" stroke="#5E9D5E"/>
<path d="M149.132 71.8133L143.335 83.9135C143.212 84.1604 143.583 84.3868 143.707 84.1399L149.503 72.0396C149.606 71.7927 149.255 71.5663 149.132 71.8133Z" fill="#5E9D5E" stroke="#5E9D5E"/>
<path d="M148.058 77.9866L145.996 82.2669C145.872 82.5139 146.243 82.7403 146.367 82.4933L148.43 78.2129C148.574 77.966 148.203 77.7397 148.058 77.9866Z" fill="#5E9D5E" stroke="#5E9D5E"/>
</g>
<defs>
<clipPath id="clip0_662_420">
<rect width="154" height="133" fill="white" transform="translate(0 0.52832)"/>
</clipPath>
</defs>
</svg>
